<svg id="图层_2" data-name="图层 2" xmlns="http://www.w3.org/2000/svg" viewBox="0 0 85 100"><defs><style>.cls-1{fill:#d6c298;}.cls-1,.cls-3,.cls-6,.cls-7,.cls-8{stroke:#000;stroke-linecap:round;stroke-linejoin:round;}.cls-1,.cls-3,.cls-7,.cls-8{stroke-width:0.72px;}.cls-2{fill:#f5cfcd;}.cls-3{fill:#ab8479;}.cls-4{fill:#413a35;}.cls-5,.cls-8{fill:#fff;}.cls-6{fill:none;stroke-width:1.08px;}.cls-7{fill:#db9d9a;}</style></defs><path class="cls-1" d="M41.93,88.92s.69,8.45,1.35,9.29,12.32.25,13.56-.57,1.19-13,1.19-13"/><path class="cls-1" d="M59.62,54.65c4.6,9.54,4.64,23.25-2.28,31.43-7.76,9.17-27.2,8.17-34.31-1.86s-2.55-17.32-.24-21.46c2.44-4.38,6.08-12.21,6.08-12.21"/><path class="cls-1" d="M28.54,66.58A102.68,102.68,0,0,0,35.09,77c1.08,1,1.41-.47,1.41-.47a5,5,0,0,0,2.19.76c.8-.08.56-2.49.56-2.49s2.07,1.25,3,.67C42.84,75,42,73,42,73s2.22-.54,2.63-1.23S42.67,70,42.67,70s-6.86-10.18-8.32-11.81"/><path class="cls-1" d="M23,82.42s-4.4,8.73-4.25,9.78S28.46,98.5,30,98.4s5.83-7.57,5.83-7.57"/><path class="cls-1" d="M51,12c3-5.78,8.67-9.6,15.07-9.41,9.22.29,16.43,8.81,16.11,19a19,19,0,0,1-8.44,15.52,8.82,8.82,0,0,1,2.46,6.49c-.14,4.65-3.66,8.32-7.86,8.19A7.67,7.67,0,0,1,61.4,46.2"/><path class="cls-2" d="M56.24,11.71c3.72,4.71,7.68,7.48,9.13,19.94C66.49,41.35,63,45.51,63,45.51s3.47,4.09,6.81,1.31c4-3.32-.06-8.66-.06-8.66a28.68,28.68,0,0,0,7.67-13.09c2.42-8.58-2-14.95-6.64-16.84C62.41,4.83,56.24,11.71,56.24,11.71Z"/><path class="cls-1" d="M31.37,9A29.43,29.43,0,0,1,49.52,4.76c13.08,1.15,21,14,21.86,26.14a26.81,26.81,0,0,1-5.17,18.46c-4.15,5.3-11.12,8-17.71,8.17-9.68.34-21.33-2.48-25.86-11.83"/><path class="cls-1" d="M33.61,9.73C30.15,4,24,.44,17.46,1.08,8,2,1.15,11.27,2.17,21.77a19.64,19.64,0,0,0,9.75,15.4A9.06,9.06,0,0,0,9.83,44c.47,4.79,4.34,8.32,8.66,7.9a7.92,7.92,0,0,0,6.75-6.28"/><path class="cls-3" d="M44.11,3.14C44.84,1,46.28.26,47.72.62a3,3,0,0,1,2.52,2.89s1.09-1.44,2.17-.71A2.11,2.11,0,0,1,53.13,5s3.61-1.07,4.68,1.46-4.33,2.15-4.33,2.15a2,2,0,0,1-1.81,1.8,5.11,5.11,0,0,1-3.61-1.09A1.57,1.57,0,0,1,47,10.72c-1.08.36-2.16-.73-2.16-.73a4.6,4.6,0,0,1-2.75.79,2.1,2.1,0,0,1-1.94-1.52s-2.89.71-4.33-.37C34,7.52,36.53,6,36.53,6s-.36-1.8.73-2.52,3.6.37,3.6.37A1.59,1.59,0,0,1,42,2.41C43,2.05,44.11,3.14,44.11,3.14Z"/><ellipse class="cls-4" cx="42.74" cy="29.86" rx="4.24" ry="4.79" transform="translate(-2.7 4.3) rotate(-5.59)"/><circle class="cls-5" cx="44.89" cy="28.33" r="0.9"/><path class="cls-6" d="M41.32,21.77a2.21,2.21,0,0,1,2.91-.11"/><ellipse class="cls-4" cx="64.86" cy="27.37" rx="3.99" ry="4.46" transform="translate(-2.36 6.44) rotate(-5.59)"/><circle class="cls-5" cx="66.79" cy="26.19" r="0.9"/><path class="cls-6" d="M64.67,19.48a2.22,2.22,0,0,0-2.87.46"/><path class="cls-7" d="M59,41.67s-1.57,2.77-3.25,3.51c-2.08.93-5.78.21-6.45-3a6.13,6.13,0,0,1,2-6,2.14,2.14,0,0,1,2.31.18"/><path class="cls-1" d="M57.23,27c3.58.64,5.76,3.43,8.17,6s6.12,2.9,9.33,2a16.06,16.06,0,0,0,4.21-2.08.23.23,0,0,1-.09-.11,2.06,2.06,0,0,1,3.91-1.29,2.45,2.45,0,0,1,.11,1.2,2,2,0,0,1,.37,3.8,2.1,2.1,0,0,1-2.2-.61.43.43,0,0,1-.09-.15c-3.85,3.52-7,7-12.55,7.89-6.47,1.05-11.43-3-15.51-7.73"/><path class="cls-8" d="M53.11,35.65s3.06-.61,3.49-.34-.72,2.88-1.16,3"/><path class="cls-2" d="M28,9.84c-3.42,4.93-7.2,8-7.85,20.47C19.65,40.07,23.38,44,23.38,44s-3.21,4.3-6.72,1.74c-4.21-3.06-.48-8.65-.48-8.65A28.63,28.63,0,0,1,7.7,24.51c-3-8.4,1-15,5.56-17.22C21.42,3.36,28,9.84,28,9.84Z"/></svg>