<svg id="图层_2" data-name="图层 2" xmlns="http://www.w3.org/2000/svg" viewBox="0 0 85 100"><defs><style>.cls-1,.cls-2{fill:#d6c298;}.cls-1,.cls-10,.cls-3,.cls-5,.cls-8,.cls-9{stroke:#000;stroke-linecap:round;stroke-linejoin:round;}.cls-1,.cls-10,.cls-3,.cls-5,.cls-9{stroke-width:0.72px;}.cls-3,.cls-8{fill:none;}.cls-4{fill:#f5cfcd;}.cls-5{fill:#ab8479;}.cls-6{fill:#413a35;}.cls-10,.cls-7{fill:#fff;}.cls-8{stroke-width:1.08px;}.cls-9{fill:#db9d9a;}</style></defs><g id="_1" data-name="1"><path class="cls-1" d="M50.26,54.71C48,57,50,60.07,52.36,62.86a99.58,99.58,0,0,0,8.73,8.61c1.28.76,1.27-.77,1.27-.77a5,5,0,0,0,2.3.24c.76-.26,0-2.55,0-2.55s2.3.75,3.06,0c.51-.52-.78-2.29-.78-2.29s1.66-.6,1.91-1.36S66.9,63,66.9,63s-9-8.35-10.79-9.61S52,52.92,50.26,54.71Z"/><path class="cls-1" d="M23,77.08s-7.28,4.36-7.74,5.31S19.8,93,21.09,93.78,32,90.51,32,90.51"/><path class="cls-2" d="M59.25,54.44c2.42,5,6.69,19.53-1.07,28.7l-1.09-.7s5.89,6.1,6.09,7.14-8.3,9.14-9.74,9.53-8.78-6.32-8.78-6.32-17.09,1.14-23.27-8.93c-6.33-10.34-1.66-18.24.65-22.38,2.44-4.38,6.63-11.68,6.63-11.68"/><path class="cls-3" d="M57.09,82.44s5.89,6.1,6.09,7.14-8.3,9.14-9.74,9.53-8.78-6.32-8.78-6.32-17.09,1.14-23.27-8.93c-6.33-10.34-1.66-18.24.65-22.38,2.44-4.38,6.63-11.68,6.63-11.68"/><path class="cls-3" d="M59.25,54.44c2.42,5,6.69,19.53-1.07,28.7"/><path class="cls-1" d="M31.18,55.73c-.59-3.19-4.27-3.25-7.88-2.95A102.48,102.48,0,0,0,11.24,55c-1.36.62-.1,1.48-.1,1.48a5.07,5.07,0,0,0-1.51,1.75c-.22.77,2.1,1.45,2.1,1.45S9.8,61.13,10,62.2c.13.71,2.33.67,2.33.67s-.32,2.26.17,2.9,2.35-1.16,2.35-1.16,12-2.57,14.06-3.32S31.64,58.22,31.18,55.73Z"/><path class="cls-1" d="M49.91,12.19c3-5.78,8.67-9.61,15.07-9.41,9.22.29,16.43,8.81,16.11,19a19,19,0,0,1-8.44,15.52,8.79,8.79,0,0,1,2.46,6.48c-.14,4.66-3.66,8.33-7.86,8.2a7.69,7.69,0,0,1-6.93-5.64"/><path class="cls-4" d="M55.16,11.87c3.72,4.71,7.68,7.49,9.13,19.94,1.12,9.7-2.35,13.86-2.35,13.86s3.47,4.09,6.81,1.32c4-3.32-.06-8.66-.06-8.66a28.68,28.68,0,0,0,7.67-13.1c2.42-8.57-2-14.94-6.64-16.83C61.33,5,55.16,11.87,55.16,11.87Z"/><path class="cls-1" d="M30.29,9.13A29.57,29.57,0,0,1,48.44,4.92C61.52,6.08,69.41,19,70.3,31.07a26.81,26.81,0,0,1-5.17,18.46C61,54.83,54,57.47,47.42,57.7c-9.68.34-21.33-2.49-25.86-11.83"/><path class="cls-1" d="M32.53,9.9C29.07,4.16,23,.61,16.38,1.25,6.91,2.18.07,11.44,1.09,21.94a19.64,19.64,0,0,0,9.75,15.4,9.06,9.06,0,0,0-2.09,6.84c.47,4.78,4.34,8.32,8.66,7.9a8,8,0,0,0,6.75-6.28"/><path class="cls-5" d="M43,3.3C43.76,1.14,45.2.42,46.64.79a3,3,0,0,1,2.52,2.89S50.25,2.24,51.33,3a2.12,2.12,0,0,1,.72,2.17s3.61-1.07,4.68,1.45S52.4,8.74,52.4,8.74a2,2,0,0,1-1.81,1.8A5.14,5.14,0,0,1,47,9.45a1.57,1.57,0,0,1-1.08,1.44c-1.08.36-2.16-.73-2.16-.73A4.6,4.6,0,0,1,41,11a2.1,2.1,0,0,1-1.94-1.52s-2.89.71-4.33-.37c-1.82-1.38.73-2.89.73-2.89s-.36-1.8.73-2.52,3.6.37,3.6.37a1.59,1.59,0,0,1,1.09-1.44C42,2.22,43,3.3,43,3.3Z"/><ellipse class="cls-6" cx="41.66" cy="30.03" rx="4.24" ry="4.79" transform="translate(-2.72 4.2) rotate(-5.59)"/><circle class="cls-7" cx="43.81" cy="28.5" r="0.9"/><path class="cls-8" d="M40.24,21.93a2.22,2.22,0,0,1,2.91-.1"/><ellipse class="cls-6" cx="63.78" cy="27.53" rx="3.99" ry="4.46" transform="translate(-2.38 6.34) rotate(-5.59)"/><circle class="cls-7" cx="65.71" cy="26.36" r="0.9"/><path class="cls-8" d="M63.59,19.65a2.22,2.22,0,0,0-2.87.46"/><path class="cls-9" d="M57.66,42.52a8.47,8.47,0,0,1-3,2.83c-2.08.93-5.78.2-6.45-3a6.13,6.13,0,0,1,2-6,2.14,2.14,0,0,1,2.31.18"/><path class="cls-1" d="M56.24,27.12C58.7,27.2,62.73,31,65,33.94s6.78,4.66,10,4A7.09,7.09,0,0,0,78.54,36l-.09-.11a2,2,0,1,1,3.78-.27,2,2,0,0,1,1.64,1.25A2,2,0,0,1,80.6,39l-.11-.17c-1.31,2.12-6.58,6.7-13.29,6.74-7.79,0-13.2-7-15.27-9.75"/><path class="cls-10" d="M52.29,35.8s2.8-.6,3.23-.32-.72,2.87-1.16,3"/><path class="cls-4" d="M26.93,10c-3.42,4.93-7.2,8-7.85,20.47-.51,9.76,3.22,13.69,3.22,13.69s-3.21,4.3-6.72,1.74c-4.21-3.06-.48-8.65-.48-8.65A28.63,28.63,0,0,1,6.62,24.68c-3-8.41,1-15,5.56-17.22C20.34,3.53,26.93,10,26.93,10Z"/></g></svg>