<svg id="图层_2" data-name="图层 2" xmlns="http://www.w3.org/2000/svg" viewBox="0 0 85 100"><defs><style>.cls-1{fill:#d6c298;}.cls-1,.cls-3,.cls-6,.cls-7,.cls-8{stroke:#000;stroke-linecap:round;stroke-linejoin:round;}.cls-1,.cls-3,.cls-7,.cls-8{stroke-width:0.72px;}.cls-2{fill:#f5cfcd;}.cls-3{fill:#ab8479;}.cls-4{fill:#413a35;}.cls-5,.cls-8{fill:#fff;}.cls-6{fill:none;stroke-width:1.08px;}.cls-7{fill:#db9d9a;}</style></defs><path class="cls-1" d="M50.05,54.64C47.77,57,49.83,60,52.14,62.79a100.87,100.87,0,0,0,8.74,8.61c1.28.76,1.27-.77,1.27-.77a5,5,0,0,0,2.3.24c.76-.26,0-2.55,0-2.55s2.3.75,3.06,0c.51-.51-.78-2.29-.78-2.29s1.66-.59,1.91-1.36-1.93-1.7-1.93-1.7-9-8.35-10.79-9.61S51.82,52.85,50.05,54.64Z"/><path class="cls-1" d="M22.77,77S15.49,81.37,15,82.32,19.59,93,20.88,93.71s10.9-3.27,10.9-3.27"/><path class="cls-1" d="M59.45,54.14c2.42,5,6.69,19.54-1.07,28.71a53,53,0,0,1-5.84,5.76c-5,4-7.67,3.88-7.87,3.89-1.89.09-17.29.51-23.08-8.94-6.33-10.34-1.66-18.23.65-22.38,2.44-4.38,6.63-11.68,6.63-11.68l2.57-.56A36.54,36.54,0,0,1,59.45,54.14Z"/><path class="cls-1" d="M57.28,82.15s5.9,6.09,6.1,7.13-8.3,9.15-9.74,9.54-10.1-7.21-10.1-7.21"/><path class="cls-1" d="M31,55.66c-.59-3.19-4.27-3.25-7.88-2.95A100.43,100.43,0,0,0,11,54.93c-1.36.61-.1,1.48-.1,1.48s-1.29,1-1.51,1.75,2.1,1.45,2.1,1.45-1.93,1.45-1.74,2.52c.13.71,2.33.67,2.33.67s-.32,2.26.16,2.9,2.36-1.16,2.36-1.16,12-2.58,14.06-3.32S31.43,58.15,31,55.66Z"/><path class="cls-1" d="M49.7,12.11c3-5.78,8.67-9.6,15.07-9.4C74,3,81.2,11.52,80.88,21.74a19,19,0,0,1-8.44,15.52,8.79,8.79,0,0,1,2.46,6.48c-.14,4.66-3.66,8.33-7.86,8.19a7.66,7.66,0,0,1-6.93-5.63"/><path class="cls-2" d="M55,11.8c3.72,4.71,7.68,7.48,9.13,19.94,1.12,9.7-2.35,13.86-2.35,13.86s3.47,4.09,6.81,1.32c4-3.32-.06-8.66-.06-8.66a28.68,28.68,0,0,0,7.67-13.1c2.42-8.57-2-14.94-6.64-16.83C61.12,4.92,55,11.8,55,11.8Z"/><path class="cls-1" d="M30.08,9.06A29.43,29.43,0,0,1,48.23,4.85C61.31,6,69.2,18.9,70.09,31a26.79,26.79,0,0,1-5.17,18.45c-4.15,5.31-11.13,7.95-17.71,8.18C37.53,58,25.88,55.14,21.35,45.8"/><path class="cls-1" d="M32.32,9.83C28.86,4.08,22.74.54,16.17,1.18,6.7,2.1-.15,11.37.88,21.87a19.6,19.6,0,0,0,9.75,15.39,9.1,9.1,0,0,0-2.09,6.85C9,48.89,12.88,52.43,17.2,52A8,8,0,0,0,24,45.73"/><path class="cls-3" d="M42.82,3.23C43.55,1.07,45,.35,46.43.72A3,3,0,0,1,49,3.61S50,2.17,51.12,2.89a2.11,2.11,0,0,1,.71,2.17S55.44,4,56.52,6.51s-4.33,2.16-4.33,2.16a2,2,0,0,1-1.81,1.8,5.14,5.14,0,0,1-3.61-1.09,1.57,1.57,0,0,1-1.08,1.44c-1.08.35-2.16-.73-2.16-.73a4.68,4.68,0,0,1-2.75.79,2.09,2.09,0,0,1-1.94-1.52S36,10.07,34.51,9c-1.82-1.38.73-2.89.73-2.89s-.36-1.8.73-2.52,3.6.37,3.6.37a1.57,1.57,0,0,1,1.09-1.44C41.74,2.15,42.82,3.23,42.82,3.23Z"/><ellipse class="cls-4" cx="41.45" cy="29.96" rx="4.24" ry="4.79" transform="translate(-2.72 4.18) rotate(-5.59)"/><circle class="cls-5" cx="43.6" cy="28.43" r="0.9"/><path class="cls-6" d="M40,21.86a2.21,2.21,0,0,1,2.9-.1"/><ellipse class="cls-4" cx="63.57" cy="27.46" rx="3.99" ry="4.46" transform="translate(-2.37 6.32) rotate(-5.59)"/><circle class="cls-5" cx="65.5" cy="26.29" r="0.9"/><path class="cls-6" d="M63.38,19.58a2.22,2.22,0,0,0-2.87.46"/><path class="cls-7" d="M57.45,42.45a8.47,8.47,0,0,1-3,2.83c-2.08.93-5.78.2-6.45-3a6.13,6.13,0,0,1,2-6,2.14,2.14,0,0,1,2.31.18"/><path class="cls-1" d="M56,27c2.45.09,6.49,3.89,8.75,6.82s6.78,4.67,10,4A7.16,7.16,0,0,0,78.33,36l-.09-.11A2,2,0,1,1,82,35.59a2,2,0,0,1,1.64,1.25,2,2,0,0,1-3.27,2.1l-.11-.17C79,40.89,73.7,45.47,67,45.5c-7.79,0-13.2-7-15.27-9.74"/><path class="cls-8" d="M52.08,35.73s2.8-.6,3.23-.32-.72,2.87-1.16,3"/><path class="cls-2" d="M26.72,9.93c-3.42,4.94-7.2,8-7.85,20.48-.51,9.75,3.22,13.69,3.22,13.69s-3.21,4.3-6.72,1.74c-4.21-3.06-.48-8.65-.48-8.65A28.63,28.63,0,0,1,6.41,24.61c-3-8.41,1-15,5.56-17.22C20.13,3.46,26.72,9.93,26.72,9.93Z"/></svg>