<?xml version="1.0" encoding="UTF-8"?>
<svg id="_图层_1" data-name="图层 1" xmlns="http://www.w3.org/2000/svg" viewBox="0 0 40 40" width="40px">
  <rect x="25.29" y="10.26" width="1.4" height="7.51" transform="translate(40.01 -11.97) rotate(90)"/>
  <rect x="25.88" y="9.45" width=".23" height="7.51" transform="translate(39.2 -12.79) rotate(90)" style="fill: #281f18;"/>
  <rect x="28.76" y="-.94" width=".36" height="19.65" transform="translate(37.82 -20.05) rotate(90)" style="fill: #281f18;"/>
  <rect x="25.88" y="11.08" width=".23" height="7.51" transform="translate(40.83 -11.16) rotate(90)" style="fill: #544133;"/>
  <rect x="21.92" y="9.06" width="1" height="6.93"/>
  <rect x="29.16" y="9.06" width="1" height="6.93"/>
  <path d="M10.29,18.01h.59v1.53h-.59c-.17,0-.31-.14-.31-.31v-.91c0-.17,.14-.31,.31-.31Z" style="fill: #d1d1d1;"/>
  <g>
    <path d="M11.32,12.19h.41v.81h-.41c-.1,0-.18-.08-.18-.18v-.46c0-.1,.08-.18,.18-.18Z" style="fill: #100f11;"/>
    <path d="M15.13,15.99v-4.98s.81-.18,.81-.91-.91-.68-.91-.68l-.45,.32s-.14,.09-.5,.09h-.91v5.08s.05,.13,.23,.18v.59s0,.32,.18,.32h1.54Z" style="fill: #e2e2e2; stroke: #9b9b9b; stroke-miterlimit: 10; stroke-width: .25px;"/>
    <rect x="12.96" y="9.92" width=".23" height="4.89" style="fill: #281f18;"/>
    <rect x="11.69" y="10.83" width=".23" height="3.08" style="fill: #544133;"/>
    <rect x="11.92" y="11.19" width="1.04" height="2.35" style="fill: #100f11;"/>
  </g>
  <path d="M10.88,19.66h21.52v-2.22s.03-.41-.47-.59l-1.36-.81s-.27-.05-.68-.05H13.16s-.2-.01-.63,.24l-1.47,.89s-.18,.1-.18,.57v1.96Z" style="fill: #e2e2e2; stroke: #9b9b9b; stroke-miterlimit: 10; stroke-width: .25px;"/>
  <path d="M12.05,21.33l1.99-.72s.22-.09,.38,0,.51,.06,.69-.04,6.53-2.4,6.53-2.4c0,0,.7-.25,.79-1.11,0,0-.02-.93,.66-1.15,0,0,.81-.36,1.27,.41,0,0,.09,.18,.14,.41,0,0,.09,.77,.77,1,0,0,2.81,.45,5.07,2.35,0,0,1.54,1.27,2.44,2.76,0,0,3.26,4.65,3.33,4.82,.14,.36-.18,1.31-.91,1.31,0,0-.54,0-.77-.36,0,0-3.7-5.18-4.28-5.91-1.31-1.63-3.12-2.35-3.89-2.63-.72-.25-1.13-.36-2.26-.36-.82,0-2.04,.41-2.04,.41l-3.21,1.18-2.13,.81-1.22,.54s-.81,.41-1.31,0c0,0-.68-.68-1.09-.63,0,0-.54,.14-.81,.27s-.5,0-.54-.27c0,0-.09-.45,.41-.68Z" style="fill: #e2e2e2; stroke: #9b9b9b; stroke-miterlimit: 10; stroke-width: .25px;"/>
  <path d="M4.74,28.96l2.21-.84,3.63-1.42s.72-.18,1-.59l2.38-2.6s.34-.29,.7-.02c.34,.26,7.15,5.52,7.15,5.52,0,0,1.49,0,1.13-1.58l-8.26-6.27s-.72-.59-1.4,.23l-3.1,3.33s-.41,.45-.95,.59l-5.16,1.9s-.63,1.31,.68,1.77Z" style="fill: #e2e2e2; stroke: #9b9b9b; stroke-miterlimit: 10; stroke-width: .25px;"/>
  <path d="M8.7,31.01c-.09,.09-.19,.18-.29,.27l.12,.2-1.32,1.01-.22-.38c-.25,.09-.51,.16-.77,.2v.23l-1.65,.21v-.45c-.26-.05-.51-.11-.76-.2l-.12,.21-1.53-.64,.23-.39c-.1-.09-.2-.17-.29-.27-.09-.09-.18-.19-.27-.29l-.21,.12-1.01-1.32,.39-.23c-.09-.25-.16-.5-.2-.76h-.24l-.21-1.65h.46c.05-.26,.11-.51,.2-.76l-.21-.12,.64-1.53,.39,.23c.09-.1,.18-.2,.28-.3,.09-.09,.18-.18,.28-.26l-.12-.21,1.32-1.01,.22,.39c.25-.09,.51-.16,.77-.21v-.24l1.65-.21v.44c.26,.05,.52,.11,.77,.2l.12-.2,1.53,.64-.22,.38c.1,.09,.21,.18,.3,.28,.09,.09,.18,.19,.26,.28l.2-.11,1.01,1.32-.38,.22c.09,.25,.16,.51,.21,.77h.23l.21,1.65h-.44c-.05,.26-.12,.52-.21,.77l.2,.11-.64,1.54-.38-.22c-.09,.1-.17,.2-.27,.29h0Zm-2.75-4.89c.31,.11,.58,.32,.78,.58l1.16-.31c-.13-.25-.3-.48-.51-.69-.4-.4-.9-.66-1.42-.77l-.02,1.19Zm2.25,1.32l-1.15,.31c0,.25-.07,.48-.17,.69l.78,.93c.36-.5,.55-1.08,.55-1.67,0-.09,0-.17-.01-.26h0Zm-1.34,2.67l-.75-.9c-.23,.11-.48,.17-.73,.17-.12,0-.24-.01-.35-.04l-.68,.98c.34,.13,.69,.2,1.05,.2,.51,0,1.02-.14,1.47-.41h0Zm-3.44-.38l.66-.95c-.24-.29-.39-.67-.39-1.08,0,0,0-.02,0-.03l-1.1-.39c-.02,.14-.03,.27-.03,.41,0,.72,.28,1.45,.83,2,.01,.01,.02,.02,.03,.03h0Zm-.46-3.47l1.11,.39c.2-.25,.48-.44,.79-.55l.02-1.18c-.55,.1-1.07,.36-1.49,.78-.17,.17-.32,.36-.43,.56h0Zm2.42,.57c-.48,0-.87,.39-.87,.87s.39,.87,.87,.87,.87-.39,.87-.87-.39-.87-.87-.87h0Zm0,0"/>
  <path d="M25,31.01c-.09,.09-.19,.18-.29,.27l.12,.2-1.32,1.01-.22-.38c-.25,.09-.51,.16-.77,.2v.23l-1.65,.21v-.45c-.26-.05-.51-.11-.76-.2l-.12,.21-1.53-.64,.23-.39c-.1-.09-.2-.17-.29-.27-.09-.09-.18-.19-.27-.29l-.21,.12-1.01-1.32,.39-.23c-.09-.25-.16-.5-.2-.76h-.24l-.21-1.65h.46c.05-.26,.11-.51,.2-.76l-.21-.12,.64-1.53,.39,.23c.09-.1,.18-.2,.28-.3,.09-.09,.18-.18,.28-.26l-.12-.21,1.32-1.01,.22,.39c.25-.09,.51-.16,.77-.21v-.24l1.65-.21v.44c.26,.05,.52,.11,.77,.2l.12-.2,1.53,.64-.22,.38c.1,.09,.21,.18,.3,.28,.09,.09,.18,.19,.26,.28l.2-.11,1.01,1.32-.38,.22c.09,.25,.16,.51,.21,.77h.23l.21,1.65h-.44c-.05,.26-.12,.52-.21,.77l.2,.11-.64,1.54-.38-.22c-.09,.1-.17,.2-.27,.29h0Zm-2.75-4.89c.31,.11,.58,.32,.78,.58l1.16-.31c-.13-.25-.3-.48-.51-.69-.4-.4-.9-.66-1.42-.77l-.02,1.19Zm2.25,1.32l-1.15,.31c0,.25-.07,.48-.17,.69l.78,.93c.36-.5,.55-1.08,.55-1.67,0-.09,0-.17-.01-.26h0Zm-1.34,2.67l-.75-.9c-.23,.11-.48,.17-.73,.17-.12,0-.24-.01-.35-.04l-.68,.98c.34,.13,.69,.2,1.05,.2,.51,0,1.02-.14,1.47-.41h0Zm-3.44-.38l.66-.95c-.24-.29-.39-.67-.39-1.08,0,0,0-.02,0-.03l-1.1-.39c-.02,.14-.03,.27-.03,.41,0,.72,.28,1.45,.83,2,.01,.01,.02,.02,.03,.03h0Zm-.46-3.47l1.11,.39c.2-.25,.48-.44,.79-.55l.02-1.18c-.55,.1-1.07,.36-1.49,.78-.17,.17-.32,.36-.43,.56h0Zm2.42,.57c-.48,0-.87,.39-.87,.87s.39,.87,.87,.87,.87-.39,.87-.87-.39-.87-.87-.87h0Zm0,0"/>
  <path d="M38.26,31.01c-.09,.09-.19,.18-.29,.27l.12,.2-1.32,1.01-.22-.38c-.25,.09-.51,.16-.77,.2v.23l-1.65,.21v-.45c-.26-.05-.51-.11-.76-.2l-.12,.21-1.53-.64,.23-.39c-.1-.09-.2-.17-.29-.27-.09-.09-.18-.19-.27-.29l-.21,.12-1.01-1.32,.39-.23c-.09-.25-.16-.5-.2-.76h-.24l-.21-1.65h.46c.05-.26,.11-.51,.2-.76l-.21-.12,.64-1.53,.39,.23c.09-.1,.18-.2,.28-.3,.09-.09,.18-.18,.28-.26l-.12-.21,1.32-1.01,.22,.39c.25-.09,.51-.16,.77-.21v-.24l1.65-.21v.44c.26,.05,.52,.11,.77,.2l.12-.2,1.53,.64-.22,.38c.1,.09,.21,.18,.3,.28,.09,.09,.18,.19,.26,.28l.2-.11,1.01,1.32-.38,.22c.09,.25,.16,.51,.21,.77h.23l.21,1.65h-.44c-.05,.26-.12,.52-.21,.77l.2,.11-.64,1.54-.38-.22c-.09,.1-.17,.2-.27,.29h0Zm-2.75-4.89c.31,.11,.58,.32,.78,.58l1.16-.31c-.13-.25-.3-.48-.51-.69-.4-.4-.9-.66-1.42-.77l-.02,1.19Zm2.25,1.32l-1.15,.31c0,.25-.07,.48-.17,.69l.78,.93c.36-.5,.55-1.08,.55-1.67,0-.09,0-.17-.01-.26h0Zm-1.34,2.67l-.75-.9c-.23,.11-.48,.17-.73,.17-.12,0-.24-.01-.35-.04l-.68,.98c.34,.13,.69,.2,1.05,.2,.51,0,1.02-.14,1.47-.41h0Zm-3.44-.38l.66-.95c-.24-.29-.39-.67-.39-1.08,0,0,0-.02,0-.03l-1.1-.39c-.02,.14-.03,.27-.03,.41,0,.72,.28,1.45,.83,2,.01,.01,.02,.02,.03,.03h0Zm-.46-3.47l1.11,.39c.2-.25,.48-.44,.79-.55l.02-1.18c-.55,.1-1.07,.36-1.49,.78-.17,.17-.32,.36-.43,.56h0Zm2.42,.57c-.48,0-.87,.39-.87,.87s.39,.87,.87,.87,.87-.39,.87-.87-.39-.87-.87-.87h0Zm0,0"/>
  <circle cx="23.51" cy="16.8" r=".38" style="fill: #ccc; stroke: #9b9b9b; stroke-miterlimit: 10; stroke-width: .25px;"/>
  <circle cx="23.51" cy="18.39" r=".29" style="fill: #ccc; stroke: #9b9b9b; stroke-miterlimit: 10; stroke-width: .25px;"/>
  <circle cx="5.4" cy="27.71" r=".29" style="fill: #ccc; stroke: #9b9b9b; stroke-miterlimit: 10; stroke-width: .25px;"/>
  <circle cx="21.69" cy="27.71" r=".29" style="fill: #ccc; stroke: #9b9b9b; stroke-miterlimit: 10; stroke-width: .25px;"/>
  <circle cx="34.96" cy="27.71" r=".29" style="fill: #ccc; stroke: #9b9b9b; stroke-miterlimit: 10; stroke-width: .25px;"/>
  <circle cx="14.09" cy="21.92" r=".38" style="fill: #ccc; stroke: #9b9b9b; stroke-miterlimit: 10; stroke-width: .25px;"/>
</svg>