<?xml version="1.0" encoding="UTF-8"?>
<svg id="_图层_1" data-name="图层 1" xmlns="http://www.w3.org/2000/svg" viewBox="0 0 100 100">
  <rect x="62.84" y="24.86" width="3.47" height="18.57" transform="translate(98.72 -30.43) rotate(90)"/>
  <rect x="64.3" y="22.85" width=".56" height="18.57" transform="translate(96.71 -32.44) rotate(90)" style="fill: #281f18;"/>
  <rect x="71.4" y="-2.83" width=".9" height="48.56" transform="translate(93.3 -50.4) rotate(90)" style="fill: #281f18;"/>
  <rect x="64.3" y="26.87" width=".56" height="18.57" transform="translate(100.74 -28.42) rotate(90)" style="fill: #544133;"/>
  <rect x="54.51" y="21.9" width="2.46" height="17.12"/>
  <rect x="72.41" y="21.9" width="2.46" height="17.12"/>
  <path d="M25.45,44h1.76v3.78h-1.76c-.25,0-.45-.2-.45-.45v-2.88c0-.25,.2-.45,.45-.45Z" style="fill: #d1d1d1;"/>
  <g>
    <path d="M28.19,29.61h1.14v2.01h-1.14c-.17,0-.31-.14-.31-.31v-1.39c0-.17,.14-.31,.31-.31Z" style="fill: #100f11;"/>
    <path d="M37.73,39.01v-12.31s2.01-.45,2.01-2.24-2.24-1.68-2.24-1.68l-1.12,.78s-.34,.22-1.23,.22h-2.24v12.54s.11,.32,.56,.43v1.45s0,.78,.45,.78h3.8Z" style="fill: #e2e2e2; stroke: #9b9b9b; stroke-miterlimit: 10; stroke-width: .5px;"/>
    <rect x="32.36" y="24.02" width=".56" height="12.08" style="fill: #281f18;"/>
    <rect x="29.22" y="26.26" width=".56" height="7.61" style="fill: #544133;"/>
    <rect x="29.78" y="27.15" width="2.57" height="5.82" style="fill: #100f11;"/>
  </g>
  <path d="M27.21,48.08h53.18v-5.48s.07-1.01-1.16-1.45l-3.36-2.01s-.67-.11-1.68-.11H32.85s-.49-.03-1.55,.6l-3.64,2.2s-.45,.25-.45,1.41v4.85Z" style="fill: #e2e2e2; stroke: #9b9b9b; stroke-miterlimit: 10; stroke-width: .5px;"/>
  <path d="M30.12,52.21l4.93-1.79s.54-.22,.94,0,1.25,.14,1.72-.1,16.13-5.94,16.13-5.94c0,0,1.73-.62,1.96-2.74,0,0-.06-2.29,1.62-2.85,0,0,2.01-.9,3.13,1.01,0,0,.22,.45,.34,1.01,0,0,.22,1.9,1.9,2.46,0,0,6.94,1.12,12.53,5.82,0,0,3.8,3.13,6.04,6.82,0,0,8.06,11.48,8.22,11.92,.34,.9-.45,3.24-2.24,3.24,0,0-1.34,0-1.9-.9,0,0-9.13-12.81-10.57-14.6-3.24-4.03-7.72-5.82-9.62-6.49-1.77-.62-2.8-.9-5.59-.9-2.02,0-5.03,1.01-5.03,1.01l-7.94,2.91-5.26,2.01-3.02,1.34s-2.01,1.01-3.24,0c0,0-1.68-1.68-2.69-1.57,0,0-1.34,.34-2.01,.67s-1.23,0-1.34-.67c0,0-.22-1.12,1.01-1.68Z" style="fill: #e2e2e2; stroke: #9b9b9b; stroke-miterlimit: 10; stroke-width: .5px;"/>
  <path d="M12.05,71.07l5.47-2.09,8.96-3.51s1.79-.45,2.46-1.45l5.87-6.43s.84-.73,1.73-.06c.84,.63,17.68,13.65,17.68,13.65,0,0,3.69,0,2.8-3.92l-20.42-15.5s-1.79-1.45-3.47,.56l-7.66,8.22s-1.01,1.12-2.35,1.45l-12.75,4.7s-1.57,3.24,1.68,4.36Z" style="fill: #e2e2e2; stroke: #9b9b9b; stroke-miterlimit: 10; stroke-width: .5px;"/>
  <path d="M21.84,76.14c-.23,.23-.48,.46-.73,.67l.28,.49-3.27,2.49-.55-.95c-.62,.22-1.26,.39-1.9,.5v.58l-4.08,.53v-1.11c-.64-.12-1.27-.28-1.89-.51l-.29,.51-3.79-1.58,.56-.97c-.25-.21-.49-.43-.72-.66-.23-.23-.45-.47-.66-.72l-.52,.3-2.5-3.27,.98-.56c-.22-.62-.39-1.24-.51-1.88h-.6l-.53-4.08h1.13c.11-.64,.28-1.27,.5-1.88l-.52-.3,1.58-3.79,.97,.56c.22-.26,.44-.5,.68-.75,.23-.22,.46-.44,.69-.64l-.3-.52,3.26-2.49,.55,.96c.62-.23,1.25-.39,1.89-.51v-.58l4.08-.53v1.1c.65,.11,1.28,.28,1.9,.5l.28-.49,3.79,1.58-.54,.94c.26,.22,.51,.45,.75,.69,.22,.23,.44,.46,.65,.7l.49-.28,2.5,3.26-.94,.54c.23,.62,.4,1.26,.51,1.91h.56l.53,4.08h-1.08c-.12,.65-.29,1.29-.51,1.91l.48,.28-1.58,3.79-.94-.54c-.21,.25-.43,.49-.67,.72h0Zm-6.79-12.09c.77,.28,1.44,.79,1.92,1.44l2.88-.77c-.32-.61-.74-1.19-1.25-1.71-1-.99-2.22-1.63-3.5-1.9l-.04,2.93Zm5.56,3.26l-2.83,.76c-.02,.61-.17,1.19-.42,1.71l1.93,2.3c.9-1.23,1.35-2.68,1.35-4.13,0-.21-.01-.43-.03-.64h0Zm-3.31,6.6l-1.86-2.22c-.56,.27-1.18,.41-1.81,.41-.3,0-.59-.03-.88-.09l-1.69,2.42c.83,.33,1.71,.5,2.6,.5,1.26,0,2.53-.34,3.64-1.02h0Zm-8.5-.95l1.64-2.35c-.6-.72-.96-1.65-.96-2.66,0-.02,0-.04,0-.06l-2.73-.95c-.05,.34-.07,.67-.07,1.01,0,1.79,.68,3.58,2.05,4.94,.03,.03,.05,.05,.08,.07h0Zm-1.15-8.58l2.75,.96c.5-.62,1.18-1.1,1.96-1.35l.04-2.92c-1.35,.25-2.64,.89-3.68,1.93-.42,.42-.78,.89-1.07,1.38h0Zm5.98,1.41c-1.19,0-2.15,.96-2.15,2.15s.96,2.15,2.15,2.15,2.15-.96,2.15-2.15-.96-2.15-2.15-2.15h0Zm0,0"/>
  <path d="M62.12,76.14c-.23,.23-.48,.46-.73,.67l.28,.49-3.27,2.49-.55-.95c-.62,.22-1.26,.39-1.9,.5v.58l-4.08,.53v-1.11c-.64-.12-1.27-.28-1.89-.51l-.29,.51-3.79-1.58,.56-.97c-.25-.21-.49-.43-.72-.66-.23-.23-.45-.47-.66-.72l-.52,.3-2.5-3.27,.98-.56c-.22-.62-.39-1.24-.51-1.88h-.6l-.53-4.08h1.13c.11-.64,.28-1.27,.5-1.88l-.52-.3,1.58-3.79,.97,.56c.22-.26,.44-.5,.68-.75,.23-.22,.46-.44,.69-.64l-.3-.52,3.26-2.49,.55,.96c.62-.23,1.25-.39,1.89-.51v-.58l4.08-.53v1.1c.65,.11,1.28,.28,1.9,.5l.28-.49,3.79,1.58-.54,.94c.26,.22,.51,.45,.75,.69,.22,.23,.44,.46,.65,.7l.49-.28,2.5,3.26-.94,.54c.23,.62,.4,1.26,.51,1.91h.56l.53,4.08h-1.08c-.12,.65-.29,1.29-.51,1.91l.48,.28-1.58,3.79-.94-.54c-.21,.25-.43,.49-.67,.72h0Zm-6.79-12.09c.77,.28,1.44,.79,1.92,1.44l2.88-.77c-.32-.61-.74-1.19-1.25-1.71-1-.99-2.22-1.63-3.5-1.9l-.04,2.93Zm5.56,3.26l-2.83,.76c-.02,.61-.17,1.19-.42,1.71l1.93,2.3c.9-1.23,1.35-2.68,1.35-4.13,0-.21-.01-.43-.03-.64h0Zm-3.31,6.6l-1.86-2.22c-.56,.27-1.18,.41-1.81,.41-.3,0-.59-.03-.88-.09l-1.69,2.42c.83,.33,1.71,.5,2.6,.5,1.26,0,2.53-.34,3.64-1.02h0Zm-8.5-.95l1.64-2.35c-.6-.72-.96-1.65-.96-2.66,0-.02,0-.04,0-.06l-2.73-.95c-.05,.34-.07,.67-.07,1.01,0,1.79,.68,3.58,2.05,4.94,.03,.03,.05,.05,.08,.07h0Zm-1.15-8.58l2.75,.96c.5-.62,1.18-1.1,1.96-1.35l.04-2.92c-1.35,.25-2.64,.89-3.68,1.93-.42,.42-.78,.89-1.07,1.38h0Zm5.98,1.41c-1.19,0-2.15,.96-2.15,2.15s.96,2.15,2.15,2.15,2.15-.96,2.15-2.15-.96-2.15-2.15-2.15h0Zm0,0"/>
  <path d="M94.9,76.14c-.23,.23-.48,.46-.73,.67l.28,.49-3.27,2.49-.55-.95c-.62,.22-1.26,.39-1.9,.5v.58l-4.08,.53v-1.11c-.64-.12-1.27-.28-1.89-.51l-.29,.51-3.79-1.58,.56-.97c-.25-.21-.49-.43-.72-.66-.23-.23-.45-.47-.66-.72l-.52,.3-2.5-3.27,.98-.56c-.22-.62-.39-1.24-.51-1.88h-.6l-.53-4.08h1.13c.11-.64,.28-1.27,.5-1.88l-.52-.3,1.58-3.79,.97,.56c.22-.26,.44-.5,.68-.75,.23-.22,.46-.44,.69-.64l-.3-.52,3.26-2.49,.55,.96c.62-.23,1.25-.39,1.89-.51v-.58l4.08-.53v1.1c.65,.11,1.28,.28,1.9,.5l.28-.49,3.79,1.58-.54,.94c.26,.22,.51,.45,.75,.69,.22,.23,.44,.46,.65,.7l.49-.28,2.5,3.26-.94,.54c.23,.62,.4,1.26,.51,1.91h.56l.53,4.08h-1.08c-.12,.65-.29,1.29-.51,1.91l.48,.28-1.58,3.79-.94-.54c-.21,.25-.43,.49-.67,.72h0Zm-6.79-12.09c.77,.28,1.44,.79,1.92,1.44l2.88-.77c-.32-.61-.74-1.19-1.25-1.71-1-.99-2.22-1.63-3.5-1.9l-.04,2.93Zm5.56,3.26l-2.83,.76c-.02,.61-.17,1.19-.42,1.71l1.93,2.3c.9-1.23,1.35-2.68,1.35-4.13,0-.21-.01-.43-.03-.64h0Zm-3.31,6.6l-1.86-2.22c-.56,.27-1.18,.41-1.81,.41-.3,0-.59-.03-.88-.09l-1.69,2.42c.83,.33,1.71,.5,2.6,.5,1.26,0,2.53-.34,3.64-1.02h0Zm-8.5-.95l1.64-2.35c-.6-.72-.96-1.65-.96-2.66,0-.02,0-.04,0-.06l-2.73-.95c-.05,.34-.07,.67-.07,1.01,0,1.79,.68,3.58,2.05,4.94,.03,.03,.05,.05,.08,.07h0Zm-1.15-8.58l2.75,.96c.5-.62,1.18-1.1,1.96-1.35l.04-2.92c-1.35,.25-2.64,.89-3.68,1.93-.42,.42-.78,.89-1.07,1.38h0Zm5.98,1.41c-1.19,0-2.15,.96-2.15,2.15s.96,2.15,2.15,2.15,2.15-.96,2.15-2.15-.96-2.15-2.15-2.15h0Zm0,0"/>
  <circle cx="58.42" cy="41.03" r=".95" style="fill: #ccc; stroke: #9b9b9b; stroke-miterlimit: 10; stroke-width: .5px;"/>
  <circle cx="58.42" cy="44.94" r=".73" style="fill: #ccc; stroke: #9b9b9b; stroke-miterlimit: 10; stroke-width: .5px;"/>
  <circle cx="13.67" cy="67.99" r=".73" style="fill: #ccc; stroke: #9b9b9b; stroke-miterlimit: 10; stroke-width: .5px;"/>
  <circle cx="53.95" cy="67.99" r=".73" style="fill: #ccc; stroke: #9b9b9b; stroke-miterlimit: 10; stroke-width: .5px;"/>
  <circle cx="86.73" cy="67.99" r=".73" style="fill: #ccc; stroke: #9b9b9b; stroke-miterlimit: 10; stroke-width: .5px;"/>
  <circle cx="35.15" cy="53.67" r=".95" style="fill: #ccc; stroke: #9b9b9b; stroke-miterlimit: 10; stroke-width: .5px;"/>
</svg>