<?xml version="1.0" encoding="utf-8"?>
<!-- Generator: Adobe Illustrator 24.0.0, SVG Export Plug-In . SVG Version: 6.00 Build 0)  -->
<svg version="1.1" id="图层_1" xmlns="http://www.w3.org/2000/svg" xmlns:xlink="http://www.w3.org/1999/xlink" x="0px" y="0px"
	 width="40px" viewBox="0 0 94.5 77.9" style="enable-background:new 0 0 94.5 77.9;" xml:space="preserve">
<style type="text/css">
	.st0{fill:#E2E2E2;stroke:#9B9B9B;stroke-miterlimit:10;}
	.st1{fill:#F2F2F2;stroke:#B9B9B9;stroke-miterlimit:10;}
	.st2{fill:#CCCCCC;stroke:#9B9B9B;stroke-width:0.5;stroke-miterlimit:10;}
	.st3{fill:#9B9B9B;stroke:#000000;stroke-width:0.25;stroke-miterlimit:10;}
	.st4{fill:#E2E2E2;stroke:#000000;stroke-width:0.25;stroke-miterlimit:10;}
	.st5{fill:#43AEB6;}
	.st6{fill:#78CEDD;}
	.st7{fill:#94DAE6;}
	.st8{fill:#C9E8ED;}
	.st9{fill:none;stroke:#000000;stroke-width:0.25;stroke-miterlimit:10;}
</style>
<rect x="51.2" y="10.6" class="st0" width="2.5" height="21.1"/>
<rect x="65" y="9.9" class="st0" width="2.5" height="21.1"/>
<rect x="55" y="7.6" class="st1" width="2.5" height="26.1"/>
<rect x="40.9" y="6.7" class="st1" width="2.5" height="26.1"/>
<g>
	<path class="st0" d="M78.1,14.4H47.8c-0.8,0-1.9-0.3-2.6-0.6l-12.5-7c-0.6-0.4-0.5-0.6,0.3-0.6h30.3c0.8,0,1.9,0.3,2.6,0.6
		l12.4,6.9C79,14.1,78.9,14.4,78.1,14.4z"/>
	<g>
		<polygon points="47.5,8.8 58.3,8.8 53.7,6.3 43,6.3 		"/>
		<polygon points="51.1,11.3 47.3,9.2 37.5,9.2 41.3,11.3 		"/>
		<polygon points="63.8,11.3 73.6,11.3 69.8,9.2 60,9.2 		"/>
		<polygon points="63.6,11.7 52.8,11.7 57.4,14.3 68.1,14.3 		"/>
		<polygon points="48.3,9.2 52.1,11.3 62.8,11.3 59,9.2 		"/>
		<path d="M59.2,8.8H69l-3.4-1.9c-0.6-0.3-1.7-0.6-2.5-0.6h-8.4L59.2,8.8z"/>
		<path d="M64.5,11.7l4.5,2.5h8.4c0.8,0,0.9-0.3,0.3-0.6l-3.4-1.9H64.5z"/>
		<path d="M51.9,11.7H42l3.4,1.9c0.6,0.3,1.7,0.6,2.5,0.6h8.4L51.9,11.7z"/>
		<path d="M46.6,8.8L42,6.3h-8.4c-0.8,0-0.9,0.3-0.3,0.6l3.4,1.9H46.6z"/>
	</g>
</g>
<path class="st0" d="M75.8,45.9H22.6v-7.5c0-4.5,3.6-8.1,8.1-8.1h36.9c4.5,0,8.1,3.6,8.1,8.1L75.8,45.9L75.8,45.9z"/>
<path class="st0" d="M31.1,43.9l17.7-7.5c0,0-0.5-1.4,1.1-4.2c0,0,0.8-1.3,3.8-1.2c2.7,0.5,3.1,2.7,3.2,3.3c0,0-0.2,1,1.5,1.6
	c0,0,24.3,20,24.5,20.5c0.3,0.9,1.1,6.2-4.5,5c0,0-17.6-18.4-24.7-19.1c-2,0-3.1,0.4-3.1,0.4l-7.9,2.9l-5.3,2l-3,1.3
	c0,0-3.7,2.5-6.2,2.1c-2-0.3-3-3.4-3-3.7c0,0-0.2-1.1,1-1.7L31.1,43.9z"/>
<path class="st0" d="M15.9,64.2c-5.6-1.2-3-7.3-3-7.3l16.2-13.3c2.6-1.5,4-0.3,4-0.3l20.4,15.5c0.9,3.9-4.5,4.9-4.5,4.9
	S33.4,51.6,32.6,51c-0.9-0.7-2.1,0-2.1,0L15.9,64.2z"/>
<path class="st2" d="M30.6,47.6c0-0.5,0.4-0.9,0.9-0.9s0.9,0.4,0.9,0.9s-0.4,0.9-0.9,0.9S30.6,48.2,30.6,47.6z"/>
<path class="st2" d="M52.5,38.1c0-0.5,0.4-0.9,0.9-0.9s0.9,0.4,0.9,0.9S53.9,39,53.4,39S52.5,38.6,52.5,38.1z"/>
<path class="st0" d="M38.2,31.6c0.6-0.2,1.2-0.4,1.9-0.7c-0.4-2.7-0.3-4.9-0.1-6.3c0.4-3.3,0.9-7,3.4-8.8c0.5-0.4,1.2-0.7,1.2-1.2
	c0-0.8-1.6-1.6-3-1.5c-1.8,0.2-2.8,1.9-3,2.1c-0.2,0.3-0.3,0.6-0.4,0.7c-1.9,4.8-5.3,13.3-2.6,15.4C36,31.6,36.8,31.9,38.2,31.6z"/>
<path class="st0" d="M24.9,27.7c0.6,0.1,1.2,0.2,1.8,0.4c-0.6-2.3-0.6-4.3-0.4-5.6c0.2-2.2,0.6-6.8,3.4-8.8c0.5-0.4,1.2-0.7,1.2-1.2
	c0-0.8-1.6-1.6-3-1.5c-1.9,0.2-2.9,1.9-3,2.1c-0.4,0.8-0.5,1.6-0.5,2c-0.1,3.4,0.5,5.8,0.6,8.3C25.1,24.4,25.1,25.8,24.9,27.7z"/>
<path class="st0" d="M24.4,16.5c0.2,2.7,0.2,5.5,0.2,8.5c0,1.6-0.1,3.1-0.1,4.5c1.9,0.5,3.9,1,6.1,1.4c1.9,0.4,3.6,0.6,5.3,0.8
	c0.1,0,0.1,0,0.2,0c0.2,0,0.4,0,0.4,0C37,31.6,36.8,26,37,23c0.1-1.9,0.5-3.4,0.7-4.4c-1.3-0.8-3.4-1.8-6.1-2.3
	C28.5,15.8,25.9,16.2,24.4,16.5z"/>
<g>
	<ellipse class="st3" cx="30.2" cy="23.5" rx="3.2" ry="4.1"/>
	<ellipse class="st4" cx="30" cy="23.5" rx="3" ry="4.1"/>
	<ellipse class="st3" cx="30" cy="23.5" rx="2.6" ry="3.5"/>
	<g>
		<ellipse class="st5" cx="30.2" cy="23.5" rx="2.1" ry="3.4"/>
		<ellipse class="st6" cx="30.4" cy="23.5" rx="2.1" ry="3.4"/>
		<ellipse class="st7" cx="29.9" cy="24" rx="1.3" ry="2.2"/>
		<ellipse class="st8" cx="29.7" cy="24.3" rx="0.6" ry="1"/>
	</g>
	<ellipse class="st9" cx="30.3" cy="23.5" rx="2.3" ry="3.5"/>
</g>
<path d="M7.9,52.1c-4.2,4.2-4.2,11.1,0,15.3s11.1,4.2,15.3,0s4.2-11.1,0-15.3S12.1,47.9,7.9,52.1z M13.8,56l-2-2.1
	c1.1-0.7,2.4-1.1,3.8-1.1c0.7,0,1.4,0.1,2.1,0.3l-1.5,2.6C15.4,55.5,14.5,55.7,13.8,56L13.8,56z M14,58.2c0.8-0.8,2.2-0.8,3,0
	s0.8,2.2,0,3s-2.2,0.8-3,0S13.2,59.1,14,58.2z M15.7,66.7L15.7,66.7L15.7,66.7h-0.1c-1.9,0-3.7-0.8-4.9-2c-0.2-0.2-0.5-0.5-0.7-0.8
	l2.6-1.3l0,0c0.7,0.7,1.6,1.1,2.6,1.2L15.7,66.7L15.7,66.7z M11.4,60.2l-2.6,1.3c-0.1-0.6-0.2-1.1-0.2-1.7c0-1.5,0.5-2.8,1.2-4
	l2,2.1C11.5,58.6,11.3,59.4,11.4,60.2z M20.5,64.7c-0.6,0.6-1.4,1.1-2.2,1.5l-0.5-2.9c0.2-0.2,0.5-0.3,0.7-0.6c0.4-0.4,0.8-1,1-1.6
	l2.9,0.3C22,62.7,21.4,63.8,20.5,64.7z M22.5,58.7l-3-0.3c-0.2-0.5-0.5-1.1-0.9-1.5l1.5-2.5c0.2,0.1,0.3,0.3,0.5,0.4
	C21.5,55.8,22.2,57.2,22.5,58.7z"/>
<path d="M41.6,52.1c-4.2,4.2-4.2,11.1,0,15.3s11.1,4.2,15.3,0s4.2-11.1,0-15.3S45.8,47.9,41.6,52.1z M47.5,56l-2-2.1
	c1.1-0.7,2.4-1.1,3.8-1.1c0.7,0,1.4,0.1,2.1,0.3l-1.5,2.6C49,55.5,48.2,55.7,47.5,56L47.5,56z M47.7,58.2c0.8-0.8,2.2-0.8,3,0
	s0.8,2.2,0,3s-2.2,0.8-3,0S46.9,59.1,47.7,58.2z M49.4,66.7L49.4,66.7L49.4,66.7L49.4,66.7c-2,0-3.8-0.8-5-2
	c-0.2-0.2-0.5-0.5-0.7-0.8l2.6-1.3l0,0c0.7,0.7,1.6,1.1,2.6,1.2L49.4,66.7L49.4,66.7z M45.1,60.2l-2.6,1.3c-0.1-0.6-0.2-1.1-0.2-1.7
	c0-1.5,0.5-2.8,1.2-4l2,2.1C45.2,58.6,45,59.4,45.1,60.2z M54.2,64.7c-0.6,0.6-1.4,1.1-2.2,1.5l-0.5-2.9c0.2-0.2,0.5-0.3,0.7-0.6
	c0.4-0.4,0.8-1,1-1.6l2.9,0.3C55.7,62.7,55.1,63.8,54.2,64.7z M56.1,58.7l-3-0.3c-0.2-0.5-0.5-1.1-0.9-1.5l1.5-2.5
	c0.2,0.1,0.3,0.3,0.5,0.4C55.2,55.8,55.9,57.2,56.1,58.7z"/>
<path d="M71.1,54.1C68,59.2,69.6,65.9,74.7,69s11.8,1.5,14.9-3.6s1.5-11.8-3.6-14.9C80.9,47.3,74.2,49,71.1,54.1z M77.8,56.4
	l-2.5-1.6c0.9-1,2.1-1.7,3.4-2c0.7-0.2,1.4-0.2,2.1-0.2l-0.8,3C79.2,55.6,78.4,55.9,77.8,56.4L77.8,56.4z M78.5,58.6
	c0.6-1,1.9-1.3,3-0.7c1,0.6,1.3,1.9,0.7,3c-0.6,1-1.9,1.3-3,0.7S77.9,59.6,78.5,58.6z M82.1,66.4L82.1,66.4L82.1,66.4L82.1,66.4
	c-2,0.5-3.9,0.1-5.4-0.8c-0.3-0.2-0.6-0.4-0.8-0.6l2.2-1.8c0,0,0,0,0.1,0c0.9,0.5,1.8,0.7,2.8,0.6L82.1,66.4L82.1,66.4z M76.5,61.1
	l-2.3,1.8c-0.3-0.5-0.5-1.1-0.6-1.6c-0.3-1.4-0.2-2.9,0.3-4.1l2.5,1.6C76.1,59.5,76.2,60.3,76.5,61.1z M86.3,63.3
	c-0.5,0.8-1.1,1.4-1.8,2l-1.1-2.7c0.2-0.2,0.4-0.4,0.5-0.7c0.3-0.5,0.5-1.1,0.6-1.8l2.9-0.4C87.4,61,87,62.2,86.3,63.3z M86.8,57
	l-3,0.4c-0.3-0.5-0.7-0.9-1.2-1.3l0.8-2.8c0.2,0.1,0.4,0.2,0.6,0.3C85.3,54.5,86.3,55.6,86.8,57z"/>
</svg>
