<?xml version="1.0" encoding="utf-8"?>
<!-- Generator: Adobe Illustrator 24.0.0, SVG Export Plug-In . SVG Version: 6.00 Build 0)  -->
<svg version="1.1" id="图层_1" xmlns="http://www.w3.org/2000/svg" xmlns:xlink="http://www.w3.org/1999/xlink" x="0px" y="0px"
	 width="93.4px" height="52.7px" viewBox="0 0 93.4 52.7" style="enable-background:new 0 0 93.4 52.7;" xml:space="preserve">
<style type="text/css">
	.st0{fill:#1E2020;}
	.st1{fill:#E2E1E0;stroke:#9A999A;stroke-miterlimit:10;}
	.st2{fill:#6A7D81;}
	.st3{fill:#54616A;}
	.st4{fill:#6D7981;}
	.st5{fill:#B2C4CA;}
	.st6{fill:#060001;}
	.st7{fill:#9A999A;}
	.st8{fill:#BBBBBB;}
	.st9{fill:#E9E9E9;}
	.st10{fill:#E2E1E0;}
	.st11{fill:#429EA4;}
	.st12{fill:#74BDC9;}
	.st13{fill:#8FCAD4;}
	.st14{fill:#C2DFE4;}
	.st15{fill:#1B2C2C;}
	.st16{fill:#4C6264;}
</style>
<title>ZeusCar-A</title>
<g>
	<g>
		<path class="st0" d="M66.2,35.7l-4.1,1.4c-0.7-2-1.2-4.2-1.2-6.4c-0.1-1.4,0.1-2.8,0.6-4.2l4.3-1.1L66.2,35.7z"/>
		<path class="st0" d="M86.5,20.9l4.1-1.4c0.7,2,1.2,4.2,1.2,6.4c0.1,1.4-0.1,2.8-0.6,4.2l-4.3,1.1L86.5,20.9z"/>
		<path class="st0" d="M91.1,36.2c-1.4,1.7-3,3.1-4.8,4.3c-1.2,0.8-2.5,1.3-3.9,1.6l-3-3.2l8.7-5.4L91.1,36.2z"/>
		<path class="st0" d="M61.6,20.3c1.4-1.7,3-3.1,4.8-4.3c1.2-0.7,2.5-1.3,3.9-1.6l3,3.2l-8.7,5.4L61.6,20.3z"/>
		<path class="st0" d="M70.8,42.9c-1.3-0.7-2.4-1.5-3.3-2.6l1.2-4.2l9.1,4.7L76.9,45C74.8,44.6,72.7,43.9,70.8,42.9z"/>
		<path class="st0" d="M75.9,11.5c2.1,0.3,4.2,1,6,2.1c1.2,0.7,2.4,1.6,3.4,2.6l-1.2,4.2L75,15.7L75.9,11.5z"/>
	</g>
	<path class="st1" d="M76.4,28.2"/>
	<g>
		<path class="st2" d="M91.1,36.2c-0.6,0.6-1.8,0.3-2.6-0.6c-0.8-0.9-0.9-2.1-0.3-2.7c0.6-0.6,1.8-0.3,2.6,0.6
			C91.7,34.4,91.8,35.6,91.1,36.2z"/>
		<path class="st2" d="M62,23c-0.8-0.9-0.9-2.1-0.3-2.7c0.7-0.6,1.8-0.3,2.6,0.6c0.8,0.9,0.9,2.1,0.3,2.7C63.9,24.2,62.8,23.9,62,23
			z"/>
		<path class="st2" d="M79,43.4c-0.4,1.1-1.4,1.9-2.2,1.6c-0.8-0.3-1.2-1.5-0.8-2.6c0.4-1.1,1.4-1.9,2.2-1.6
			C79.1,41.1,79.4,42.2,79,43.4z"/>
		<path class="st2" d="M74.6,15.7c-0.8-0.3-1.2-1.4-0.8-2.6c0.4-1.2,1.4-1.9,2.2-1.6c0.8,0.3,1.2,1.4,0.8,2.6
			C76.4,15.2,75.4,16,74.6,15.7z"/>
		<path class="st2" d="M66.4,36.1c0.2,0.8-0.6,1.7-1.9,2c-1.2,0.2-2.3-0.3-2.5-1.1c-0.2-0.8,0.6-1.7,1.9-2
			C65.1,34.8,66.2,35.3,66.4,36.1z"/>
		<path class="st2" d="M88.8,21.5c-1.2,0.3-2.3-0.2-2.5-1.1c-0.2-0.9,0.6-1.7,1.9-2c1.2-0.2,2.3,0.2,2.5,1.1
			C90.8,20.3,90,21.2,88.8,21.5z"/>
	</g>
	<g>
		<path class="st3" d="M90.9,34.5c-0.2,0.1-0.3,0.1-0.4,0c-0.3-0.2-0.7-0.3-1.2-0.3c-0.5-0.4-0.8-0.9-1-1.6l0.7-3l1.8,2.3
			c0,0,1.5,0.7,1.4,1.3C91.8,33.8,91.4,34.2,90.9,34.5z"/>
		<path class="st3" d="M60.6,23.2c0.4-0.5,0.8-0.9,1.3-1.2c0.2-0.1,0.2-0.1,0.4,0c0.3,0.2,0.7,0.3,1.1,0.3c0.5,0.4,0.9,0.9,1,1.6
			l-0.7,3L62,24.5C62,24.5,60.6,23.8,60.6,23.2z"/>
		<path class="st3" d="M78.2,43.9c-0.1,0-0.2-0.2-0.2-0.4c0-0.4-0.1-0.7-0.3-1.1c0.1-0.6,0.4-1.2,0.8-1.7l2.9-0.9l-1,2.8
			c0,0,0,1.6-0.5,1.8C79.3,44.3,78.7,44.1,78.2,43.9z"/>
		<path class="st3" d="M71.5,16.8l1-2.8c0,0,0-1.6,0.5-1.8c0.6,0.1,1.2,0.3,1.8,0.5c0.1,0,0.2,0.2,0.2,0.4c0,0.4,0.1,0.7,0.3,1.1
			c-0.1,0.6-0.4,1.2-0.8,1.7L71.5,16.8z"/>
		<path class="st3" d="M64.2,39.4c-0.2-0.6-0.3-1.2-0.4-1.8c0-0.2,0-0.3,0.2-0.4c0.3-0.2,0.6-0.5,0.8-0.8c0.6-0.2,1.2-0.3,1.9-0.2
			l2.3,2L66,38.9C66,38.9,64.7,39.7,64.2,39.4z"/>
		<path class="st3" d="M88.1,20.1c-0.6,0.2-1.2,0.3-1.9,0.2l-2.3-2l2.9-0.5c0,0,1.4-0.8,1.9-0.6c0.2,0.6,0.3,1.2,0.4,1.8
			c0,0.2,0,0.3-0.2,0.4C88.6,19.5,88.3,19.8,88.1,20.1z"/>
	</g>
	<circle class="st4" cx="76.4" cy="28.2" r="11.6"/>
	<path class="st5" d="M92.6,32.2c0.1-0.5-0.6-1.5-0.6-1.5l-1.9-2.3c-0.2-1.4-1.4-7.2-2-8.4c-0.5-1.2-0.4-1.7-0.4-1.7
		s0.3-0.6,0.7-0.6c0.5-0.2,0.1-0.9-0.4-1.2c-0.5-0.2-1.1-0.3-1.7-0.3l-2.9,0.4c-1.3-0.6-7.1-2.4-8.4-2.6c-0.6,0-1.1-0.2-1.6-0.5
		c-0.1-0.3-0.2-0.7-0.3-1c0.1-0.5-0.8-0.6-1.3-0.3c-0.4,0.3-0.8,0.8-1,1.3l-1,2.8c-1.2,0.8-5.7,4.9-6.4,5.9
		c-0.3,0.5-0.7,0.9-1.3,1.2c-0.3,0-0.7-0.1-1-0.3c-0.4-0.3-0.9,0.4-1,1c-0.1,0.5,0.6,1.5,0.6,1.5l1.9,2.3c0.1,1.4,1.4,7.3,2,8.4
		c0.5,1.2,0.4,1.7,0.4,1.7s-0.3,0.6-0.7,0.6c-0.5,0.2-0.1,0.9,0.4,1.2c0.5,0.2,1.1,0.3,1.6,0.3l2.9-0.3c1.3,0.6,7.2,2.3,8.4,2.5
		c0.6,0,1.1,0.1,1.6,0.5c0.2,0.3,0.2,0.7,0.3,1c-0.1,0.5,0.8,0.6,1.3,0.3c0.4-0.3,0.8-0.8,1-1.3l1-2.8c1.2-0.9,5.7-4.9,6.5-6
		c0.3-0.5,0.7-0.9,1.3-1.2c0.3,0,0.7,0.1,1,0.3C92.1,33.5,92.6,32.8,92.6,32.2z M86.7,26c-0.2,0.5-0.4,1.1-0.5,1.7l0.5,1.5
		c-0.1,1.3-0.4,2.7-0.9,3.9c-0.5,1.1-1.4,2.1-2.4,2.8c0,0.1-1.2,0.3-1.7,0.6l-1.1,1.2c-1.2,0.6-2.5,1-3.9,1.1
		c-1.3,0.1-2.5-0.1-3.7-0.6l0,0c-0.3-0.5-0.7-0.9-1.2-1.2l-1.6-0.3c-1.1-0.8-2.1-1.7-2.9-2.8c-0.7-1-1.2-2.2-1.3-3.5
		c0.2-0.5,0.4-1.1,0.5-1.6l-0.5-1.5c0.1-1.3,0.4-2.7,1-3.9c0.5-1.1,1.3-2.1,2.4-2.8l0,0c0.5-0.1,1.1-0.3,1.6-0.5l1.1-1.2
		c1.2-0.6,2.5-1,3.9-1.1c1.3-0.1,2.5,0.1,3.7,0.6c0-0.1,0.7,0.9,1.2,1.1l1.6,0.3c1.1,0.8,2.1,1.7,2.9,2.8
		C86.1,23.6,86.6,24.8,86.7,26z"/>
	<path class="st5" d="M83.5,32.1c0.5-0.8,0.8-1.7,0.8-2.6l0-0.2l-1.2-0.6l-0.1-1.3l1.1-0.7l0-0.2c-0.4-1.8-1.5-3.5-2.9-4.7l-0.1-0.1
		L80,22.5l-1.2-0.6l0-1.3l-0.1-0.1c-1.8-0.6-3.7-0.5-5.4,0.2l-0.2,0l0.1,1.3l-1.1,0.7l-1-0.5l0,0l-0.1,0c-0.7,0.6-1.2,1.4-1.7,2.2
		c-0.4,0.8-0.8,1.7-0.9,2.7l0,0.2l1.2,0.6l0.1,1.3l-0.9,0.6l0,0l0,0l-0.2,0.1l0,0.2c0.4,1.8,1.5,3.5,2.9,4.7l0.1,0.1l1.1-0.7
		l1.2,0.6l0,1.3l0.1,0.1c1.8,0.6,3.7,0.5,5.4-0.2l0.2,0l-0.1-1.3l1.1-0.7l1.2,0.6l0.1-0.1C82.5,33.6,83.1,32.9,83.5,32.1z
		 M74.4,34.7l1.3-4.2c0.5,0.2,1,0.2,1.5,0l2,4.8C77.7,36,76,36,74.5,35.6L74.4,34.7z M71.7,34.1c-1.3-1.1-2.2-2.6-2.6-4.2l4.9-1.1
		c0.1,0.5,0.4,0.9,0.8,1.2L71.7,34.1L71.7,34.1L71.7,34.1z M74.6,26.5c-0.2,0.2-0.3,0.4-0.4,0.6c-0.1,0.2-0.2,0.5-0.3,0.7l-4.8-0.7
		L69,26.9c0.1-0.8,0.4-1.6,0.8-2.3c0.4-0.7,0.9-1.4,1.5-1.9l0.1,0L74.6,26.5z M77.1,25.8c-0.5-0.1-1-0.1-1.5,0.1l-1.9-4.6l0-0.2
		c1.6-0.6,3.3-0.7,4.9-0.2l0,0.3L77.1,25.8z M78.8,27.5c-0.1-0.5-0.4-0.9-0.8-1.2l2.9-3.7l0.4-0.2c1.3,1,2.2,2.5,2.6,4L78.8,27.5z
		 M84.1,29.5c-0.3,1.6-1.1,3.1-2.3,4.3l-0.4-0.2l-3.2-3.6c0.2-0.2,0.4-0.4,0.5-0.6c0.1-0.2,0.2-0.5,0.2-0.7l4.8,0.7L84.1,29.5
		L84.1,29.5z"/>
	<g>
		<circle class="st6" cx="76.4" cy="28.2" r="2.1"/>
	</g>
</g>
<g>
	<g>
		<path class="st0" d="M46.5,35.4l4.2,1.3c0.7-2.1,1-4.2,1.1-6.4c0-1.4-0.2-2.8-0.7-4.1l-4.3-1L46.5,35.4z"/>
		<path class="st0" d="M25.9,21.2l-4.2-1.3c-0.7,2.1-1,4.2-1.1,6.4c0,1.4,0.2,2.8,0.7,4.1l4.3,1L25.9,21.2z"/>
		<path class="st0" d="M21.7,36.6c1.4,1.6,3.1,3,4.9,4.1c1.2,0.8,2.6,1.3,4,1.5l2.9-3.3l-8.8-5.2L21.7,36.6z"/>
		<path class="st0" d="M50.7,19.9c-1.4-1.6-3.1-3-4.9-4.1c-1.2-0.7-2.6-1.2-4-1.5l-2.9,3.3l8.8,5.2L50.7,19.9z"/>
		<path class="st0" d="M42.1,42.7c1.2-0.7,2.3-1.6,3.2-2.7l-1.3-4.2l-9,5l1,4.2C38.2,44.6,40.3,43.8,42.1,42.7z"/>
		<path class="st0" d="M36.2,11.5c-2.1,0.4-4.1,1.2-6,2.2c-1.2,0.7-2.3,1.7-3.3,2.7l1.3,4.2l9-5L36.2,11.5z"/>
	</g>
	<path class="st1" d="M36.2,28.2"/>
	<g>
		<path class="st2" d="M21.7,36.6c0.7,0.6,1.8,0.2,2.6-0.7s0.9-2.1,0.2-2.7c-0.7-0.6-1.8-0.2-2.6,0.7C21.1,34.8,21,36.1,21.7,36.6z"
			/>
		<path class="st2" d="M50.5,22.6c0.8-0.9,0.9-2.1,0.2-2.7c-0.7-0.6-1.8-0.2-2.6,0.7c-0.8,0.9-0.9,2.1-0.2,2.7
			C48.5,23.9,49.7,23.5,50.5,22.6z"/>
		<path class="st2" d="M33.9,43.5c0.4,1.1,1.4,1.8,2.2,1.5c0.8-0.3,1.1-1.5,0.7-2.6c-0.4-1.1-1.4-1.8-2.2-1.5
			C33.9,41.1,33.5,42.3,33.9,43.5z"/>
		<path class="st2" d="M37.7,15.6c0.8-0.3,1.1-1.5,0.7-2.6c-0.4-1.1-1.4-1.8-2.2-1.5s-1.1,1.5-0.7,2.6
			C35.9,15.2,36.9,15.9,37.7,15.6z"/>
		<path class="st2" d="M46.4,35.9c-0.1,0.9,0.7,1.7,1.9,1.9c1.2,0.2,2.3-0.3,2.5-1.2c0.1-0.9-0.7-1.7-1.9-1.9
			C47.6,34.5,46.5,35,46.4,35.9z"/>
		<path class="st2" d="M23.6,21.8c1.2,0.2,2.3-0.3,2.5-1.2c0.2-0.9-0.7-1.7-1.9-1.9c-1.2-0.2-2.3,0.3-2.5,1.2
			C21.6,20.7,22.4,21.6,23.6,21.8z"/>
	</g>
	<g>
		<path class="st3" d="M21.9,34.9c0.2,0.1,0.3,0.1,0.4,0c0.3-0.2,0.7-0.3,1.1-0.3c0.5-0.4,0.8-1,1-1.6L23.7,30l-1.7,2.4
			c0,0-1.4,0.8-1.4,1.3C20.9,34.2,21.4,34.6,21.9,34.9z"/>
		<path class="st3" d="M51.8,22.8c-0.4-0.4-0.8-0.8-1.3-1.2c-0.2-0.1-0.3-0.1-0.4,0C49.8,21.9,49.4,22,49,22c-0.5,0.4-0.8,1-1,1.6
			l0.7,2.9l1.7-2.4C50.4,24.1,51.9,23.4,51.8,22.8z"/>
		<path class="st3" d="M34.8,43.9c0.1,0,0.2-0.2,0.2-0.4c0-0.4,0.1-0.8,0.3-1.1c-0.1-0.6-0.4-1.2-0.9-1.7l-2.9-0.9l1.1,2.8
			c0,0,0,1.6,0.5,1.8C33.7,44.3,34.3,44.1,34.8,43.9z"/>
		<path class="st3" d="M40.8,16.6l-1.1-2.8c0,0,0-1.6-0.5-1.8c-0.6,0.2-1.2,0.3-1.7,0.6c-0.1,0-0.2,0.2-0.2,0.4
			c0,0.4-0.1,0.8-0.3,1.1c0.1,0.6,0.4,1.2,0.9,1.7L40.8,16.6z"/>
		<path class="st3" d="M48.7,39.1c0.2-0.6,0.3-1.2,0.4-1.8c0-0.2-0.1-0.3-0.2-0.4c-0.3-0.2-0.6-0.4-0.9-0.7
			c-0.6-0.2-1.2-0.2-1.9-0.1l-2.2,2.1l2.9,0.5C46.9,38.6,48.2,39.4,48.7,39.1z"/>
		<path class="st3" d="M24.3,20.4c0.6,0.2,1.2,0.2,1.9,0.1l2.2-2.1L25.5,18c0,0-1.4-0.8-1.9-0.5c-0.2,0.6-0.3,1.2-0.4,1.8
			c0,0.2,0.1,0.3,0.2,0.4C23.8,19.8,24.1,20.1,24.3,20.4z"/>
	</g>
	<circle class="st4" cx="36.2" cy="28.2" r="11.6"/>
	<path class="st5" d="M21.1,33.6c0.3-0.1,0.6-0.2,1-0.3c0.5,0.2,1,0.7,1.3,1.2c0.9,1.1,5.4,5,6.6,5.8l1.1,2.8
		c0.3,0.5,0.6,0.9,1.1,1.3c0.5,0.2,1.3,0.2,1.3-0.4c0-0.3,0.1-0.7,0.2-1c0.5-0.3,1-0.5,1.6-0.5c1.2-0.2,7-2.1,8.4-2.8l2.9,0.3
		c0.6,0.1,1.1,0,1.6-0.3c0.4-0.3,0.9-1,0.4-1.2c-0.4-0.1-0.7-0.6-0.7-0.6s-0.2-0.5,0.3-1.7c0.5-1.2,1.7-7,1.8-8.5l1.8-2.3
		c0,0,0.7-1,0.6-1.6c-0.1-0.5-0.6-1.2-1-0.9c-0.3,0.1-0.6,0.2-1,0.3c-0.5-0.2-1-0.6-1.3-1.2c-0.8-1-5.4-4.9-6.6-5.7l-1.1-2.8
		c-0.2-0.5-0.6-0.9-1.1-1.3C39.7,12,38.9,12,39,12.6c0,0.3-0.1,0.7-0.2,1c-0.5,0.3-1,0.5-1.6,0.5c-1.3,0.2-7.1,2.2-8.4,2.8l-3-0.4
		c-0.6-0.1-1.1,0-1.6,0.3c-0.4,0.3-0.8,1-0.4,1.2c0.4,0.1,0.7,0.6,0.7,0.6s0.2,0.5-0.3,1.7c-0.5,1.2-1.7,7-1.8,8.4l-1.8,2.3
		c0,0-0.7,1-0.6,1.6C20.2,33.2,20.7,34,21.1,33.6z M27,22.8c0.8-1.1,1.8-2.1,2.9-2.9l1.6-0.3c0.5-0.3,1.2-1.3,1.2-1.2
		c1.1-0.5,2.4-0.8,3.6-0.7c1.3,0.1,2.7,0.4,3.9,1l1.1,1.2c0.5,0.2,1,0.4,1.6,0.4l0,0c1,0.7,1.9,1.7,2.4,2.8c0.6,1.2,0.9,2.5,1.1,3.9
		l-0.5,1.5c0.1,0.6,0.2,1.1,0.5,1.6c-0.1,1.2-0.5,2.4-1.2,3.5c-0.8,1.1-1.7,2.1-2.9,2.9l-1.5,0.3c-0.4,0.4-0.8,0.8-1.1,1.3l0,0
		c-1.1,0.5-2.4,0.8-3.6,0.7c-1.3-0.1-2.7-0.4-3.9-1L31,36.6c-0.5-0.3-1.7-0.4-1.7-0.5c-1-0.7-1.9-1.7-2.4-2.8
		c-0.5-1.2-0.9-2.5-1-3.9l0.5-1.5c-0.1-0.6-0.3-1.1-0.5-1.6C25.9,25.1,26.3,23.9,27,22.8z"/>
	<path class="st5" d="M30.8,34.4l0.1,0.1l1.2-0.6l1.1,0.7l-0.1,1.3l0.2,0c1.7,0.7,3.7,0.7,5.4,0.1l0.1-0.1l0-1.3l1.1-0.6l1.1,0.7
		l0.1-0.1c1.5-1.2,2.4-2.9,2.8-4.8l0-0.2l-0.2-0.1l0,0l0,0L43,28.9l0.1-1.3l1.1-0.6l-0.1-0.2c-0.2-0.9-0.5-1.8-1-2.6
		c-0.5-0.8-1.1-1.5-1.8-2.1l-0.1,0l0,0l-1,0.5L39.2,22l0.1-1.3l-0.2,0c-1.7-0.7-3.7-0.7-5.4-0.1l-0.1,0.1l0,1.3l-1.2,0.6l-1.1-0.7
		l-0.1,0.1c-1.5,1.2-2.4,2.9-2.8,4.8l0,0.2l1.1,0.7l-0.1,1.3l-1.1,0.7l0.1,0.2c0.1,0.9,0.4,1.8,0.9,2.6
		C29.7,33.1,30.2,33.8,30.8,34.4z M38.3,35.5c-1.6,0.5-3.2,0.5-4.8,0l1.8-4.9c0.5,0.1,1,0.1,1.5,0l1.5,4.1L38.3,35.5z M41,34L41,34
		L37.7,30c0.4-0.3,0.7-0.8,0.8-1.3l4.9,0.9C43.1,31.3,42.2,32.8,41,34L41,34z M41.1,22.6L41.1,22.6c0.7,0.5,1.2,1.1,1.6,1.8
		c0.4,0.7,0.7,1.5,0.9,2.3l-0.2,0.1l-4.8,0.8c-0.1-0.3-0.1-0.5-0.3-0.7c-0.1-0.2-0.2-0.4-0.4-0.6L41.1,22.6z M33.8,21.2l0-0.3
		c1.6-0.5,3.3-0.5,4.9,0.1l0,0.2l-1.8,4.6c-0.5-0.2-1-0.2-1.5,0L33.8,21.2z M28.7,26.6c0.4-1.6,1.3-3,2.5-4.1l0.4,0.2l3,3.6
		c-0.4,0.3-0.6,0.8-0.8,1.3L28.7,26.6z M28.5,29.7l0.3-0.2l4.8-0.8c0,0.3,0.1,0.5,0.3,0.7c0.1,0.2,0.3,0.4,0.5,0.6l-3.1,3.7
		l-0.4,0.2C29.7,32.8,28.8,31.3,28.5,29.7L28.5,29.7z"/>
	<g>
		<circle class="st6" cx="36.2" cy="28.2" r="2.1"/>
	</g>
</g>
<path class="st7" d="M30,9.2h-0.2c-0.6,0-1.1-0.5-1.1-1.1c0,0,0,0,0,0V7.6c0-0.6,0.5-1.1,1.1-1.1c0,0,0,0,0,0H30
	c0.5,0,1,0.4,1.1,0.9v0.8C31.1,8.7,30.7,9.2,30,9.2C30,9.2,30,9.2,30,9.2z"/>
<rect x="23.9" y="9.6" class="st8" width="12.5" height="10.3"/>
<path class="st7" d="M36.9,20.5H23.5V9.2h13.5L36.9,20.5z M24.4,19.5H36v-9.4H24.4V19.5z"/>
<path class="st9" d="M32.1,5.7h-4.6c-2.6,0-3.7,1.1-3.7,2.9v1.1h12.5V8.5C36.4,6.9,35.2,5.7,32.1,5.7z"/>
<path class="st7" d="M36.9,10.1H23.5V8.5c0-1.2,0.5-3.3,4.1-3.3h4.6c4.1,0,4.7,2.1,4.7,3.3L36.9,10.1z M24.4,9.2H36V8.5
	c0-1.6-1.3-2.4-3.8-2.4h-4.6c-2.2,0-3.2,0.8-3.2,2.4L24.4,9.2z"/>
<path class="st10" d="M19.7,37.5l0.1-9.8c0-3.3-10.4-4.1-8.1-6c1.8-1.5,16.1-4.6,18.6-4.6h48c5.8,0,10.5,4.7,10.5,10.5c0,0,0,0,0,0
	V34c0,0-1.5,1.7-6.3,4c-3.2,1.5-6.5,2.8-9.9,3.9L19.7,37.5L19.7,37.5z"/>
<path class="st7" d="M72.7,42.3L72.7,42.3L19.2,38l0.1-10.2c0-1.4-2.7-2.4-4.9-3.2c-2-0.7-3.4-1.2-3.5-2.1c-0.1-0.4,0.1-0.8,0.5-1.1
	c2-1.6,16.5-4.7,18.9-4.7h48c6.1,0,11,4.9,11,11v6.5l-0.1,0.1c-0.1,0.1-1.6,1.8-6.4,4.1c-3.2,1.5-6.5,2.8-9.9,3.9H72.7z M20.1,37.1
	l52.5,4.3c3.3-1.1,6.6-2.3,9.7-3.8c2.2-0.9,4.2-2.2,6-3.7v-6.2c0-5.6-4.5-10.1-10.1-10.1h-48c-2.5,0-16.6,3.1-18.4,4.5
	c-0.1,0.1-0.2,0.2-0.2,0.2c0.1,0.4,1.9,1,2.9,1.4c2.6,0.9,5.5,2,5.5,4.1L20.1,37.1z"/>
<path class="st10" d="M3.6,41.9l0.1-9.8c0-5.8,4.7-10.5,10.5-10.5c0,0,0,0,0,0h48c5.8,0,10.5,4.7,10.5,10.5c0,0,0,0,0,0v9.8H3.6z"/>
<path class="st7" d="M73.2,42.3H3.2l0.1-10.3c0-6.1,4.9-11,11-11h48c6.1,0,11,4.9,11,11L73.2,42.3z M4.1,41.4h68.2v-9.3
	c0-5.6-4.5-10.1-10.1-10.1h-48C8.7,22,4.2,26.5,4.2,32.1L4.1,41.4z"/>
<path class="st7" d="M18.7,9.9h-0.2c-0.6,0-1.1-0.5-1.1-1.1c0,0,0,0,0,0V8.2c0-0.6,0.5-1.1,1.1-1.1c0,0,0,0,0,0h0.2
	c0.5,0.1,1,0.5,1.1,1v0.7C19.8,9.4,19.3,9.9,18.7,9.9C18.7,9.9,18.7,9.9,18.7,9.9z"/>
<rect x="12.5" y="12.4" class="st8" width="12.6" height="10.3"/>
<path class="st7" d="M25.5,23.2H12V11.9h13.5V23.2z M12.9,22.3h11.6v-9.4H12.9L12.9,22.3z"/>
<path class="st9" d="M20.8,8.3h-4.6c-2.6,0-3.7,1.1-3.7,2.9v1.1H25v-1.1C25,9.5,23.8,8.3,20.8,8.3z"/>
<path class="st7" d="M25.5,12.8H12v-1.6c0-1.2,0.5-3.3,4.1-3.3h4.6c4.1,0,4.7,2.1,4.7,3.3V12.8z M12.9,11.8h11.6v-0.6
	c0-1.6-1.3-2.4-3.8-2.4h-4.6c-2.2,0-3.2,0.8-3.2,2.4L12.9,11.8z"/>
<path class="st10" d="M64.8,4.3c0.4,0.2,0.7,0.4,1,0.6c-0.4,1.6-0.6,3.3-0.6,5c0,2.7,0,5.6,1.3,7.2c0.3,0.4,0.6,0.6,0.6,1
	c-0.3,0.7-1.1,1.2-1.9,1c-1-0.3-1.5-1.7-1.6-1.9s-0.1-0.5-0.2-0.5c-0.7-3.9-2-10.9-0.3-12.4C63.7,4,64.4,4,64.8,4.3L64.8,4.3z"/>
<path class="st7" d="M65.6,19.7c-0.1,0-0.3,0-0.4,0c-0.9-0.4-1.5-1.1-1.8-2l-0.1-0.1c0-0.1-0.1-0.2-0.1-0.3c0,0,0-0.1,0-0.1
	l-0.1-0.1v-0.1C62,11.1,61.3,5.5,63,4.1c0.5-0.5,1.4-0.6,2-0.1l0,0c0.4,0.2,0.7,0.4,1.1,0.7l0.2,0.2l-0.1,0.3
	c-0.4,1.6-0.5,3.2-0.5,4.9c0,2.6,0,5.5,1.2,6.9l0.2,0.3c0.3,0.3,0.5,0.6,0.5,1c-0.1,0.5-0.3,0.9-0.7,1.1
	C66.6,19.5,66.1,19.7,65.6,19.7z M64.2,17.2L64.2,17.2c0.1,0.4,0.5,1.4,1.2,1.5c0.3,0.1,0.7,0,0.9-0.2c0.2-0.1,0.3-0.2,0.3-0.4
	c-0.1-0.1-0.2-0.2-0.3-0.4c-0.1-0.1-0.2-0.2-0.3-0.3c-1.4-1.7-1.4-4.8-1.4-7.5c0-1.6,0.2-3.2,0.5-4.8C65,5,64.8,4.9,64.5,4.7
	c-0.6-0.3-0.9-0.1-0.9,0C62,6.1,63.4,13.6,64,16.6c0.1,0.1,0.1,0.2,0.1,0.4C64.1,17,64.1,17.1,64.2,17.2L64.2,17.2z"/>
<path class="st10" d="M79.6,1.5c-0.3,3.1-0.3,6.4-0.3,9.9c0,1.9,0.1,3.6,0.1,5.3c-2.2,0.6-4.5,1.2-7.1,1.7c-2,0.4-4.1,0.7-6.2,0.9
	h-0.7c-0.5-0.1-0.4-6.6-0.5-10.1c-0.1-1.7-0.4-3.5-0.8-5.2c2.2-1.3,4.6-2.2,7.1-2.7C74,0.8,76.9,0.9,79.6,1.5z"/>
<path class="st7" d="M65.8,19.6h-0.5c-0.7-0.1-0.8-0.9-0.9-6.5c0-1.5,0-3-0.1-4.1c-0.1-1.6-0.3-3.2-0.7-4.7l-0.2-0.7l0.3-0.2
	C66,2.1,68.5,1.2,71,0.7c2.9-0.4,5.8-0.3,8.7,0.3l0.4,0.1v0.4c-0.3,3.1-0.3,6.4-0.3,9.8c0,1,0,1.9,0,2.8s0,1.7,0,2.5V17l-1.8,0.4
	c-1.8,0.5-3.7,0.9-5.7,1.3c-2.1,0.4-4.1,0.7-6.2,0.9L65.8,19.6z M64.5,4.1L64.5,4.1c0.4,1.7,0.7,3.3,0.8,4.9
	c0.1,1.2,0.1,2.7,0.1,4.2c0,1.9,0.1,3.7,0.3,5.5h0.5c2-0.2,4.1-0.5,6.1-0.9c2-0.4,3.9-0.8,5.7-1.3l1.1-0.3c0-0.7,0-1.4,0-2.1
	c0-0.9,0-1.8,0-2.8c0-3.3,0-6.5,0.2-9.5c-2.6-0.5-5.3-0.6-7.9-0.2C68.8,2,66.6,2.9,64.5,4.1L64.5,4.1z"/>
<path class="st7" d="M72.8,14.4c-2,0-3.7-2.1-3.7-4.8s1.7-4.8,3.7-4.8s3.7,2.1,3.7,4.8S74.9,14.4,72.8,14.4z"/>
<path class="st6" d="M72.8,14.5c-2.1,0-3.8-2.2-3.8-4.9s1.7-4.9,3.8-4.9s3.8,2.2,3.8,4.9S74.9,14.5,72.8,14.5z M72.8,4.9
	c-2,0-3.6,2.1-3.6,4.7s1.6,4.7,3.6,4.7s3.6-2,3.6-4.7S74.7,4.9,72.8,4.9z"/>
<path class="st10" d="M73,14.4c-1.9,0-3.5-2.1-3.5-4.8s1.6-4.8,3.5-4.8s3.5,2.1,3.5,4.8S75,14.4,73,14.4z"/>
<path class="st6" d="M73,14.5c-2,0-3.6-2.2-3.6-4.9S71,4.7,73,4.7s3.6,2.2,3.6,4.9S75,14.5,73,14.5z M73,4.9c-1.9,0-3.4,2.1-3.4,4.7
	s1.5,4.7,3.4,4.7s3.4-2.1,3.4-4.7S74.9,4.9,73,4.9z"/>
<path class="st7" d="M73,13.6c-1.7,0-3-1.9-3-4.1s1.4-4.1,3-4.1s3,1.8,3,4.1S74.7,13.6,73,13.6z"/>
<path class="st6" d="M73,13.8c-1.7,0-3.2-1.9-3.2-4.2s1.5-4.2,3.2-4.2s3.2,1.9,3.2,4.2S74.8,13.8,73,13.8z M73,5.6
	c-1.6,0-2.9,1.8-2.9,4s1.4,4,2.9,4s2.9-1.8,2.9-4S74.6,5.6,73,5.6z"/>
<path class="st11" d="M72.8,13.5c-1.4,0-2.4-1.8-2.4-4s1.1-4,2.4-4s2.4,1.8,2.4,4S74.1,13.5,72.8,13.5z"/>
<path class="st12" d="M72.6,13.5c-1.4,0-2.4-1.8-2.4-4s1.1-4,2.4-4s2.4,1.8,2.4,4S74,13.5,72.6,13.5z"/>
<path class="st13" d="M73.1,12.7c-0.8,0-1.5-1.1-1.5-2.6s0.6-2.6,1.5-2.6s1.5,1.1,1.5,2.6S74,12.7,73.1,12.7z"/>
<path class="st14" d="M73.4,11.7c-0.4,0-0.7-0.5-0.7-1.2s0.3-1.2,0.7-1.2s0.7,0.6,0.7,1.2S73.8,11.7,73.4,11.7z"/>
<path class="st6" d="M72.6,13.8c-1.5,0-2.8-1.9-2.8-4.2s1.3-4.2,2.8-4.2s2.8,1.9,2.8,4.2S74.2,13.8,72.6,13.8z M72.6,5.6
	c-1.4,0-2.6,1.8-2.6,4s1.1,4,2.6,4s2.6-1.8,2.6-4S74.1,5.6,72.6,5.6z"/>
<path class="st8" d="M86.3,25.2c-1.2,0.2-2.4,0.4-3.5,0.8C81,27,81,30.9,83.1,32.3c2.5,0.1,3.8,0.1,3.8,0.1L86.3,25.2z"/>
<path class="st6" d="M87,32.5h-0.1c0,0-1.3,0-3.8-0.1l0,0l0,0c-1.2-0.9-1.8-2.3-1.7-3.7c0-1,0.5-2,1.4-2.6c1.1-0.4,2.3-0.7,3.5-0.8
	h0.1v0.1L87,32.5z M83.1,32.2c2.1,0.1,3.3,0.1,3.6,0.1l-0.5-6.9c-1.1,0.2-2.3,0.4-3.4,0.8c-0.8,0.5-1.3,1.5-1.3,2.4
	C81.4,30,82,31.3,83.1,32.2L83.1,32.2z"/>
<path class="st10" d="M86.5,32.4c-1.5,0-2.6-1.6-2.6-3.6s1.2-3.6,2.6-3.6s2.6,1.6,2.6,3.6S88,32.4,86.5,32.4z"/>
<path class="st6" d="M86.5,32.5c-1.5,0-2.7-1.6-2.7-3.7s1.2-3.7,2.7-3.7s2.7,1.6,2.7,3.7c0.1,1.1-0.3,2.1-1,2.9
	C87.8,32.2,87.1,32.4,86.5,32.5z M86.5,25.3c-1.3,0-2.5,1.6-2.5,3.5s1.1,3.5,2.5,3.5c0.6,0,1.2-0.3,1.6-0.7c0.7-0.8,1-1.8,0.9-2.8
	C89,26.8,87.9,25.2,86.5,25.3L86.5,25.3z"/>
<path class="st7" d="M86.5,31.8c-1.3,0-2.3-1.4-2.3-3s1-3,2.3-3s2.3,1.4,2.3,3S87.8,31.8,86.5,31.8z"/>
<path class="st6" d="M86.5,31.9c-1.3,0-2.4-1.4-2.4-3.1s1.1-3.1,2.4-3.1s2.4,1.4,2.4,3.1S87.9,31.9,86.5,31.9z M86.5,25.8
	c-1.2,0-2.2,1.3-2.2,3s1,3,2.2,3s2.2-1.3,2.2-3S87.7,25.8,86.5,25.8L86.5,25.8z"/>
<path class="st15" d="M86.3,31.7c-1,0-1.9-1.3-1.9-3s0.8-3,1.9-3s1.8,1.3,1.8,3S87.3,31.7,86.3,31.7z"/>
<path class="st16" d="M86.1,31.7c-1,0-1.8-1.3-1.8-3s0.8-3,1.8-3s1.9,1.3,1.9,3S87.2,31.7,86.1,31.7z"/>
<path class="st6" d="M86.2,31.9c-1.2,0-2.1-1.4-2.1-3.1s1-3.1,2.1-3.1s2.1,1.4,2.1,3.1S87.4,31.9,86.2,31.9z M86.2,25.8
	c-1.1,0-1.9,1.4-1.9,3s0.9,3,1.9,3s1.9-1.3,1.9-3S87.3,25.8,86.2,25.8L86.2,25.8z"/>
<path class="st8" d="M79.9,27.9c-1.2,0.2-2.4,0.4-3.5,0.8c-1.9,0.9-1.9,4.8,0.3,6.2c2.5,0.1,3.8,0.1,3.8,0.1L79.9,27.9z"/>
<path class="st6" d="M80.5,35.1h-0.1c0,0-1.3,0-3.8-0.1l0,0c-1.2-0.9-1.8-2.3-1.7-3.7c0-1.1,0.5-2,1.4-2.6c1.1-0.4,2.3-0.7,3.5-0.8
	H80v0.1L80.5,35.1z M76.7,34.8c2.1,0.1,3.3,0.1,3.6,0.1L79.8,28c-1.1,0.2-2.3,0.4-3.4,0.8c-0.8,0.5-1.3,1.5-1.3,2.4
	C75,32.7,75.6,34,76.7,34.8z"/>
<path class="st10" d="M80,35c-1.5,0-2.6-1.6-2.6-3.6s1.2-3.6,2.6-3.6s2.6,1.6,2.6,3.6S81.6,35,80,35z"/>
<path class="st6" d="M80,35.1c-1.5,0-2.7-1.6-2.7-3.7s1.2-3.7,2.7-3.7s2.7,1.6,2.7,3.7S81.6,35.1,80,35.1z M80,27.9
	c-1.4,0-2.5,1.6-2.5,3.5s1.1,3.5,2.5,3.5s2.5-1.5,2.5-3.5S81.5,27.9,80,27.9z"/>
<path class="st7" d="M80,34.6c-1.3,0-2.3-1.4-2.3-3c0-1.6,1-3,2.3-3s2.3,1.4,2.3,3C82.4,33.2,81.3,34.6,80,34.6z"/>
<path class="st6" d="M80,34.7c-1.3,0-2.4-1.4-2.4-3.1c0-1.7,1.1-3.1,2.4-3.1s2.4,1.4,2.4,3.1C82.4,33.3,81.4,34.7,80,34.7z M80,28.6
	c-1.2,0-2.2,1.3-2.2,3c0,1.7,1,3,2.2,3s2.2-1.3,2.2-3C82.3,29.9,81.3,28.6,80,28.6z"/>
<path class="st15" d="M79.9,34.5c-1,0-1.9-1.3-1.9-3c0-1.7,0.8-3,1.9-3s1.8,1.3,1.8,3C81.7,33.2,80.9,34.5,79.9,34.5z"/>
<path class="st16" d="M79.7,34.5c-1,0-1.8-1.3-1.8-3c0-1.7,0.8-3,1.8-3s1.9,1.3,1.9,3C81.5,33.2,80.7,34.5,79.7,34.5z"/>
<path class="st6" d="M79.8,34.7c-1.2,0-2.1-1.4-2.1-3.1c0-1.7,1-3.1,2.1-3.1s2.1,1.4,2.1,3.1C81.9,33.3,80.9,34.7,79.8,34.7z
	 M79.8,28.6c-1,0-1.9,1.4-1.9,3c0,1.6,0.9,3,1.9,3s1.9-1.4,1.9-3C81.7,30,80.8,28.6,79.8,28.6z"/>
<g>
	<g>
		<path class="st0" d="M53.4,24.2l-2.5-3.6c-1.8,1.2-3.4,2.7-4.7,4.4c-0.9,1.1-1.6,2.4-2,3.7l2.8,3.4L53.4,24.2z"/>
		<path class="st0" d="M61,48l2.5,3.6c1.8-1.2,3.4-2.7,4.7-4.4c0.9-1.1,1.6-2.4,2-3.7l-2.8-3.4L61,48z"/>
		<path class="st0" d="M73.8,38.4c-0.2-2.2-0.6-4.3-1.4-6.3c-0.5-1.3-1.3-2.6-2.2-3.6l-4.3,0.8l3.8,9.5L73.8,38.4z"/>
		<path class="st0" d="M40.6,33.9c0.2,2.2,0.6,4.3,1.4,6.3c0.6,1.3,1.3,2.5,2.2,3.6l4.3-0.8l-3.8-9.5L40.6,33.9z"/>
		<path class="st0" d="M61.3,21.1c-1.4-0.2-2.8-0.2-4.2,0.2l-1.5,4.1l10.1,1.5l1.7-3.9C65.6,22,63.5,21.4,61.3,21.1z"/>
		<path class="st0" d="M47,49.4c1.9,1,4,1.6,6.1,1.9c1.4,0.2,2.9,0.1,4.3-0.1l1.5-4.1l-10.2-1.6L47,49.4z"/>
	</g>
	<path class="st1" d="M57.2,36.2"/>
	<g>
		<path class="st2" d="M73.8,38.4c-0.2-0.9-1.3-1.3-2.5-1.1c-1.2,0.3-2,1.2-1.8,2c0.2,0.8,1.3,1.3,2.5,1.1S74,39.3,73.8,38.4z"/>
		<path class="st2" d="M42.5,31.9c-1.2,0.3-2,1.2-1.8,2c0.2,0.9,1.3,1.3,2.5,1c1.2-0.3,2-1.2,1.8-2C44.8,32.1,43.7,31.7,42.5,31.9z"
			/>
		<path class="st2" d="M68.3,25.5c0.3-1.2,0-2.3-0.8-2.6c-0.8-0.3-1.8,0.5-2.2,1.6c-0.4,1.1,0,2.3,0.8,2.6S67.9,26.7,68.3,25.5z"/>
		<path class="st2" d="M48.3,45.3c-0.8-0.2-1.8,0.5-2.2,1.6c-0.4,1.2,0,2.3,0.8,2.6c0.8,0.3,1.8-0.5,2.2-1.6
			C49.5,46.7,49.1,45.5,48.3,45.3z"/>
		<path class="st2" d="M53.8,23.9c0.6-0.6,0.5-1.8-0.3-2.7s-2-1.2-2.7-0.6c-0.6,0.6-0.5,1.8,0.3,2.7C52,24.3,53.1,24.5,53.8,23.9z"
			/>
		<path class="st2" d="M63.2,49c-0.8-0.9-2-1.2-2.7-0.6c-0.6,0.6-0.5,1.8,0.3,2.7s2,1.2,2.7,0.6C64.2,51.1,64,49.9,63.2,49z"/>
	</g>
	<g>
		<path class="st3" d="M72.6,39.7c-0.1-0.2-0.1-0.2-0.3-0.2c-0.4,0-0.8-0.2-1.1-0.5c-0.6,0-1.2,0.3-1.7,0.7l-1.2,2.8l2.8-0.8
			c0,0,1.6,0.3,1.9-0.2C72.9,40.8,72.8,40.2,72.6,39.7z"/>
		<path class="st3" d="M41.5,30.9c0,0.6,0.1,1.2,0.3,1.7c0.1,0.2,0.1,0.2,0.3,0.2c0.4,0,0.8,0.2,1.1,0.4c0.6,0,1.2-0.3,1.7-0.7
			l1.2-2.8l-2.8,0.8C43.4,30.7,41.8,30.5,41.5,30.9z"/>
		<path class="st3" d="M67.8,24.6c-0.1,0-0.3,0.1-0.4,0.2c-0.2,0.3-0.6,0.5-0.9,0.7c-0.3,0.6-0.4,1.2-0.3,1.9l1.8,2.5l0.8-2.9
			c0,0,1-1.3,0.7-1.8C69,25,68.4,24.8,67.8,24.6z"/>
		<path class="st3" d="M46.5,42.5l-0.8,2.9c0,0-1,1.3-0.7,1.8c0.6,0.2,1.1,0.5,1.7,0.6c0.1,0,0.3-0.1,0.4-0.2
			c0.2-0.3,0.6-0.5,0.9-0.7c0.3-0.6,0.4-1.2,0.3-1.9L46.5,42.5z"/>
		<path class="st3" d="M53.9,20c-0.5,0.3-1,0.7-1.4,1.2c-0.1,0.2-0.2,0.3-0.1,0.5c0.1,0.4,0.2,0.7,0.2,1.1c0.4,0.5,0.8,0.9,1.4,1.2
			l3-0.3l-2-2.2C55.1,21.5,54.5,20.1,53.9,20z"/>
		<path class="st3" d="M61.8,49.7c-0.4-0.5-0.8-0.9-1.4-1.2l-3,0.3l2,2.1c0,0,0.6,1.5,1.2,1.6c0.5-0.3,1-0.7,1.4-1.2
			c0.1-0.2,0.2-0.3,0.1-0.5C61.9,50.4,61.8,50.1,61.8,49.7z"/>
	</g>
	<circle class="st4" cx="57.2" cy="36.2" r="11.6"/>
	<path class="st5" d="M72.5,41.1c-0.3-0.1-0.6-0.2-0.9-0.3c-0.3-0.5-0.4-1.1-0.3-1.7c0-1.4-1.3-7.3-1.7-8.6l0.8-2.9
		c0.1-0.5,0.1-1.1-0.1-1.7c-0.3-0.5-1-1-1.2-0.5c-0.2,0.3-0.5,0.5-0.8,0.7c-0.6,0-1.1-0.2-1.6-0.6c-1.1-0.6-6.9-2.6-8.3-2.9l-2.1-2
		c-0.4-0.4-0.9-0.7-1.5-0.8c-0.5,0-1.3,0.3-1,0.7c0.3,0.3,0.2,0.9,0.2,0.9s-0.1,0.5-1.3,1.1S47,27.2,46,28.3L43.2,29
		c0,0-1.2,0.4-1.4,0.9c-0.2,0.5-0.3,1.3,0.2,1.4c0.3,0.1,0.6,0.2,0.9,0.3c0.3,0.5,0.4,1.1,0.3,1.7c0,1.3,1.3,7.2,1.7,8.6l-0.8,2.9
		c-0.1,0.5-0.1,1.1,0.1,1.7c0.3,0.5,1,1,1.2,0.5c0.2-0.3,0.5-0.5,0.8-0.7c0.6,0.1,1.1,0.3,1.6,0.6c1.2,0.6,6.9,2.6,8.3,2.9l2.1,2.1
		c0.4,0.4,0.9,0.7,1.5,0.8c0.5,0,1.3-0.3,1-0.7c-0.3-0.3-0.2-0.9-0.2-0.9s0.1-0.5,1.3-1.1c1.1-0.6,5.6-4.5,6.6-5.6l2.9-0.7
		c0,0,1.2-0.4,1.4-0.9C72.9,42,73,41.1,72.5,41.1z M61.2,46.1c-1.3,0.4-2.7,0.6-4,0.5l-1.4-0.7c-0.6-0.1-1.7,0.3-1.7,0.2
		c-1.2-0.3-2.4-0.8-3.3-1.6c-1-0.9-1.9-2-2.5-3.2l-0.2-1.6c-0.3-0.5-0.6-0.9-1-1.3l0,0c-0.4-1.2-0.5-2.4-0.2-3.7
		c0.3-1.3,0.8-2.6,1.5-3.7l1.3-0.9c0.3-0.5,0.5-1,0.6-1.6c0.9-0.9,1.9-1.6,3.1-2c1.3-0.4,2.7-0.6,4-0.5l1.4,0.7
		c0.6,0,1.1-0.1,1.7-0.3l0,0c1.2,0.3,2.4,0.8,3.3,1.6c1,0.9,1.9,2,2.5,3.2l0.2,1.6c0.2,0.5,1.1,1.4,1,1.4c0.4,1.2,0.5,2.4,0.2,3.7
		c-0.3,1.3-0.8,2.6-1.5,3.7l-1.3,0.9c-0.3,0.5-0.5,1-0.6,1.6C63.4,45,62.4,45.7,61.2,46.1z"/>
	<path class="st5" d="M65.2,34.6l0-0.1l-1.3-0.2l-0.4-1.2l0.8-1L64.1,32c-1-1.6-2.5-2.8-4.2-3.4l-0.1,0l-0.8,1l-1.3-0.2l-0.5-1.2
		l-0.1,0c-1.9,0.1-3.7,0.8-5.1,2l-0.1,0.1l0.1,0.2l0,0l0,0l0.4,1l-0.8,1l-1.3-0.2L50,32.4c-0.4,0.9-0.7,1.8-0.8,2.7
		c-0.1,0.9-0.1,1.8,0.1,2.8l0.1,0.1l0,0l1.1,0.2l0.4,1.2l-0.8,1l0.1,0.1c1,1.6,2.5,2.8,4.2,3.4l0.1,0l0.8-1l1.3,0.2l0.4,1.2l0.1,0
		c1.9-0.1,3.7-0.8,5.1-2l0.1-0.1l-0.4-1.2l0.8-1l1.3,0.2l0.1-0.2c0.5-0.8,0.8-1.7,0.9-2.6C65.3,36.4,65.3,35.5,65.2,34.6z M60,29.1
		c1.5,0.6,2.8,1.6,3.7,2.9l-4.4,2.7c-0.3-0.4-0.7-0.7-1.2-0.9l1.4-4.1L60,29.1z M56.9,28.7L56.9,28.7l0.1,5.1c-0.5,0-1,0.2-1.4,0.5
		l-3.3-3.7C53.6,29.5,55.2,28.9,56.9,28.7L56.9,28.7z M49.8,37.7L49.8,37.7c-0.2-0.8-0.2-1.6-0.1-2.4c0.1-0.8,0.4-1.6,0.7-2.4l0.3,0
		l4.3,2.3c-0.1,0.2-0.2,0.5-0.2,0.7c0,0.2-0.1,0.5,0,0.7L49.8,37.7z M54.8,43.2l-0.2,0.2c-1.6-0.6-2.9-1.6-3.8-3l0.1-0.1l4.2-2.6
		c0.3,0.4,0.7,0.7,1.2,0.9L54.8,43.2z M62.2,42c-1.3,1-2.8,1.6-4.5,1.7l-0.2-0.4l-0.1-4.7c0.5,0,1-0.2,1.4-0.5L62.2,42z M64.1,39.7
		l-0.4,0l-4.3-2.3c0.1-0.2,0.2-0.5,0.2-0.7c0-0.3,0-0.5,0-0.8l4.7-1l0.4,0C65.1,36.6,64.9,38.2,64.1,39.7L64.1,39.7z"/>
	<g>
		<circle class="st6" cx="57.2" cy="36.2" r="2.1"/>
	</g>
</g>
<g>
	<g>
		<path class="st0" d="M13.4,24.1l0.1-4.4c2.2,0,4.3,0.3,6.4,1c1.4,0.4,2.6,1.1,3.7,2l-0.4,4.4L13.4,24.1z"/>
		<path class="st0" d="M20.5,48.1l-0.1,4.4c-2.2,0-4.3-0.3-6.4-1c-1.4-0.4-2.6-1.1-3.7-2l0.4-4.4L20.5,48.1z"/>
		<path class="st0" d="M4.5,47.4c-1.1-1.9-1.9-3.9-2.4-6c-0.3-1.4-0.4-2.8-0.2-4.2l4-1.7l2.2,10L4.5,47.4z"/>
		<path class="st0" d="M29.4,24.9c1.1,1.9,1.9,3.9,2.4,6c0.3,1.4,0.3,2.8,0.2,4.2l-4,1.7l-2.2-10L29.4,24.9z"/>
		<path class="st0" d="M5.1,26c1-1,2.2-1.7,3.6-2.2l3.6,2.5l-7.5,7l-3.6-2.3C2.1,29.2,3.5,27.5,5.1,26z"/>
		<path class="st0" d="M32.9,41.3c-1,1.9-2.4,3.6-4,5c-1.1,0.9-2.3,1.7-3.6,2.3l-3.6-2.5l7.5-7L32.9,41.3z"/>
	</g>
	<path class="st1" d="M17,36.2"/>
	<g>
		<path class="st2" d="M4.5,47.4c-0.3-0.8,0.3-1.8,1.5-2.3c1.1-0.5,2.3-0.2,2.6,0.6C9,46.5,8.3,47.5,7.2,48S4.9,48.2,4.5,47.4z"/>
		<path class="st2" d="M26.8,24.3c1.1-0.5,2.3-0.2,2.6,0.6c0.3,0.8-0.3,1.8-1.5,2.3c-1.1,0.5-2.3,0.2-2.6-0.6
			C25,25.8,25.7,24.8,26.8,24.3z"/>
		<path class="st2" d="M1.8,33.6c-0.9-0.8-1.3-1.9-0.8-2.6c0.5-0.7,1.8-0.6,2.7,0.1c0.9,0.7,1.3,1.9,0.8,2.6S2.8,34.3,1.8,33.6z"/>
		<path class="st2" d="M29.5,38.7c0.5-0.7,1.7-0.6,2.7,0.1c1,0.7,1.3,1.9,0.8,2.6c-0.5,0.7-1.7,0.6-2.7-0.1
			C29.3,40.5,28.9,39.4,29.5,38.7z"/>
		<path class="st2" d="M12.9,24.1c-0.9-0.1-1.4-1.2-1.2-2.4s1-2.1,1.9-2c0.9,0.1,1.4,1.2,1.2,2.4C14.6,23.4,13.8,24.2,12.9,24.1z"/>
		<path class="st2" d="M19.2,50.1c0.1-1.2,1-2.1,1.9-2c0.9,0.1,1.4,1.2,1.2,2.4c-0.2,1.2-1,2.1-1.9,2C19.6,52.4,19,51.3,19.2,50.1z"
			/>
	</g>
	<g>
		<path class="st3" d="M6.2,47.7c0-0.2,0-0.3,0.1-0.4c0.3-0.3,0.5-0.6,0.7-1c0.5-0.3,1.2-0.5,1.8-0.4l2.6,1.6l-2.8,0.9
			c0,0-1.2,1.1-1.7,0.9C6.6,48.8,6.4,48.3,6.2,47.7z"/>
		<path class="st3" d="M27,23c0.3,0.5,0.5,1,0.7,1.6c0,0.2,0,0.3-0.1,0.4c-0.3,0.3-0.5,0.6-0.6,1c-0.5,0.3-1.2,0.5-1.8,0.4l-2.6-1.6
			l2.8-0.9C25.3,23.9,26.5,22.8,27,23z"/>
		<path class="st3" d="M1.7,32.6c0.1-0.1,0.3-0.1,0.5,0c0.4,0.1,0.8,0.1,1.1,0.1c0.6,0.3,1,0.8,1.3,1.4L4.5,37l-2.3-1.9
			c0,0-1.5-0.5-1.6-1.1C0.9,33.5,1.3,33,1.7,32.6z"/>
		<path class="st3" d="M29.5,35.4l2.3,1.9c0,0,1.5,0.5,1.6,1.1c-0.3,0.5-0.7,1-1.1,1.5c-0.1,0.1-0.3,0.1-0.5,0
			c-0.4-0.1-0.8-0.1-1.1-0.1c-0.6-0.3-1-0.8-1.3-1.4L29.5,35.4z"/>
		<path class="st3" d="M10.6,20.9c0.6,0,1.2,0.1,1.8,0.2c0.2,0.1,0.3,0.2,0.3,0.3c0.1,0.4,0.2,0.7,0.4,1c0,0.6-0.2,1.2-0.5,1.8
			L10,25.7l0.5-2.9C10.5,22.8,10.2,21.3,10.6,20.9z"/>
		<path class="st3" d="M20.8,49.9c0-0.6,0.2-1.3,0.5-1.8l2.7-1.5l-0.5,2.9c0,0,0.3,1.6-0.1,2c-0.6,0-1.2-0.1-1.8-0.2
			c-0.2-0.1-0.3-0.2-0.3-0.3C21.1,50.6,21,50.2,20.8,49.9z"/>
	</g>
	<circle class="st4" cx="17" cy="36.2" r="11.6"/>
	<path class="st5" d="M7.8,50.1c0.5,0.2,1.7-0.1,1.7-0.1l2.8-1c1.4,0.3,7.3,1.1,8.6,0.9s1.7,0.2,1.7,0.2s0.4,0.5,0.4,0.9
		c0,0.5,0.8,0.4,1.3,0c0.4-0.4,0.7-0.9,0.8-1.5l0.6-2.9c1-1,4.6-5.9,5.3-7.1c0.2-0.5,0.6-1,1-1.4c0.3,0,0.7,0,1,0.1
		c0.5,0.2,0.8-0.5,0.7-1.1c-0.2-0.5-0.5-1-0.9-1.4L30.3,34c-0.4-1.4-2.7-7-3.4-8c-0.4-0.4-0.6-1-0.7-1.6c0.2-0.3,0.4-0.6,0.6-0.8
		c0.4-0.3-0.1-1-0.6-1.2c-0.5-0.2-1.7,0.1-1.7,0.1l-2.8,1c-1.4-0.3-7.3-1.1-8.6-1c-1.3,0.1-1.7-0.2-1.7-0.2s-0.4-0.5-0.4-0.9
		c0-0.5-0.8-0.4-1.3,0c-0.4,0.4-0.7,0.9-0.8,1.5l-0.7,2.8c-1,1-4.6,6-5.2,7.1c-0.2,0.5-0.5,1-1,1.4c-0.3,0-0.7,0-1-0.1
		c-0.5-0.2-0.8,0.5-0.7,1.1c0.2,0.5,0.5,1,0.9,1.4l2.3,1.9c0.4,1.4,2.7,7,3.4,8.1c0.4,0.4,0.6,1,0.7,1.6c-0.2,0.3-0.4,0.6-0.6,0.8
		C6.7,49.2,7.3,49.9,7.8,50.1z M15.6,46.7c-0.4-0.4-0.9-0.7-1.4-1l-1.6,0c-1.2-0.6-2.4-1.3-3.4-2.2c-0.9-0.9-1.5-2-1.9-3.2
		c-0.1,0,0.2-1.2,0-1.8l-0.8-1.4c-0.2-1.3-0.1-2.7,0.3-4c0.3-1.2,1-2.3,1.8-3.2l0,0c0.5-0.2,1.1-0.4,1.5-0.7l0.8-1.4
		c1.1-0.8,2.3-1.4,3.6-1.8c1.2-0.3,2.5-0.3,3.7-0.1c0.4,0.4,0.9,0.7,1.4,1l1.6,0c1.2,0.6,2.4,1.3,3.4,2.2c0.9,0.9,1.5,2,1.9,3.2l0,0
		c-0.1,0.5-0.1,1.1-0.1,1.7l0.8,1.4c0.2,1.3,0.1,2.7-0.3,4c-0.3,1.2-1,2.3-1.8,3.2c0.1,0.1-1.1,0.4-1.5,0.8l-0.8,1.4
		c-1.1,0.8-2.3,1.4-3.6,1.8C18.1,46.9,16.8,46.9,15.6,46.7z"/>
	<path class="st5" d="M11,41.6c0.6,0.7,1.4,1.3,2.2,1.7l0.2,0.1l1-0.9l1.2,0.3l0.3,1.3l0.2,0c1.9,0.2,3.8-0.2,5.4-1.2l0.1-0.1
		l-0.3-1.3l1-0.9l1.2,0.4l0.1-0.1c1.1-1.5,1.7-3.3,1.6-5.2l0-0.2l-1.2-0.3L23.6,34l0.8-0.8l0,0l0.1-0.1c-0.4-0.8-0.9-1.6-1.5-2.3
		c-0.6-0.7-1.4-1.3-2.2-1.8l-0.2-0.1l-1,0.9l-1.2-0.3l-0.2-1l0,0l0,0l0-0.2l-0.2,0c-1.9-0.2-3.8,0.2-5.4,1.2l-0.1,0.1l0.3,1.3
		l-1,0.9l-1.3-0.4l-0.1,0.1c-1.1,1.5-1.7,3.3-1.6,5.2l0,0.2l1.2,0.3l0.3,1.2l-1,0.9l0.1,0.1C9.9,40.1,10.4,40.9,11,41.6z M11.6,32.1
		l3.5,2.7c-0.3,0.4-0.5,0.9-0.5,1.4l-5.2,0.2c0-1.6,0.5-3.2,1.4-4.5L11.6,32.1z M13.1,29.8c1.5-0.8,3.1-1.2,4.8-1l-0.6,5
		c-0.5-0.1-1,0.1-1.4,0.3L13.1,29.8L13.1,29.8L13.1,29.8z M19.3,35.1c-0.1-0.2-0.3-0.4-0.4-0.6c-0.2-0.2-0.4-0.4-0.6-0.5l2.3-4.3
		l0.2-0.2c0.7,0.4,1.4,0.9,1.9,1.5c0.6,0.6,1,1.3,1.3,2l-0.1,0L19.3,35.1z M19.1,37.7c0.3-0.4,0.5-0.9,0.4-1.4l4.9-0.2l0.2,0.1
		c0,1.7-0.5,3.3-1.5,4.7l-0.3-0.1L19.1,37.7z M16.8,38.7c0.5,0,1-0.1,1.4-0.3l2.5,3.9l0.1,0.4c-1.4,0.8-3,1.2-4.7,1.1L16.8,38.7z
		 M13.3,43c-1.4-0.8-2.6-2.1-3.3-3.6l0.3-0.3l4.5-1.8c0.1,0.2,0.2,0.5,0.4,0.7c0.2,0.2,0.4,0.3,0.6,0.5l-2.3,4.3L13.3,43L13.3,43z"
		/>
	<g>
		<circle class="st6" cx="17" cy="36.2" r="2.1"/>
	</g>
</g>
</svg>
