<svg version="1.1" xmlns="http://www.w3.org/2000/svg" xmlns:xlink="http://www.w3.org/1999/xlink" width="86.42952" height="64.87952" viewBox="0,0,86.42952,64.87952"><g transform="translate(-197.5,-146.75)"><g data-paper-data="{&quot;isPaintingLayer&quot;:true}" fill-rule="nonzero" stroke-linecap="butt" stroke-linejoin="miter" stroke-miterlimit="10" stroke-dasharray="" stroke-dashoffset="0" style="mix-blend-mode: normal"><path d="M234.97952,172.75v-21.1h2.5v21.1z" data-paper-data="{&quot;index&quot;:null}" fill="#e2e2e2" stroke="#9b9b9b" stroke-width="1"/><path d="M221.17952,172.05v-21.1h2.5v21.1z" data-paper-data="{&quot;index&quot;:null}" fill="#e2e2e2" stroke="#9b9b9b" stroke-width="1"/><path d="M231.17952,174.75v-26.1h2.5v26.1z" data-paper-data="{&quot;index&quot;:null}" fill="#f2f2f2" stroke="#b9b9b9" stroke-width="1"/><path d="M245.27952,173.85v-26.1h2.5v26.1z" data-paper-data="{&quot;index&quot;:null}" fill="#f2f2f2" stroke="#b9b9b9" stroke-width="1"/><g data-paper-data="{&quot;index&quot;:null}" stroke-width="1"><path d="M210.37952,154.75l12.4,-6.9c0.7,-0.3 1.8,-0.6 2.6,-0.6h30.3c0.8,0 0.9,0.2 0.3,0.6l-12.5,7c-0.7,0.3 -1.8,0.6 -2.6,0.6h-30.3c-0.8,0 -0.9,-0.3 -0.2,-0.7z" fill="#e2e2e2" stroke="#9b9b9b"/><g fill="#000000" stroke="none"><path d="M241.17952,149.85h-10.8l4.6,-2.5h10.7z"/><path d="M237.57952,152.35l3.8,-2.1h9.8l-3.8,2.1z"/><path d="M224.87952,152.35h-9.8l3.8,-2.1h9.8z"/><path d="M225.07952,152.75h10.8l-4.6,2.6h-10.7z"/><path d="M240.37952,150.25l-3.8,2.1h-10.7l3.8,-2.1z"/><path d="M229.47952,149.85h-9.8l3.4,-1.9c0.6,-0.3 1.7,-0.6 2.5,-0.6h8.4z"/><path d="M224.17952,152.75l-4.5,2.5h-8.4c-0.8,0 -0.9,-0.3 -0.3,-0.6l3.4,-1.9z"/><path d="M236.77952,152.75h9.9l-3.4,1.9c-0.6,0.3 -1.7,0.6 -2.5,0.6h-8.4z"/><path d="M242.07952,149.85l4.6,-2.5h8.4c0.8,0 0.9,0.3 0.3,0.6l-3.4,1.9z"/></g></g><path d="M212.87952,186.95l0.1,-7.5c0,-4.5 3.6,-8.1 8.1,-8.1h36.9c4.5,0 8.1,3.6 8.1,8.1v7.5h-53.2z" data-paper-data="{&quot;index&quot;:null}" fill="#e2e2e2" stroke="#9b9b9b" stroke-width="1"/><path d="M262.47952,186.65c1.2,0.6 1,1.7 1,1.7c0,0.3 -1,3.4 -3,3.7c-2.5,0.4 -6.2,-2.1 -6.2,-2.1l-3,-1.3l-5.3,-2l-7.9,-2.9c0,0 -1.1,-0.4 -3.1,-0.4c-7.1,0.7 -24.7,19.1 -24.7,19.1c-5.6,1.2 -4.8,-4.1 -4.5,-5c0.2,-0.5 24.5,-20.5 24.5,-20.5c1.7,-0.6 1.5,-1.6 1.5,-1.6c0.1,-0.6 0.5,-2.8 3.2,-3.3c3,-0.1 3.8,1.2 3.8,1.2c1.6,2.8 1.1,4.2 1.1,4.2l17.7,7.5z" data-paper-data="{&quot;index&quot;:null}" fill="#e2e2e2" stroke="#9b9b9b" stroke-width="1"/><path d="M258.17952,192.05c0,0 -1.2,-0.7 -2.1,0c-0.8,0.6 -16.4,12.7 -16.4,12.7c0,0 -5.4,-1 -4.5,-4.9l20.4,-15.5c0,0 1.4,-1.2 4,0.3l16.2,13.3c0,0 2.6,6.1 -3,7.3z" data-paper-data="{&quot;index&quot;:null}" fill="#e2e2e2" stroke="#9b9b9b" stroke-width="1"/><path d="M257.17952,189.55c-0.5,0 -0.9,-0.4 -0.9,-0.9c0,-0.5 0.4,-0.9 0.9,-0.9c0.5,0 0.9,0.4 0.9,0.9c0,0.6 -0.4,0.9 -0.9,0.9z" data-paper-data="{&quot;index&quot;:null}" fill="#cccccc" stroke="#9b9b9b" stroke-width="0.5"/><path d="M235.27952,180.05c-0.5,0 -0.9,-0.4 -0.9,-0.9c0,-0.5 0.4,-0.9 0.9,-0.9c0.5,0 0.9,0.4 0.9,0.9c0,0.5 -0.4,0.9 -0.9,0.9z" data-paper-data="{&quot;index&quot;:null}" fill="#cccccc" stroke="#9b9b9b" stroke-width="0.5"/><path d="M250.47952,172.65c-0.6,-0.2 -1.2,-0.4 -1.9,-0.7c0.4,-2.7 0.3,-4.9 0.1,-6.3c-0.4,-3.3 -0.9,-7 -3.4,-8.8c-0.5,-0.4 -1.2,-0.7 -1.2,-1.2c0,-0.8 1.6,-1.6 3,-1.5c1.8,0.2 2.8,1.9 3,2.1c0.2,0.3 0.3,0.6 0.4,0.7c1.9,4.8 5.3,13.3 2.6,15.4c-0.4,0.3 -1.2,0.6 -2.6,0.3z" data-paper-data="{&quot;index&quot;:null}" fill="#e2e2e2" stroke="#9b9b9b" stroke-width="1"/><path d="M263.77952,168.75c-0.6,0.1 -1.2,0.2 -1.8,0.4c0.6,-2.3 0.6,-4.3 0.4,-5.6c-0.2,-2.2 -0.6,-6.8 -3.4,-8.8c-0.5,-0.4 -1.2,-0.7 -1.2,-1.2c0,-0.8 1.6,-1.6 3,-1.5c1.9,0.2 2.9,1.9 3,2.1c0.4,0.8 0.5,1.6 0.5,2c0.1,3.4 -0.5,5.8 -0.6,8.3c-0.1,1 -0.1,2.4 0.1,4.3z" data-paper-data="{&quot;index&quot;:null}" fill="#e2e2e2" stroke="#9b9b9b" stroke-width="1"/><path d="M264.27952,157.55c-0.2,2.7 -0.2,5.5 -0.2,8.5c0,1.6 0.1,3.1 0.1,4.5c-1.9,0.5 -3.9,1 -6.1,1.4c-1.9,0.4 -3.6,0.6 -5.3,0.8c-0.1,0 -0.1,0 -0.2,0c-0.2,0 -0.4,0 -0.4,0c-0.5,-0.1 -0.3,-5.7 -0.5,-8.7c-0.1,-1.9 -0.5,-3.4 -0.7,-4.4c1.3,-0.8 3.4,-1.8 6.1,-2.3c3.1,-0.5 5.7,-0.1 7.2,0.2z" data-paper-data="{&quot;index&quot;:null}" fill="#e2e2e2" stroke="#9b9b9b" stroke-width="1"/><g data-paper-data="{&quot;index&quot;:null}"><path d="M258.47952,168.65c-1.76731,0 -3.2,-1.83563 -3.2,-4.1c0,-2.26437 1.43269,-4.1 3.2,-4.1c1.76731,0 3.2,1.83563 3.2,4.1c0,2.26437 -1.43269,4.1 -3.2,4.1z" fill="#9b9b9b" stroke="#000000" stroke-width="0.25"/><path d="M258.67952,168.65c-1.65685,0 -3,-1.83563 -3,-4.1c0,-2.26437 1.34315,-4.1 3,-4.1c1.65685,0 3,1.83563 3,4.1c0,2.26437 -1.34315,4.1 -3,4.1z" fill="#e2e2e2" stroke="#000000" stroke-width="0.25"/><path d="M258.67952,168.05c-1.43594,0 -2.6,-1.567 -2.6,-3.5c0,-1.933 1.16406,-3.5 2.6,-3.5c1.43594,0 2.6,1.567 2.6,3.5c0,1.933 -1.16406,3.5 -2.6,3.5z" fill="#9b9b9b" stroke="#000000" stroke-width="0.25"/><g stroke="none" stroke-width="1"><path d="M258.47952,167.95c-1.1598,0 -2.1,-1.52223 -2.1,-3.4c0,-1.87777 0.9402,-3.4 2.1,-3.4c1.1598,0 2.1,1.52223 2.1,3.4c0,1.87777 -0.9402,3.4 -2.1,3.4z" fill="#43aeb6"/><path d="M258.27952,167.95c-1.1598,0 -2.1,-1.52223 -2.1,-3.4c0,-1.87777 0.9402,-3.4 2.1,-3.4c1.1598,0 2.1,1.52223 2.1,3.4c0,1.87777 -0.9402,3.4 -2.1,3.4z" fill="#78cedd"/><path d="M258.77952,167.25c-0.71797,0 -1.3,-0.98497 -1.3,-2.2c0,-1.21503 0.58203,-2.2 1.3,-2.2c0.71797,0 1.3,0.98497 1.3,2.2c0,1.21503 -0.58203,2.2 -1.3,2.2z" fill="#94dae6"/><path d="M258.97952,166.35c-0.33137,0 -0.6,-0.44772 -0.6,-1c0,-0.55228 0.26863,-1 0.6,-1c0.33137,0 0.6,0.44772 0.6,1c0,0.55228 -0.26863,1 -0.6,1z" fill="#c9e8ed"/></g><path d="M258.37952,168.05c-1.27025,0 -2.3,-1.567 -2.3,-3.5c0,-1.933 1.02975,-3.5 2.3,-3.5c1.27025,0 2.3,1.567 2.3,3.5c0,1.933 -1.02975,3.5 -2.3,3.5z" fill="none" stroke="#000000" stroke-width="0.25"/></g><path d="M280.77952,193.15c4.2,4.2 4.2,11.1 0,15.3c-4.2,4.2 -11.1,4.2 -15.3,0c-4.2,-4.2 -4.2,-11.1 0,-15.3c4.2,-4.2 11.1,-4.2 15.3,0zM274.87952,197.05l2,-2.1c-1.1,-0.7 -2.4,-1.1 -3.8,-1.1c-0.7,0 -1.4,0.1 -2.1,0.3l1.5,2.6c0.8,-0.2 1.7,0 2.4,0.3zM274.67952,199.25c-0.8,-0.8 -2.2,-0.8 -3,0c-0.8,0.8 -0.8,2.2 0,3c0.8,0.8 2.2,0.8 3,0c0.8,-0.8 0.8,-2.1 0,-3zM272.97952,207.75v0v0h0.1c1.9,0 3.7,-0.8 4.9,-2c0.2,-0.2 0.5,-0.5 0.7,-0.8l-2.6,-1.3v0c-0.7,0.7 -1.6,1.1 -2.6,1.2l-0.5,2.9zM277.27952,201.25l2.6,1.3c0.1,-0.6 0.2,-1.1 0.2,-1.7c0,-1.5 -0.5,-2.8 -1.2,-4l-2,2.1c0.3,0.7 0.5,1.5 0.4,2.3zM268.17952,205.75c0.6,0.6 1.4,1.1 2.2,1.5l0.5,-2.9c-0.2,-0.2 -0.5,-0.3 -0.7,-0.6c-0.4,-0.4 -0.8,-1 -1,-1.6l-2.9,0.3c0.4,1.3 1,2.4 1.9,3.3zM266.17952,199.75l3,-0.3c0.2,-0.5 0.5,-1.1 0.9,-1.5l-1.5,-2.5c-0.2,0.1 -0.3,0.3 -0.5,0.4c-0.9,1 -1.6,2.4 -1.9,3.9z" data-paper-data="{&quot;index&quot;:null}" fill="#000000" stroke="none" stroke-width="1"/><path d="M247.07952,193.15c4.2,4.2 4.2,11.1 0,15.3c-4.2,4.2 -11.1,4.2 -15.3,0c-4.2,-4.2 -4.2,-11.1 0,-15.3c4.2,-4.2 11.1,-4.2 15.3,0zM241.17952,197.05l2,-2.1c-1.1,-0.7 -2.4,-1.1 -3.8,-1.1c-0.7,0 -1.4,0.1 -2.1,0.3l1.5,2.6c0.9,-0.2 1.7,0 2.4,0.3zM240.97952,199.25c-0.8,-0.8 -2.2,-0.8 -3,0c-0.8,0.8 -0.8,2.2 0,3c0.8,0.8 2.2,0.8 3,0c0.8,-0.8 0.8,-2.1 0,-3zM239.27952,207.75v0v0v0c2,0 3.8,-0.8 5,-2c0.2,-0.2 0.5,-0.5 0.7,-0.8l-2.6,-1.3v0c-0.7,0.7 -1.6,1.1 -2.6,1.2l-0.5,2.9zM243.57952,201.25l2.6,1.3c0.1,-0.6 0.2,-1.1 0.2,-1.7c0,-1.5 -0.5,-2.8 -1.2,-4l-2,2.1c0.3,0.7 0.5,1.5 0.4,2.3zM234.47952,205.75c0.6,0.6 1.4,1.1 2.2,1.5l0.5,-2.9c-0.2,-0.2 -0.5,-0.3 -0.7,-0.6c-0.4,-0.4 -0.8,-1 -1,-1.6l-2.9,0.3c0.4,1.3 1,2.4 1.9,3.3zM232.57952,199.75l3,-0.3c0.2,-0.5 0.5,-1.1 0.9,-1.5l-1.5,-2.5c-0.2,0.1 -0.3,0.3 -0.5,0.4c-1,1 -1.7,2.4 -1.9,3.9z" data-paper-data="{&quot;index&quot;:null}" fill="#000000" stroke="none" stroke-width="1"/><path d="M217.57952,195.15c3.1,5.1 1.5,11.8 -3.6,14.9c-5.1,3.1 -11.8,1.5 -14.9,-3.6c-3.1,-5.1 -1.5,-11.8 3.6,-14.9c5.1,-3.2 11.8,-1.5 14.9,3.6zM210.87952,197.45l2.5,-1.6c-0.9,-1 -2.1,-1.7 -3.4,-2c-0.7,-0.2 -1.4,-0.2 -2.1,-0.2l0.8,3c0.8,0 1.6,0.3 2.2,0.8zM210.17952,199.65c-0.6,-1 -1.9,-1.3 -3,-0.7c-1,0.6 -1.3,1.9 -0.7,3c0.6,1 1.9,1.3 3,0.7c1.1,-0.6 1.3,-2 0.7,-3zM206.57952,207.45v0v0v0c2,0.5 3.9,0.1 5.4,-0.8c0.3,-0.2 0.6,-0.4 0.8,-0.6l-2.2,-1.8c0,0 0,0 -0.1,0c-0.9,0.5 -1.8,0.7 -2.8,0.6l-1.1,2.6zM212.17952,202.15l2.3,1.8c0.3,-0.5 0.5,-1.1 0.6,-1.6c0.3,-1.4 0.2,-2.9 -0.3,-4.1l-2.5,1.6c0.3,0.7 0.2,1.5 -0.1,2.3zM202.37952,204.35c0.5,0.8 1.1,1.4 1.8,2l1.1,-2.7c-0.2,-0.2 -0.4,-0.4 -0.5,-0.7c-0.3,-0.5 -0.5,-1.1 -0.6,-1.8l-2.9,-0.4c0,1.3 0.4,2.5 1.1,3.6zM201.87952,198.05l3,0.4c0.3,-0.5 0.7,-0.9 1.2,-1.3l-0.8,-2.8c-0.2,0.1 -0.4,0.2 -0.6,0.3c-1.3,0.9 -2.3,2 -2.8,3.4z" data-paper-data="{&quot;index&quot;:null}" fill="#000000" stroke="none" stroke-width="1"/></g></g></svg>