<svg id="图层_2" data-name="图层 2" xmlns="http://www.w3.org/2000/svg" viewBox="0 0 85 100"><defs><style>.cls-1{fill:#d6c298;}.cls-1,.cls-3,.cls-6,.cls-7,.cls-8{stroke:#000;stroke-linecap:round;stroke-linejoin:round;}.cls-1,.cls-3,.cls-7,.cls-8{stroke-width:0.72px;}.cls-2{fill:#f5cfcd;}.cls-3{fill:#ab8479;}.cls-4{fill:#413a35;}.cls-5,.cls-8{fill:#fff;}.cls-6{fill:none;stroke-width:1.08px;}.cls-7{fill:#db9d9a;}</style></defs><g id="_2" data-name="2"><path class="cls-1" d="M41.14,89s.7,8.46,1.35,9.29,12.32.25,13.56-.57,1.19-13,1.19-13"/><path class="cls-1" d="M58.83,54.72c4.6,9.54,4.64,23.25-2.28,31.43-7.76,9.17-27.2,8.18-34.31-1.86S19.69,67,22,62.83c2.44-4.38,6.08-12.21,6.08-12.21"/><path class="cls-1" d="M27.75,66.65A102.68,102.68,0,0,0,34.3,77c1.08,1,1.41-.47,1.41-.47a5,5,0,0,0,2.19.76c.8-.08.56-2.49.56-2.49s2.07,1.25,3,.67c.61-.38-.24-2.41-.24-2.41s2.22-.54,2.63-1.23-1.95-1.75-1.95-1.75S35,59.92,33.56,58.29"/><path class="cls-1" d="M22.2,82.49S17.8,91.22,18,92.27s9.72,6.3,11.21,6.2S35,90.9,35,90.9"/><path class="cls-1" d="M50.2,12.09c3-5.78,8.67-9.6,15.07-9.4,9.22.28,16.43,8.8,16.11,19a19,19,0,0,1-8.44,15.52,8.82,8.82,0,0,1,2.46,6.49c-.14,4.65-3.66,8.32-7.86,8.19a7.67,7.67,0,0,1-6.93-5.64"/><path class="cls-2" d="M55.45,11.78c3.72,4.71,7.68,7.48,9.13,19.94,1.12,9.7-2.35,13.86-2.35,13.86S65.7,49.67,69,46.9c4-3.33-.06-8.67-.06-8.67a28.68,28.68,0,0,0,7.67-13.09c2.42-8.58-2-14.95-6.64-16.83C61.62,4.9,55.45,11.78,55.45,11.78Z"/><path class="cls-1" d="M30.58,9A29.43,29.43,0,0,1,48.73,4.83C61.81,6,69.7,18.87,70.59,31a26.81,26.81,0,0,1-5.17,18.46c-4.15,5.3-11.12,8-17.71,8.18-9.68.33-21.32-2.49-25.86-11.83"/><path class="cls-1" d="M32.82,9.8C29.36,4.06,23.24.51,16.67,1.15,7.2,2.08.36,11.34,1.38,21.84a19.64,19.64,0,0,0,9.75,15.4A9.11,9.11,0,0,0,9,44.09c.47,4.78,4.34,8.31,8.66,7.89a7.91,7.91,0,0,0,6.75-6.28"/><path class="cls-3" d="M43.32,3.21C44.05,1.05,45.49.33,46.93.69a3.05,3.05,0,0,1,2.52,2.89s1.09-1.44,2.17-.71A2.11,2.11,0,0,1,52.34,5S56,4,57,6.49s-4.33,2.15-4.33,2.15a2,2,0,0,1-1.81,1.8,5.08,5.08,0,0,1-3.6-1.09,1.59,1.59,0,0,1-1.09,1.44c-1.08.36-2.16-.73-2.16-.73a4.6,4.6,0,0,1-2.75.79,2.09,2.09,0,0,1-1.94-1.52S36.45,10.05,35,9c-1.82-1.37.73-2.88.73-2.88s-.36-1.81.73-2.53,3.6.37,3.6.37a1.59,1.59,0,0,1,1.09-1.44C42.24,2.12,43.32,3.21,43.32,3.21Z"/><ellipse class="cls-4" cx="41.95" cy="29.93" rx="4.24" ry="4.79" transform="translate(-2.71 4.23) rotate(-5.59)"/><circle class="cls-5" cx="44.1" cy="28.4" r="0.9"/><path class="cls-6" d="M40.53,21.84a2.21,2.21,0,0,1,2.91-.11"/><ellipse class="cls-4" cx="64.07" cy="27.44" rx="3.99" ry="4.46" transform="translate(-2.37 6.37) rotate(-5.59)"/><circle class="cls-5" cx="66" cy="26.26" r="0.9"/><path class="cls-6" d="M63.88,19.55A2.21,2.21,0,0,0,61,20"/><path class="cls-7" d="M58.21,41.74S56.64,44.51,55,45.26c-2.08.92-5.78.2-6.45-3a6.13,6.13,0,0,1,2-6,2.13,2.13,0,0,1,2.31.19"/><path class="cls-1" d="M56.44,27.05c3.58.65,5.76,3.43,8.17,6s6.12,2.9,9.33,2a16.35,16.35,0,0,0,4.21-2.07.31.31,0,0,1-.09-.12A2.06,2.06,0,0,1,82,31.52a2.45,2.45,0,0,1,.11,1.2,2,2,0,0,1,.37,3.8,2.09,2.09,0,0,1-2.2-.61.43.43,0,0,1-.09-.15c-3.85,3.52-7,7-12.55,7.89-6.47,1.05-11.43-3-15.51-7.73"/><path class="cls-8" d="M52.32,35.72s3.06-.61,3.49-.33-.72,2.87-1.16,3"/><path class="cls-2" d="M27.22,9.91c-3.42,4.94-7.2,8-7.85,20.48-.51,9.75,3.22,13.68,3.22,13.68s-3.21,4.3-6.72,1.75c-4.21-3.07-.48-8.66-.48-8.66A28.55,28.55,0,0,1,6.91,24.58c-3-8.4,1-15,5.56-17.22C20.63,3.43,27.22,9.91,27.22,9.91Z"/></g></svg>