<svg version="1.1" xmlns="http://www.w3.org/2000/svg" xmlns:xlink="http://www.w3.org/1999/xlink" width="86.19913" height="69.51564" viewBox="0,0,86.19913,69.51564"><g transform="translate(-197.10633,-144.85)"><g data-paper-data="{&quot;isPaintingLayer&quot;:true}" fill-rule="nonzero" stroke-linecap="butt" stroke-linejoin="miter" stroke-miterlimit="10" stroke-dasharray="" stroke-dashoffset="0" style="mix-blend-mode: normal"><path d="M233.96178,172.85v-23h2.5v23z" data-paper-data="{&quot;index&quot;:null}" fill="#e2e2e2" stroke="#9b9b9b" stroke-width="1"/><path d="M220.16178,172.05v-23h2.5v23z" data-paper-data="{&quot;index&quot;:null}" fill="#e2e2e2" stroke="#9b9b9b" stroke-width="1"/><path d="M230.16178,172.75v-26.1h2.5v26.1z" data-paper-data="{&quot;index&quot;:null}" fill="#f2f2f2" stroke="#b9b9b9" stroke-width="1"/><path d="M244.26178,171.95v-26.1h2.5v26.1z" data-paper-data="{&quot;index&quot;:null}" fill="#f2f2f2" stroke="#b9b9b9" stroke-width="1"/><g data-paper-data="{&quot;index&quot;:null}" stroke-width="1"><path d="M209.36178,152.85l12.4,-6.9c0.7,-0.3 1.8,-0.6 2.6,-0.6h30.3c0.8,0 0.9,0.2 0.3,0.6l-12.5,6.9c-0.7,0.3 -1.8,0.6 -2.6,0.6h-30.3c-0.8,0 -0.9,-0.3 -0.2,-0.6z" fill="#e2e2e2" stroke="#9b9b9b"/><g fill="#000000" stroke="none"><path d="M240.16178,147.85h-10.8l4.6,-2.5h10.7z"/><path d="M236.56178,150.45l3.8,-2.1h9.8l-3.8,2.1z"/><path d="M223.86178,150.45h-9.8l3.8,-2.1h9.8z"/><path d="M224.06178,150.85h10.8l-4.6,2.5h-10.7z"/><path d="M239.36178,148.35l-3.8,2.1h-10.7l3.8,-2.1z"/><path d="M228.46178,147.85h-9.8l3.4,-1.9c0.6,-0.3 1.7,-0.6 2.5,-0.6h8.4z"/><path d="M223.16178,150.85l-4.5,2.5h-8.4c-0.8,0 -0.9,-0.3 -0.3,-0.6l3.4,-1.9z"/><path d="M235.76178,150.85h9.9l-3.4,1.9c-0.6,0.3 -1.7,0.6 -2.5,0.6h-8.4z"/><path d="M241.06178,147.85l4.6,-2.5h8.4c0.8,0 0.9,0.3 0.3,0.6l-3.4,1.9z"/></g></g><path d="M211.96178,186.95v-7.5c0,-4.5 3.6,-8.1 8.1,-8.1h36.9c4.5,0 8.1,3.6 8.1,8.1v7.5h-53.2z" data-paper-data="{&quot;index&quot;:null}" fill="#e2e2e2" stroke="#9b9b9b" stroke-width="1"/><path d="M261.56178,188.25c1.2,0.6 0.9,1.7 0.9,1.7c-0.1,0.3 -1.2,3.3 -3.2,3.5c-2.6,0.2 -6.1,-2.4 -6.1,-2.4l-3,-1.5l-5.2,-2.3l-7.8,-3.3c0,0 -1,-0.5 -3,-0.6c-7.2,0.3 -25.6,17.9 -25.6,17.9c-5.6,0.9 -4.6,-4.3 -4.2,-5.2c0.2,-0.4 25.4,-19.3 25.4,-19.3c1.7,-0.5 1.6,-1.5 1.6,-1.5c0.2,-0.5 0.7,-2.7 3.4,-3.1c3.1,0.1 3.8,1.4 3.8,1.4c1.5,2.9 0.9,4.3 0.9,4.3l17.4,8.3z" data-paper-data="{&quot;index&quot;:null}" fill="#e2e2e2" stroke="#9b9b9b" stroke-width="1"/><path d="M256.26178,191.85c0,0 -1.3,-0.5 -2.1,0.3c-0.7,0.7 -14.3,15.1 -14.3,15.1c0,0 -5.4,-0.1 -5.2,-4.1l17.7,-18.6c0,0 1.2,-1.3 4,-0.3l18.2,10.5c0,0 3.5,5.6 -1.8,7.7z" data-paper-data="{&quot;index&quot;:null}" fill="#e2e2e2" stroke="#9b9b9b" stroke-width="1"/><path d="M256.16178,189.55c-0.5,0 -0.9,-0.4 -0.9,-0.9c0,-0.5 0.4,-0.9 0.9,-0.9c0.5,0 0.9,0.4 0.9,0.9c0,0.6 -0.4,0.9 -0.9,0.9z" data-paper-data="{&quot;index&quot;:null}" fill="#cccccc" stroke="#9b9b9b" stroke-width="0.5"/><path d="M234.26178,180.05c-0.5,0 -0.9,-0.4 -0.9,-0.9c0,-0.5 0.4,-0.9 0.9,-0.9c0.5,0 0.9,0.4 0.9,0.9c0,0.5 -0.4,0.9 -0.9,0.9z" data-paper-data="{&quot;index&quot;:null}" fill="#cccccc" stroke="#9b9b9b" stroke-width="0.5"/><path d="M249.46178,171.65c-0.6,-0.2 -1.2,-0.4 -1.9,-0.7c0.4,-2.7 0.3,-4.9 0.1,-6.3c-0.4,-3.3 -0.9,-7 -3.4,-8.8c-0.5,-0.4 -1.2,-0.7 -1.2,-1.2c0,-0.8 1.6,-1.6 3,-1.5c1.8,0.2 2.8,1.9 3,2.1c0.2,0.3 0.3,0.6 0.4,0.7c1.9,4.8 5.3,13.3 2.6,15.4c-0.4,0.3 -1.2,0.6 -2.6,0.3z" data-paper-data="{&quot;index&quot;:null}" fill="#e2e2e2" stroke="#9b9b9b" stroke-width="1"/><path d="M262.76178,167.65c-0.6,0.1 -1.2,0.2 -1.8,0.4c0.6,-2.3 0.6,-4.3 0.4,-5.6c-0.2,-2.2 -0.6,-6.8 -3.4,-8.8c-0.5,-0.4 -1.2,-0.7 -1.2,-1.2c0,-0.8 1.6,-1.6 3,-1.5c1.9,0.1 2.9,1.9 3,2.1c0.4,0.8 0.5,1.6 0.5,2c0.1,3.4 -0.5,5.8 -0.6,8.3c-0.1,1 -0.1,2.5 0.1,4.3z" data-paper-data="{&quot;index&quot;:null}" fill="#e2e2e2" stroke="#9b9b9b" stroke-width="1"/><path d="M263.26178,156.45c-0.2,2.7 -0.2,5.5 -0.2,8.5c0,1.6 0.1,3.1 0.1,4.5c-1.9,0.5 -3.9,1 -6.1,1.4c-1.9,0.4 -3.6,0.6 -5.3,0.8c-0.1,0 -0.1,0 -0.2,0c-0.2,0 -0.4,0 -0.4,0c-0.4,-0.1 -0.3,-5.7 -0.5,-8.7c-0.1,-1.9 -0.5,-3.4 -0.7,-4.4c1.3,-0.8 3.4,-1.8 6.1,-2.3c3.1,-0.5 5.7,-0.1 7.2,0.2z" data-paper-data="{&quot;index&quot;:null}" fill="#e2e2e2" stroke="#9b9b9b" stroke-width="1"/><g data-paper-data="{&quot;index&quot;:null}"><path d="M257.46178,167.65c-1.76731,0 -3.2,-1.83563 -3.2,-4.1c0,-2.26437 1.43269,-4.1 3.2,-4.1c1.76731,0 3.2,1.83563 3.2,4.1c0,2.26437 -1.43269,4.1 -3.2,4.1z" fill="#9b9b9b" stroke="#000000" stroke-width="0.25"/><path d="M257.66178,167.65c-1.65685,0 -3,-1.83563 -3,-4.1c0,-2.26437 1.34315,-4.1 3,-4.1c1.65685,0 3,1.83563 3,4.1c0,2.26437 -1.34315,4.1 -3,4.1z" fill="#e2e2e2" stroke="#000000" stroke-width="0.25"/><path d="M257.66178,167.05c-1.43594,0 -2.6,-1.567 -2.6,-3.5c0,-1.933 1.16406,-3.5 2.6,-3.5c1.43594,0 2.6,1.567 2.6,3.5c0,1.933 -1.16406,3.5 -2.6,3.5z" fill="#9b9b9b" stroke="#000000" stroke-width="0.25"/><g stroke="none" stroke-width="1"><path d="M257.46178,166.95c-1.1598,0 -2.1,-1.52223 -2.1,-3.4c0,-1.87777 0.9402,-3.4 2.1,-3.4c1.1598,0 2.1,1.52223 2.1,3.4c0,1.87777 -0.9402,3.4 -2.1,3.4z" fill="#43aeb6"/><path d="M257.26178,166.95c-1.1598,0 -2.1,-1.52223 -2.1,-3.4c0,-1.87777 0.9402,-3.4 2.1,-3.4c1.1598,0 2.1,1.52223 2.1,3.4c0,1.87777 -0.9402,3.4 -2.1,3.4z" fill="#78cedd"/><path d="M257.76178,166.15c-0.71797,0 -1.3,-0.98497 -1.3,-2.2c0,-1.21503 0.58203,-2.2 1.3,-2.2c0.71797,0 1.3,0.98497 1.3,2.2c0,1.21503 -0.58203,2.2 -1.3,2.2z" fill="#94dae6"/><path d="M257.96178,165.25c-0.33137,0 -0.6,-0.44772 -0.6,-1c0,-0.55228 0.26863,-1 0.6,-1c0.33137,0 0.6,0.44772 0.6,1c0,0.55228 -0.26863,1 -0.6,1z" fill="#c9e8ed"/></g><path d="M257.36178,167.05c-1.27025,0 -2.3,-1.567 -2.3,-3.5c0,-1.933 1.02975,-3.5 2.3,-3.5c1.27025,0 2.3,1.567 2.3,3.5c0,1.933 -1.02975,3.5 -2.3,3.5z" fill="none" stroke="#000000" stroke-width="0.25"/></g><path d="M278.76178,189.25c4.9,3.5 6,10.3 2.5,15.1c-3.5,4.8 -10.3,6 -15.1,2.5c-4.9,-3.5 -6,-10.3 -2.5,-15.1c3.5,-4.8 10.2,-6 15.1,-2.5zM273.56178,194.05l1.7,-2.4c-1.2,-0.5 -2.6,-0.7 -4,-0.5c-0.7,0.1 -1.4,0.3 -2,0.7l1.9,2.3c0.7,-0.3 1.6,-0.3 2.4,-0.1zM273.66178,196.35c-1,-0.7 -2.3,-0.5 -3,0.5c-0.7,1 -0.5,2.3 0.5,3c1,0.7 2.3,0.5 3,-0.5c0.7,-1 0.5,-2.3 -0.5,-3zM273.36178,204.95v0v0h0.1c1.9,-0.3 3.5,-1.4 4.6,-2.8c0.2,-0.3 0.4,-0.6 0.5,-0.9l-2.8,-0.8v0c-0.6,0.8 -1.4,1.4 -2.3,1.6l-0.1,2.9zM276.56178,197.85l2.8,0.8c0.1,-0.6 0,-1.2 -0.1,-1.7c-0.2,-1.5 -0.9,-2.7 -1.9,-3.7l-1.7,2.4c0.6,0.6 0.8,1.4 0.9,2.2zM268.26178,203.75c0.7,0.5 1.5,0.9 2.4,1.1v-3c-0.3,-0.1 -0.5,-0.3 -0.8,-0.4c-0.5,-0.4 -0.9,-0.8 -1.2,-1.4l-2.8,0.7c0.6,1.2 1.4,2.2 2.4,3zM265.36178,198.15l2.9,-0.7c0.1,-0.6 0.3,-1.1 0.7,-1.6l-1.9,-2.3c-0.1,0.2 -0.3,0.3 -0.4,0.5c-0.8,1.1 -1.3,2.5 -1.3,4.1z" data-paper-data="{&quot;index&quot;:null}" fill="#000000" stroke="none" stroke-width="1"/><path d="M245.46178,194.75c4.9,3.5 6,10.3 2.5,15.1c-3.5,4.8 -10.3,6 -15.1,2.5c-4.9,-3.5 -6,-10.3 -2.5,-15.1c3.5,-4.9 10.3,-6 15.1,-2.5zM240.26178,199.45l1.7,-2.4c-1.2,-0.5 -2.6,-0.7 -4,-0.5c-0.7,0.1 -1.4,0.3 -2,0.7l1.9,2.3c0.8,-0.3 1.6,-0.3 2.4,-0.1zM240.46178,201.75c-1,-0.7 -2.3,-0.5 -3,0.5c-0.7,1 -0.5,2.3 0.5,3c1,0.7 2.3,0.5 3,-0.5c0.7,-1 0.4,-2.3 -0.5,-3zM240.16178,210.35v0v0h0.1c1.9,-0.3 3.5,-1.4 4.6,-2.8c0.2,-0.3 0.4,-0.6 0.5,-0.9l-2.8,-0.8v0c-0.6,0.8 -1.4,1.4 -2.3,1.6l-0.1,2.9zM243.26178,203.25l2.8,0.8c0.1,-0.6 0,-1.2 -0.1,-1.7c-0.2,-1.5 -0.9,-2.7 -1.9,-3.7l-1.7,2.4c0.6,0.6 0.9,1.4 0.9,2.2zM235.06178,209.15c0.7,0.5 1.5,0.9 2.4,1.1v-3c-0.3,-0.1 -0.5,-0.3 -0.8,-0.4c-0.5,-0.4 -0.9,-0.8 -1.2,-1.4l-2.8,0.7c0.5,1.2 1.4,2.2 2.4,3zM232.16178,203.55l2.9,-0.7c0.1,-0.6 0.3,-1.1 0.7,-1.6l-1.9,-2.3c-0.1,0.2 -0.3,0.3 -0.4,0.5c-0.8,1.1 -1.3,2.6 -1.3,4.1z" data-paper-data="{&quot;index&quot;:null}" fill="#000000" stroke="none" stroke-width="1"/><path d="M217.46178,192.95c2.9,5.2 1,11.8 -4.3,14.7c-5.2,2.9 -11.8,1 -14.7,-4.3c-2.9,-5.3 -1,-11.8 4.3,-14.7c5.2,-2.9 11.8,-1 14.7,4.3zM210.66178,194.95l2.5,-1.4c-0.9,-1 -2,-1.8 -3.4,-2.2c-0.7,-0.2 -1.4,-0.3 -2.1,-0.3l0.8,3c0.8,0.1 1.6,0.4 2.2,0.9zM209.86178,197.05c-0.6,-1 -1.9,-1.4 -2.9,-0.8c-1,0.6 -1.4,1.9 -0.8,2.9c0.6,1 1.9,1.4 2.9,0.8c1,-0.6 1.3,-1.8 0.8,-2.9zM205.86178,204.75v0v0c0,0 0.1,0 0,0c2,0.6 3.8,0.3 5.4,-0.5c0.3,-0.2 0.6,-0.3 0.9,-0.5l-2.1,-1.9c0,0 0,0 -0.1,0c-0.9,0.5 -1.9,0.6 -2.8,0.4l-1.3,2.5zM211.76178,199.75l2.2,1.9c0.3,-0.5 0.5,-1 0.7,-1.6c0.4,-1.4 0.4,-2.9 -0.1,-4.2l-2.5,1.4c0.1,0.9 0,1.7 -0.3,2.5zM201.76178,201.45c0.4,0.8 1,1.5 1.7,2l1.3,-2.6c-0.2,-0.2 -0.4,-0.5 -0.5,-0.7c-0.3,-0.6 -0.5,-1.2 -0.5,-1.8l-2.8,-0.6c-0.1,1.3 0.2,2.6 0.8,3.7zM201.56178,195.15l2.9,0.6c0.3,-0.5 0.8,-0.9 1.3,-1.2l-0.7,-2.8c-0.2,0.1 -0.4,0.2 -0.6,0.3c-1.2,0.6 -2.2,1.7 -2.9,3.1z" data-paper-data="{&quot;index&quot;:null}" fill="#000000" stroke="none" stroke-width="1"/></g></g></svg>