<?xml version="1.0" encoding="utf-8"?>
<!-- Generator: Adobe Illustrator 24.0.0, SVG Export Plug-In . SVG Version: 6.00 Build 0)  -->
<svg version="1.1" id="图层_1" xmlns="http://www.w3.org/2000/svg" xmlns:xlink="http://www.w3.org/1999/xlink" x="0px" y="0px"
	 width="93.4px" height="52.7px" viewBox="0 0 93.4 52.7" style="enable-background:new 0 0 93.4 52.7;" xml:space="preserve">
<style type="text/css">
	.st0{fill:#1E2020;}
	.st1{fill:#E2E1E0;stroke:#9A999A;stroke-miterlimit:10;}
	.st2{fill:#6A7D81;}
	.st3{fill:#54616A;}
	.st4{fill:#6D7981;}
	.st5{fill:#B2C4CA;}
	.st6{fill:#060001;}
	.st7{fill:#9A999A;}
	.st8{fill:#BBBBBB;}
	.st9{fill:#E9E9E9;}
	.st10{fill:#E2E1E0;}
	.st11{fill:#429EA4;}
	.st12{fill:#74BDC9;}
	.st13{fill:#8FCAD4;}
	.st14{fill:#C2DFE4;}
	.st15{fill:#1B2C2C;}
	.st16{fill:#4C6264;}
</style>
<title>ZeusCar-A</title>
<g>
	<g>
		<path class="st0" d="M69.4,38.7L66,41.5c-1.4-1.7-2.5-3.5-3.3-5.5c-0.6-1.3-0.8-2.7-0.8-4.1l3.7-2.5L69.4,38.7z"/>
		<path class="st0" d="M83.3,17.9l3.4-2.7c1.4,1.7,2.5,3.5,3.3,5.5c0.6,1.3,0.8,2.7,0.8,4.1l-3.7,2.5L83.3,17.9z"/>
		<path class="st0" d="M93,30.7c-0.7,2-1.8,3.9-3.1,5.7c-0.9,1.1-1.9,2.1-3.1,2.9l-3.9-2l6.3-8.1L93,30.7z"/>
		<path class="st0" d="M59.8,25.9c0.7-2,1.8-3.9,3.1-5.7c0.9-1.1,2-2.1,3.1-2.9l3.9,2l-6.3,8.1L59.8,25.9z"/>
		<path class="st0" d="M76.2,43.9c-1.4-0.2-2.8-0.6-4-1.3l-0.3-4.4l10.2,1.3l0.6,4.2C80.5,44.2,78.3,44.2,76.2,43.9z"/>
		<path class="st0" d="M70.2,12.7c2.1-0.4,4.3-0.4,6.4-0.1c1.4,0.2,2.8,0.7,4,1.3l0.3,4.4L70.8,17L70.2,12.7z"/>
	</g>
	<path class="st1" d="M76.4,28.2"/>
	<g>
		<path class="st2" d="M93,30.7c-0.4,0.8-1.6,0.9-2.7,0.3s-1.6-1.7-1.2-2.4c0.4-0.8,1.6-0.9,2.7-0.3S93.4,29.9,93,30.7z"/>
		<path class="st2" d="M61,28.3c-1.1-0.6-1.6-1.7-1.2-2.4c0.4-0.8,1.6-0.9,2.7-0.3c1.1,0.6,1.6,1.7,1.2,2.4
			C63.3,28.7,62.1,28.9,61,28.3z"/>
		<path class="st2" d="M84.1,41.6c0,1.2-0.6,2.2-1.5,2.3c-0.9,0-1.6-1-1.6-2.2s0.6-2.2,1.5-2.3S84.1,40.3,84.1,41.6z"/>
		<path class="st2" d="M70.3,17.1c-0.9,0-1.6-0.9-1.6-2.2c0-1.2,0.6-2.2,1.5-2.3s1.6,0.9,1.6,2.2C71.9,16.1,71.2,17.1,70.3,17.1z"/>
		<path class="st2" d="M69.7,39.1c0.5,0.7,0,1.9-1.1,2.5s-2.3,0.6-2.7-0.2c-0.4-0.7,0-1.8,1.1-2.5C68.1,38.3,69.3,38.3,69.7,39.1z"
			/>
		<path class="st2" d="M85.7,17.6c-1,0.7-2.3,0.6-2.7-0.2c-0.5-0.7,0-1.9,1.1-2.5s2.3-0.6,2.7,0.2C87.2,15.9,86.7,17,85.7,17.6z"/>
	</g>
	<g>
		<path class="st3" d="M92.2,29.2c-0.1,0.1-0.2,0.2-0.4,0.1c-0.4-0.1-0.8,0-1.2,0.1c-0.6-0.2-1.1-0.6-1.5-1.1l-0.4-3l2.5,1.6
			c0,0,1.6,0.2,1.8,0.7C92.8,28.1,92.5,28.7,92.2,29.2z"/>
		<path class="st3" d="M59.9,29c0.2-0.6,0.5-1.1,0.8-1.6c0.1-0.1,0.2-0.2,0.4-0.1c0.4,0.1,0.8,0,1.2-0.1c0.6,0.2,1.1,0.6,1.5,1.1
			l0.4,3l-2.5-1.6C61.6,29.7,60,29.5,59.9,29z"/>
		<path class="st3" d="M83.4,42.3c-0.1,0-0.3-0.1-0.3-0.3c-0.2-0.3-0.4-0.7-0.7-0.9c-0.1-0.6,0-1.3,0.2-1.9l2.4-1.9v3
			c0,0,0.6,1.5,0.2,1.9C84.6,42.3,84,42.3,83.4,42.3z"/>
		<path class="st3" d="M67.8,19.2v-3c0,0-0.6-1.5-0.2-1.9c0.6-0.1,1.2-0.1,1.8-0.1c0.1,0,0.3,0.1,0.3,0.3c0.2,0.3,0.4,0.7,0.7,0.9
			c0.1,0.6,0,1.3-0.2,1.9L67.8,19.2z"/>
		<path class="st3" d="M68.7,42.9c-0.4-0.5-0.7-1-1-1.5c-0.1-0.2-0.1-0.3,0.1-0.5c0.2-0.3,0.4-0.6,0.5-1c0.5-0.4,1.1-0.7,1.7-0.8
			l2.8,1.1l-2.5,1.5C70.3,41.8,69.3,43,68.7,42.9z"/>
		<path class="st3" d="M84.5,16.6c-0.5,0.4-1.1,0.7-1.7,0.8L80,16.2l2.5-1.5c0,0,1-1.2,1.6-1.2c0.4,0.5,0.7,1,1,1.5
			c0.1,0.2,0.1,0.3-0.1,0.5C84.8,15.8,84.7,16.2,84.5,16.6z"/>
	</g>
	<circle class="st4" cx="76.4" cy="28.2" r="11.6"/>
	<path class="st5" d="M93,26.4c-0.1-0.5-1.1-1.2-1.1-1.2l-2.5-1.5c-0.6-1.3-3.8-6.3-4.8-7.2c-0.9-0.9-0.9-1.4-0.9-1.4
		s0.1-0.6,0.5-0.9c0.4-0.4-0.3-0.9-0.8-1c-0.6-0.1-1.1,0.1-1.6,0.3L79.1,15c-1.4-0.1-7.5,0.2-8.8,0.5c-0.5,0.2-1.1,0.2-1.7,0.1
		c-0.2-0.2-0.4-0.5-0.6-0.9c-0.1-0.5-0.9-0.3-1.3,0.1c-0.3,0.5-0.5,1-0.5,1.6v3c-0.8,1.2-3.7,6.6-4,7.8c-0.1,0.6-0.4,1.1-0.8,1.6
		c-0.3,0.1-0.7,0.1-1,0.1c-0.5-0.1-0.7,0.7-0.6,1.2s1.1,1.2,1.1,1.2l2.5,1.5c0.6,1.3,3.9,6.3,4.8,7.2s0.9,1.4,0.9,1.4
		S69,42,68.6,42.3c-0.4,0.4,0.3,0.9,0.8,1c0.6,0.1,1.1-0.1,1.6-0.3l2.6-1.3c1.4,0.1,7.6-0.3,8.8-0.5c0.5-0.2,1.1-0.3,1.7-0.1
		c0.2,0.2,0.4,0.5,0.6,0.9c0.1,0.5,0.9,0.3,1.3-0.1c0.3-0.5,0.5-1,0.5-1.6v-3c0.8-1.2,3.6-6.5,4-7.8c0.1-0.6,0.4-1.1,0.8-1.6
		c0.3-0.1,0.7-0.1,1-0.1C92.9,27.8,93.1,26.9,93,26.4z M85.4,22.6c0,0.6,0,1.1,0.1,1.7l1,1.2c0.4,1.3,0.5,2.7,0.5,4
		c-0.1,1.2-0.6,2.4-1.2,3.5c0.1,0.1-1,0.6-1.4,1.1l-0.6,1.5c-0.9,1-2,1.8-3.3,2.4c-1.1,0.5-2.4,0.7-3.7,0.6l0,0
		c-0.5-0.3-1-0.6-1.5-0.8l-1.6,0.3c-1.3-0.3-2.6-0.9-3.7-1.6c-1-0.7-1.9-1.7-2.4-2.8c0-0.6,0-1.1-0.1-1.7l-1-1.2
		c-0.4-1.3-0.5-2.7-0.5-4c0.1-1.2,0.5-2.4,1.2-3.5l0,0c0.5-0.3,0.9-0.6,1.3-1l0.6-1.5c0.9-1,2-1.8,3.3-2.4c1.1-0.5,2.4-0.7,3.7-0.6
		c0-0.1,1,0.6,1.6,0.6l1.6-0.3c1.3,0.3,2.6,0.9,3.7,1.6C84,20.6,84.8,21.5,85.4,22.6z"/>
	<path class="st5" d="M84.4,29.4c0.2-0.9,0.1-1.9-0.1-2.8v-0.2L83,26.2l-0.5-1.1l0.8-1l-0.1-0.2c-1-1.6-2.6-2.8-4.4-3.4h-0.1l-0.8,1
		l-1.3-0.2L76,20.2h-0.1c-1.9,0.1-3.7,0.8-5,2.1l-0.2,0.1l0.5,1.1l-0.8,1l-1.1-0.1l0,0h-0.1c-0.4,0.8-0.7,1.7-0.9,2.6
		c-0.1,0.9-0.1,1.9,0,2.8V30l1.3,0.2l0.5,1.1l-0.6,0.8l0,0l0,0l-0.1,0.2l0.1,0.2c1,1.6,2.6,2.8,4.4,3.4H74l0.8-1l1.3,0.2l0.5,1.2
		h0.1c1.9-0.1,3.7-0.8,5-2.1l0.2-0.1L81.5,33l0.8-1l1.3,0.1V32C84,31.2,84.2,30.3,84.4,29.4z M76.8,35l-0.2-4.4c0.5,0,1-0.2,1.4-0.5
		l3.5,3.9c-1.3,1-2.8,1.7-4.4,1.8L76.8,35z M74,35.3c-1.6-0.6-2.9-1.7-3.9-3l4.2-2.7c0.3,0.4,0.7,0.7,1.2,0.9L74,35.3L74,35.3
		L74,35.3z M74.1,27.2C74,27.4,74,27.6,74,27.9s0,0.5,0,0.8l-4.8,1L69,29.6c-0.2-0.8-0.2-1.7,0-2.5c0.1-0.8,0.4-1.6,0.7-2.3h0.1
		L74.1,27.2z M76.2,25.7c-0.5,0-1,0.2-1.4,0.6l-3.3-3.7l-0.1-0.2c1.3-1.1,2.9-1.7,4.5-1.9l0.1,0.3L76.2,25.7z M78.5,26.8
		c-0.3-0.4-0.7-0.7-1.2-0.9l1.4-4.5l0.3-0.3c1.5,0.6,2.9,1.6,3.8,2.9L78.5,26.8z M84,26.8c0.3,1.6,0.1,3.3-0.7,4.8l-0.4-0.1
		l-4.3-2.3c0.1-0.2,0.2-0.5,0.2-0.7c0-0.3,0-0.5,0-0.8l4.8-1L84,26.8L84,26.8z"/>
	<g>
		<circle class="st6" cx="76.4" cy="28.2" r="2.1"/>
	</g>
</g>
<g>
	<g>
		<path class="st0" d="M43.2,38.7l3.4,2.7c1.4-1.7,2.5-3.5,3.3-5.5c0.6-1.3,0.8-2.7,0.8-4.1L47,29.3L43.2,38.7z"/>
		<path class="st0" d="M29.3,17.9l-3.4-2.7c-1.4,1.7-2.5,3.5-3.3,5.5c-0.6,1.3-0.8,2.7-0.8,4.1l3.7,2.5L29.3,17.9z"/>
		<path class="st0" d="M19.6,30.7c0.7,2,1.8,3.9,3.1,5.7c0.9,1.1,1.9,2.1,3.1,2.9l3.9-2l-6.3-8.1L19.6,30.7z"/>
		<path class="st0" d="M52.8,25.9c-0.7-2-1.8-3.9-3.1-5.7c-0.9-1.1-2-2.1-3.1-2.9l-3.9,2l6.3,8.1L52.8,25.9z"/>
		<path class="st0" d="M36.4,43.9c1.4-0.2,2.8-0.6,4-1.3l0.3-4.4l-10.2,1.3l-0.6,4.2C32.1,44.2,34.2,44.2,36.4,43.9z"/>
		<path class="st0" d="M42.4,12.7c-2.1-0.4-4.3-0.4-6.4-0.1c-1.4,0.2-2.8,0.7-4,1.3l-0.3,4.4L41.8,17L42.4,12.7z"/>
	</g>
	<path class="st1" d="M36.2,28.2"/>
	<g>
		<path class="st2" d="M19.6,30.7c0.4,0.8,1.6,0.9,2.7,0.3s1.6-1.7,1.2-2.4c-0.4-0.8-1.6-0.9-2.7-0.3S19.2,29.9,19.6,30.7z"/>
		<path class="st2" d="M51.5,28.3c1.1-0.6,1.6-1.7,1.2-2.4c-0.4-0.8-1.6-0.9-2.7-0.3c-1.1,0.6-1.6,1.7-1.2,2.4
			C49.3,28.7,50.5,28.9,51.5,28.3z"/>
		<path class="st2" d="M28.5,41.6c0,1.2,0.6,2.2,1.5,2.3c0.9,0,1.6-1,1.6-2.2s-0.6-2.2-1.5-2.3S28.5,40.3,28.5,41.6z"/>
		<path class="st2" d="M42.2,17.1c0.9,0,1.6-0.9,1.6-2.2c0-1.2-0.6-2.2-1.5-2.3s-1.6,0.9-1.6,2.2S41.4,17.1,42.2,17.1z"/>
		<path class="st2" d="M42.9,39.1c-0.5,0.7,0,1.9,1.1,2.5s2.3,0.6,2.7-0.2c0.4-0.7,0-1.8-1.1-2.5C44.5,38.3,43.3,38.3,42.9,39.1z"/>
		<path class="st2" d="M26.9,17.6c1,0.7,2.3,0.6,2.7-0.2c0.5-0.7,0-1.9-1.1-2.5s-2.3-0.6-2.7,0.2C25.4,15.9,25.8,17,26.9,17.6z"/>
	</g>
	<g>
		<path class="st3" d="M20.4,29.2c0.1,0.1,0.2,0.2,0.4,0.1c0.4-0.1,0.8,0,1.2,0.1c0.6-0.2,1.1-0.6,1.5-1.1l0.4-3l-2.5,1.6
			c0,0-1.6,0.2-1.8,0.7C19.8,28.1,20.1,28.7,20.4,29.2z"/>
		<path class="st3" d="M52.7,29c-0.2-0.6-0.5-1.1-0.8-1.6c-0.1-0.1-0.2-0.2-0.4-0.1c-0.4,0.1-0.8,0-1.2-0.1
			c-0.6,0.2-1.1,0.6-1.5,1.1l-0.4,3l2.5-1.6C50.9,29.7,52.6,29.5,52.7,29z"/>
		<path class="st3" d="M29.2,42.3c0.1,0,0.3-0.1,0.3-0.3c0.2-0.3,0.4-0.7,0.7-0.9c0.1-0.6,0-1.3-0.2-1.9l-2.4-1.9v3
			c0,0-0.6,1.5-0.2,1.9C27.9,42.3,28.5,42.3,29.2,42.3z"/>
		<path class="st3" d="M44.7,19.2v-3c0,0,0.6-1.5,0.2-1.9c-0.6-0.1-1.2-0.1-1.8-0.1c-0.1,0-0.3,0.1-0.3,0.3
			c-0.2,0.3-0.4,0.7-0.7,0.9c-0.1,0.6,0,1.3,0.2,1.9L44.7,19.2z"/>
		<path class="st3" d="M43.8,42.9c0.4-0.5,0.7-1,1-1.5c0.1-0.2,0.1-0.3-0.1-0.5c-0.2-0.3-0.4-0.6-0.5-1c-0.5-0.4-1.1-0.7-1.7-0.8
			l-2.8,1.1l2.5,1.5C42.3,41.8,43.2,43,43.8,42.9z"/>
		<path class="st3" d="M28,16.6c0.5,0.4,1.1,0.7,1.7,0.8l2.8-1.1L30,14.7c0,0-1-1.2-1.6-1.2c-0.4,0.5-0.7,1-1,1.5
			c-0.1,0.2-0.1,0.3,0.1,0.5C27.7,15.8,27.9,16.2,28,16.6z"/>
	</g>
	<circle class="st4" cx="36.2" cy="28.2" r="11.6"/>
	<path class="st5" d="M20.2,27.7c0.3,0,0.7,0,1,0.1c0.4,0.4,0.7,1,0.8,1.6c0.4,1.3,3.2,6.6,4,7.8v3c0,0.6,0.2,1.1,0.5,1.6
		c0.4,0.4,1.2,0.6,1.3,0.1c0.1-0.3,0.3-0.6,0.6-0.9c0.6-0.1,1.2-0.1,1.7,0.1c1.2,0.2,7.3,0.6,8.8,0.5l2.6,1.3
		c0.5,0.3,1.1,0.4,1.6,0.3c0.5-0.1,1.2-0.6,0.8-1c-0.3-0.2-0.5-0.9-0.5-0.9s0-0.5,0.9-1.4s4.1-5.9,4.8-7.2l2.5-1.5
		c0,0,1-0.7,1.1-1.2s-0.1-1.4-0.6-1.2c-0.3,0-0.7,0-1-0.1c-0.4-0.4-0.7-1-0.8-1.6c-0.4-1.2-3.2-6.6-4-7.8v-3c0-0.6-0.2-1.1-0.5-1.6
		c-0.4-0.4-1.2-0.6-1.3-0.1c-0.1,0.3-0.3,0.6-0.6,0.9c-0.6,0.1-1.1,0-1.7-0.1c-1.3-0.3-7.4-0.6-8.8-0.5l-2.6-1.4
		c-0.5-0.3-1.1-0.4-1.6-0.3c-0.5,0.1-1.2,0.6-0.8,1c0.3,0.2,0.5,0.9,0.5,0.9s0,0.5-0.9,1.4s-4.1,5.9-4.8,7.2l-2.5,1.5
		c0,0-1,0.7-1.1,1.2S19.6,27.8,20.2,27.7z M29.6,19.8c1.1-0.7,2.4-1.3,3.7-1.6l1.6,0.3c0.6-0.1,1.6-0.8,1.6-0.6
		c1.3-0.1,2.5,0.1,3.7,0.6c1.2,0.6,2.3,1.4,3.3,2.4l0.6,1.5c0.4,0.4,0.8,0.7,1.3,1l0,0c0.7,1,1.1,2.2,1.2,3.5c0.1,1.3-0.1,2.7-0.5,4
		l-1,1.2c-0.1,0.6-0.2,1.1-0.1,1.7c-0.6,1.1-1.4,2.1-2.4,2.8c-1.1,0.7-2.4,1.3-3.7,1.6l-1.6-0.3c-0.5,0.2-1,0.4-1.5,0.8l0,0
		c-1.3,0.1-2.5-0.1-3.7-0.6c-1.2-0.6-2.3-1.4-3.3-2.4l-0.6-1.5c-0.3-0.5-1.4-1-1.4-1.1c-0.7-1-1.1-2.2-1.2-3.5s0.1-2.7,0.5-4l1-1.2
		c0.1-0.6,0.2-1.1,0.1-1.7C27.8,21.5,28.6,20.6,29.6,19.8z"/>
	<path class="st5" d="M29,32v0.1l1.3-0.1l0.8,1l-0.5,1.1l0.2,0.1c1.4,1.3,3.1,2,5,2.1h0.1l0.5-1.2l1.3-0.2l0.8,1h0.1
		c1.8-0.6,3.3-1.8,4.4-3.4l0.1-0.2L43,32.1l0,0l0,0l-0.6-0.8l0.5-1.1l1.3-0.2v-0.2c0.2-0.9,0.2-1.9,0-2.8s-0.4-1.8-0.9-2.6h-0.1l0,0
		l-1.1,0.1l-0.8-1l0.5-1.1l-0.2-0.1c-1.4-1.3-3.1-2-5-2.1h-0.1L36,21.4l-1.3,0.2l-0.8-1h-0.1c-1.8,0.6-3.3,1.8-4.4,3.4l-0.1,0.2
		l0.8,1l-0.5,1.1l-1.3,0.2v0.2c-0.2,0.9-0.3,1.8-0.1,2.8C28.3,30.3,28.6,31.2,29,32z M35.5,35.8c-1.6-0.1-3.2-0.8-4.4-1.8l3.5-3.9
		c0.4,0.3,0.9,0.5,1.4,0.5L35.8,35L35.5,35.8z M38.5,35.3L38.5,35.3L37,30.5c0.5-0.2,0.9-0.5,1.2-0.9l4.2,2.7
		C41.5,33.7,40.1,34.7,38.5,35.3L38.5,35.3z M42.9,24.8L42.9,24.8c0.4,0.7,0.7,1.5,0.8,2.3s0.1,1.7,0,2.5l-0.3,0.1l-4.8-1
		c0-0.3,0-0.5,0-0.8c0-0.2-0.1-0.5-0.2-0.7L42.9,24.8z M36.5,20.8l0.1-0.3c1.7,0.1,3.2,0.8,4.5,1.9L41,22.6l-3.3,3.7
		c-0.4-0.3-0.9-0.5-1.4-0.6L36.5,20.8z M29.8,24c0.9-1.3,2.3-2.3,3.8-2.9l0.3,0.3l1.4,4.5c-0.5,0.2-0.9,0.5-1.2,0.9L29.8,24z
		 M28.5,26.8l0.4-0.1l4.8,1c0,0.3-0.1,0.5,0,0.8c0,0.3,0.1,0.5,0.2,0.7l-4.3,2.3l-0.4,0.1C28.5,30.1,28.2,28.4,28.5,26.8L28.5,26.8z
		"/>
	<g>
		<circle class="st6" cx="36.2" cy="28.2" r="2.1"/>
	</g>
</g>
<path class="st7" d="M30,9.2h-0.2c-0.6,0-1.1-0.5-1.1-1.1l0,0V7.6c0-0.6,0.5-1.1,1.1-1.1l0,0H30c0.5,0,1,0.4,1.1,0.9v0.8
	C31.1,8.7,30.7,9.2,30,9.2L30,9.2z"/>
<rect x="23.9" y="11.6" class="st8" width="12.5" height="10.3"/>
<path class="st7" d="M36.9,22.5H23.5V11.2H37L36.9,22.5z M24.4,21.5H36v-9.4H24.4V21.5z"/>
<path class="st9" d="M32.1,7.7h-4.6c-2.6,0-3.7,1.1-3.7,2.9v1.1h12.5v-1.1C36.4,8.9,35.2,7.7,32.1,7.7z"/>
<path class="st7" d="M36.9,12.1H23.5v-1.6c0-1.2,0.5-3.3,4.1-3.3h4.6c4.1,0,4.7,2.1,4.7,3.3V12.1z M24.4,11.2H36v-0.6
	c0-1.6-1.3-2.4-3.8-2.4h-4.6c-2.2,0-3.2,0.8-3.2,2.4V11.2z"/>
<path class="st10" d="M19.7,37.5l0.1-9.8c0-3.3-10.4-4.1-8.1-6c1.8-1.5,16.1-4.6,18.6-4.6h48c5.8,0,10.5,4.7,10.5,10.5l0,0V34
	c0,0-1.5,1.7-6.3,4c-3.2,1.5-6.5,2.8-9.9,3.9L19.7,37.5L19.7,37.5z"/>
<path class="st7" d="M72.7,42.3L72.7,42.3L19.2,38l0.1-10.2c0-1.4-2.7-2.4-4.9-3.2c-2-0.7-3.4-1.2-3.5-2.1c-0.1-0.4,0.1-0.8,0.5-1.1
	c2-1.6,16.5-4.7,18.9-4.7h48c6.1,0,11,4.9,11,11v6.5l-0.1,0.1c-0.1,0.1-1.6,1.8-6.4,4.1c-3.2,1.5-6.5,2.8-9.9,3.9
	C72.9,42.3,72.7,42.3,72.7,42.3z M20.1,37.1l52.5,4.3c3.3-1.1,6.6-2.3,9.7-3.8c2.2-0.9,4.2-2.2,6-3.7v-6.2c0-5.6-4.5-10.1-10.1-10.1
	h-48c-2.5,0-16.6,3.1-18.4,4.5c-0.1,0.1-0.2,0.2-0.2,0.2c0.1,0.4,1.9,1,2.9,1.4c2.6,0.9,5.5,2,5.5,4.1L20.1,37.1z"/>
<path class="st10" d="M3.6,41.9l0.1-9.8c0-5.8,4.7-10.5,10.5-10.5l0,0h48c5.8,0,10.5,4.7,10.5,10.5l0,0v9.8H3.6z"/>
<path class="st7" d="M73.2,42.3h-70L3.3,32c0-6.1,4.9-11,11-11h48c6.1,0,11,4.9,11,11L73.2,42.3z M4.1,41.4h68.2v-9.3
	c0-5.6-4.5-10.1-10.1-10.1h-48c-5.5,0-10,4.5-10,10.1L4.1,41.4z"/>
<path class="st7" d="M18.7,11.9h-0.2c-0.6,0-1.1-0.5-1.1-1.1l0,0v-0.5c0-0.6,0.5-1.1,1.1-1.1l0,0h0.2c0.5,0.1,1,0.5,1.1,1v0.7
	C19.8,11.4,19.3,11.9,18.7,11.9L18.7,11.9z"/>
<rect x="12.5" y="14.4" class="st8" width="12.6" height="10.3"/>
<path class="st7" d="M25.5,25.2H12V13.9h13.5V25.2z M12.9,24.3h11.6v-9.4H12.9V24.3z"/>
<path class="st9" d="M20.8,10.3h-4.6c-2.6,0-3.7,1.1-3.7,2.9v1.1H25v-1.1C25,11.5,23.8,10.3,20.8,10.3z"/>
<path class="st7" d="M25.5,14.8H12v-1.6c0-1.2,0.5-3.3,4.1-3.3h4.6c4.1,0,4.7,2.1,4.7,3.3L25.5,14.8L25.5,14.8z M12.9,13.8h11.6
	v-0.6c0-1.6-1.3-2.4-3.8-2.4h-4.6c-2.2,0-3.2,0.8-3.2,2.4L12.9,13.8z"/>
<path class="st10" d="M64.8,4.3c0.4,0.2,0.7,0.4,1,0.6c-0.4,1.6-0.6,3.3-0.6,5c0,2.7,0,5.6,1.3,7.2c0.3,0.4,0.6,0.6,0.6,1
	c-0.3,0.7-1.1,1.2-1.9,1c-1-0.3-1.5-1.7-1.6-1.9s-0.1-0.5-0.2-0.5c-0.7-3.9-2-10.9-0.3-12.4C63.7,4,64.4,4,64.8,4.3L64.8,4.3z"/>
<path class="st7" d="M65.6,19.7c-0.1,0-0.3,0-0.4,0c-0.9-0.4-1.5-1.1-1.8-2l-0.1-0.1c0-0.1-0.1-0.2-0.1-0.3v-0.1l-0.1-0.1V17
	C62,11.1,61.3,5.5,63,4.1c0.5-0.5,1.4-0.6,2-0.1l0,0c0.4,0.2,0.7,0.4,1.1,0.7l0.2,0.2l-0.1,0.3c-0.4,1.6-0.5,3.2-0.5,4.9
	c0,2.6,0,5.5,1.2,6.9l0.2,0.3c0.3,0.3,0.5,0.6,0.5,1c-0.1,0.5-0.3,0.9-0.7,1.1C66.6,19.5,66.1,19.7,65.6,19.7z M64.2,17.2L64.2,17.2
	c0.1,0.4,0.5,1.4,1.2,1.5c0.3,0.1,0.7,0,0.9-0.2c0.2-0.1,0.3-0.2,0.3-0.4c-0.1-0.1-0.2-0.2-0.3-0.4c-0.1-0.1-0.2-0.2-0.3-0.3
	c-1.4-1.7-1.4-4.8-1.4-7.5c0-1.6,0.2-3.2,0.5-4.8C65,5,64.8,4.9,64.5,4.7c-0.6-0.3-0.9-0.1-0.9,0C62,6.1,63.4,13.6,64,16.6
	c0.1,0.1,0.1,0.2,0.1,0.4C64.1,17,64.1,17.1,64.2,17.2L64.2,17.2z"/>
<path class="st10" d="M79.6,1.5c-0.3,3.1-0.3,6.4-0.3,9.9c0,1.9,0.1,3.6,0.1,5.3c-2.2,0.6-4.5,1.2-7.1,1.7c-2,0.4-4.1,0.7-6.2,0.9
	h-0.7c-0.5-0.1-0.4-6.6-0.5-10.1c-0.1-1.7-0.4-3.5-0.8-5.2c2.2-1.3,4.6-2.2,7.1-2.7C74,0.8,76.9,0.9,79.6,1.5z"/>
<path class="st7" d="M65.8,19.6h-0.5c-0.7-0.1-0.8-0.9-0.9-6.5c0-1.5,0-3-0.1-4.1c-0.1-1.6-0.3-3.2-0.7-4.7l-0.2-0.7l0.3-0.2
	C66,2.1,68.5,1.2,71,0.7c2.9-0.4,5.8-0.3,8.7,0.3l0.4,0.1v0.4c-0.3,3.1-0.3,6.4-0.3,9.8c0,1,0,1.9,0,2.8s0,1.7,0,2.5V17L78,17.4
	c-1.8,0.5-3.7,0.9-5.7,1.3c-2.1,0.4-4.1,0.7-6.2,0.9L65.8,19.6z M64.5,4.1L64.5,4.1c0.4,1.7,0.7,3.3,0.8,4.9
	c0.1,1.2,0.1,2.7,0.1,4.2c0,1.9,0.1,3.7,0.3,5.5h0.5c2-0.2,4.1-0.5,6.1-0.9s3.9-0.8,5.7-1.3l1.1-0.3c0-0.7,0-1.4,0-2.1
	c0-0.9,0-1.8,0-2.8c0-3.3,0-6.5,0.2-9.5c-2.6-0.5-5.3-0.6-7.9-0.2C68.8,2,66.6,2.9,64.5,4.1L64.5,4.1z"/>
<path class="st7" d="M72.8,14.4c-2,0-3.7-2.1-3.7-4.8s1.7-4.8,3.7-4.8s3.7,2.1,3.7,4.8S74.9,14.4,72.8,14.4z"/>
<path class="st6" d="M72.8,14.5c-2.1,0-3.8-2.2-3.8-4.9s1.7-4.9,3.8-4.9s3.8,2.2,3.8,4.9S74.9,14.5,72.8,14.5z M72.8,4.9
	c-2,0-3.6,2.1-3.6,4.7s1.6,4.7,3.6,4.7s3.6-2,3.6-4.7S74.7,4.9,72.8,4.9z"/>
<path class="st10" d="M73,14.4c-1.9,0-3.5-2.1-3.5-4.8s1.6-4.8,3.5-4.8s3.5,2.1,3.5,4.8S75,14.4,73,14.4z"/>
<path class="st6" d="M73,14.5c-2,0-3.6-2.2-3.6-4.9S71,4.7,73,4.7s3.6,2.2,3.6,4.9S75,14.5,73,14.5z M73,4.9c-1.9,0-3.4,2.1-3.4,4.7
	s1.5,4.7,3.4,4.7s3.4-2.1,3.4-4.7S74.9,4.9,73,4.9z"/>
<path class="st7" d="M73,13.6c-1.7,0-3-1.9-3-4.1s1.4-4.1,3-4.1s3,1.8,3,4.1S74.7,13.6,73,13.6z"/>
<path class="st6" d="M73,13.8c-1.7,0-3.2-1.9-3.2-4.2s1.5-4.2,3.2-4.2s3.2,1.9,3.2,4.2S74.8,13.8,73,13.8z M73,5.6
	c-1.6,0-2.9,1.8-2.9,4s1.4,4,2.9,4s2.9-1.8,2.9-4S74.6,5.6,73,5.6z"/>
<path class="st11" d="M72.8,13.5c-1.4,0-2.4-1.8-2.4-4s1.1-4,2.4-4s2.4,1.8,2.4,4S74.1,13.5,72.8,13.5z"/>
<path class="st12" d="M72.6,13.5c-1.4,0-2.4-1.8-2.4-4s1.1-4,2.4-4s2.4,1.8,2.4,4S74,13.5,72.6,13.5z"/>
<path class="st13" d="M73.1,12.7c-0.8,0-1.5-1.1-1.5-2.6s0.6-2.6,1.5-2.6s1.5,1.1,1.5,2.6S74,12.7,73.1,12.7z"/>
<path class="st14" d="M73.4,11.7c-0.4,0-0.7-0.5-0.7-1.2s0.3-1.2,0.7-1.2s0.7,0.6,0.7,1.2S73.8,11.7,73.4,11.7z"/>
<path class="st6" d="M72.6,13.8c-1.5,0-2.8-1.9-2.8-4.2s1.3-4.2,2.8-4.2s2.8,1.9,2.8,4.2S74.2,13.8,72.6,13.8z M72.6,5.6
	c-1.4,0-2.6,1.8-2.6,4s1.1,4,2.6,4s2.6-1.8,2.6-4S74.1,5.6,72.6,5.6z"/>
<path class="st8" d="M86.3,25.2c-1.2,0.2-2.4,0.4-3.5,0.8c-1.8,1-1.8,4.9,0.3,6.3c2.5,0.1,3.8,0.1,3.8,0.1L86.3,25.2z"/>
<path class="st6" d="M87,32.5L87,32.5c-0.1,0-1.4,0-3.9-0.1l0,0l0,0c-1.2-0.9-1.8-2.3-1.7-3.7c0-1,0.5-2,1.4-2.6
	c1.1-0.4,2.3-0.7,3.5-0.8h0.1v0.1L87,32.5z M83.1,32.2c2.1,0.1,3.3,0.1,3.6,0.1l-0.5-6.9c-1.1,0.2-2.3,0.4-3.4,0.8
	c-0.8,0.5-1.3,1.5-1.3,2.4C81.4,30,82,31.3,83.1,32.2L83.1,32.2z"/>
<path class="st10" d="M86.5,32.4c-1.5,0-2.6-1.6-2.6-3.6s1.2-3.6,2.6-3.6s2.6,1.6,2.6,3.6S88,32.4,86.5,32.4z"/>
<path class="st6" d="M86.5,32.5c-1.5,0-2.7-1.6-2.7-3.7s1.2-3.7,2.7-3.7s2.7,1.6,2.7,3.7c0.1,1.1-0.3,2.1-1,2.9
	C87.8,32.2,87.1,32.4,86.5,32.5z M86.5,25.3c-1.3,0-2.5,1.6-2.5,3.5s1.1,3.5,2.5,3.5c0.6,0,1.2-0.3,1.6-0.7c0.7-0.8,1-1.8,0.9-2.8
	C89,26.8,87.9,25.2,86.5,25.3L86.5,25.3z"/>
<path class="st7" d="M86.5,31.8c-1.3,0-2.3-1.4-2.3-3s1-3,2.3-3s2.3,1.4,2.3,3S87.8,31.8,86.5,31.8z"/>
<path class="st6" d="M86.5,31.9c-1.3,0-2.4-1.4-2.4-3.1s1.1-3.1,2.4-3.1s2.4,1.4,2.4,3.1S87.9,31.9,86.5,31.9z M86.5,25.8
	c-1.2,0-2.2,1.3-2.2,3s1,3,2.2,3s2.2-1.3,2.2-3S87.7,25.8,86.5,25.8L86.5,25.8z"/>
<path class="st15" d="M86.3,31.7c-1,0-1.9-1.3-1.9-3s0.8-3,1.9-3s1.8,1.3,1.8,3S87.3,31.7,86.3,31.7z"/>
<path class="st16" d="M86.1,31.7c-1,0-1.8-1.3-1.8-3s0.8-3,1.8-3s1.9,1.3,1.9,3S87.2,31.7,86.1,31.7z"/>
<path class="st6" d="M86.2,31.9c-1.2,0-2.1-1.4-2.1-3.1s1-3.1,2.1-3.1s2.1,1.4,2.1,3.1S87.4,31.9,86.2,31.9z M86.2,25.8
	c-1.1,0-1.9,1.4-1.9,3s0.9,3,1.9,3s1.9-1.3,1.9-3S87.3,25.8,86.2,25.8L86.2,25.8z"/>
<path class="st8" d="M79.9,27.9c-1.2,0.2-2.4,0.4-3.5,0.8c-1.9,0.9-1.9,4.8,0.3,6.2c2.5,0.1,3.8,0.1,3.8,0.1L79.9,27.9z"/>
<path class="st6" d="M80.5,35.1L80.5,35.1c-0.1,0-1.4,0-3.9-0.1l0,0c-1.2-0.9-1.8-2.3-1.7-3.7c0-1.1,0.5-2,1.4-2.6
	c1.1-0.4,2.3-0.7,3.5-0.8H80V28L80.5,35.1z M76.7,34.8c2.1,0.1,3.3,0.1,3.6,0.1L79.8,28c-1.1,0.2-2.3,0.4-3.4,0.8
	c-0.8,0.5-1.3,1.5-1.3,2.4C75,32.7,75.6,34,76.7,34.8z"/>
<path class="st10" d="M80,35c-1.5,0-2.6-1.6-2.6-3.6s1.2-3.6,2.6-3.6s2.6,1.6,2.6,3.6C82.6,33.4,81.6,35,80,35z"/>
<path class="st6" d="M80,35.1c-1.5,0-2.7-1.6-2.7-3.7s1.2-3.7,2.7-3.7s2.7,1.6,2.7,3.7C82.7,33.5,81.6,35.1,80,35.1z M80,27.9
	c-1.4,0-2.5,1.6-2.5,3.5c0,1.9,1.1,3.5,2.5,3.5s2.5-1.5,2.5-3.5S81.5,27.9,80,27.9z"/>
<path class="st7" d="M80,34.6c-1.3,0-2.3-1.4-2.3-3s1-3,2.3-3s2.3,1.4,2.3,3C82.4,33.2,81.3,34.6,80,34.6z"/>
<path class="st6" d="M80,34.7c-1.3,0-2.4-1.4-2.4-3.1s1.1-3.1,2.4-3.1s2.4,1.4,2.4,3.1S81.4,34.7,80,34.7z M80,28.6
	c-1.2,0-2.2,1.3-2.2,3s1,3,2.2,3s2.2-1.3,2.2-3C82.3,29.9,81.3,28.6,80,28.6z"/>
<path class="st15" d="M79.9,34.5c-1,0-1.9-1.3-1.9-3c0-1.7,0.8-3,1.9-3s1.8,1.3,1.8,3C81.7,33.2,80.9,34.5,79.9,34.5z"/>
<path class="st16" d="M79.7,34.5c-1,0-1.8-1.3-1.8-3c0-1.7,0.8-3,1.8-3s1.9,1.3,1.9,3C81.5,33.2,80.7,34.5,79.7,34.5z"/>
<path class="st6" d="M79.8,34.7c-1.2,0-2.1-1.4-2.1-3.1s1-3.1,2.1-3.1s2.1,1.4,2.1,3.1S80.9,34.7,79.8,34.7z M79.8,28.6
	c-1,0-1.9,1.4-1.9,3c0,1.6,0.9,3,1.9,3s1.9-1.4,1.9-3C81.7,30,80.8,28.6,79.8,28.6z"/>
<g>
	<g>
		<path class="st0" d="M50.2,25.7L46.8,23c-1.4,1.7-2.5,3.5-3.3,5.5c-0.6,1.3-0.8,2.7-0.8,4.1l3.7,2.5L50.2,25.7z"/>
		<path class="st0" d="M64.1,46.5l3.4,2.7c1.4-1.7,2.5-3.5,3.3-5.5c0.6-1.3,0.8-2.7,0.8-4.1L68,37.1L64.1,46.5z"/>
		<path class="st0" d="M73.8,33.7c-0.7-2-1.8-3.9-3.1-5.7c-0.9-1.1-1.9-2.1-3.1-2.9l-3.9,2l6.3,8.1L73.8,33.7z"/>
		<path class="st0" d="M40.6,38.5c0.7,2,1.8,3.9,3.1,5.7c0.9,1.1,2,2.1,3.1,2.9l3.9-2L44.5,37L40.6,38.5z"/>
		<path class="st0" d="M57,20.5c-1.4,0.2-2.8,0.6-4,1.3l-0.3,4.4l10.2-1.3l0.6-4.2C61.3,20.3,59.2,20.2,57,20.5z"/>
		<path class="st0" d="M51,51.7c2.1,0.4,4.3,0.4,6.4,0.1c1.4-0.2,2.8-0.7,4-1.3l0.3-4.4l-10.2,1.3L51,51.7z"/>
	</g>
	<path class="st1" d="M57.2,36.2"/>
	<g>
		<path class="st2" d="M73.8,33.8c-0.4-0.8-1.6-0.9-2.7-0.3s-1.6,1.7-1.2,2.4c0.4,0.8,1.6,0.9,2.7,0.3S74.2,34.5,73.8,33.8z"/>
		<path class="st2" d="M41.8,36.1c-1.1,0.6-1.6,1.7-1.2,2.4c0.4,0.8,1.6,0.9,2.7,0.3c1.1-0.6,1.6-1.7,1.2-2.4
			C44.1,35.7,42.9,35.6,41.8,36.1z"/>
		<path class="st2" d="M64.9,22.9c0-1.2-0.6-2.2-1.5-2.3c-0.9,0-1.6,1-1.6,2.2s0.6,2.2,1.5,2.3C64.1,25,64.9,24.1,64.9,22.9z"/>
		<path class="st2" d="M51.2,47.4c-0.9,0-1.6,0.9-1.6,2.2c0,1.2,0.6,2.2,1.5,2.3s1.6-0.9,1.6-2.2S52,47.4,51.2,47.4z"/>
		<path class="st2" d="M50.5,25.4c0.5-0.7,0-1.9-1.1-2.5s-2.3-0.6-2.7,0.2c-0.4,0.7,0,1.8,1.1,2.5C48.9,26.2,50.1,26.1,50.5,25.4z"
			/>
		<path class="st2" d="M66.5,46.8c-1-0.7-2.3-0.6-2.7,0.2c-0.5,0.7,0,1.9,1.1,2.5c1.1,0.6,2.3,0.6,2.7-0.2
			C68,48.6,67.5,47.4,66.5,46.8z"/>
	</g>
	<g>
		<path class="st3" d="M73,35.3c-0.1-0.1-0.2-0.2-0.4-0.1c-0.4,0.1-0.8,0-1.2-0.1c-0.6,0.2-1.1,0.6-1.5,1.1l-0.4,3l2.5-1.6
			c0,0,1.6-0.2,1.8-0.7C73.6,36.3,73.3,35.8,73,35.3z"/>
		<path class="st3" d="M40.7,35.5c0.2,0.6,0.5,1.1,0.8,1.6c0.1,0.1,0.2,0.2,0.4,0.1c0.4-0.1,0.8,0,1.2,0.1c0.6-0.2,1.1-0.6,1.5-1.1
			l0.4-3l-2.5,1.6C42.4,34.8,40.8,34.9,40.7,35.5z"/>
		<path class="st3" d="M64.2,22.1c-0.1,0-0.3,0.1-0.3,0.3c-0.2,0.3-0.4,0.7-0.7,0.9c-0.1,0.6,0,1.3,0.2,1.9l2.4,1.9v-3
			c0,0,0.6-1.5,0.2-1.9C65.5,22.1,64.8,22.1,64.2,22.1z"/>
		<path class="st3" d="M48.6,45.3v3c0,0-0.6,1.5-0.2,1.9c0.6,0.1,1.2,0.1,1.8,0.1c0.1,0,0.3-0.1,0.3-0.3c0.2-0.3,0.4-0.7,0.7-0.9
			c0.1-0.6,0-1.3-0.2-1.9L48.6,45.3z"/>
		<path class="st3" d="M49.6,21.5c-0.4,0.5-0.7,1-1,1.5c-0.1,0.2-0.1,0.3,0.1,0.5c0.2,0.3,0.4,0.6,0.5,1c0.5,0.4,1.1,0.7,1.7,0.8
			l2.8-1.1l-2.5-1.5C51.1,22.6,50.1,21.4,49.6,21.5z"/>
		<path class="st3" d="M65.3,47.9c-0.5-0.4-1.1-0.7-1.7-0.8l-2.8,1.1l2.5,1.5c0,0,1,1.2,1.6,1.2c0.4-0.5,0.7-1,1-1.5
			c0.1-0.2,0.1-0.3-0.1-0.5C65.7,48.6,65.5,48.2,65.3,47.9z"/>
	</g>
	<circle class="st4" cx="57.2" cy="36.2" r="11.6"/>
	<path class="st5" d="M73.2,36.7c-0.3,0-0.7,0-1-0.1c-0.4-0.4-0.7-1-0.8-1.6c-0.4-1.3-3.2-6.6-4-7.8v-3c0-0.6-0.2-1.1-0.5-1.6
		c-0.4-0.4-1.2-0.6-1.3-0.1c-0.1,0.3-0.3,0.6-0.6,0.9c-0.6,0.1-1.2,0.1-1.7-0.1c-1.2-0.2-7.3-0.6-8.8-0.5l-2.6-1.3
		c-0.5-0.3-1.1-0.4-1.6-0.3s-1.2,0.6-0.8,1c0.3,0.2,0.5,0.9,0.5,0.9s0,0.5-0.9,1.4s-4.1,5.9-4.8,7.2l-2.5,1.5c0,0-1,0.7-1.1,1.2
		s0.1,1.4,0.6,1.2c0.3,0,0.7,0,1,0.1c0.4,0.4,0.7,1,0.8,1.6c0.4,1.2,3.2,6.6,4,7.8v3c0,0.6,0.2,1.1,0.5,1.6c0.4,0.4,1.2,0.6,1.3,0.1
		c0.1-0.3,0.3-0.6,0.6-0.9c0.6-0.1,1.1,0,1.7,0.1c1.3,0.3,7.4,0.6,8.8,0.5l2.6,1.4c0.5,0.3,1.1,0.4,1.6,0.3c0.5-0.1,1.2-0.6,0.8-1
		c-0.3-0.2-0.5-0.9-0.5-0.9s0-0.5,0.9-1.4s4.1-5.9,4.8-7.2l2.5-1.5c0,0,1-0.7,1.1-1.2S73.8,36.6,73.2,36.7z M63.8,44.6
		c-1.1,0.7-2.4,1.3-3.7,1.6L58.5,46c-0.6,0.1-1.6,0.8-1.6,0.6c-1.3,0.1-2.5-0.1-3.7-0.6c-1.2-0.6-2.3-1.4-3.3-2.4l-0.6-1.5
		c-0.4-0.4-0.8-0.7-1.3-1l0,0c-0.7-1-1.1-2.2-1.2-3.5c-0.1-1.3,0.1-2.7,0.5-4l1-1.2c0.1-0.6,0.2-1.1,0.1-1.7
		c0.6-1.1,1.4-2.1,2.4-2.8c1.1-0.7,2.4-1.3,3.7-1.6l1.6,0.3c0.5-0.2,1-0.4,1.5-0.8l0,0c1.3-0.1,2.5,0.1,3.7,0.6
		c1.2,0.6,2.3,1.4,3.3,2.4l0.6,1.5c0.3,0.5,1.4,1,1.4,1.1c0.7,1,1.1,2.2,1.2,3.5s-0.1,2.7-0.5,4l-1,1.2c-0.1,0.6-0.2,1.1-0.1,1.7
		C65.6,42.9,64.8,43.9,63.8,44.6z"/>
	<path class="st5" d="M64.4,32.5L64.4,32.5h-1.3l-0.8-1l0.5-1.1l-0.2-0.1c-1.4-1.3-3.1-2-5-2.1h-0.1L57,29.4l-1.3,0.2l-0.8-1h-0.1
		c-1.8,0.6-3.3,1.8-4.4,3.4l-0.1,0.2l0.1,0.2l0,0l0,0l0.6,0.8l-0.5,1.1l-1.3,0.2v0.2c-0.2,0.9-0.2,1.9,0,2.8
		c0.2,0.9,0.4,1.8,0.9,2.6h0.1l0,0l1.1-0.1l0.8,1l-0.5,1.1l0.2,0.1c1.4,1.3,3.1,2,5,2.1h0.1l0.5-1.2l1.3-0.2l0.8,1h0.1
		c1.8-0.6,3.3-1.8,4.4-3.4l0.1-0.2l-0.8-1l0.5-1.1l1.3-0.2v-0.2c0.2-0.9,0.3-1.8,0.1-2.8C65.1,34.1,64.8,33.3,64.4,32.5z M57.9,28.6
		c1.6,0.1,3.2,0.8,4.4,1.8l-3.5,3.9c-0.4-0.3-0.9-0.5-1.4-0.5l0.2-4.4L57.9,28.6z M54.9,29.1L54.9,29.1l1.5,4.8
		c-0.5,0.2-0.9,0.5-1.2,0.9L51,32.2C51.9,30.8,53.3,29.7,54.9,29.1L54.9,29.1z M50.5,39.7L50.5,39.7c-0.4-0.7-0.7-1.5-0.8-2.3
		s-0.1-1.7,0-2.5l0.3-0.1l4.8,1c0,0.3,0,0.5,0,0.8c0,0.2,0.1,0.5,0.2,0.7L50.5,39.7z M56.9,43.6l-0.1,0.3c-1.7-0.1-3.2-0.8-4.5-1.9
		l0.1-0.2l3.3-3.7c0.4,0.3,0.9,0.5,1.4,0.6L56.9,43.6z M63.6,40.5c-0.9,1.3-2.3,2.3-3.8,2.9L59.5,43l-1.4-4.5
		c0.5-0.2,0.9-0.5,1.2-0.9L63.6,40.5z M64.8,37.6l-0.4,0.1l-4.8-1c0-0.3,0.1-0.5,0-0.8c0-0.3-0.1-0.5-0.2-0.7l4.3-2.3l0.4-0.1
		C64.9,34.4,65.2,36,64.8,37.6L64.8,37.6z"/>
	<g>
		<circle class="st6" cx="57.2" cy="36.2" r="2.1"/>
	</g>
</g>
<g>
	<g>
		<path class="st0" d="M24,25.7l3.4-2.7c1.4,1.7,2.5,3.5,3.3,5.5c0.6,1.3,0.8,2.7,0.8,4.1l-3.7,2.5L24,25.7z"/>
		<path class="st0" d="M10.1,46.5l-3.4,2.7c-1.4-1.7-2.5-3.5-3.3-5.5c-0.6-1.3-0.8-2.7-0.8-4.1l3.7-2.5L10.1,46.5z"/>
		<path class="st0" d="M0.4,33.7c0.7-2,1.8-3.9,3.1-5.7c0.9-1.1,1.9-2.1,3.1-2.9l3.9,2l-6.3,8.1L0.4,33.7z"/>
		<path class="st0" d="M33.6,38.5c-0.7,2-1.8,3.9-3.1,5.7c-0.9,1.1-2,2.1-3.1,2.9l-3.9-2l6.3-8.1L33.6,38.5z"/>
		<path class="st0" d="M17.2,20.5c1.4,0.2,2.8,0.6,4,1.3l0.3,4.4l-10.2-1.3l-0.6-4.2C12.9,20.3,15,20.2,17.2,20.5z"/>
		<path class="st0" d="M23.2,51.7c-2.1,0.4-4.3,0.4-6.4,0.1c-1.4-0.2-2.8-0.7-4-1.3l-0.3-4.4l10.2,1.3L23.2,51.7z"/>
	</g>
	<path class="st1" d="M17,36.2"/>
	<g>
		<path class="st2" d="M0.4,33.8c0.4-0.8,1.6-1,2.7-0.4s1.6,1.7,1.2,2.4c-0.4,0.8-1.6,0.9-2.7,0.3S0,34.5,0.4,33.8z"/>
		<path class="st2" d="M32.4,36.1c1.1,0.6,1.6,1.7,1.2,2.4c-0.4,0.8-1.6,0.9-2.7,0.3c-1.1-0.6-1.6-1.7-1.2-2.4
			C30.1,35.7,31.3,35.6,32.4,36.1z"/>
		<path class="st2" d="M9.3,22.9c0-1.2,0.6-2.2,1.5-2.3c0.9,0,1.6,1,1.6,2.2s-0.6,2.2-1.5,2.3S9.3,24.1,9.3,22.9z"/>
		<path class="st2" d="M23,47.4c0.9,0,1.6,0.9,1.6,2.2c0,1.2-0.6,2.2-1.5,2.3s-1.6-0.9-1.6-2.2S22.2,47.4,23,47.4z"/>
		<path class="st2" d="M23.7,25.4c-0.5-0.7,0-1.9,1.1-2.5s2.3-0.6,2.7,0.2c0.4,0.7,0,1.8-1.1,2.5C25.3,26.2,24.1,26.1,23.7,25.4z"/>
		<path class="st2" d="M7.7,46.8c1-0.7,2.3-0.6,2.7,0.2c0.5,0.7,0,1.9-1.1,2.5S7.1,50,6.6,49.3C6.2,48.6,6.7,47.4,7.7,46.8z"/>
	</g>
	<g>
		<path class="st3" d="M1.2,35.3c0.1-0.1,0.2-0.2,0.4-0.1c0.4,0.1,0.8,0,1.2-0.1c0.6,0.2,1.1,0.6,1.5,1.1l0.4,3l-2.5-1.6
			c0,0-1.6-0.2-1.8-0.7C0.6,36.3,0.9,35.8,1.2,35.3z"/>
		<path class="st3" d="M33.5,35.5c-0.2,0.6-0.5,1.1-0.8,1.6c-0.1,0.1-0.2,0.2-0.4,0.1c-0.4-0.1-0.8,0-1.2,0.1
			c-0.6-0.2-1.1-0.6-1.5-1.1l-0.4-3l2.5,1.6C31.8,34.8,33.4,34.9,33.5,35.5z"/>
		<path class="st3" d="M10,22.1c0.1,0,0.3,0.1,0.3,0.3c0.2,0.3,0.4,0.7,0.7,0.9c0.1,0.6,0,1.3-0.2,1.9l-2.4,1.9v-3
			c0,0-0.6-1.5-0.2-1.9C8.7,22.1,9.4,22.1,10,22.1z"/>
		<path class="st3" d="M25.6,45.3v3c0,0,0.6,1.5,0.2,1.9c-0.6,0.1-1.2,0.1-1.8,0.1c-0.1,0-0.3-0.1-0.3-0.3c-0.2-0.3-0.4-0.7-0.7-0.9
			c-0.1-0.6,0-1.3,0.2-1.9L25.6,45.3z"/>
		<path class="st3" d="M24.6,21.5c0.4,0.5,0.7,1,1,1.5c0.1,0.2,0.1,0.3-0.1,0.5c-0.2,0.3-0.4,0.6-0.5,1c-0.5,0.4-1.1,0.7-1.7,0.8
			l-2.8-1.1l2.5-1.5C23.1,22.6,24.1,21.4,24.6,21.5z"/>
		<path class="st3" d="M8.9,47.9c0.5-0.4,1.1-0.7,1.7-0.8l2.8,1.1l-2.5,1.5c0,0-1,1.2-1.6,1.2c-0.4-0.5-0.7-1-1-1.5
			c-0.1-0.2-0.1-0.3,0.1-0.5C8.5,48.6,8.7,48.2,8.9,47.9z"/>
	</g>
	<circle class="st4" cx="17" cy="36.2" r="11.6"/>
	<path class="st5" d="M0.4,38c0.1,0.5,1.1,1.2,1.1,1.2L4,40.7C4.7,42,7.9,47,8.8,47.9s0.9,1.4,0.9,1.4S9.6,50,9.3,50.2
		c-0.4,0.4,0.3,0.9,0.8,1c0.6,0.1,1.1-0.1,1.6-0.3l2.6-1.4c1.4,0.1,7.5-0.2,8.8-0.5c0.5-0.2,1.1-0.2,1.7-0.1
		c0.2,0.2,0.4,0.5,0.6,0.9c0.1,0.5,0.9,0.3,1.3-0.1c0.3-0.5,0.5-1,0.5-1.6v-3c0.8-1.2,3.7-6.6,4-7.8c0.1-0.6,0.4-1.1,0.8-1.6
		c0.3-0.1,0.7-0.1,1-0.1c0.5,0.1,0.7-0.7,0.6-1.2s-1.1-1.2-1.1-1.2L30,31.7c-0.6-1.3-3.9-6.3-4.8-7.2S24.3,23,24.3,23
		s0.1-0.6,0.5-0.9c0.4-0.4-0.3-0.9-0.8-1c-0.6-0.1-1.1,0.1-1.6,0.3l-2.6,1.3c-1.4-0.1-7.6,0.3-8.8,0.5c-0.5,0.2-1.1,0.3-1.7,0.1
		c-0.2-0.2-0.4-0.5-0.6-0.9c-0.1-0.5-0.9-0.3-1.3,0.1c-0.3,0.5-0.5,1-0.5,1.6v3c-0.8,1.2-3.6,6.5-4,7.8c-0.1,0.6-0.4,1.1-0.8,1.6
		c-0.3,0.1-0.7,0.1-1,0.1C0.4,36.6,0.3,37.5,0.4,38z M8,41.8c0-0.6,0-1.1-0.1-1.7l-1-1.2c-0.4-1.3-0.5-2.7-0.5-4
		c0.1-1.2,0.6-2.4,1.2-3.5c-0.1-0.1,1-0.6,1.4-1.1l0.6-1.5c0.9-1,2-1.8,3.3-2.4c1.1-0.5,2.4-0.7,3.7-0.6l0,0c0.5,0.3,1,0.6,1.5,0.8
		l1.6-0.3c1.3,0.3,2.6,0.9,3.7,1.6c1,0.7,1.9,1.7,2.4,2.8c0,0.6,0,1.1,0.1,1.7l1,1.2c0.4,1.3,0.5,2.7,0.5,4
		c-0.1,1.2-0.5,2.4-1.2,3.5l0,0c-0.5,0.3-0.9,0.6-1.3,1l-0.6,1.5c-0.9,1-2,1.8-3.3,2.4c-1.1,0.5-2.4,0.7-3.7,0.6
		c0,0.1-1-0.6-1.6-0.6l-1.6,0.3c-1.3-0.3-2.6-0.9-3.7-1.6C9.4,43.9,8.6,42.9,8,41.8z"/>
	<path class="st5" d="M9,35c-0.2,0.9-0.1,1.9,0.1,2.8V38l1.3,0.2l0.5,1.1l-0.8,1l0.1,0.2c1,1.6,2.6,2.8,4.4,3.4h0.1l0.8-1l1.3,0.2
		l0.5,1.2h0.1c1.9-0.1,3.7-0.8,5-2.1l0.2-0.1L22.1,41l0.8-1l1.1,0l0,0h0.1c0.4-0.8,0.7-1.7,0.9-2.6c0.1-0.9,0.1-1.9,0-2.8v-0.2
		l-1.3-0.2L23.1,33l0.6-0.8l0,0l0,0l0.1-0.2l-0.1-0.2c-1-1.6-2.6-2.8-4.4-3.4h-0.1l-0.8,1l-1.3-0.2L16.6,28h-0.1
		c-1.9,0.1-3.7,0.8-5,2.1l-0.2,0.1l0.5,1.1l-0.8,1l-1.3-0.1v0.1C9.4,33.3,9.1,34.1,9,35z M16.6,29.4l0.2,4.4c-0.5,0-1,0.2-1.4,0.5
		l-3.5-3.9c1.3-1,2.8-1.7,4.4-1.8L16.6,29.4z M19.4,29.1c1.6,0.6,2.9,1.7,3.9,3L19,34.8c-0.3-0.4-0.7-0.7-1.2-0.9L19.4,29.1
		L19.4,29.1L19.4,29.1z M19.3,37.3c0.1-0.2,0.1-0.4,0.2-0.7c0-0.3,0-0.5,0-0.8l4.8-1l0.3,0.1c0.2,0.8,0.2,1.7,0,2.5
		c-0.1,0.8-0.4,1.6-0.7,2.3h-0.1L19.3,37.3z M17.2,38.8c0.5,0,1-0.2,1.4-0.6l3.3,3.7L22,42c-1.3,1.1-2.9,1.7-4.5,1.9l-0.1-0.3
		L17.2,38.8z M14.9,37.7c0.3,0.4,0.7,0.7,1.2,0.9L14.7,43l-0.3,0.3c-1.5-0.6-2.9-1.6-3.8-2.9L14.9,37.7z M9.3,37.7
		C9,36,9.3,34.4,10,32.9l0.4,0.1l4.3,2.3c-0.1,0.2-0.2,0.5-0.2,0.7c0,0.3,0,0.5,0,0.8l-4.8,1L9.3,37.7L9.3,37.7z"/>
	<g>
		<circle class="st6" cx="17" cy="36.2" r="2.1"/>
	</g>
</g>
</svg>
