<?xml version="1.0" encoding="utf-8"?>
<!-- Generator: Adobe Illustrator 24.0.0, SVG Export Plug-In . SVG Version: 6.00 Build 0)  -->
<svg version="1.1" id="图层_1" xmlns="http://www.w3.org/2000/svg" xmlns:xlink="http://www.w3.org/1999/xlink" x="0px" y="0px"
	 width="92px" height="52.5px" viewBox="0 0 92 52.5" style="enable-background:new 0 0 92 52.5;" xml:space="preserve">
<style type="text/css">
	.st0{fill:#6E7C85;}
	.st1{fill:#212121;}
	.st2{fill:#6C7F86;}
	.st3{fill:#55636C;}
	.st4{fill:#B8C9D0;}
	.st5{fill:#9B9B9B;}
	.st6{fill:#BCBCBC;}
	.st7{fill:#EAEAEA;}
	.st8{fill:#E2E2E2;}
	.st9{fill:#6D6D6D;}
	.st10{fill:#E2E2E2;stroke:#9B9B9B;stroke-miterlimit:10;}
	.st11{fill:#43AEB6;}
	.st12{fill:#78CEDD;}
	.st13{fill:#94DAE6;}
	.st14{fill:#C9E8ED;}
	.st15{fill:#1E2D2D;}
	.st16{fill:#4F6466;}
</style>
<title>宙斯小车logo源文件2</title>
<g>
	<circle class="st0" cx="32" cy="25.4" r="11.6"/>
	<circle class="st0" cx="32" cy="25.4" r="9.5"/>
	<path class="st1" d="M15.4,23.7c0,0,0.4,3.6,1.6,6.3c1.3,2.6,2.3,3.5,2.3,3.5l4.3-0.9l-4-9.4L15.4,23.7z"/>
	<ellipse transform="matrix(0.9704 -0.2414 0.2414 0.9704 -7.3069 6.1621)" class="st1" cx="21.5" cy="32.9" rx="2.2" ry="1.6"/>
	<path class="st1" d="M48.7,27.3c0,0-0.4-3.6-1.6-6.3c-1.3-2.6-2.3-3.5-2.3-3.5l-4.3,0.9l4,9.4L48.7,27.3z"/>
	<ellipse transform="matrix(0.9704 -0.2414 0.2414 0.9704 -3.0962 10.8272)" class="st1" cx="42.6" cy="18" rx="2.2" ry="1.6"/>
	<path class="st1" d="M41.9,12c0,0-3.3-1.6-6.2-1.8c-2.9-0.2-4.2,0.3-4.2,0.3l-1.4,4.2l10.2,1.2L41.9,12z"/>
	<ellipse transform="matrix(0.2762 -0.9611 0.9611 0.2762 16.4284 49.9202)" class="st2" cx="41.4" cy="14.1" rx="2.2" ry="1.6"/>
	<ellipse transform="matrix(0.2762 -0.9611 0.9611 0.2762 10.3009 38.85)" class="st1" cx="30.9" cy="12.6" rx="2.2" ry="1.6"/>
	<path class="st3" d="M43.4,15.9c0,0,1-1.3,0.6-1.8c-0.4-0.2-1.4-0.6-1.7-0.6c-0.2,0-0.3,0-0.4,0.2c-0.2,0.4-0.8,0.7-0.8,0.7
		c-0.5,0.9-0.3,1.8-0.3,1.8l1.8,2.4L43.4,15.9z"/>
	<path class="st1" d="M22.2,39c0,0,3.3,1.6,6.2,1.8c2.9,0.2,4.2-0.3,4.2-0.3l1.4-4.2l-10.2-1.2L22.2,39z"/>
	<ellipse transform="matrix(0.2762 -0.9611 0.9611 0.2762 -18.9541 48.6261)" class="st2" cx="22.8" cy="36.9" rx="2.2" ry="1.6"/>
	<ellipse transform="matrix(0.2762 -0.9611 0.9611 0.2762 -12.8266 59.6964)" class="st1" cx="33.2" cy="38.4" rx="2.2" ry="1.6"/>
	<path class="st3" d="M20.8,35c0,0-1,1.3-0.6,1.8c0.4,0.2,1.4,0.6,1.7,0.6c0.2,0,0.3,0,0.4-0.2c0.2-0.4,0.8-0.7,0.8-0.7
		c0.5-0.9,0.3-1.8,0.3-1.8l-1.8-2.4L20.8,35z"/>
	<path class="st1" d="M25.3,10.1c0,0-3,2.1-4.6,4.5s-1.8,3.8-1.8,3.8l3,3.3l6.2-8.2L25.3,10.1z"/>
	<ellipse transform="matrix(0.7197 -0.6942 0.6942 0.7197 -0.6314 21.9341)" class="st2" cx="26.9" cy="11.7" rx="1.6" ry="2.2"/>
	<ellipse transform="matrix(0.7197 -0.6942 0.6942 0.7197 -8.2202 19.6848)" class="st1" cx="20.3" cy="20" rx="1.6" ry="2.2"/>
	<path class="st3" d="M29.4,10.9c0,0-0.6-1.5-1.2-1.5c-0.4,0.3-1.1,0.9-1.3,1.2c-0.1,0.1-0.1,0.3,0,0.5c0.2,0.3,0.2,1.1,0.2,1.1
		c0.6,0.8,1.5,1.2,1.5,1.2l3-0.4L29.4,10.9z"/>
	<path class="st1" d="M38.8,40.8c0,0,3-2.1,4.6-4.5c1.6-2.4,1.8-3.8,1.8-3.8l-3-3.3l-6.2,8.2L38.8,40.8z"/>
	<ellipse transform="matrix(0.7197 -0.6942 0.6942 0.7197 -16.7828 36.8699)" class="st2" cx="37.3" cy="39.2" rx="1.6" ry="2.2"/>
	<ellipse transform="matrix(0.7197 -0.6942 0.6942 0.7197 -9.1658 39.0561)" class="st1" cx="43.8" cy="30.9" rx="1.6" ry="2.2"/>
	<path class="st3" d="M34.7,40.1c0,0,0.6,1.5,1.2,1.5c0.4-0.3,1.1-0.9,1.3-1.2c0.1-0.1,0.1-0.3,0-0.5C37,39.7,37,38.8,37,38.8
		c-0.6-0.8-1.5-1.2-1.5-1.2l-3,0.4L34.7,40.1z"/>
	<ellipse transform="matrix(0.9704 -0.2414 0.2414 0.9704 -5.0655 4.9139)" class="st2" cx="17.5" cy="23.1" rx="2.2" ry="1.6"/>
	<path class="st3" d="M18.1,20.5c0,0-1.6-0.2-1.8,0.3c0.1,0.5,0.3,1.5,0.4,1.8c0.1,0.2,0.2,0.3,0.4,0.3c0.4,0,1.1,0.4,1.1,0.4
		c1-0.1,1.8-0.6,1.8-0.6l1.2-2.8L18.1,20.5z"/>
	<ellipse transform="matrix(0.9704 -0.2414 0.2414 0.9704 -5.3166 12.0674)" class="st2" cx="46.6" cy="27.7" rx="2.2" ry="1.6"/>
	<path class="st3" d="M46,30.5c0,0,1.6,0.2,1.8-0.3c-0.1-0.5-0.3-1.5-0.4-1.8c-0.1-0.2-0.2-0.3-0.4-0.3c-0.4,0-1.1-0.4-1.1-0.4
		c-1,0.1-1.8,0.6-1.8,0.6l-1.2,2.8L46,30.5z"/>
	<g>
		<g>
			<path class="st4" d="M33.3,15.8l-1.5-0.6c0,0-2.1-0.1-4,0.6s-3,2.1-3,2.1l-1.7-3.4c0,0,2.9-1.8,4-2.4c1.1-0.6,1.3-1.2,1.3-1.2
				s0-0.6-0.2-1C28,9.4,28.7,9,29.2,9s1.5,0.7,1.5,0.7l2.1,2c0,0,3,0.6,4.3,0.5l-2.1,3.1C35.1,15.4,33.9,15.8,33.3,15.8z"/>
			<path class="st5" d="M24.8,18.3l-1.9-3.9l0.2-0.1c0,0,2.9-1.8,4-2.4c0.9-0.5,1.1-0.9,1.2-1c0-0.2,0-0.6-0.2-0.9
				c-0.1-0.2-0.1-0.4,0-0.6c0.2-0.4,0.8-0.6,1.2-0.6c0.6,0,1.5,0.7,1.6,0.8l2.1,2c0.4,0.1,3,0.5,4.2,0.4l0.5,0l-2.4,3.6l-0.1,0
				c-0.1,0-1.3,0.5-1.9,0.4l-0.1,0l-1.4-0.6c-0.3,0-2.2,0-3.8,0.6c-1.8,0.7-2.9,2-3,2.1L24.8,18.3z M23.5,14.5l1.4,2.9
				c0.4-0.4,1.5-1.4,2.9-1.9c1.9-0.7,4-0.7,4.1-0.7l0.1,0l1.4,0.6c0.4,0,1.2-0.2,1.5-0.3l1.8-2.7c-1.5,0-3.8-0.5-3.9-0.5l-0.1,0
				l-2.2-2.1c-0.3-0.3-1-0.7-1.3-0.7c-0.3,0-0.7,0.2-0.8,0.3c0,0,0,0.1,0,0.1c0.2,0.4,0.2,1.1,0.2,1.1l0,0.1c0,0.1-0.2,0.7-1.4,1.3
				C26.3,12.8,24.1,14.2,23.5,14.5z"/>
		</g>
		<g>
			<path class="st4" d="M30.8,35.2l1.5,0.6c0,0,2.1,0.1,4-0.6c1.8-0.7,3-2.1,3-2.1l1.7,3.4c0,0-2.9,1.8-4,2.4
				c-1.1,0.6-1.3,1.2-1.3,1.2s0,0.6,0.2,1c0.3,0.5-0.5,0.8-1,0.8c-0.6,0-1.5-0.7-1.5-0.7l-2.1-2c0,0-3-0.6-4.3-0.5l2.1-3.1
				C29.1,35.5,30.3,35.1,30.8,35.2z"/>
			<path class="st5" d="M34.9,42.2c-0.6,0-1.5-0.7-1.6-0.8l-2.1-2c-0.4-0.1-3-0.5-4.2-0.4l-0.5,0l2.3-3.5l0.1-0.1
				c0.2-0.2,1.4-0.5,1.9-0.4l0.1,0l1.4,0.6c0.3,0,2.2,0,3.8-0.6c1.8-0.7,2.9-2,3-2.1l0.2-0.3l1.9,3.9l-0.2,0.1c0,0-2.9,1.8-4,2.4
				c-0.9,0.5-1.1,0.9-1.2,1c0,0.2,0,0.6,0.2,0.9c0.1,0.2,0.1,0.4,0,0.6C35.9,42,35.3,42.2,34.9,42.2z M27.4,38.5
				c1.5,0,3.8,0.5,3.9,0.5l0.1,0l2.2,2.1c0.3,0.3,1,0.7,1.3,0.7c0.3,0,0.7-0.2,0.8-0.3c0,0,0-0.1,0-0.1c-0.2-0.4-0.2-1.1-0.2-1.1
				l0-0.1c0-0.1,0.2-0.7,1.4-1.3c0.9-0.5,3.1-1.9,3.8-2.3l-1.4-2.9c-0.4,0.4-1.5,1.4-2.9,1.9c-1.9,0.7-4,0.7-4.1,0.7l-0.1,0
				l-1.4-0.6c-0.4-0.1-1.3,0.2-1.5,0.3L27.4,38.5z"/>
		</g>
		<g>
			<path class="st4" d="M39.9,31.4l1.3-0.9c0,0,1.1-1.8,1.4-3.8c0.4-1.9-0.4-3.7-0.4-3.7l3.8,0.3c0,0,0.1,3.3,0.1,4.6
				s0.4,1.7,0.4,1.7s0.6,0.4,1,0.3c0.6,0,0.5,0.8,0.2,1.3c-0.3,0.6-1.4,0.9-1.4,0.9l-2.9,0.8c0,0-1.9,2.3-2.6,3.5L39.1,33
				C39.3,33.1,39.5,31.9,39.9,31.4z"/>
			<path class="st5" d="M40.8,36.9l-2.2-4.4l0.5,0.2c0-0.1,0.1-0.2,0.1-0.4c0.1-0.4,0.3-0.8,0.5-1.1l0,0l1.3-0.9
				c0.2-0.3,1.1-1.9,1.3-3.7c0.4-1.9-0.3-3.6-0.4-3.6l-0.1-0.3l4.4,0.3l0,0.2c0,0,0.1,3.3,0.1,4.6c0,1.1,0.3,1.5,0.3,1.5
				c0.1,0.1,0.5,0.3,0.8,0.2c0.3,0,0.5,0.1,0.6,0.3c0.2,0.4,0.1,1-0.1,1.3c-0.3,0.6-1.4,1-1.5,1l-2.8,0.8c-0.3,0.4-1.9,2.3-2.5,3.4
				L40.8,36.9z M39.4,33.1l1.4,2.9c0.8-1.2,2.3-3.1,2.4-3.2l0-0.1l2.9-0.9c0.3-0.1,1.1-0.4,1.2-0.8c0.2-0.3,0.2-0.7,0.2-0.9
				c0,0,0-0.1-0.1-0.1c-0.5,0.1-1.1-0.3-1.1-0.3c-0.1-0.1-0.5-0.5-0.5-1.9c0-1.1-0.1-3.7-0.1-4.4l-3.2-0.2c0.2,0.6,0.5,2,0.3,3.5
				c-0.3,2-1.4,3.8-1.4,3.9l-0.1,0.1L40,31.6c-0.2,0.2-0.3,0.6-0.4,0.9C39.6,32.8,39.5,33,39.4,33.1z"/>
		</g>
		<g>
			<path class="st4" d="M20.6,18c0,0,1.9-2.3,2.6-3.5l1.7,3.4c0,0-0.2,1.2-0.6,1.7L23,20.5c0,0-1.1,1.8-1.4,3.8
				c-0.4,1.9,0.4,3.7,0.4,3.7l-3.8-0.3c0,0-0.1-3.3-0.1-4.6s-0.4-1.7-0.4-1.7s-0.6-0.4-1-0.3c-0.6,0-0.5-0.8-0.2-1.3
				c0.3-0.6,1.4-0.9,1.4-0.9L20.6,18z"/>
			<path class="st5" d="M22.3,28.2l-4.4-0.3l0-0.2c0,0-0.1-3.3-0.1-4.6c0-1.1-0.3-1.5-0.3-1.5c-0.1-0.1-0.5-0.3-0.8-0.2c0,0,0,0,0,0
				c-0.3,0-0.5-0.1-0.6-0.3c-0.2-0.4-0.1-1,0.1-1.3c0.3-0.6,1.4-1,1.5-1l2.6-0.9c0.3-0.3,1.9-2.3,2.5-3.4l0.2-0.4l1.9,3.9l0,0.1
				c0,0.1-0.2,1.3-0.6,1.8l0,0l-1.3,0.9c-0.2,0.3-1.1,1.9-1.3,3.7c-0.4,1.9,0.3,3.6,0.4,3.6L22.3,28.2z M18.4,27.4l3.2,0.2
				c-0.2-0.6-0.5-2-0.3-3.5c0.3-2,1.4-3.8,1.4-3.9l0.1-0.1l1.3-0.9c0.2-0.3,0.4-1.1,0.5-1.5l-1.4-3c-0.8,1.2-2.3,3.1-2.4,3.2l0,0
				L18,19.1c-0.3,0.1-1.1,0.4-1.3,0.8c-0.2,0.3-0.2,0.7-0.2,0.9c0,0,0,0.1,0.1,0.1c0.5-0.1,1.1,0.3,1.1,0.3c0.1,0.1,0.5,0.5,0.5,1.9
				C18.3,24.1,18.4,26.7,18.4,27.4z"/>
		</g>
		<g>
			<path class="st4" d="M23,29.2l0.2,1.6c0,0,1,1.8,2.6,3.1c1.6,1.3,3.3,1.6,3.3,1.6l-2.1,3.1c0,0-3-1.6-4.1-2.2
				c-1.2-0.6-1.7-0.6-1.7-0.6s-0.6,0.4-0.7,0.6c-0.3,0.5-0.9,0-1.3-0.5c-0.3-0.5-0.2-1.7-0.2-1.7l0.7-2.9c0,0-1-2.8-1.8-4l3.8,0.3
				C21.9,27.9,22.8,28.7,23,29.2z"/>
			<path class="st5" d="M27,38.9l-0.2-0.1c0,0-3-1.6-4.1-2.2c-0.9-0.5-1.3-0.5-1.5-0.5c-0.2,0.1-0.5,0.4-0.6,0.5
				c-0.1,0.2-0.3,0.3-0.5,0.3c0,0,0,0,0,0c-0.4,0-0.9-0.4-1.2-0.7c-0.3-0.5-0.2-1.7-0.2-1.8l0.7-2.8c-0.2-0.4-1.1-2.8-1.7-3.9
				l-0.2-0.4l4.3,0.3l0.1,0.1c0,0,0,0,0.1,0.1c0.5,0.4,1,0.9,1.2,1.4l0,0l0.2,1.5c0.2,0.3,1.1,1.9,2.5,3c1.5,1.2,3.2,1.5,3.2,1.5
				l0.4,0.1L27,38.9z M21.3,35.6c0.2,0,0.7,0.1,1.7,0.6c0.9,0.5,3.2,1.8,3.9,2.1l1.8-2.7c-0.6-0.1-1.9-0.6-3.1-1.5
				C24,32.8,23,31,23,30.9l0-0.1l-0.2-1.5c-0.2-0.4-0.8-1-1-1.2c0,0,0,0,0,0l-3.3-0.2c0.7,1.3,1.5,3.5,1.6,3.6l0,0.1l-0.8,2.9
				c0,0.4,0,1.2,0.2,1.5c0.2,0.3,0.6,0.5,0.8,0.5c0,0,0.1,0,0.1-0.1c0.2-0.3,0.7-0.7,0.8-0.7l0.1,0C21.2,35.6,21.2,35.6,21.3,35.6z"
				/>
		</g>
		<g>
			<path class="st4" d="M41.2,21.7L41,20.1c0,0-1-1.8-2.6-3.1c-1.6-1.3-3.3-1.6-3.3-1.6l2.1-3.1c0,0,3,1.6,4.1,2.2
				c1.2,0.6,1.7,0.6,1.7,0.6s0.6-0.4,0.7-0.6c0.3-0.5,0.9,0,1.3,0.5c0.3,0.5,0.2,1.7,0.2,1.7l-0.7,2.9c0,0,1,2.8,1.8,4L42.4,23
				C42.3,23,41.3,22.2,41.2,21.7z"/>
			<path class="st5" d="M46.6,23.6l-4.2-0.3l0,0c-0.3,0-1.2-1-1.4-1.5l0,0l-0.2-1.5c-0.2-0.3-1.1-1.9-2.5-3
				c-1.5-1.2-3.2-1.5-3.2-1.5l-0.4-0.1l2.4-3.6l0.2,0.1c0,0,3,1.6,4.1,2.2c0.9,0.5,1.3,0.5,1.5,0.5c0.2-0.1,0.5-0.4,0.6-0.5
				c0.1-0.2,0.3-0.3,0.5-0.3c0.4-0.1,0.9,0.4,1.2,0.7c0.3,0.5,0.2,1.7,0.2,1.8l-0.7,2.8c0.2,0.4,1.1,2.8,1.7,3.9L46.6,23.6z
				 M42.4,22.8l3.3,0.2c-0.7-1.3-1.5-3.5-1.6-3.6l0-0.1l0.8-2.9c0-0.4,0-1.2-0.2-1.5c-0.2-0.3-0.6-0.5-0.8-0.5c0,0-0.1,0-0.1,0.1
				c-0.2,0.3-0.7,0.7-0.8,0.7l-0.1,0c-0.1,0-0.6,0.1-1.8-0.6c-0.9-0.5-3.2-1.8-3.9-2.1l-1.8,2.7c0.6,0.1,1.9,0.6,3.1,1.5
				c1.6,1.3,2.6,3.1,2.6,3.2l0,0.1l0.2,1.5C41.5,22,42.2,22.7,42.4,22.8z"/>
		</g>
	</g>
	<g>
		<g>
			<path class="st2" d="M27.1,20.9l1.2-1L28,18.7c1.6-0.9,3.4-1.3,5.2-1l0.3,1.2l1.5,0.6l0.9-0.8c0.7,0.5,1.5,1,2.1,1.7
				c0.6,0.7,1.1,1.5,1.4,2.3l-0.9,0.8l0.3,1.5l1.2,0.4c0,1.8-0.6,3.6-1.8,5L37,29.9l-1.2,1l0.3,1.2c-1.6,0.9-3.4,1.3-5.2,1l-0.3-1.2
				l-1.5-0.6l-0.9,0.8c-0.7-0.5-1.5-1-2.1-1.7c-0.6-0.7-1.1-1.5-1.4-2.3l0.9-0.8l-0.3-1.5l-1.2-0.4c0-1.8,0.6-3.6,1.8-5L27.1,20.9z"
				/>
		</g>
	</g>
	<g>
		<g>
			<path class="st4" d="M32.2,25.3l0.1-0.6l3.4-6.2c0.1,0,0.2,0.1,0.3,0.1L32.2,25.3L32.2,25.3z"/>
			<path class="st4" d="M31.9,25.7l-0.1,0.6l-3.4,6.2c-0.1,0-0.2-0.1-0.3-0.1L31.9,25.7L31.9,25.7z"/>
			<path class="st4" d="M32.2,25.7l0.4,0.4l3.6,6.1c-0.1,0.1-0.2,0.1-0.2,0.1L32.2,25.7L32.2,25.7z"/>
			<path class="st4" d="M31.9,25.3l-0.4-0.4L28,18.8c0.1-0.1,0.2-0.1,0.2-0.1L31.9,25.3L31.9,25.3z"/>
			<path class="st4" d="M32.3,25.5l0.5-0.2l7.1-0.1c0,0.1,0,0.2,0,0.3H32.3L32.3,25.5z"/>
			<path class="st4" d="M31.6,25.4L31.6,25.4l-0.4,0.3l-7.1,0.1c0-0.1,0-0.2,0-0.3L31.6,25.4z"/>
			<path class="st4" d="M32,25.2L32,25.2l1.1-7.5c0.1,0,0.2,0,0.3,0l-1.1,7L32,25.2z"/>
			<path class="st4" d="M32.1,25.7L32.1,25.7L31,33.2c-0.1,0-0.2,0-0.3,0l1.1-7L32.1,25.7z"/>
			<polygon class="st4" points="32.1,25.7 31.8,26.2 31.9,25.7 32,25.6 			"/>
			<polygon class="st4" points="32,25.2 32.3,24.7 32.2,25.3 32.1,25.4 			"/>
			<polygon class="st4" points="31.9,25.3 32,25.1 32,25.2 32,25.3 			"/>
			<polygon class="st4" points="32.2,25.7 32.1,25.8 32.1,25.7 32.1,25.7 			"/>
			<polygon class="st4" points="32.1,25.4 32,25.3 32,25.2 			"/>
			<polygon class="st4" points="32,25.6 32.1,25.7 32.1,25.7 			"/>
			<path class="st4" d="M31.8,25.4L31.8,25.4l-5.9-4.7c0.1-0.1,0.1-0.1,0.2-0.2l5.4,4.5L31.8,25.4z"/>
			<path class="st4" d="M32.3,25.6L32.3,25.6l5.9,4.7c-0.1,0.1-0.1,0.1-0.2,0.2L32.6,26L32.3,25.6z"/>
			<polygon class="st4" points="31.8,25.4 31.6,24.9 31.9,25.3 31.9,25.4 			"/>
			<polygon class="st4" points="32.3,25.6 32.6,26.1 32.2,25.7 32.2,25.6 			"/>
			<polygon class="st4" points="32.3,25.5 32.4,25.6 32.3,25.6 			"/>
			<polygon class="st4" points="31.8,25.4 31.8,25.4 31.6,25.4 31.8,25.4 			"/>
			<polygon class="st4" points="31.9,25.4 31.8,25.4 31.8,25.4 			"/>
			<polygon class="st4" points="32.2,25.5 32.3,25.5 32.3,25.6 32.2,25.6 			"/>
			<polygon class="st4" points="32.1,25.6 32.2,25.6 32.2,25.7 32.1,25.7 			"/>
			<polygon class="st4" points="32,25.4 31.9,25.4 31.9,25.3 32,25.3 			"/>
			<polygon class="st4" points="32.1,25.6 32.1,25.7 32,25.6 			"/>
			<polygon class="st4" points="32,25.4 32,25.3 32.1,25.4 			"/>
			<polygon class="st4" points="32.2,25.5 32.2,25.6 32.1,25.6 32.1,25.5 			"/>
			<polygon class="st4" points="31.9,25.4 31.9,25.4 32,25.4 			"/>
			<polygon class="st4" points="32.1,25.5 32.1,25.6 32.1,25.6 			"/>
			<polygon class="st4" points="31.9,25.4 32,25.4 32,25.4 			"/>
			<path class="st4" d="M32.3,25.4L32.3,25.4l7.1-2.8c0,0.1,0.1,0.2,0.1,0.3l-6.6,2.5H32.3z"/>
			<path class="st4" d="M31.8,25.6L31.8,25.6l-7.1,2.8c0-0.1-0.1-0.2-0.1-0.3l6.6-2.5H31.8z"/>
			<polygon class="st4" points="31.9,25.7 31.7,25.7 31.8,25.6 31.9,25.6 			"/>
			<polygon class="st4" points="32.2,25.3 32.4,25.3 32.3,25.4 32.2,25.4 			"/>
			<polygon class="st4" points="32.3,25.4 32.8,25.4 32.3,25.5 32.2,25.4 			"/>
			<polygon class="st4" points="31.8,25.6 31.3,25.6 31.8,25.4 31.9,25.5 			"/>
			<polygon class="st4" points="32.2,25.4 32.2,25.4 32.3,25.4 			"/>
			<polygon class="st4" points="31.9,25.5 31.9,25.6 31.8,25.6 			"/>
			<polygon class="st4" points="32,25.6 32,25.6 31.9,25.7 31.9,25.6 			"/>
			<polygon class="st4" points="32.1,25.4 32.1,25.4 32.2,25.3 32.2,25.4 			"/>
			<polygon class="st4" points="32.1,25.4 32.1,25.4 32.1,25.4 			"/>
			<polygon class="st4" points="32,25.6 32,25.6 32,25.6 			"/>
			<polygon class="st4" points="32.1,25.4 32.2,25.4 32.2,25.4 32.2,25.4 			"/>
			<polygon class="st4" points="32,25.6 31.9,25.6 31.9,25.5 31.9,25.5 			"/>
			<polygon class="st4" points="32.1,25.4 32.1,25.4 32.2,25.4 			"/>
			<polygon class="st4" points="32,25.6 32,25.6 31.9,25.5 			"/>
			<polygon class="st4" points="32.2,25.4 32.2,25.4 32.3,25.5 32.3,25.5 			"/>
			<polygon class="st4" points="31.9,25.4 31.9,25.5 31.8,25.4 31.8,25.4 			"/>
			<polygon class="st4" points="31.9,25.5 31.9,25.5 31.9,25.4 			"/>
			<polygon class="st4" points="32.2,25.4 32.2,25.4 32.2,25.4 			"/>
			<polygon class="st4" points="31.9,25.4 31.9,25.4 31.8,25.4 31.9,25.4 			"/>
			<polygon class="st4" points="32.2,25.4 32.3,25.5 32.2,25.5 32.2,25.5 			"/>
			<polygon class="st4" points="32.2,25.4 32.2,25.4 32.2,25.5 			"/>
			<polygon class="st4" points="31.9,25.5 31.9,25.4 31.9,25.4 			"/>
			<polygon class="st4" points="32,25.4 32.1,25.4 32.1,25.4 			"/>
			<polygon class="st4" points="32.1,25.6 32,25.6 32,25.6 			"/>
			<polygon class="st4" points="32.2,25.4 32.2,25.4 32.2,25.4 			"/>
			<path class="st4" d="M31.9,25.5L31.9,25.5L31.9,25.5z"/>
			<polygon class="st4" points="32.2,25.5 32.2,25.5 32.1,25.5 			"/>
			<polygon class="st4" points="31.9,25.4 31.9,25.4 31.9,25.4 			"/>
			<polygon class="st4" points="32,25.4 32.1,25.4 32.2,25.4 32.2,25.4 32.2,25.5 32.1,25.5 32.1,25.6 32,25.6 31.9,25.5 31.9,25.5 
				31.9,25.4 31.9,25.4 			"/>
		</g>
	</g>
	<g>
		<path class="st4" d="M24.5,28.4l-0.1-0.2l0.9-0.8l-0.3-1.3l-1.2-0.5v-0.2c0-1.8,0.6-3.7,1.8-5.2l0.1-0.1l1.2,0.5l1-0.8l-0.3-1.3
			l0.1-0.1c1.6-0.9,3.5-1.3,5.4-1h0.2l0.3,1.3l1.2,0.5l0.9-0.8l0.1,0.1c0.8,0.5,1.6,1,2.1,1.8c0.6,0.7,1.1,1.5,1.4,2.4l0.1,0.2
			l-0.9,0.8l0.3,1.3l1.2,0.5v0.2c0,1.8-0.6,3.7-1.8,5.2l-0.1,0.1l-1.2-0.5l-1,0.8l0.3,1.3l-0.1,0.1c-1.6,0.9-3.5,1.3-5.4,1h-0.2
			l-0.3-1.3l-1.2-0.5l-0.9,0.8L28,32.6c-0.8-0.5-1.6-1-2.1-1.8C25.4,30.1,24.9,29.2,24.5,28.4z M29.1,31.3l1.7,0.6l0.2,1.2
			c1.7,0.2,3.3-0.1,4.8-0.9l-0.2-1.2l1.4-1.2l1.1,0.4c1-1.3,1.6-3,1.6-4.6l-1.1-0.4l-0.4-1.8l0.9-0.8c-0.3-0.7-0.7-1.5-1.3-2.1
			c-0.6-0.6-1.2-1.2-1.8-1.6L35,19.6l-1.7-0.6l-0.2-1.2c-1.7-0.2-3.3,0.1-4.8,0.9l0.2,1.2l-1.4,1.2L26,20.8c-1,1.3-1.6,3-1.6,4.6
			l1.1,0.4l0.4,1.8L25,28.4c0.3,0.7,0.7,1.5,1.3,2.1c0.6,0.6,1.2,1.2,1.8,1.6L29.1,31.3z"/>
	</g>
	<circle cx="32" cy="25.4" r="2.4"/>
	<g>
		<path class="st4" d="M30.4,23.6c1-0.9,2.7-0.8,3.6,0.3c0.9,1,0.8,2.7-0.3,3.6c-1,0.9-2.7,0.8-3.6-0.3
			C29.2,26.1,29.3,24.4,30.4,23.6z M30.6,23.8c-0.9,0.8-1,2.2-0.3,3.1c0.8,0.9,2.2,1,3.1,0.3c0.9-0.8,1-2.2,0.3-3.1
			C32.9,23,31.6,23,30.6,23.8z"/>
	</g>
</g>
<g>
	<g>
		<path class="st5" d="M30,6.2h-0.2c-0.4,0-0.6,0.3-0.6,0.6v0.6c0,0.4,0.3,0.6,0.6,0.6H30c0.4,0,0.6-0.3,0.6-0.6V6.8
			C30.5,6.4,30.3,6.2,30,6.2z"/>
		<path class="st5" d="M30,8.6h-0.2c-0.6,0-1.1-0.5-1.1-1.1V6.9c0-0.6,0.5-1.1,1.1-1.1H30c0.5,0,1,0.4,1.1,0.9l0,0.1v0.6
			C31.1,8.1,30.6,8.6,30,8.6z M29.8,6.7c-0.1,0-0.2,0.1-0.2,0.2v0.6c0,0.1,0.1,0.2,0.2,0.2H30c0.1,0,0.2-0.1,0.2-0.2V6.9
			c0-0.1-0.1-0.2-0.2-0.2H29.8z"/>
	</g>
	<g>
		<rect x="23.9" y="11" class="st6" width="12.6" height="10.3"/>
		<path class="st5" d="M36.9,21.8H23.4V10.5h13.5V21.8z M24.4,20.8H36v-9.4H24.4V20.8z"/>
	</g>
	<g>
		<path class="st7" d="M32.1,7h-2.2h-2.4c-2.6,0-3.7,1.1-3.7,2.9V11h12.6V9.8C36.4,8.2,35.2,7,32.1,7z"/>
		<path class="st5" d="M36.8,11.4H23.3V9.8c0-1.2,0.5-3.3,4.2-3.3h4.6c4.1,0,4.7,2.1,4.7,3.3V11.4z M24.3,10.5h11.6V9.8
			c0-1.6-1.3-2.4-3.8-2.4h-4.6c-2.2,0-3.2,0.8-3.2,2.4V10.5z"/>
	</g>
</g>
<g>
	<circle class="st0" cx="76" cy="26" r="11.6"/>
	<ellipse transform="matrix(0.1602 -0.9871 0.9871 0.1602 38.2027 96.8955)" class="st0" cx="76" cy="26" rx="9.5" ry="9.5"/>
	<path class="st1" d="M91.6,19.8c0,0,0.6,3.6,0.2,6.5c-0.6,2.9-1.3,4.1-1.3,4.1l-4.3,0.3l1.3-10.2L91.6,19.8z"/>
	
		<ellipse transform="matrix(0.9995 -3.146373e-02 3.146373e-02 0.9995 -0.9108 2.791)" class="st1" cx="88.2" cy="30.3" rx="2.2" ry="1.6"/>
	<path class="st1" d="M60.5,32.3c0,0-0.6-3.6-0.2-6.5c0.6-2.9,1.3-4.1,1.3-4.1l4.3-0.3l-1.3,10.2L60.5,32.3z"/>
	
		<ellipse transform="matrix(0.9995 -3.146373e-02 3.146373e-02 0.9995 -0.6527 2.0201)" class="st1" cx="63.9" cy="21.7" rx="2.2" ry="1.6"/>
	<path class="st1" d="M62.8,15.7c0,0,2.8-2.4,5.4-3.3c2.7-1,4.2-0.9,4.2-0.9l2.5,3.6l-9.4,4L62.8,15.7z"/>
	<ellipse transform="matrix(0.8499 -0.527 0.527 0.8499 0.351 36.4055)" class="st2" cx="64.1" cy="17.6" rx="1.6" ry="2.2"/>
	<ellipse transform="matrix(0.8499 -0.527 0.527 0.8499 4.0601 40.7958)" class="st1" cx="73.6" cy="13.3" rx="1.6" ry="2.2"/>
	<path class="st3" d="M62.5,19.9c0,0-1.3-1-1.1-1.6c0.4-0.3,1.2-0.9,1.5-1c0.2-0.1,0.3-0.1,0.5,0.1c0.3,0.3,1,0.5,1,0.5
		c0.6,0.7,0.7,1.8,0.7,1.8L64,22.5L62.5,19.9z"/>
	<path class="st1" d="M89.2,36.3c0,0-2.8,2.4-5.4,3.3c-2.7,1-4.2,0.9-4.2,0.9L77.2,37l9.4-4L89.2,36.3z"/>
	<ellipse transform="matrix(0.8499 -0.527 0.527 0.8499 -4.9605 51.5832)" class="st2" cx="88.1" cy="34.5" rx="1.6" ry="2.2"/>
	<ellipse transform="matrix(0.8499 -0.527 0.527 0.8499 -8.6356 47.1555)" class="st1" cx="78.4" cy="38.7" rx="1.6" ry="2.2"/>
	<path class="st3" d="M89.5,32.2c0,0,1.3,1,1.1,1.6c-0.4,0.3-1.2,0.9-1.5,1c-0.2,0.1-0.3,0.1-0.5-0.1c-0.3-0.3-1-0.5-1-0.5
		c-0.6-0.7-0.7-1.8-0.7-1.8l1.1-2.9L89.5,32.2z"/>
	<path class="st1" d="M78.4,9.5c0,0,3.4,1.2,5.6,3c2.2,1.8,2.9,3.1,2.9,3.1l-1.9,4l-8.1-6.2L78.4,9.5z"/>
	<ellipse transform="matrix(0.4725 -0.8813 0.8813 0.4725 30.7397 74.2181)" class="st2" cx="77.4" cy="11.4" rx="2.2" ry="1.6"/>
	<ellipse transform="matrix(0.4725 -0.8813 0.8813 0.4725 29.7483 84.9598)" class="st1" cx="85.8" cy="17.6" rx="2.2" ry="1.6"/>
	<path class="st3" d="M74.6,11.2c0,0,0.2-1.7,0.7-1.8c0.4,0.2,1.4,0.6,1.6,0.7c0.1,0.1,0.2,0.3,0.1,0.5c-0.1,0.4,0.1,1.1,0.1,1.1
		c-0.4,0.9-1.1,1.6-1.1,1.6l-3,0.5L74.6,11.2z"/>
	<path class="st1" d="M73.6,42.6c0,0-3.4-1.2-5.6-3c-2.2-1.8-2.9-3.1-2.9-3.1l1.9-4l8.1,6.2L73.6,42.6z"/>
	<ellipse transform="matrix(0.4725 -0.8813 0.8813 0.4725 3.6103 87.3093)" class="st2" cx="74.7" cy="40.6" rx="2.2" ry="1.6"/>
	<ellipse transform="matrix(0.4725 -0.8813 0.8813 0.4725 4.6016 76.5677)" class="st1" cx="66.3" cy="34.4" rx="2.2" ry="1.6"/>
	<path class="st3" d="M77.5,40.8c0,0-0.2,1.7-0.7,1.8c-0.4-0.2-1.4-0.6-1.6-0.7c-0.1-0.1-0.2-0.3-0.1-0.5c0.1-0.4-0.1-1.1-0.1-1.1
		c0.4-0.9,1.1-1.6,1.1-1.6l3-0.5L77.5,40.8z"/>
	
		<ellipse transform="matrix(0.9995 -3.146373e-02 3.146373e-02 0.9995 -0.5792 2.8206)" class="st2" cx="89.3" cy="19.8" rx="2.2" ry="1.6"/>
	<path class="st3" d="M88.1,17.4c0,0,1.5-0.6,1.9-0.2c0,0.5,0.2,1.5,0.1,1.8c0,0.2-0.1,0.3-0.3,0.4C89.5,19.4,89,20,89,20
		c-1,0.2-1.8-0.2-1.8-0.2l-1.9-2.4L88.1,17.4z"/>
	
		<ellipse transform="matrix(0.9995 -3.146373e-02 3.146373e-02 0.9995 -0.9815 1.9875)" class="st2" cx="62.7" cy="32.2" rx="2.2" ry="1.6"/>
	<path class="st3" d="M64,34.7c0,0-1.5,0.6-1.9,0.2c0-0.5-0.2-1.5-0.1-1.8c0-0.2,0.1-0.3,0.3-0.4c0.4-0.1,0.9-0.6,0.9-0.6
		c1-0.2,1.8,0.2,1.8,0.2l1.9,2.4L64,34.7z"/>
	<g>
		<g>
			<path class="st4" d="M72.2,17l1.3-1c0,0,2-0.6,4-0.5c2,0.2,3.5,1.2,3.5,1.2l0.7-3.8c0,0-3.2-0.9-4.4-1.2C76,11.3,75.7,11,75.7,11
				s-0.2-0.6-0.1-1c0.2-0.6-0.6-0.6-1.2-0.6c-0.6,0.2-1.3,1.1-1.3,1.1l-1.5,2.6c0,0-2.7,1.3-4.1,1.6l3,2.5
				C70.4,17.1,71.7,17.2,72.2,17z"/>
			<path class="st5" d="M70.9,17.4c-0.1,0-0.3,0-0.4,0l0,0c-0.1,0-0.1,0-0.2,0l-0.1-0.1l0,0L67,14.5l0.5-0.1
				c1.2-0.2,3.5-1.3,3.9-1.5l1.4-2.5c0.1-0.1,0.8-1,1.4-1.2c0.4-0.1,1.1-0.1,1.4,0.3c0.1,0.2,0.2,0.4,0.1,0.6
				c-0.1,0.2,0,0.6,0.1,0.8c0.1,0.1,0.4,0.4,1.4,0.6c1.2,0.3,4.4,1.2,4.4,1.2l0.2,0.1l-0.8,4.3l-0.3-0.2c0,0-1.5-1-3.4-1.2
				c-1.7-0.2-3.6,0.4-3.8,0.4l-1.3,1C72,17.3,71.4,17.4,70.9,17.4z M70.6,16.9c0.3,0,1.1,0,1.4-0.2l1.4-1c0.1,0,2.1-0.7,4.1-0.5
				c1.6,0.1,2.8,0.7,3.3,1.1l0.6-3.2c-0.7-0.2-3.2-0.9-4.2-1.1c-1.3-0.4-1.7-0.8-1.7-0.8l0-0.1c0-0.1-0.2-0.7-0.1-1.1
				c0-0.1,0-0.1,0-0.2c-0.1-0.1-0.5-0.2-0.9-0.1c-0.4,0.1-1,0.8-1.2,1l-1.5,2.6l-0.1,0c-0.1,0-2.2,1.1-3.7,1.5L70.6,16.9z"/>
		</g>
		<g>
			<path class="st4" d="M79.9,35l-1.3,1c0,0-2,0.6-4,0.5c-2-0.2-3.5-1.2-3.5-1.2l-0.7,3.8c0,0,3.2,0.9,4.4,1.2
				c1.3,0.4,1.6,0.7,1.6,0.7s0.2,0.6,0.1,1c-0.2,0.6,0.6,0.6,1.2,0.6c0.6-0.2,1.3-1.1,1.3-1.1l1.5-2.6c0,0,2.7-1.3,4.1-1.6l-3-2.5
				C81.7,34.9,80.4,34.9,79.9,35z"/>
			<path class="st5" d="M77.3,42.9c-0.4,0-0.7-0.1-0.9-0.3c-0.1-0.2-0.2-0.4-0.1-0.6c0.1-0.2,0-0.6-0.1-0.8
				c-0.1-0.1-0.4-0.4-1.4-0.6c-1.2-0.3-4.4-1.2-4.4-1.2l-0.2-0.1l0.8-4.3l0.3,0.2c0,0,1.5,1,3.4,1.2c1.7,0.2,3.6-0.4,3.8-0.4l1.3-1
				c0.3-0.1,0.7-0.2,1.1-0.2l0,0h0.9l0,0.1l3.2,2.7l-0.5,0.1c-1.2,0.2-3.5,1.3-3.9,1.5l-1.4,2.5c-0.1,0.1-0.8,1-1.4,1.2
				C77.6,42.9,77.5,42.9,77.3,42.9z M70.7,38.9c0.7,0.2,3.2,0.9,4.2,1.1c1.3,0.4,1.7,0.8,1.7,0.8l0,0.1c0,0.1,0.2,0.7,0.1,1.1
				c0,0.1,0,0.1,0,0.2c0.1,0.1,0.5,0.2,0.9,0.1c0.4-0.1,1-0.8,1.1-1l1.5-2.6l0.1,0c0.1,0,2.2-1.1,3.7-1.5l-2.5-2.1
				c-0.4,0-1.2,0-1.5,0.2l-1.3,1c-0.1,0-2.1,0.7-4.1,0.5c-1.6-0.1-2.8-0.7-3.3-1.1L70.7,38.9z"/>
		</g>
		<g>
			<path class="st4" d="M70.1,33.8l-1.5-0.6c0,0-1.6-1.5-2.4-3.2c-0.8-1.8-0.6-3.6-0.6-3.6L62,27.8c0,0,0.8,3.2,1.1,4.5
				c0.4,1.3,0.1,1.8,0.1,1.8s-0.5,0.5-0.8,0.6c-0.6,0.1-0.3,0.9,0.2,1.3c0.4,0.5,1.6,0.6,1.6,0.6h3c0,0,2.5,1.7,3.4,2.7l0.6-3.8
				C71.2,35.3,70.6,34.2,70.1,33.8z"/>
			<path class="st5" d="M70.7,39.6l-0.3-0.4c-0.8-0.9-2.9-2.3-3.3-2.6h-2.9c-0.2,0-1.3-0.1-1.7-0.6c-0.3-0.2-0.6-0.8-0.5-1.2
				c0.1-0.2,0.2-0.4,0.5-0.4c0.2-0.1,0.5-0.3,0.7-0.5c0-0.1,0.2-0.6-0.1-1.6c-0.3-1.3-1.1-4.5-1.1-4.5l-0.1-0.2l4.1-1.5l0,0.4
				c0,0-0.2,1.7,0.6,3.5c0.7,1.6,2.1,2.9,2.3,3.1l1.5,0.6c0.5,0.4,1.1,1.5,1.1,1.6l0,0.1L70.7,39.6z M67.1,36.2L67.1,36.2l0.1,0
				c0.1,0.1,2.1,1.4,3.1,2.4l0.6-3.3c-0.2-0.3-0.6-1-0.9-1.3l-1.5-0.6c-0.1-0.1-1.6-1.5-2.4-3.3c-0.6-1.4-0.7-2.7-0.7-3.4l-3.1,1.1
				c0.2,0.7,0.8,3.2,1.1,4.3c0.4,1.3,0.1,1.9,0.1,1.9c-0.1,0.1-0.6,0.6-1,0.7c-0.1,0-0.1,0.1-0.1,0.1c0,0.2,0.1,0.6,0.4,0.8
				c0.3,0.3,1,0.5,1.4,0.5L67.1,36.2z"/>
		</g>
		<g>
			<path class="st4" d="M85,15.7c0,0-2.5-1.7-3.4-2.7l-0.6,3.8c0,0,0.6,1.1,1,1.4l1.5,0.6c0,0,1.6,1.5,2.4,3.2
				c0.8,1.8,0.6,3.6,0.6,3.6l3.6-1.3c0,0-0.8-3.2-1.1-4.5c-0.4-1.3-0.1-1.8-0.1-1.8s0.5-0.5,0.8-0.6c0.6-0.1,0.3-0.9-0.2-1.3
				c-0.4-0.5-1.6-0.6-1.6-0.6L85,15.7z"/>
			<path class="st5" d="M86.2,25.9l0-0.4c0,0,0.2-1.7-0.6-3.5c-0.7-1.6-2.1-2.9-2.3-3.1l-1.4-0.5c-0.5-0.3-1.1-1.4-1.1-1.5l0-0.1
				l0.7-4.3l0.3,0.4c0.8,0.9,2.9,2.3,3.3,2.6l2.9-0.1c0.2,0,1.3,0.1,1.8,0.6c0.3,0.2,0.6,0.8,0.5,1.2c-0.1,0.2-0.2,0.4-0.5,0.4
				c-0.2,0.1-0.5,0.3-0.7,0.5c0,0.1-0.2,0.6,0.1,1.6c0.3,1.3,1.1,4.5,1.1,4.5l0.1,0.2L86.2,25.9z M81.2,16.7
				c0.2,0.4,0.6,1.1,0.9,1.2l1.5,0.6c0.1,0.1,1.6,1.5,2.5,3.3c0.6,1.4,0.7,2.7,0.7,3.4l3.1-1.1c-0.2-0.7-0.8-3.2-1.1-4.3
				c-0.4-1.3-0.1-1.9-0.1-1.9c0.1-0.1,0.6-0.6,1-0.7c0.1,0,0.1-0.1,0.1-0.1c0-0.2-0.1-0.6-0.4-0.8c-0.3-0.3-1-0.5-1.4-0.5l-3,0.1
				l-0.1,0c-0.1-0.1-2.1-1.4-3.1-2.4L81.2,16.7z"/>
		</g>
		<g>
			<path class="st4" d="M85.8,27.2l0.3,1.6c0,0-0.5,2-1.6,3.7c-1.1,1.7-2.8,2.4-2.8,2.4l3,2.5c0,0,2.4-2.3,3.3-3.2
				c0.9-0.9,1.5-0.9,1.5-0.9s0.6,0.2,0.9,0.5c0.4,0.4,0.9-0.2,1.1-0.8c0.2-0.6-0.3-1.7-0.3-1.7l-1.5-2.6c0,0,0.2-3,0.6-4.2l-3.6,1.3
				C86.6,25.6,85.8,26.6,85.8,27.2z"/>
			<path class="st5" d="M84.7,37.7l-3.4-2.9l0.3-0.2c0,0,1.6-0.7,2.7-2.3c1-1.5,1.5-3.3,1.5-3.6l-0.3-1.6c0-0.6,0.7-1.7,1.2-1.8
				l4-1.4l-0.2,0.5c-0.4,1.1-0.6,3.7-0.6,4.1l1.4,2.5c0.1,0.1,0.5,1.2,0.3,1.8c-0.2,0.5-0.5,1-0.9,1.1c-0.2,0.1-0.4,0-0.6-0.2
				c-0.2-0.2-0.6-0.3-0.8-0.4c-0.1,0-0.6,0.1-1.3,0.9c-0.9,0.9-3.3,3.2-3.3,3.2L84.7,37.7z M82.2,34.9l2.5,2.1
				c0.5-0.5,2.4-2.3,3.2-3.1c1-1,1.6-1,1.6-1l0.1,0c0.1,0,0.7,0.2,1,0.5c0.1,0.1,0.1,0.1,0.1,0c0.2,0,0.5-0.4,0.6-0.8
				c0.1-0.4-0.1-1.1-0.3-1.5l-1.5-2.6l0-0.1c0-0.1,0.2-2.4,0.5-3.9l-3.2,1.2c-0.2,0.1-0.8,0.9-0.8,1.3l0.3,1.6l0,0
				c0,0.1-0.5,2.1-1.6,3.8C83.9,33.9,82.7,34.6,82.2,34.9z"/>
		</g>
		<g>
			<path class="st4" d="M66.3,24.9L66,23.3c0,0,0.5-2,1.6-3.7c1.1-1.7,2.8-2.4,2.8-2.4l-3-2.5c0,0-2.4,2.3-3.3,3.2
				c-0.9,0.9-1.5,0.9-1.5,0.9s-0.6-0.2-0.9-0.5c-0.4-0.4-0.9,0.2-1.1,0.8c-0.2,0.6,0.3,1.7,0.3,1.7l1.5,2.6c0,0-0.2,3-0.6,4.2
				l3.6-1.3C65.5,26.5,66.3,25.4,66.3,24.9z"/>
			<path class="st5" d="M61.3,28.1l0.2-0.5c0.4-1.1,0.6-3.7,0.6-4.1L60.6,21c-0.1-0.1-0.5-1.2-0.3-1.8c0.2-0.5,0.5-1,0.9-1.1
				c0.2-0.1,0.4,0,0.6,0.2c0.2,0.2,0.6,0.3,0.8,0.4c0.1,0,0.6-0.1,1.3-0.9c0.9-0.9,3.3-3.2,3.3-3.2l0.1-0.1l3.4,2.9l-0.3,0.2
				c0,0-1.6,0.7-2.7,2.3c-1,1.5-1.5,3.3-1.5,3.6l0.3,1.6c0,0.6-0.7,1.7-1.2,1.8L61.3,28.1z M61.4,18.5
				C61.4,18.5,61.3,18.5,61.4,18.5c-0.2,0.1-0.5,0.4-0.6,0.8c-0.1,0.4,0.1,1.1,0.3,1.5l1.5,2.6l0,0.1c0,0.1-0.2,2.4-0.5,3.9l3.2-1.2
				c0.2-0.1,0.8-0.9,0.8-1.3l-0.3-1.6l0,0c0-0.1,0.5-2.1,1.6-3.8c0.8-1.3,2-2,2.5-2.3L67.4,15c-0.5,0.5-2.4,2.3-3.2,3.1
				c-1,1-1.6,1-1.6,1l-0.1,0c-0.1,0-0.7-0.2-1-0.5C61.4,18.6,61.4,18.5,61.4,18.5z"/>
		</g>
	</g>
	<g>
		<g>
			<path class="st2" d="M79.6,20.4l-1.4-0.6l-0.1-1.2c-1.8-0.5-3.7-0.3-5.3,0.5l0.1,1.2l-1.3,0.9l-1.1-0.6c-0.6,0.6-1.1,1.4-1.6,2.2
				c-0.4,0.8-0.6,1.8-0.7,2.6l1.1,0.6l0.1,1.6l-1,0.7c0.5,1.8,1.5,3.2,3,4.3l1-0.7l1.4,0.6l0.1,1.2c1.8,0.5,3.7,0.3,5.3-0.5L79.1,32
				l1.3-0.9l1.1,0.6c0.6-0.6,1.1-1.4,1.6-2.2c0.4-0.8,0.6-1.8,0.7-2.6l-1.1-0.6l-0.1-1.6l1-0.7c-0.5-1.8-1.5-3.2-3-4.3L79.6,20.4z"
				/>
		</g>
	</g>
	<g>
		<g>
			<path class="st4" d="M75.9,25.9l-0.2-0.5l-5-5c-0.1,0.1-0.1,0.1-0.2,0.2L75.9,25.9L75.9,25.9z"/>
			<path class="st4" d="M76.2,26.2l0.2,0.5l5,5c0.1-0.1,0.1-0.1,0.2-0.2L76.2,26.2L76.2,26.2z"/>
			<path class="st4" d="M76,26.3l-0.3,0.5l-1.8,6.8c0.1,0,0.2,0.1,0.3,0.1l1.9-7.2L76,26.3z"/>
			<path class="st4" d="M76,25.7l0.3-0.5l1.8-6.8c-0.1,0-0.2-0.1-0.3-0.1L76,25.5L76,25.7z"/>
			<path class="st4" d="M75.8,26.1h-0.6l-6.8,1.8c0,0.1,0,0.2,0.1,0.3l7.2-1.9L75.8,26.1z"/>
			<path class="st4" d="M76.3,25.8L76.3,25.8l0.5,0.1l6.8-1.8c0-0.1,0-0.2-0.1-0.3L76.3,25.8z"/>
			<path class="st4" d="M76,25.7L76,25.7l-3.1-6.8c-0.1,0-0.2,0.1-0.3,0.1l3,6.5L76,25.7z"/>
			<path class="st4" d="M76.1,26.3L76.1,26.3l3.1,6.8c0.1,0,0.2-0.1,0.3-0.1l-3-6.5L76.1,26.3z"/>
			<polygon class="st4" points="76.1,26.3 76.5,26.6 76.2,26.2 76.1,26.2 			"/>
			<polygon class="st4" points="76,25.7 75.6,25.4 75.9,25.9 76,25.9 			"/>
			<polygon class="st4" points="76,25.7 76,25.6 76,25.7 76,25.8 			"/>
			<polygon class="st4" points="76,26.3 76,26.4 76.1,26.3 76,26.2 			"/>
			<polygon class="st4" points="76,25.9 76,25.8 76,25.7 			"/>
			<polygon class="st4" points="76.1,26.2 76,26.2 76.1,26.3 			"/>
			<path class="st4" d="M76.2,25.8L76.2,25.8l4.3-6.1c-0.1-0.1-0.2-0.1-0.2-0.2l-4.1,5.8L76.2,25.8z"/>
			<path class="st4" d="M75.9,26.2L75.9,26.2l-4.3,6.1c0.1,0.1,0.2,0.1,0.2,0.2l4.1-5.8L75.9,26.2z"/>
			<polygon class="st4" points="76.2,25.8 76.3,25.4 76,25.7 76.1,25.9 			"/>
			<polygon class="st4" points="75.9,26.2 75.7,26.7 76,26.3 76,26.2 			"/>
			<polygon class="st4" points="75.8,26.1 75.7,26.3 75.9,26.2 75.9,26.2 			"/>
			<polygon class="st4" points="76.2,25.9 76.3,25.9 76.3,25.8 76.2,25.8 			"/>
			<polygon class="st4" points="76.1,25.9 76.2,25.9 76.2,25.8 			"/>
			<polygon class="st4" points="76,26.2 75.9,26.2 75.9,26.2 			"/>
			<polygon class="st4" points="76,26.2 76,26.2 76,26.3 			"/>
			<polygon class="st4" points="76,25.9 76.1,25.9 76,25.7 76,25.8 			"/>
			<polygon class="st4" points="76,26.2 76,26.2 76.1,26.2 			"/>
			<polygon class="st4" points="76,25.9 76,25.8 76,25.9 			"/>
			<polygon class="st4" points="76,26.2 76,26.2 76,26.2 			"/>
			<polygon class="st4" points="76.1,25.9 76.1,25.9 76,25.9 			"/>
			<polygon class="st4" points="76,26.2 76,26.2 76,26.2 			"/>
			<polygon class="st4" points="76.1,25.9 76,25.9 76,25.9 			"/>
			<path class="st4" d="M75.8,26L75.8,26l-7.6-0.7c0,0.1,0,0.2,0,0.3l7,0.6L75.8,26z"/>
			<path class="st4" d="M76.3,26.1L76.3,26.1l7.6,0.7c0-0.1,0-0.2,0-0.3l-7-0.6L76.3,26.1z"/>
			<polygon class="st4" points="76.2,26.2 76.4,26.2 76.3,26.1 76.2,26.1 			"/>
			<polygon class="st4" points="75.9,25.9 75.7,25.8 75.8,26 			"/>
			<polygon class="st4" points="75.8,26 75.3,26.1 75.8,26.1 75.9,26 			"/>
			<polygon class="st4" points="76.3,26.1 76.8,26 76.3,25.9 76.2,26 			"/>
			<polygon class="st4" points="75.9,26 75.9,25.9 75.8,26 			"/>
			<polygon class="st4" points="76.2,26 76.2,26.1 76.3,26.1 			"/>
			<polygon class="st4" points="76.1,26.1 76.1,26.2 76.2,26.2 76.2,26.1 			"/>
			<polygon class="st4" points="76,25.9 76,25.9 75.9,25.9 75.9,25.9 			"/>
			<polygon class="st4" points="76,25.9 76,25.9 76,25.9 			"/>
			<polygon class="st4" points="76.1,26.2 76.1,26.2 76.1,26.1 			"/>
			<polygon class="st4" points="76,25.9 75.9,25.9 75.9,26 76,26 			"/>
			<polygon class="st4" points="76.1,26.1 76.2,26.1 76.2,26 			"/>
			<polygon class="st4" points="76,25.9 76,25.9 76,26 			"/>
			<polygon class="st4" points="76.1,26.2 76.1,26.1 76.1,26.1 			"/>
			<polygon class="st4" points="75.9,26.1 75.9,26 75.8,26.1 75.9,26.2 			"/>
			<polygon class="st4" points="76.2,26 76.2,26 76.3,25.9 76.2,25.9 			"/>
			<polygon class="st4" points="76.2,26 76.2,26 76.2,26 76.1,26 			"/>
			<polygon class="st4" points="75.9,26 75.9,26 75.9,26.1 			"/>
			<polygon class="st4" points="76.1,25.9 76.2,26 76.2,25.9 			"/>
			<polygon class="st4" points="75.9,26.1 75.9,26.2 76,26.2 76,26.1 			"/>
			<polygon class="st4" points="75.9,26 75.9,26.1 76,26.1 			"/>
			<polygon class="st4" points="76.1,26 76.2,26 76.1,25.9 			"/>
			<polygon class="st4" points="76,25.9 76,25.9 76,25.9 			"/>
			<polygon class="st4" points="76,26.2 76.1,26.2 76.1,26.2 			"/>
			<polygon class="st4" points="76,26 75.9,26 75.9,26 			"/>
			<polygon class="st4" points="76.1,26.1 76.2,26 76.1,26 			"/>
			<polygon class="st4" points="76,26.1 76,26.2 76,26.2 			"/>
			<path class="st4" d="M76.1,25.9L76.1,25.9L76.1,25.9z"/>
			<polygon class="st4" points="76,25.9 76,25.9 76,26 75.9,26 76,26.1 76,26.2 76,26.2 76.1,26.2 76.1,26.1 76.1,26 76.1,25.9 
				76.1,25.9 			"/>
		</g>
	</g>
	<g>
		<path class="st4" d="M83.3,29.4c-0.4,0.8-0.9,1.6-1.6,2.3l-0.1,0.1l-1.2-0.6l-1,0.7l0.1,1.3l-0.2,0.1c-1.7,0.7-3.6,0.9-5.4,0.5
			h-0.2l-0.1-1.3L72.4,32l-1,0.7l-0.1-0.1c-1.5-1.1-2.7-2.7-3.1-4.4V28l1-0.7L69.1,26l-1.2-0.6v-0.2c0.1-0.9,0.4-1.8,0.7-2.7
			c0.4-0.8,0.9-1.6,1.6-2.3l0.1-0.1l1.2,0.6l1-0.7l-0.1-1.3l0.2-0.1c1.7-0.7,3.6-0.9,5.4-0.5h0.2l0.1,1.3l1.2,0.6l1-0.7l0.1,0.1
			c1.5,1.1,2.7,2.7,3.1,4.4V24l-1,0.7l0.1,1.3l1.2,0.6v0.2C84,27.7,83.7,28.6,83.3,29.4z M81.6,31.3c0.6-0.6,1-1.3,1.4-2
			c0.4-0.7,0.6-1.6,0.6-2.4l-1.1-0.6l-0.2-1.8l1-0.7c-0.5-1.6-1.5-3-2.8-4l-1,0.7l-1.7-0.7l-0.1-1.2c-1.6-0.4-3.3-0.3-4.8,0.5
			l0.1,1.2l-1.5,1l-1.1-0.6c-0.6,0.6-1,1.3-1.4,2s-0.6,1.6-0.6,2.4l1.1,0.6l0.2,1.8l-1,0.7c0.5,1.6,1.5,3,2.8,4l1-0.7l1.7,0.7
			l0.1,1.2c1.6,0.4,3.3,0.3,4.8-0.5L79,31.7l1.5-1L81.6,31.3z"/>
	</g>
	<circle cx="76" cy="26" r="2.4"/>
	<g>
		<path class="st4" d="M78.4,27.1c-0.6,1.3-2.1,1.8-3.3,1.2c-1.3-0.6-1.8-2.1-1.2-3.3c0.6-1.3,2.1-1.8,3.3-1.2
			C78.4,24.3,78.9,25.8,78.4,27.1z M74,25.1c-0.6,1.1,0,2.5,1.1,3c1.1,0.6,2.5,0,3-1.1c0.6-1.1,0-2.5-1.1-3
			C75.9,23.5,74.6,24,74,25.1z"/>
	</g>
</g>
<g>
	<path class="st8" d="M19.7,35.2l0.1-9.8c0-3.3-10.4-4.1-8.1-6c1.8-1.5,16.1-4.6,18.6-4.6h48c5.8,0,10.5,4.7,10.5,10.5v6.4
		c0,0-1.5,1.7-6.3,4c-4.8,2.3-9.9,3.9-9.9,3.9L19.7,35.2L19.7,35.2z"/>
	<path class="st5" d="M72.7,40L72.7,40l-53.5-4.4l0.1-10.2c0-1.4-2.7-2.4-4.9-3.2c-1.9-0.7-3.4-1.2-3.5-2.1c0-0.3,0-0.7,0.5-1.1
		c2-1.6,16.5-4.7,18.9-4.7h48c6.1,0,11,4.9,11,11v6.5L89.1,32c-0.1,0.1-1.6,1.8-6.4,4.1C77.9,38.4,72.8,40,72.7,40L72.7,40z
		 M20.1,34.8l52.5,4.3c0.7-0.2,5.4-1.7,9.7-3.8c3.9-1.9,5.6-3.3,6-3.7v-6.2c0-5.5-4.5-10.1-10.1-10.1h-48c-2.5,0-16.6,3.1-18.4,4.5
		c-0.1,0.1-0.2,0.2-0.2,0.2c0.1,0.4,1.9,1,2.9,1.4c2.6,0.9,5.5,2,5.5,4.1L20.1,34.8z"/>
</g>
<g>
	<path class="st8" d="M3.6,39.6l0.1-9.8c0-5.8,4.7-10.5,10.5-10.5h48c5.8,0,10.5,4.7,10.5,10.5v9.8H3.6L3.6,39.6z"/>
	<path class="st5" d="M73.2,40H3.1l0.1-10.2c0-6.1,4.9-11,11-11h48c6.1,0,11,4.9,11,11V40z M4.1,39.1h68.2v-9.3
		c0-5.5-4.5-10.1-10.1-10.1h-48c-5.5,0-10.1,4.5-10.1,10.1L4.1,39.1z"/>
</g>
<g>
	<path class="st9" d="M55.6,34.8h-9.8c-1.3,0-2.6-0.7-3-1.7l-2.6-6c-0.4-0.9,0.3-1.7,1.6-1.7h9.8c1.3,0,2.6,0.7,3,1.7l2.6,6
		C57.6,34,56.8,34.8,55.6,34.8z"/>
	<path class="st5" d="M55.6,35h-9.8c-1.4,0-2.8-0.8-3.2-1.8l-2.6-6c-0.2-0.5-0.2-0.9,0.1-1.3c0.3-0.5,0.9-0.7,1.7-0.7h9.8
		c1.4,0,2.8,0.8,3.2,1.8l2.6,6c0.2,0.4,0.2,0.9,0,1.2C57,34.7,56.4,35,55.6,35z M41.8,25.7c-0.6,0-1.1,0.2-1.3,0.5
		c-0.2,0.2-0.2,0.5,0,0.8l2.6,6c0.3,0.8,1.6,1.5,2.7,1.5h9.8c0.7,0,1.2-0.2,1.4-0.5c0.1-0.2,0.1-0.5,0-0.8l-2.6-6
		c-0.3-0.8-1.6-1.5-2.7-1.5H41.8z"/>
</g>
<g>
	<g>
		<path class="st5" d="M18.6,8.9h-0.2c-0.4,0-0.6,0.3-0.6,0.6v0.6c0,0.4,0.3,0.6,0.6,0.6h0.2c0.4,0,0.6-0.3,0.6-0.6V9.6
			C19.2,9.2,18.9,8.9,18.6,8.9z"/>
		<path class="st5" d="M18.6,11.2h-0.2c-0.6,0-1.1-0.5-1.1-1.1V9.6c0-0.6,0.5-1.1,1.1-1.1h0.2c0.5,0,1,0.4,1.1,1l0,0.1v0.6
			C19.7,10.7,19.3,11.2,18.6,11.2z M18.5,9.4c-0.1,0-0.2,0.1-0.2,0.2v0.6c0,0.1,0.1,0.2,0.2,0.2h0.2c0.1,0,0.2-0.1,0.2-0.2V9.6
			c-0.1-0.2-0.2-0.2-0.2-0.2H18.5z"/>
	</g>
	<g>
		<rect x="12.5" y="13.7" class="st6" width="12.6" height="10.3"/>
		<path class="st5" d="M25.5,24.5H12V13.3h13.5V24.5z M12.9,23.6h11.6v-9.4H12.9V23.6z"/>
	</g>
	<g>
		<path class="st7" d="M20.8,9.7h-2.2h-2.4c-2.6,0-3.7,1.1-3.7,2.9v1.1H25v-1.1C25,10.9,23.8,9.7,20.8,9.7z"/>
		<path class="st5" d="M25.5,14.1H12v-1.6c0-1.2,0.5-3.3,4.2-3.3h4.6c4.1,0,4.7,2.1,4.7,3.3V14.1z M12.9,13.2h11.6v-0.6
			c0-1.6-1.3-2.4-3.8-2.4h-4.6c-2.2,0-3.2,0.8-3.2,2.4V13.2z"/>
	</g>
</g>
<g>
	<path class="st9" d="M35.5,34.8h-9.8c-1.3,0-2.6-0.7-3-1.7l-2.6-6c-0.4-0.9,0.3-1.7,1.6-1.7h9.8c1.3,0,2.6,0.7,3,1.7l2.6,6
		C37.5,34,36.7,34.8,35.5,34.8z"/>
	<path class="st5" d="M35.5,35h-9.8c-1.4,0-2.8-0.8-3.2-1.8l-2.6-6c-0.2-0.5-0.2-0.9,0.1-1.3c0.3-0.5,0.9-0.7,1.7-0.7h9.8
		c1.4,0,2.8,0.8,3.2,1.8l2.6,6c0.2,0.4,0.1,0.9-0.1,1.3C36.9,34.7,36.3,35,35.5,35z M21.8,25.7c-0.6,0-1.1,0.2-1.3,0.5
		c-0.2,0.2-0.2,0.5,0,0.8l2.6,6c0.3,0.8,1.6,1.5,2.7,1.5h9.8c0.6,0,1.1-0.2,1.3-0.5c0.2-0.2,0.2-0.5,0.1-0.8l-2.6-6
		c-0.3-0.8-1.6-1.5-2.7-1.5H21.8z"/>
</g>
<g>
	<circle class="st0" cx="17.3" cy="35.3" r="11.6"/>
	<circle class="st0" cx="17.3" cy="35.3" r="9.5"/>
	<path class="st1" d="M33.2,40.4c0,0-1.8,3.2-4,5.1c-2.2,1.8-3.5,2.3-3.5,2.3l-3.6-2.5l7.5-7L33.2,40.4z"/>
	<ellipse transform="matrix(0.609 -0.7932 0.7932 0.609 -27.4822 37.1075)" class="st1" cx="23.9" cy="46.4" rx="1.6" ry="2.2"/>
	<path class="st1" d="M1.3,30.3c0,0,1.8-3.2,4-5.1C7.5,23.4,8.8,23,8.8,23l3.6,2.5l-7.5,7L1.3,30.3z"/>
	<ellipse transform="matrix(0.609 -0.7932 0.7932 0.609 -15.1489 17.8442)" class="st1" cx="10.5" cy="24.3" rx="1.6" ry="2.2"/>
	<path class="st1" d="M13.6,19c0,0,3.7-0.1,6.4,0.9s3.8,1.9,3.8,1.9l-0.4,4.3l-9.8-3V19z"/>
	<ellipse transform="matrix(0.1309 -0.9914 0.9914 0.1309 -9.4839 31.6006)" class="st2" cx="13.3" cy="21.2" rx="2.2" ry="1.6"/>
	<ellipse transform="matrix(0.1309 -0.9914 0.9914 0.1309 -3.4598 44.0432)" class="st1" cx="23.4" cy="24" rx="2.2" ry="1.6"/>
	<path class="st3" d="M10.6,22c0,0-0.4-1.6,0.1-1.9c0.5,0,1.5,0.1,1.8,0.2c0.2,0,0.3,0.2,0.3,0.4c0,0.4,0.5,1,0.5,1
		c0,1-0.5,1.8-0.5,1.8L10.1,25L10.6,22z"/>
	<path class="st1" d="M20.8,51.7c0,0-3.7,0.1-6.4-0.9s-3.8-1.9-3.8-1.9l0.4-4.3l9.8,3V51.7z"/>
	<ellipse transform="matrix(0.1309 -0.9914 0.9914 0.1309 -30.733 64.0342)" class="st2" cx="21.2" cy="49.5" rx="2.2" ry="1.6"/>
	<ellipse transform="matrix(0.1309 -0.9914 0.9914 0.1309 -36.7571 51.5915)" class="st1" cx="11" cy="46.8" rx="2.2" ry="1.6"/>
	<path class="st3" d="M23.8,48.7c0,0,0.4,1.6-0.1,1.9c-0.5,0-1.5-0.1-1.8-0.2c-0.2,0-0.3-0.2-0.3-0.4c0-0.4-0.5-1-0.5-1
		c0-1,0.5-1.8,0.5-1.8l2.7-1.5L23.8,48.7z"/>
	<path class="st1" d="M29.5,24.1c0,0,1.9,3.1,2.4,6c0.6,2.9,0.2,4.2,0.2,4.2l-4,1.8l-2.4-10L29.5,24.1z"/>
	<ellipse transform="matrix(0.924 -0.3824 0.3824 0.924 -7.427 12.408)" class="st2" cx="27.5" cy="24.9" rx="2.2" ry="1.6"/>
	<ellipse transform="matrix(0.924 -0.3824 0.3824 0.924 -11.1029 14.1971)" class="st1" cx="30.2" cy="35" rx="2.2" ry="1.6"/>
	<path class="st3" d="M25.5,23c0,0,1.2-1.1,1.7-0.8c0.2,0.4,0.6,1.3,0.7,1.6c0,0.2,0,0.3-0.2,0.4c-0.3,0.2-0.6,0.9-0.6,0.9
		c-0.8,0.6-1.8,0.5-1.8,0.5L22.6,24L25.5,23z"/>
	<path class="st1" d="M4.9,46.7c0,0-1.9-3.1-2.4-6c-0.5-2.9-0.2-4.2-0.2-4.2l4-1.8l2.4,10L4.9,46.7z"/>
	<ellipse transform="matrix(0.924 -0.3824 0.3824 0.924 -17.0024 6.1271)" class="st2" cx="6.9" cy="45.8" rx="2.2" ry="1.6"/>
	<ellipse transform="matrix(0.924 -0.3824 0.3824 0.924 -13.3264 4.338)" class="st1" cx="4.2" cy="35.7" rx="2.2" ry="1.6"/>
	<path class="st3" d="M8.9,47.7c0,0-1.2,1.1-1.7,0.8c-0.2-0.4-0.6-1.3-0.7-1.6c0-0.2,0-0.3,0.2-0.4c0.3-0.2,0.6-0.9,0.6-0.9
		c0.8-0.6,1.8-0.5,1.8-0.5l2.6,1.6L8.9,47.7z"/>
	<ellipse transform="matrix(0.609 -0.7932 0.7932 0.609 -18.6344 40.1769)" class="st2" cx="31.4" cy="39" rx="1.6" ry="2.2"/>
	<path class="st3" d="M32,36.3c0,0,1.6,0.5,1.6,1c-0.3,0.4-0.8,1.2-1,1.5c-0.1,0.1-0.3,0.2-0.5,0.1c-0.4-0.2-1.1-0.1-1.1-0.1
		c-0.9-0.5-1.3-1.3-1.3-1.3v-3L32,36.3z"/>
	<ellipse transform="matrix(0.609 -0.7932 0.7932 0.609 -23.9967 14.7749)" class="st2" cx="3" cy="31.7" rx="1.6" ry="2.2"/>
	<path class="st3" d="M2.4,34.4c0,0-1.6-0.5-1.6-1c0.3-0.4,0.8-1.2,1-1.5c0.1-0.1,0.3-0.2,0.5-0.1c0.4,0.2,1.1,0.1,1.1,0.1
		c0.9,0.5,1.3,1.3,1.3,1.3v3L2.4,34.4z"/>
	<g>
		<g>
			<path class="st4" d="M19.9,25.9h1.7c0,0,1.9,0.8,3.4,2.2c1.5,1.4,1.9,3.1,1.9,3.1l3-2.5c0,0-1.9-2.7-2.7-3.8
				c-0.7-1.1-0.7-1.6-0.7-1.6s0.3-0.6,0.6-0.8c0.5-0.3-0.1-0.9-0.6-1.2c-0.6-0.3-1.7,0-1.7,0l-2.8,1c0,0-2.9-0.7-4.2-1.3l0.6,3.8
				C18.5,25,19.4,25.8,19.9,25.9z"/>
			<path class="st5" d="M26.8,31.7l-0.1-0.4c0,0-0.5-1.7-1.9-3c-1.3-1.2-3-2-3.3-2.2l-1.7,0c-0.6-0.1-1.3-0.8-1.6-1.1L18.2,25l0-0.1
				l-0.7-4.2l0.4,0.2c1.2,0.5,3.6,1.1,4.1,1.3l2.7-1c0.1,0,1.2-0.3,1.8,0c0.5,0.2,0.9,0.7,0.9,1.1c0,0.2-0.1,0.4-0.3,0.5
				c-0.1,0.1-0.3,0.4-0.4,0.7c0,0.1,0.1,0.6,0.7,1.4c0.7,1.1,2.7,3.8,2.7,3.8l0.1,0.2L26.8,31.7z M19.9,25.7l1.7,0
				c0.1,0,2,0.9,3.5,2.3c1.1,1.1,1.7,2.3,1.9,2.9l2.5-2.1c-0.4-0.6-1.9-2.7-2.6-3.6c-0.8-1.1-0.8-1.6-0.8-1.7l0-0.1
				c0.1-0.1,0.3-0.7,0.6-0.9c0.1,0,0.1-0.1,0.1-0.1c0-0.2-0.3-0.5-0.7-0.7c-0.4-0.2-1.2-0.1-1.5,0l-2.8,1l-0.1,0
				c-0.1,0-2.4-0.6-3.8-1.1l0.6,3.3C19.1,25.2,19.6,25.6,19.9,25.7z"/>
		</g>
		<g>
			<path class="st4" d="M14.5,44.8h-1.7c0,0-1.9-0.8-3.4-2.2c-1.5-1.4-1.9-3.1-1.9-3.1l-3,2.5c0,0,1.9,2.7,2.7,3.8
				c0.7,1.1,0.7,1.6,0.7,1.6S7.7,48,7.4,48.1c-0.5,0.3,0.1,0.9,0.6,1.2c0.6,0.3,1.7,0,1.7,0l2.8-1c0,0,2.9,0.7,4.2,1.3L16,45.8
				C16,45.7,15,44.9,14.5,44.8z"/>
			<path class="st5" d="M16.9,50l-0.4-0.2c-1.2-0.5-3.6-1.1-4.1-1.3l-2.7,1c-0.1,0-1.2,0.3-1.8,0C7.5,49.3,7,48.9,7,48.5
				c0-0.2,0.1-0.4,0.3-0.5c0.1-0.1,0.3-0.4,0.4-0.7c0-0.1-0.1-0.6-0.7-1.4c-0.7-1.1-2.7-3.7-2.7-3.8l-0.1-0.2l3.4-2.9l0.1,0.4
				c0,0,0.5,1.7,1.9,3c1.3,1.2,3,2,3.3,2.2l1.7,0c0.5,0.1,1.7,0.9,1.7,1.2L16.9,50z M12.4,48.1L12.4,48.1c0.2,0,2.5,0.6,3.9,1.2
				l-0.6-3.3c-0.1-0.2-0.9-0.8-1.3-0.9l-1.7,0c-0.1,0-2-0.9-3.5-2.3c-1.1-1.1-1.7-2.3-1.9-2.9L4.8,42c0.4,0.6,1.9,2.7,2.6,3.6
				c0.8,1.1,0.8,1.6,0.8,1.7l0,0.1c-0.1,0.1-0.3,0.7-0.6,0.9c-0.1,0-0.1,0.1-0.1,0.1c0,0.2,0.3,0.5,0.7,0.7c0.4,0.2,1.2,0.1,1.5,0
				L12.4,48.1z"/>
		</g>
		<g>
			<path class="st4" d="M7.7,37.7l-0.8-1.4c0,0-0.3-2.1,0.2-4.1C7.5,30.3,8.8,29,8.8,29l-3.6-1.3c0,0-1.4,3-1.9,4.2
				c-0.6,1.2-1,1.4-1,1.4s-0.6,0.1-1-0.1c-0.5-0.3-0.7,0.6-0.7,1.1c0.1,0.6,0.9,1.4,0.9,1.4l2.3,1.8c0,0,0.8,2.9,0.9,4.2l3-2.5
				C7.6,39.5,7.8,38.3,7.7,37.7z"/>
			<path class="st5" d="M4.4,42.3l0-0.5c-0.1-1.2-0.8-3.7-0.9-4.1l-2.2-1.8c-0.1-0.1-0.9-0.9-1-1.5c0-0.4,0.1-1.1,0.5-1.4
				c0.2-0.1,0.4-0.1,0.6,0c0.2,0.1,0.6,0.1,0.8,0.1C2.2,33,2.6,32.7,3,31.8c0.5-1.1,1.9-4.1,1.9-4.2L5,27.5l4.1,1.5l-0.3,0.3
				c0,0-1.3,1.3-1.7,3.1C6.8,34,7,35.9,7,36.3l0.8,1.4c0.2,0.5,0,1.7-0.2,1.8l-0.1,0.1l0,0L4.4,42.3z M1,33.4C1,33.4,1,33.4,1,33.4
				c-0.2,0.1-0.3,0.5-0.3,0.9c0.1,0.3,0.6,0.9,0.9,1.2l2.3,1.9l0,0.1c0,0.1,0.7,2.4,0.9,3.9l2.6-2.2c0.1-0.2,0.2-1,0.1-1.3l-0.8-1.5
				c0-0.1-0.3-2.2,0.2-4.1c0.4-1.5,1.2-2.6,1.6-3.1L5.3,28c-0.3,0.7-1.4,3-1.9,4c-0.6,1.2-1.1,1.5-1.1,1.5C2.2,33.5,1.5,33.6,1,33.4
				C1,33.4,1,33.4,1,33.4z"/>
		</g>
		<g>
			<path class="st4" d="M30.7,33c0,0-0.8-2.9-0.9-4.2l-3,2.5c0,0-0.3,1.2-0.1,1.8l0.8,1.4c0,0,0.3,2.1-0.2,4.1
				c-0.5,1.9-1.8,3.2-1.8,3.2l3.6,1.3c0,0,1.4-3,1.9-4.2c0.6-1.2,1-1.4,1-1.4s0.6-0.1,1,0.1c0.5,0.3,0.7-0.6,0.7-1.1
				C33.9,35.9,33,35,33,35L30.7,33z"/>
			<path class="st5" d="M29.4,43.3l-4.1-1.5l0.3-0.3c0,0,1.3-1.3,1.7-3.1c0.4-1.7,0.2-3.6,0.2-3.9l-0.8-1.3c-0.2-0.6,0-1.8,0.1-1.9
				l0-0.1l3.4-2.8l0,0.5c0.1,1.2,0.8,3.7,0.9,4.1l2.3,2c0.1,0.1,0.9,0.9,1,1.5c0,0.4-0.1,1.1-0.5,1.4c-0.2,0.1-0.4,0.1-0.6,0
				c-0.2-0.1-0.6-0.1-0.8-0.1c-0.1,0.1-0.4,0.3-0.9,1.3c-0.5,1.1-1.9,4.1-1.9,4.2L29.4,43.3z M26.1,41.6l3.1,1.1
				c0.3-0.7,1.4-3,1.9-4c0.6-1.2,1.1-1.5,1.1-1.5c0.1,0,0.8-0.1,1.2,0.1c0.1,0,0.1,0,0.1,0c0.1-0.1,0.3-0.5,0.3-0.9
				c-0.1-0.4-0.6-1-0.9-1.2l-2.3-2.1l0-0.1c0-0.1-0.7-2.4-0.9-3.9l-2.6,2.2c-0.1,0.4-0.2,1.2-0.1,1.6l0.8,1.4c0,0.1,0.3,2.2-0.2,4.1
				C27.3,40,26.5,41.1,26.1,41.6z"/>
		</g>
		<g>
			<path class="st4" d="M24,42.4l-0.8,1.4c0,0-1.7,1.3-3.6,1.8c-1.9,0.6-3.7,0.1-3.7,0.1l0.6,3.8c0,0,3.3-0.3,4.6-0.4
				c1.3-0.1,1.8,0.2,1.8,0.2s0.4,0.6,0.5,0.9c0,0.6,0.8,0.4,1.4,0.1c0.5-0.4,0.8-1.5,0.8-1.5l0.5-3c0,0,2-2.1,3.2-3l-3.6-1.3
				C25.6,41.7,24.4,42.1,24,42.4z"/>
			<path class="st5" d="M23.8,50.9c-0.2,0-0.3,0-0.4-0.1c-0.2-0.1-0.3-0.3-0.3-0.5c-0.1-0.2-0.3-0.6-0.4-0.7
				c-0.1-0.1-0.6-0.2-1.6-0.1c-1.3,0.1-4.6,0.4-4.6,0.4l-0.2,0l-0.7-4.3l0.3,0.1c0,0,1.7,0.4,3.6-0.1c1.7-0.5,3.2-1.6,3.5-1.8
				l0.9-1.4c0.5-0.4,1.6-0.8,1.8-0.8l0.1,0l4,1.4l-0.4,0.3c-1.1,0.7-2.8,2.5-3.1,2.9l-0.4,2.9c0,0.2-0.4,1.2-0.9,1.6
				C24.7,50.6,24.2,50.9,23.8,50.9z M21.6,48.9c0.9,0,1.3,0.2,1.4,0.2l0.1,0.1c0,0,0.4,0.6,0.5,1c0,0.1,0,0.1,0,0.2
				c0.1,0.1,0.6,0,1-0.2c0.3-0.2,0.6-1.1,0.7-1.3l0.5-3l0.1-0.1c0.1-0.1,1.7-1.8,2.9-2.7l-3.1-1.1c-0.2,0-1.1,0.4-1.5,0.7L23.3,44
				c-0.1,0.1-1.7,1.3-3.7,1.9c-1.5,0.4-2.9,0.3-3.5,0.2l0.6,3.2c0.8-0.1,3.3-0.3,4.4-0.4C21.3,48.9,21.5,48.9,21.6,48.9z"/>
		</g>
		<g>
			<path class="st4" d="M10.4,28.3l0.8-1.4c0,0,1.7-1.3,3.6-1.8c1.9-0.6,3.7-0.1,3.7-0.1l-0.6-3.8c0,0-3.3,0.3-4.6,0.4
				c-1.3,0.1-1.8-0.2-1.8-0.2s-0.4-0.6-0.5-0.9c0-0.6-0.8-0.4-1.4-0.1c-0.5,0.4-0.8,1.5-0.8,1.5l-0.5,3c0,0-2,2.1-3.2,3L8.8,29
				C8.9,29,10.1,28.7,10.4,28.3z"/>
			<path class="st5" d="M8.8,29.3L8.8,29.3l-4.1-1.5L5,27.6c1.1-0.7,2.8-2.5,3.1-2.9l0.4-2.9c0-0.2,0.4-1.2,0.9-1.6
				c0.2-0.1,1-0.5,1.5-0.2c0.2,0.1,0.3,0.3,0.3,0.5c0.1,0.2,0.3,0.6,0.4,0.7c0.1,0.1,0.6,0.2,1.6,0.1c1.3-0.1,4.6-0.4,4.6-0.4l0.2,0
				l0.7,4.3l-0.3-0.1c0,0-1.7-0.4-3.6,0.1c-1.7,0.5-3.2,1.6-3.5,1.8l-0.8,1.4C10.2,28.9,8.9,29.3,8.8,29.3z M5.6,27.7l3.1,1.1
				c0.2,0,1.1-0.4,1.5-0.6l0.9-1.4c0.1-0.1,1.7-1.3,3.7-1.9c1.5-0.4,2.9-0.3,3.5-0.2l-0.6-3.2c-0.8,0.1-3.3,0.3-4.4,0.4
				c-1.3,0.1-1.8-0.2-1.9-0.2l-0.1-0.1c0,0-0.4-0.6-0.5-1c0-0.1,0-0.1,0-0.2c-0.1-0.1-0.6,0-1,0.2c-0.3,0.2-0.6,1.1-0.7,1.3l-0.5,3
				L8.6,25C8.5,25,6.8,26.7,5.6,27.7z"/>
		</g>
	</g>
	<g>
		<g>
			<path class="st2" d="M23.5,33.2l-0.6-1.4l0.7-1c-1.1-1.5-2.7-2.6-4.3-3l-0.7,1L17,28.8l-0.6-1.1c-0.8,0.1-1.8,0.4-2.6,0.7
				c-0.8,0.4-1.6,0.9-2.2,1.6l0.6,1.1l-0.8,1.3l-1.2-0.1c-0.7,1.7-0.9,3.5-0.4,5.3l1.2,0.1l0.6,1.4l-0.7,1c1.1,1.5,2.7,2.6,4.3,3
				l0.7-1l1.6,0.1l0.6,1.1c0.8-0.1,1.8-0.4,2.6-0.7c0.8-0.4,1.6-0.9,2.2-1.6l-0.6-1.1l0.8-1.3l1.2,0.1c0.7-1.7,0.9-3.5,0.4-5.3
				L23.5,33.2z"/>
		</g>
	</g>
	<g>
		<g>
			<path class="st4" d="M17.2,35.1l0.1-0.6l-0.7-7c-0.1,0-0.2,0-0.3,0L17,35L17.2,35.1z"/>
			<path class="st4" d="M17.3,35.6l-0.1,0.6l0.7,7c0.1,0,0.2,0,0.3,0l-0.7-7.5L17.3,35.6z"/>
			<path class="st4" d="M17.1,35.6l-0.5,0.2l-5.7,4.2c0.1,0.1,0.1,0.2,0.2,0.2l6.1-4.3L17.1,35.6z"/>
			<path class="st4" d="M17.4,35.1l0.5-0.2l5.7-4.2c-0.1-0.1-0.1-0.2-0.2-0.2l-6.1,4.3L17.4,35.1z"/>
			<path class="st4" d="M17,35.3l-0.4-0.4l-6.5-3c0,0.1-0.1,0.2-0.1,0.3L17,35.3L17,35.3z"/>
			<path class="st4" d="M17.6,35.4L17.6,35.4l0.3,0.4l6.5,3c0-0.1,0.1-0.2,0.1-0.3L17.6,35.4z"/>
			<path class="st4" d="M17.3,35.1L17.3,35.1l1.9-7.3c-0.1,0-0.2,0-0.3-0.1l-1.8,6.8L17.3,35.1z"/>
			<path class="st4" d="M17.1,35.6L17.1,35.6l-1.9,7.3c0.1,0,0.2,0,0.3,0.1l1.8-6.8L17.1,35.6z"/>
			<polygon class="st4" points="17.1,35.6 17.2,36.1 17.3,35.6 17.2,35.5 			"/>
			<polygon class="st4" points="17.3,35.1 17.3,34.6 17.2,35.1 17.3,35.2 			"/>
			<polygon class="st4" points="17.4,35.1 17.4,35 17.3,35.1 17.3,35.2 			"/>
			<polygon class="st4" points="17.1,35.6 17,35.7 17.1,35.6 17.1,35.5 			"/>
			<polygon class="st4" points="17.3,35.2 17.3,35.2 17.3,35.1 			"/>
			<polygon class="st4" points="17.2,35.5 17.1,35.5 17.1,35.6 			"/>
			<path class="st4" d="M17.4,35.3L17.4,35.3l7.3-1.9c0-0.1-0.1-0.2-0.1-0.3L17.8,35L17.4,35.3z"/>
			<path class="st4" d="M17,35.4L17,35.4l-7.3,1.9c0,0.1,0.1,0.2,0.1,0.3l6.8-1.9L17,35.4z"/>
			<polygon class="st4" points="17.4,35.3 17.9,35 17.4,35.1 17.3,35.3 			"/>
			<polygon class="st4" points="17,35.4 16.5,35.7 17.1,35.6 17.1,35.4 			"/>
			<polygon class="st4" points="17,35.3 16.8,35.3 17,35.4 			"/>
			<polygon class="st4" points="17.4,35.4 17.4,35.4 17.6,35.4 17.4,35.3 			"/>
			<polygon class="st4" points="17.3,35.3 17.4,35.4 17.4,35.3 			"/>
			<polygon class="st4" points="17.1,35.4 17,35.3 17,35.4 			"/>
			<polygon class="st4" points="17.1,35.4 17.1,35.4 17.1,35.6 17.1,35.5 			"/>
			<polygon class="st4" points="17.3,35.3 17.3,35.3 17.4,35.1 17.3,35.2 			"/>
			<polygon class="st4" points="17.1,35.4 17.1,35.5 17.2,35.5 17.2,35.5 			"/>
			<polygon class="st4" points="17.3,35.3 17.3,35.2 17.3,35.2 17.3,35.2 			"/>
			<polygon class="st4" points="17.1,35.4 17.1,35.4 17.1,35.4 			"/>
			<polygon class="st4" points="17.3,35.3 17.3,35.3 17.3,35.3 			"/>
			<polygon class="st4" points="17.1,35.4 17.1,35.4 17.2,35.5 			"/>
			<polygon class="st4" points="17.3,35.3 17.3,35.3 17.3,35.2 			"/>
			<path class="st4" d="M17.1,35.1L17.1,35.1l-5.4-5.4c-0.1,0.1-0.1,0.1-0.2,0.2l5.1,5L17.1,35.1z"/>
			<path class="st4" d="M17.3,35.6L17.3,35.6l5.4,5.4c0.1-0.1,0.1-0.1,0.2-0.2l-5.1-5L17.3,35.6z"/>
			<polygon class="st4" points="17.3,35.6 17.3,35.7 17.3,35.6 17.3,35.6 			"/>
			<polygon class="st4" points="17.2,35.1 17.1,35 17.1,35.1 			"/>
			<polygon class="st4" points="17.1,35.1 16.6,34.9 17,35.3 17.1,35.2 			"/>
			<polygon class="st4" points="17.3,35.6 17.8,35.8 17.4,35.4 17.3,35.5 			"/>
			<polygon class="st4" points="17.1,35.2 17.2,35.1 17.1,35.1 			"/>
			<polygon class="st4" points="17.3,35.5 17.3,35.6 17.3,35.6 			"/>
			<polygon class="st4" points="17.3,35.5 17.2,35.5 17.3,35.6 17.3,35.6 			"/>
			<polygon class="st4" points="17.2,35.2 17.3,35.2 17.2,35.1 17.2,35.1 			"/>
			<polygon class="st4" points="17.3,35.2 17.3,35.2 17.2,35.2 			"/>
			<polygon class="st4" points="17.2,35.5 17.2,35.5 17.3,35.5 			"/>
			<polygon class="st4" points="17.2,35.2 17.2,35.1 17.1,35.2 			"/>
			<polygon class="st4" points="17.3,35.5 17.3,35.6 17.3,35.5 			"/>
			<polygon class="st4" points="17.3,35.2 17.2,35.2 17.2,35.2 			"/>
			<polygon class="st4" points="17.2,35.5 17.3,35.5 17.3,35.5 			"/>
			<polygon class="st4" points="17.1,35.3 17.1,35.2 17,35.3 17,35.3 			"/>
			<polygon class="st4" points="17.3,35.4 17.3,35.5 17.4,35.4 17.4,35.4 			"/>
			<polygon class="st4" points="17.3,35.5 17.3,35.5 17.3,35.4 17.3,35.4 			"/>
			<polygon class="st4" points="17.1,35.2 17.1,35.2 17.1,35.3 17.1,35.3 			"/>
			<polygon class="st4" points="17.3,35.4 17.3,35.4 17.4,35.4 17.3,35.3 			"/>
			<polygon class="st4" points="17.1,35.3 17,35.3 17.1,35.4 			"/>
			<path class="st4" d="M17.1,35.3L17.1,35.3L17.1,35.3z"/>
			<path class="st4" d="M17.3,35.4L17.3,35.4L17.3,35.4z"/>
			<path class="st4" d="M17.3,35.2L17.3,35.2L17.3,35.2z"/>
			<path class="st4" d="M17.2,35.5L17.2,35.5L17.2,35.5z"/>
			<polygon class="st4" points="17.2,35.2 17.1,35.2 17.1,35.3 			"/>
			<polygon class="st4" points="17.3,35.5 17.3,35.5 17.3,35.4 			"/>
			<polygon class="st4" points="17.1,35.3 17.1,35.4 17.1,35.4 			"/>
			<polygon class="st4" points="17.3,35.4 17.3,35.3 17.3,35.3 			"/>
			<polygon class="st4" points="17.3,35.2 17.3,35.2 17.2,35.2 17.1,35.3 17.1,35.3 17.1,35.4 17.2,35.5 17.2,35.5 17.3,35.5 
				17.3,35.4 17.3,35.4 17.3,35.3 			"/>
		</g>
	</g>
	<g>
		<path class="st4" d="M20.7,42.6c-0.8,0.4-1.8,0.6-2.7,0.7h-0.2l-0.6-1.1L16,42.1l-0.7,1H15c-1.8-0.5-3.4-1.6-4.5-3L10.4,40l0.7-1
			l-0.4-1.3l-1.3-0.1v-0.2C9,35.7,9.1,33.7,9.9,32l0.1-0.2l1.3,0.1l0.7-1l-0.6-1.1l0.1-0.1c0.6-0.6,1.4-1.2,2.2-1.6
			c0.8-0.4,1.8-0.6,2.7-0.7h0.2l0.6,1.1l1.3,0.1l0.7-1h0.2c1.8,0.5,3.4,1.6,4.5,3l0.1,0.1l-0.7,1l0.6,1.2l1.3,0.1v0.2
			c0.5,1.8,0.4,3.7-0.4,5.4l-0.1,0.2l-1.3-0.1l-0.7,1l0.6,1.1l-0.1,0.1C22.3,41.7,21.6,42.2,20.7,42.6z M18.2,42.9
			c0.8-0.1,1.6-0.4,2.4-0.7c0.7-0.4,1.4-0.8,2-1.4L22,39.7l1-1.5l1.2,0.1c0.6-1.6,0.7-3.2,0.4-4.8l-1.2-0.1l-0.7-1.7l0.6-1
			c-1-1.3-2.4-2.3-4-2.8l-0.6,1L17,28.9l-0.6-1.1c-0.8,0.1-1.6,0.4-2.4,0.7c-0.8,0.4-1.4,0.8-2,1.4l0.6,1.1l-1,1.5l-1.2-0.1
			c-0.6,1.6-0.7,3.2-0.4,4.8l1.2,0.1l0.7,1.7l-0.6,1c1,1.3,2.4,2.3,4,2.8l0.6-1l1.8,0.1L18.2,42.9z"/>
	</g>
	<circle cx="17.3" cy="35.3" r="2.4"/>
	<g>
		<path class="st4" d="M18.3,37.6c-1.3,0.6-2.8,0.1-3.3-1.2c-0.6-1.3-0.1-2.8,1.2-3.3c1.3-0.6,2.8-0.1,3.3,1.2
			C20.1,35.5,19.6,37.1,18.3,37.6z M16.2,33.3c-1.1,0.6-1.6,1.8-1,3c0.6,1.1,1.8,1.6,3,1c1.1-0.6,1.6-1.8,1-3
			C18.7,33.1,17.3,32.8,16.2,33.3z"/>
	</g>
</g>
<g>
	<path class="st10" d="M72.8,39.6"/>
</g>
<g>
	<g>
		<path class="st8" d="M66.7,4c0.4,0.2,0.6,0.4,1,0.6c-0.5,2.1-0.6,3.9-0.6,5c0,2.7,0,5.6,1.3,7.2c0.3,0.4,0.6,0.6,0.6,1
			c-0.1,0.6-1.1,1.2-1.8,1c-1-0.3-1.5-1.7-1.6-1.8c-0.1-0.3-0.1-0.5-0.2-0.6c-0.7-3.9-2-10.9-0.3-12.4C65.5,3.8,66,3.7,66.7,4
			L66.7,4z"/>
		<path class="st5" d="M67.6,19.4c-0.1,0-0.3,0-0.4,0c-1.1-0.3-1.7-1.6-1.8-2l-0.1-0.1c0-0.1-0.1-0.2-0.1-0.3c0,0,0-0.1,0-0.1
			l-0.1-0.1l0-0.1C64,10.8,63.2,5.2,64.9,3.8c0.3-0.3,0.9-0.7,2-0.2l0,0C67.3,3.8,67.7,4,68,4.3l0.2,0.2l-0.1,0.3
			c-0.4,2.1-0.5,3.8-0.5,4.9c0,2.6,0,5.5,1.2,6.9c0.1,0.1,0.2,0.2,0.2,0.3c0.2,0.3,0.5,0.6,0.5,1c-0.1,0.5-0.3,0.8-0.7,1.1
			C68.5,19.2,68,19.4,67.6,19.4z M66.1,16.9C66.1,16.9,66.2,16.9,66.1,16.9c0.2,0.4,0.6,1.4,1.3,1.6c0.3,0.1,0.6,0,0.9-0.2
			c0.2-0.1,0.3-0.3,0.3-0.4c0,0-0.2-0.2-0.3-0.4c-0.1-0.1-0.2-0.2-0.3-0.3c-1.4-1.7-1.4-4.8-1.4-7.5c0-1.1,0.1-2.8,0.5-4.8
			c-0.2-0.2-0.4-0.3-0.7-0.4c-0.6-0.3-0.9-0.1-0.9,0C64,5.8,65.4,13.3,66,16.3c0.1,0.1,0.1,0.2,0.1,0.4
			C66.1,16.7,66.1,16.8,66.1,16.9C66.1,16.9,66.1,16.9,66.1,16.9z"/>
	</g>
	<g>
		<path class="st8" d="M81.5,1.2c-0.3,3.1-0.3,6.4-0.3,9.9c0,1.8,0.1,3.6,0.1,5.3c-2.2,0.6-4.5,1.2-7.1,1.7C72,18.4,70,18.7,68,18.9
			c-0.1,0-0.1,0-0.3,0c-0.3,0-0.5,0-0.5,0c-0.6-0.1-0.4-6.6-0.6-10.2c-0.1-2.2-0.6-4-0.8-5.2c1.5-0.9,4-2.1,7.1-2.7
			C76.7,0.3,79.7,0.8,81.5,1.2z"/>
		<path class="st5" d="M67.7,19.4h-0.5c-0.7-0.1-0.8-0.9-0.9-6.5c0-1.5,0-3-0.1-4.1c-0.1-1.9-0.5-3.5-0.7-4.7l-0.2-0.7l0.3-0.2
			c1.2-0.8,3.8-2.1,7.3-2.7c2.8-0.4,5.8-0.3,8.7,0.3L82,0.8l0,0.4c-0.3,3.1-0.3,6.4-0.3,9.8c0,0.9,0,1.9,0,2.8c0,0.9,0,1.7,0,2.5
			v0.4L80,17.1c-1.8,0.5-3.7,0.9-5.7,1.3c-2.1,0.4-4.1,0.7-6.2,0.9L67.7,19.4z M66.4,3.8L66.4,3.8c0.3,1.3,0.7,2.9,0.8,4.9
			c0.1,1.2,0.1,2.7,0.1,4.2c0,2,0.1,4.8,0.2,5.5l0.5,0c2.1-0.2,4-0.5,6.1-0.9c2-0.4,3.9-0.8,5.7-1.3l1.1-0.3c0-0.7,0-1.4,0-2.1
			c0-0.9,0-1.8,0-2.8c0-3.3,0-6.5,0.2-9.5C78.3,1,75.7,1,73.1,1.3C70,1.9,67.7,3,66.4,3.8z"/>
	</g>
	<g>
		<g>
			<path class="st5" d="M74.7,14.1c-2,0-3.7-2.1-3.7-4.8s1.7-4.8,3.7-4.8s3.7,2.1,3.7,4.8S76.8,14.1,74.7,14.1z"/>
			<path d="M74.7,14.2c-2.1,0-3.8-2.2-3.8-4.9s1.7-4.9,3.8-4.9s3.8,2.2,3.8,4.9C78.5,12.1,76.8,14.2,74.7,14.2z M74.7,4.6
				c-2,0-3.6,2.1-3.6,4.7s1.6,4.7,3.6,4.7c2,0,3.6-2,3.6-4.7C78.2,6.7,76.6,4.6,74.7,4.6z"/>
		</g>
		<g>
			<path class="st8" d="M74.9,14.1c-1.9,0-3.5-2.1-3.5-4.8s1.6-4.8,3.5-4.8c1.9,0,3.5,2.1,3.5,4.8S76.9,14.1,74.9,14.1z"/>
			<path d="M74.9,14.2c-2,0-3.6-2.2-3.6-4.9s1.6-4.9,3.6-4.9c2,0,3.6,2.2,3.6,4.9S76.9,14.2,74.9,14.2z M74.9,4.6
				c-1.9,0-3.4,2.1-3.4,4.7s1.5,4.7,3.4,4.7c1.9,0,3.4-2.1,3.4-4.7S76.8,4.6,74.9,4.6z"/>
		</g>
		<g>
			<path class="st5" d="M74.9,13.4c-1.7,0-3-1.8-3-4.1s1.4-4.1,3-4.1c1.7,0,3,1.8,3,4.1C78,11.5,76.6,13.4,74.9,13.4z"/>
			<path d="M74.9,13.5c-1.7,0-3.2-1.9-3.2-4.2c0-2.3,1.4-4.2,3.2-4.2c1.7,0,3.2,1.9,3.2,4.2C78.1,11.6,76.7,13.5,74.9,13.5z
				 M74.9,5.3c-1.6,0-2.9,1.8-2.9,3.9s1.3,3.9,2.9,3.9c1.6,0,2.9-1.8,2.9-3.9S76.5,5.3,74.9,5.3z"/>
		</g>
		<g>
			<path class="st11" d="M74.7,13.3c-1.4,0-2.4-1.8-2.4-4c0-2.2,1.1-4,2.4-4c1.4,0,2.4,1.8,2.4,4C77.2,11.5,76,13.3,74.7,13.3z"/>
			<path class="st12" d="M74.5,13.3c-1.4,0-2.4-1.8-2.4-4c0-2.2,1.1-4,2.4-4c1.4,0,2.4,1.8,2.4,4C76.9,11.5,75.9,13.3,74.5,13.3z"/>
			<path class="st13" d="M75,12.4c-0.8,0-1.5-1.1-1.5-2.6c0-1.4,0.6-2.6,1.5-2.6s1.5,1.1,1.5,2.6C76.6,11.3,75.9,12.4,75,12.4z"/>
			<path class="st14" d="M75.3,11.4c-0.4,0-0.7-0.6-0.7-1.2S74.8,9,75.3,9c0.4,0,0.7,0.6,0.7,1.2C76,10.9,75.7,11.4,75.3,11.4z"/>
		</g>
		<g>
			<path d="M74.6,13.5c-1.5,0-2.8-1.9-2.8-4.2s1.3-4.2,2.8-4.2s2.8,1.9,2.8,4.2S76.1,13.5,74.6,13.5z M74.6,5.3
				c-1.4,0-2.6,1.8-2.6,3.9c0,2.2,1.1,3.9,2.6,3.9s2.6-1.8,2.6-3.9C77.1,7.1,76,5.3,74.6,5.3z"/>
		</g>
	</g>
</g>
<g>
	<g>
		<path class="st6" d="M86.3,23c0,0-2.9,0.5-3.5,0.8c-1.8,0.9-1.8,4.8,0.3,6.2c2.5,0.1,3.8,0.1,3.8,0.1L86.3,23z"/>
		<path d="M86.9,30.1h-0.1c0,0-1.3,0-3.8-0.1l0,0l0,0c-1.1-0.7-1.8-2.2-1.7-3.7c0.1-1.2,0.6-2.2,1.4-2.6c0.6-0.4,3.4-0.8,3.5-0.8
			l0.1,0l0,0.1L86.9,30.1z M83.1,29.9c2.1,0.1,3.3,0.1,3.7,0.1l-0.5-6.9c-0.5,0.1-2.8,0.5-3.4,0.8c-0.7,0.4-1.2,1.3-1.3,2.4
			C81.4,27.8,82.1,29.2,83.1,29.9z"/>
	</g>
	<g>
		<path class="st8" d="M86.5,30.1c-1.5,0-2.6-1.6-2.6-3.6c0-1.9,1.2-3.6,2.6-3.6c1.4,0,2.6,1.6,2.6,3.6C89.2,28.5,88,30.1,86.5,30.1
			z"/>
		<path d="M86.5,30.1c-1.5,0-2.7-1.6-2.7-3.7c0-2,1.2-3.7,2.7-3.7c1.5,0,2.7,1.7,2.7,3.7c0.1,1.2-0.3,2.2-1,2.9
			C87.7,29.9,87.1,30.1,86.5,30.1z M86.5,23c-1.3,0-2.5,1.6-2.5,3.5c0,2,1.1,3.5,2.5,3.5c0.6,0,1.1-0.2,1.6-0.7
			c0.6-0.7,1-1.7,0.9-2.8C89,24.5,87.8,23,86.5,23z"/>
	</g>
	<g>
		<path class="st5" d="M86.5,29.5c-1.3,0-2.3-1.4-2.3-3s1-3,2.3-3s2.3,1.4,2.3,3C88.8,28.2,87.8,29.5,86.5,29.5z"/>
		<path d="M86.5,29.6c-1.3,0-2.4-1.4-2.4-3.1s1.1-3.1,2.4-3.1s2.4,1.4,2.4,3.1C88.9,28.2,87.8,29.6,86.5,29.6z M86.5,23.5
			c-1.2,0-2.2,1.3-2.2,3s1,3,2.2,3c1.3,0,2.2-1.3,2.2-3C88.7,24.8,87.7,23.5,86.5,23.5z"/>
	</g>
	<g>
		<path class="st15" d="M86.3,29.4c-1,0-1.8-1.3-1.8-3s0.8-3,1.8-3s1.8,1.3,1.8,3S87.3,29.4,86.3,29.4z"/>
		<path class="st16" d="M86.1,29.4c-1,0-1.8-1.3-1.8-3s0.8-3,1.8-3s1.8,1.3,1.8,3S87.1,29.4,86.1,29.4z"/>
	</g>
	<g>
		<path d="M86.2,29.6c-1.2,0-2.1-1.4-2.1-3.1s1-3.1,2.1-3.1c1.2,0,2.1,1.4,2.1,3.1C88.3,28.2,87.4,29.6,86.2,29.6z M86.2,23.5
			c-1.1,0-1.9,1.4-1.9,3c0,1.6,0.9,3,1.9,3c1.1,0,1.9-1.3,1.9-3C88.1,24.9,87.2,23.5,86.2,23.5z"/>
	</g>
</g>
<g>
	<g>
		<path class="st6" d="M79.8,25.6c0,0-2.9,0.5-3.5,0.8c-1.8,0.9-1.8,4.8,0.3,6.2c2.5,0.1,3.8,0.1,3.8,0.1L79.8,25.6z"/>
		<path d="M80.5,32.8h-0.1c0,0-1.3,0-3.8-0.1l0,0l0,0c-1.1-0.7-1.8-2.2-1.7-3.7c0.1-1.2,0.6-2.2,1.4-2.6c0.6-0.4,3.4-0.8,3.5-0.8
			l0.1,0l0,0.1L80.5,32.8z M76.6,32.6c2.1,0.1,3.3,0.1,3.7,0.1l-0.5-6.9c-0.5,0.1-2.8,0.5-3.4,0.8c-0.7,0.4-1.2,1.3-1.3,2.4
			C75,30.5,75.6,31.9,76.6,32.6z"/>
	</g>
	<g>
		<path class="st8" d="M80,32.7c-1.5,0-2.6-1.6-2.6-3.6s1.2-3.6,2.6-3.6c1.5,0,2.6,1.6,2.6,3.6S81.5,32.7,80,32.7z"/>
		<path d="M80,32.8c-1.5,0-2.7-1.6-2.7-3.7c0-2,1.2-3.7,2.7-3.7c1.5,0,2.7,1.6,2.7,3.7S81.5,32.8,80,32.8z M80,25.6
			c-1.4,0-2.5,1.6-2.5,3.5c0,2,1.1,3.5,2.5,3.5c1.4,0,2.5-1.5,2.5-3.5C82.5,27.1,81.4,25.6,80,25.6z"/>
	</g>
	<g>
		<path class="st5" d="M80,32.3c-1.3,0-2.3-1.4-2.3-3c0-1.7,1-3,2.3-3s2.3,1.4,2.3,3C82.3,30.9,81.3,32.3,80,32.3z"/>
		<path d="M80,32.4c-1.3,0-2.4-1.4-2.4-3.1s1.1-3.1,2.4-3.1s2.4,1.4,2.4,3.1S81.3,32.4,80,32.4z M80,26.3c-1.2,0-2.2,1.3-2.2,3
			s1,3,2.2,3s2.2-1.3,2.2-3S81.2,26.3,80,26.3z"/>
	</g>
	<g>
		<path class="st15" d="M79.8,32.2c-1,0-1.8-1.3-1.8-3c0-1.7,0.8-3,1.8-3s1.8,1.3,1.8,3C81.7,30.8,80.8,32.2,79.8,32.2z"/>
		<path class="st16" d="M79.6,32.2c-1,0-1.8-1.3-1.8-3c0-1.7,0.8-3,1.8-3s1.8,1.3,1.8,3C81.5,30.8,80.7,32.2,79.6,32.2z"/>
	</g>
	<g>
		<path d="M79.7,32.4c-1.2,0-2.1-1.4-2.1-3.1s1-3.1,2.1-3.1s2.1,1.4,2.1,3.1S80.9,32.4,79.7,32.4z M79.7,26.3c-1.1,0-1.9,1.4-1.9,3
			c0,1.6,0.9,3,1.9,3s1.9-1.4,1.9-3C81.7,27.6,80.8,26.3,79.7,26.3z"/>
	</g>
</g>
<g>
	<circle class="st0" cx="57.2" cy="35.3" r="11.6"/>
	<circle class="st0" cx="57.2" cy="35.3" r="9.5"/>
	<path class="st1" d="M40.6,33.4c0,0,0.3,3.7,1.6,6.3c1.2,2.6,2.3,3.5,2.3,3.5l4.3-0.8l-3.9-9.4L40.6,33.4z"/>
	<ellipse transform="matrix(0.9729 -0.2312 0.2312 0.9729 -8.6079 11.9315)" class="st1" cx="46.6" cy="42.7" rx="2.2" ry="1.6"/>
	<path class="st1" d="M73.8,37.4c0,0-0.3-3.7-1.6-6.3c-1.2-2.6-2.3-3.5-2.3-3.5l-4.3,0.8l3.9,9.4L73.8,37.4z"/>
	<ellipse transform="matrix(0.9729 -0.2312 0.2312 0.9729 -4.6377 16.4631)" class="st1" cx="67.9" cy="28" rx="2.2" ry="1.6"/>
	<path class="st1" d="M67.3,21.9c0,0-3.3-1.6-6.2-1.8c-2.9-0.3-4.2,0.2-4.2,0.2l-1.4,4.2l10.2,1.3L67.3,21.9z"/>
	<ellipse transform="matrix(0.2862 -0.9582 0.9582 0.2862 24.5406 80.9968)" class="st2" cx="66.6" cy="24" rx="2.2" ry="1.6"/>
	<ellipse transform="matrix(0.2862 -0.9582 0.9582 0.2862 18.6172 69.9354)" class="st1" cx="56.2" cy="22.5" rx="2.2" ry="1.6"/>
	<path class="st3" d="M68.7,25.9c0,0,1-1.3,0.7-1.8C69,24,68,23.6,67.7,23.6c-0.2,0-0.3,0-0.4,0.2c-0.2,0.4-0.8,0.7-0.9,0.7
		c-0.5,0.9-0.3,1.8-0.3,1.8l1.8,2.4L68.7,25.9z"/>
	<path class="st1" d="M47.2,48.8c0,0,3.3,1.6,6.2,1.8c2.9,0.2,4.2-0.2,4.2-0.2l1.4-4.2L48.9,45L47.2,48.8z"/>
	<ellipse transform="matrix(0.2862 -0.9582 0.9582 0.2862 -10.5062 79.1526)" class="st2" cx="47.9" cy="46.6" rx="2.2" ry="1.6"/>
	<ellipse transform="matrix(0.2862 -0.9582 0.9582 0.2862 -4.6864 90.2519)" class="st1" cx="58.2" cy="48.3" rx="2.2" ry="1.6"/>
	<path class="st3" d="M45.8,44.8c0,0-1,1.3-0.7,1.8c0.4,0.2,1.4,0.6,1.7,0.6c0.2,0,0.3,0,0.4-0.2c0.2-0.4,0.8-0.7,0.9-0.7
		c0.5-0.9,0.3-1.8,0.3-1.8L46.4,42L45.8,44.8z"/>
	<path class="st1" d="M50.7,20c0,0-3,2-4.6,4.4c-1.7,2.4-1.9,3.8-1.9,3.8l2.9,3.3l6.3-8.1L50.7,20z"/>
	<ellipse transform="matrix(0.727 -0.6867 0.6867 0.727 -0.572 41.691)" class="st2" cx="52.1" cy="21.6" rx="1.6" ry="2.2"/>
	<ellipse transform="matrix(0.727 -0.6867 0.6867 0.727 -7.9907 39.4267)" class="st1" cx="45.6" cy="29.8" rx="1.6" ry="2.2"/>
	<path class="st3" d="M54.8,20.7c0,0-0.6-1.5-1.2-1.5c-0.4,0.3-1.1,0.9-1.4,1.2c-0.1,0.1-0.1,0.3,0,0.5c0.2,0.3,0.2,1.1,0.2,1.1
		c0.6,0.8,1.5,1.2,1.5,1.2l3-0.4L54.8,20.7z"/>
	<path class="st1" d="M63.9,50.7c0,0,3-2,4.6-4.4s1.9-3.8,1.9-3.8l-2.9-3.3l-6.3,8.1L63.9,50.7z"/>
	<ellipse transform="matrix(0.727 -0.6867 0.6867 0.727 -16.6977 56.2661)" class="st2" cx="62.4" cy="49.1" rx="1.6" ry="2.2"/>
	<ellipse transform="matrix(0.727 -0.6867 0.6867 0.727 -9.279 58.5304)" class="st1" cx="69" cy="40.9" rx="1.6" ry="2.2"/>
	<path class="st3" d="M59.7,50c0,0,0.6,1.5,1.2,1.5c0.4-0.3,1.1-0.9,1.4-1.2c0.1-0.1,0.1-0.3,0-0.5c-0.2-0.3-0.2-1.1-0.2-1.1
		c-0.6-0.8-1.5-1.2-1.5-1.2l-3,0.4L59.7,50z"/>
	<ellipse transform="matrix(0.9729 -0.2312 0.2312 0.9729 -6.4537 10.7718)" class="st2" cx="42.7" cy="32.9" rx="2.2" ry="1.6"/>
	<path class="st3" d="M43.4,30.2c0,0-1.6-0.2-1.9,0.3c0.1,0.5,0.2,1.5,0.4,1.8c0.1,0.2,0.2,0.3,0.4,0.3c0.4,0,1.1,0.4,1.1,0.4
		c1-0.1,1.8-0.6,1.8-0.6l1.2-2.8L43.4,30.2z"/>
	<ellipse transform="matrix(0.9729 -0.2312 0.2312 0.9729 -6.7993 17.6027)" class="st2" cx="71.7" cy="37.8" rx="2.2" ry="1.6"/>
	<path class="st3" d="M71.2,40.6c0,0,1.6,0.2,1.9-0.3c-0.1-0.5-0.2-1.5-0.4-1.8c-0.1-0.2-0.2-0.3-0.4-0.3c-0.4,0-1.1-0.4-1.1-0.4
		c-1,0.1-1.8,0.6-1.8,0.6l-1.2,2.8L71.2,40.6z"/>
	<g>
		<g>
			<path class="st4" d="M58.6,25.6L57.1,25c0,0-2.1-0.1-4,0.6c-1.8,0.6-3,2.1-3,2.1l-1.7-3.4c0,0,2.9-1.7,4-2.4
				c1.1-0.6,1.3-1.1,1.3-1.1s0-0.6-0.2-1c-0.3-0.5,0.5-0.8,1-0.8c0.6,0,1.5,0.7,1.5,0.7l2.1,2.1c0,0,3,0.6,4.3,0.5l-2.1,3.1
				C60.4,25.4,59.2,25.7,58.6,25.6z"/>
			<path class="st5" d="M50.1,28.2l-1.9-3.9l0.2-0.1c0,0,2.9-1.7,4-2.4c0.8-0.5,1.1-0.9,1.2-1c0-0.2,0-0.6-0.2-0.9
				c-0.1-0.2-0.1-0.4,0-0.6c0.2-0.4,0.8-0.6,1.2-0.6c0.6,0,1.5,0.7,1.6,0.8l2.1,2.1c0.5,0.1,3,0.5,4.2,0.4l0.5,0l-2.8,4.2v-0.5
				c-0.1,0-0.1,0-0.2,0c-0.4,0.1-1,0.2-1.4,0.1l-0.1,0l-1.4-0.6c-0.3,0-2.2,0-3.8,0.6c-1.8,0.6-2.9,2-3,2.1L50.1,28.2z M48.7,24.4
				l1.4,2.9c0.4-0.5,1.5-1.4,2.9-1.9c1.9-0.7,4-0.7,4.1-0.7l0.1,0l1.4,0.6c0.3,0,0.8-0.1,1.2-0.1c0.2,0,0.3-0.1,0.4-0.1l1.8-2.7
				c-1.5,0-3.8-0.5-3.9-0.5l-0.1,0l-2.2-2.2c-0.3-0.2-1-0.7-1.3-0.7c-0.3,0-0.7,0.2-0.8,0.3c0,0,0,0.1,0,0.1
				c0.2,0.4,0.2,1.1,0.2,1.1l0,0.1c0,0.1-0.2,0.6-1.4,1.2C51.6,22.8,49.4,24,48.7,24.4z"/>
		</g>
		<g>
			<path class="st4" d="M55.8,45.1l1.5,0.6c0,0,2.1,0.1,4-0.6c1.8-0.6,3-2.1,3-2.1l1.7,3.4c0,0-2.9,1.7-4,2.4
				c-1.1,0.7-1.3,1.1-1.3,1.1s0,0.6,0.2,1c0.3,0.5-0.5,0.8-1,0.8c-0.6,0-1.5-0.7-1.5-0.7l-2.1-2.1c0,0-3-0.6-4.3-0.5l2.1-3.1
				C54.2,45.4,55.3,45,55.8,45.1z"/>
			<path class="st5" d="M59.9,52c-0.6,0-1.5-0.7-1.6-0.8l-2.1-2.1c-0.5-0.1-3-0.5-4.2-0.4l-0.5,0l2.5-3.8l0.1,0.1
				c0.1,0,0.3,0,0.4-0.1c0.4-0.1,0.9-0.2,1.3-0.1l0.1,0l1.4,0.6c0.3,0,2.2,0,3.8-0.6c1.8-0.6,2.9-2,3-2.1l0.2-0.3l1.9,3.9l-0.2,0.1
				c0,0-2.9,1.7-4,2.4c-0.8,0.5-1.1,0.9-1.2,1c0,0.2,0,0.6,0.2,0.8c0.1,0.2,0.1,0.4,0,0.6C60.9,51.8,60.3,52,59.9,52z M52.4,48.2
				c1.5,0,3.8,0.5,3.9,0.5l0.1,0l2.2,2.2c0.3,0.2,1,0.7,1.3,0.7c0.3,0,0.7-0.2,0.8-0.3c0,0,0-0.1,0-0.1c-0.2-0.4-0.2-1.1-0.2-1.1
				l0-0.1c0,0,0.2-0.4,1.4-1.2c0.9-0.6,3.1-1.9,3.8-2.3l-1.4-2.9c-0.4,0.5-1.5,1.4-2.9,1.9c-1.9,0.7-4,0.7-4.1,0.7l-0.1,0l-1.4-0.6
				c-0.3,0-0.8,0.1-1.1,0.1c-0.2,0-0.4,0.1-0.5,0.1L52.4,48.2z"/>
		</g>
		<g>
			<path class="st4" d="M65,41.4l1.3-0.9c0,0,1.1-1.8,1.5-3.8c0.4-1.9-0.3-3.7-0.3-3.7l3.8,0.3c0,0,0.1,3.3,0.1,4.6s0.4,1.7,0.4,1.7
				s0.6,0.4,0.9,0.3c0.6,0,0.5,0.8,0.2,1.3c-0.3,0.6-1.4,0.9-1.4,0.9l-2.9,0.8c0,0-1.9,2.3-2.6,3.5L64.3,43
				C64.4,43.1,64.6,41.9,65,41.4z"/>
			<path class="st5" d="M66,46.9l-2.5-5.1l0.7,0.7c0,0,0-0.1,0-0.1c0.1-0.4,0.3-0.9,0.5-1.2l0,0l1.3-0.9c0.2-0.3,1.1-1.9,1.4-3.7
				c0.4-1.9-0.3-3.6-0.3-3.6l-0.1-0.3l4.3,0.3l0,0.2c0,0,0.1,3.3,0.1,4.6c0,1.1,0.3,1.5,0.3,1.5c0.1,0.1,0.5,0.3,0.7,0.2
				c0.3,0,0.5,0.1,0.6,0.3c0.2,0.4,0.1,1-0.1,1.3c-0.3,0.6-1.4,1-1.5,1l-2.8,0.8c-0.3,0.4-1.9,2.3-2.5,3.4L66,46.9z M64.6,43
				l1.4,2.9c0.8-1.2,2.3-3.1,2.4-3.2l0-0.1l2.9-0.9c0.3-0.1,1.1-0.4,1.2-0.8c0.2-0.3,0.2-0.7,0.2-0.9c0,0,0-0.1-0.1-0.1
				c-0.4,0.1-1-0.3-1.1-0.3c-0.1-0.1-0.5-0.5-0.5-1.9c0-1.1-0.1-3.7-0.1-4.4l-3.2-0.2c0.2,0.6,0.5,2,0.2,3.5c-0.4,2-1.5,3.8-1.5,3.9
				l-0.1,0.1l-1.3,0.9c-0.2,0.2-0.3,0.7-0.4,1.1C64.7,42.8,64.6,42.9,64.6,43z"/>
		</g>
		<g>
			<path class="st4" d="M45.9,27.8c0,0,1.9-2.3,2.6-3.5l1.7,3.4c0,0-0.3,1.2-0.6,1.7l-1.3,0.9c0,0-1.1,1.8-1.5,3.8
				c-0.4,1.9,0.3,3.7,0.3,3.7l-3.8-0.3c0,0-0.1-3.3-0.1-4.6c0-1.3-0.4-1.7-0.4-1.7s-0.6-0.4-0.9-0.3c-0.6,0-0.5-0.8-0.2-1.3
				c0.3-0.6,1.4-0.9,1.4-0.9L45.9,27.8z"/>
			<path class="st5" d="M47.4,38l-4.3-0.3l0-0.2c0,0-0.1-3.3-0.1-4.6c0-1.1-0.3-1.5-0.3-1.5c-0.1-0.1-0.5-0.3-0.7-0.2
				c-0.3,0-0.5-0.1-0.6-0.3c-0.2-0.4-0.1-1,0.1-1.3c0.3-0.6,1.4-1,1.5-1l2.7-0.9c0.3-0.3,1.9-2.3,2.5-3.4l0.2-0.4l1.9,3.9l0,0.1
				c0,0-0.3,1.2-0.6,1.7l-0.1,0.1l-1.3,0.9c-0.2,0.3-1.1,1.9-1.4,3.7c-0.4,1.9,0.3,3.6,0.3,3.6L47.4,38z M43.5,37.2l3.2,0.2
				c-0.2-0.6-0.5-2-0.2-3.5c0.4-2,1.5-3.8,1.5-3.9l0.1-0.1l1.3-0.9c0.2-0.3,0.4-1.1,0.5-1.5l-1.4-3c-0.8,1.2-2.3,3.1-2.4,3.2l0,0
				l-2.8,0.9c-0.3,0.1-1.1,0.4-1.3,0.8c-0.2,0.3-0.2,0.7-0.2,0.9c0,0,0,0.1,0.1,0.1c0.4-0.1,1,0.3,1.1,0.3c0.1,0.1,0.5,0.5,0.5,1.9
				C43.4,33.9,43.5,36.5,43.5,37.2z"/>
		</g>
		<g>
			<path class="st4" d="M48.2,39l0.2,1.6c0,0,1,1.8,2.5,3.1c1.6,1.3,3.3,1.6,3.3,1.6L52,48.4c0,0-2.9-1.6-4.1-2.2
				c-1.1-0.6-1.7-0.6-1.7-0.6s-0.6,0.4-0.7,0.6c-0.3,0.5-0.9,0-1.3-0.5c-0.3-0.5-0.1-1.7-0.1-1.7l0.7-2.9c0,0-1-2.9-1.8-4l3.8,0.3
				C47.1,37.7,48,38.6,48.2,39z"/>
			<path class="st5" d="M52.1,48.7l-0.2-0.1c0,0-2.9-1.6-4.1-2.2c-0.8-0.5-1.3-0.5-1.5-0.5c0,0,0,0,0,0c-0.2,0.1-0.5,0.4-0.6,0.5
				c-0.1,0.2-0.3,0.3-0.5,0.3c-0.4,0-0.9-0.4-1.2-0.7c-0.3-0.5-0.2-1.7-0.1-1.8l0.7-2.8c-0.2-0.4-1.1-2.9-1.7-3.9l-0.3-0.4l4.3,0.3
				l0.1,0.1c0.4,0.4,1,1,1.2,1.4l0,0.1l0.2,1.5c0.2,0.3,1.1,1.9,2.4,3c1.5,1.2,3.2,1.5,3.2,1.5l0.4,0.1L52.1,48.7z M46.4,45.4
				c0.2,0,0.8,0.1,1.7,0.6c1,0.5,3.2,1.8,3.9,2.1l1.8-2.7c-0.6-0.1-1.9-0.6-3.1-1.5c-1.5-1.3-2.5-3.1-2.5-3.2l0-0.1l-0.2-1.5
				c-0.1-0.2-0.3-0.5-1.1-1.2l0,0l-3.3-0.2c0.7,1.3,1.5,3.5,1.5,3.6l0,0.1l-0.8,2.9c-0.1,0.4-0.1,1.2,0.1,1.5
				c0.2,0.3,0.6,0.5,0.8,0.5c0,0,0.1,0,0.1-0.1c0.2-0.3,0.7-0.7,0.8-0.7l0.1,0C46.3,45.4,46.3,45.4,46.4,45.4z"/>
		</g>
		<g>
			<path class="st4" d="M66.4,31.7l-0.2-1.6c0,0-1-1.8-2.5-3.1c-1.6-1.3-3.3-1.6-3.3-1.6l2.1-3.1c0,0,2.9,1.6,4.1,2.2
				c1.1,0.6,1.7,0.6,1.7,0.6s0.6-0.4,0.7-0.6c0.3-0.5,0.9,0,1.3,0.5c0.3,0.5,0.1,1.7,0.1,1.7l-0.7,2.9c0,0,1,2.9,1.8,4l-3.8-0.3
				C67.5,33,66.5,32.2,66.4,31.7z"/>
			<path class="st5" d="M71.8,33.6l-4.3-0.3l-0.1-0.1c-0.4-0.4-1-1-1.2-1.4l0-0.1l-0.2-1.5c-0.2-0.3-1.1-1.9-2.4-3
				c-1.5-1.2-3.2-1.5-3.2-1.5L60,25.6l2.4-3.6l0.2,0.1c0,0,2.9,1.6,4.1,2.2c0.8,0.5,1.3,0.5,1.5,0.5l0,0c0.2-0.1,0.5-0.4,0.6-0.5
				c0.1-0.2,0.3-0.3,0.5-0.3c0.4,0,0.9,0.4,1.2,0.7c0.3,0.5,0.2,1.7,0.1,1.8l-0.7,2.8c0.2,0.4,1.1,2.9,1.7,3.9L71.8,33.6z
				 M67.7,32.9l3.3,0.2c-0.7-1.3-1.5-3.5-1.5-3.6l0-0.1l0.8-2.9c0.1-0.4,0.1-1.2-0.1-1.5c-0.2-0.3-0.6-0.5-0.8-0.5
				c0,0-0.1,0-0.1,0.1c-0.2,0.3-0.7,0.7-0.8,0.7l-0.1,0c-0.1,0-0.7,0.1-1.8-0.6c-1-0.5-3.2-1.8-3.9-2.1l-1.8,2.7
				c0.6,0.1,1.9,0.6,3.1,1.5c1.5,1.3,2.5,3.1,2.5,3.2l0,0.1l0.2,1.5C66.7,31.8,66.9,32.2,67.7,32.9L67.7,32.9z"/>
		</g>
	</g>
	<g>
		<g>
			<path class="st2" d="M52.4,30.8l1.2-1l-0.2-1.2c1.6-0.9,3.4-1.2,5.3-0.9l0.2,1.2l1.5,0.6l0.9-0.8c0.7,0.5,1.5,1,2,1.8
				c0.6,0.7,1,1.5,1.4,2.3l-0.9,0.8L64,35l1.2,0.5c0,1.8-0.6,3.6-1.8,5l-1.2-0.5l-1.2,1l0.2,1.2c-1.6,0.9-3.4,1.2-5.3,0.9l-0.2-1.2
				l-1.5-0.6l-0.9,0.8c-0.7-0.5-1.5-1-2-1.8c-0.6-0.7-1-1.5-1.4-2.3l0.9-0.8l-0.3-1.5l-1.2-0.5c0-1.8,0.6-3.6,1.8-5L52.4,30.8z"/>
		</g>
	</g>
	<g>
		<g>
			<path class="st4" d="M57.4,35.1l0.1-0.6l3.5-6.2c0.1,0,0.2,0.1,0.3,0.1L57.6,35L57.4,35.1z"/>
			<path class="st4" d="M57,35.6l-0.1,0.6l-3.5,6.2c-0.1,0-0.2-0.1-0.3-0.1l3.7-6.5L57,35.6z"/>
			<path class="st4" d="M57.3,35.6l0.4,0.4l3.6,6.1c-0.1,0-0.2,0.1-0.2,0.1L57.3,35.6L57.3,35.6z"/>
			<path class="st4" d="M57.1,35.1l-0.4-0.4l-3.6-6.1c0.1,0,0.2-0.1,0.2-0.1L57.1,35.1L57.1,35.1z"/>
			<path class="st4" d="M57.5,35.4l0.5-0.2h7.1c0,0.1,0,0.2,0,0.3L57.5,35.4L57.5,35.4z"/>
			<path class="st4" d="M56.8,35.2L56.8,35.2l-0.4,0.3h-7.1c0-0.1,0-0.2,0-0.3H56.8z"/>
			<path class="st4" d="M57.2,35.1L57.2,35.1l1.2-7.5c0.1,0,0.2,0,0.3,0l-1.2,7L57.2,35.1z"/>
			<path class="st4" d="M57.2,35.6L57.2,35.6L56,43.1c-0.1,0-0.2,0-0.3,0l1.2-7L57.2,35.6z"/>
			<polygon class="st4" points="57.2,35.6 56.9,36.1 57,35.6 57.2,35.5 			"/>
			<polygon class="st4" points="57.2,35.1 57.5,34.7 57.4,35.1 57.3,35.2 			"/>
			<polygon class="st4" points="57.1,35.1 57.2,35 57.2,35.1 57.2,35.1 			"/>
			<polygon class="st4" points="57.3,35.6 57.3,35.8 57.2,35.6 			"/>
			<polygon class="st4" points="57.3,35.2 57.2,35.1 57.2,35.1 			"/>
			<polygon class="st4" points="57.2,35.5 57.3,35.6 57.2,35.6 			"/>
			<path class="st4" d="M57,35.2L57,35.2l-5.8-4.8c0.1-0.1,0.1-0.1,0.2-0.2l5.4,4.5L57,35.2z"/>
			<path class="st4" d="M57.5,35.5L57.5,35.5l5.8,4.8c-0.1,0.1-0.1,0.1-0.2,0.2L57.7,36L57.5,35.5z"/>
			<polygon class="st4" points="57,35.2 56.8,34.8 57.1,35.1 57.1,35.2 			"/>
			<polygon class="st4" points="57.5,35.5 57.8,36 57.3,35.6 57.4,35.5 			"/>
			<polygon class="st4" points="57.5,35.4 57.6,35.5 57.5,35.5 57.4,35.4 			"/>
			<polygon class="st4" points="57,35.3 56.9,35.3 56.8,35.2 57,35.2 			"/>
			<polygon class="st4" points="57.1,35.2 57,35.3 57,35.2 			"/>
			<polygon class="st4" points="57.4,35.4 57.4,35.4 57.5,35.5 57.4,35.5 			"/>
			<polygon class="st4" points="57.3,35.5 57.4,35.5 57.3,35.6 57.3,35.6 			"/>
			<polygon class="st4" points="57.1,35.2 57.1,35.2 57.1,35.1 57.2,35.1 			"/>
			<polygon class="st4" points="57.3,35.5 57.3,35.6 57.2,35.5 			"/>
			<polygon class="st4" points="57.1,35.2 57.2,35.1 57.3,35.2 57.2,35.2 			"/>
			<polygon class="st4" points="57.4,35.4 57.4,35.5 57.3,35.5 57.3,35.5 			"/>
			<polygon class="st4" points="57.1,35.2 57.1,35.2 57.1,35.2 			"/>
			<path class="st4" d="M57.3,35.5L57.3,35.5L57.3,35.5z"/>
			<polygon class="st4" points="57.1,35.2 57.1,35.2 57.2,35.2 			"/>
			<path class="st4" d="M57.5,35.2L57.5,35.2l7.1-2.7c0,0.1,0.1,0.2,0.1,0.3L58,35.2H57.5z"/>
			<path class="st4" d="M57,35.5L57,35.5l-7.1,2.7c0-0.1-0.1-0.2-0.1-0.3l6.6-2.4H57z"/>
			<polygon class="st4" points="57,35.6 56.9,35.6 57,35.5 57.1,35.5 			"/>
			<polygon class="st4" points="57.4,35.1 57.6,35.1 57.5,35.2 57.4,35.2 			"/>
			<polygon class="st4" points="57.5,35.2 58,35.2 57.5,35.4 57.4,35.3 			"/>
			<polygon class="st4" points="57,35.5 56.5,35.5 56.9,35.3 57,35.4 			"/>
			<polygon class="st4" points="57.4,35.3 57.4,35.2 57.5,35.2 			"/>
			<polygon class="st4" points="57.1,35.4 57.1,35.5 57,35.5 57,35.4 			"/>
			<polygon class="st4" points="57.1,35.5 57.2,35.5 57,35.6 			"/>
			<polygon class="st4" points="57.3,35.2 57.3,35.2 57.4,35.1 57.4,35.2 			"/>
			<polygon class="st4" points="57.3,35.2 57.3,35.2 57.3,35.2 			"/>
			<polygon class="st4" points="57.2,35.5 57.2,35.5 57.1,35.5 			"/>
			<polygon class="st4" points="57.3,35.2 57.4,35.2 57.4,35.3 			"/>
			<polygon class="st4" points="57.1,35.5 57.1,35.5 57.1,35.4 57.1,35.4 			"/>
			<path class="st4" d="M57.3,35.2L57.3,35.2L57.3,35.2z"/>
			<polygon class="st4" points="57.2,35.5 57.1,35.5 57.1,35.4 			"/>
			<polygon class="st4" points="57.4,35.3 57.4,35.3 57.5,35.4 57.4,35.4 			"/>
			<polygon class="st4" points="57.1,35.3 57,35.4 56.9,35.3 57,35.3 			"/>
			<polygon class="st4" points="57.1,35.4 57,35.4 57.1,35.3 			"/>
			<polygon class="st4" points="57.4,35.3 57.4,35.3 57.4,35.3 			"/>
			<polygon class="st4" points="57.1,35.3 57.1,35.3 57,35.3 57.1,35.2 			"/>
			<polygon class="st4" points="57.4,35.3 57.4,35.4 57.4,35.4 57.4,35.4 			"/>
			<polygon class="st4" points="57.4,35.3 57.4,35.3 57.4,35.4 			"/>
			<polygon class="st4" points="57.1,35.4 57.1,35.3 57.1,35.3 			"/>
			<polygon class="st4" points="57.2,35.2 57.3,35.2 57.3,35.2 			"/>
			<polygon class="st4" points="57.3,35.5 57.2,35.5 57.2,35.5 			"/>
			<polygon class="st4" points="57.3,35.2 57.4,35.3 57.4,35.3 			"/>
			<path class="st4" d="M57.1,35.4L57.1,35.4L57.1,35.4z"/>
			<polygon class="st4" points="57.4,35.4 57.4,35.4 57.3,35.5 			"/>
			<polygon class="st4" points="57.1,35.3 57.1,35.2 57.1,35.2 			"/>
			<polygon class="st4" points="57.2,35.2 57.3,35.2 57.3,35.2 57.4,35.3 57.4,35.4 57.3,35.5 57.3,35.5 57.2,35.5 57.1,35.4 
				57.1,35.4 57.1,35.3 57.1,35.2 			"/>
		</g>
	</g>
	<g>
		<path class="st4" d="M49.6,38.2L49.6,38l1-0.8l-0.2-1.3l-1.2-0.5v-0.2c0-1.8,0.6-3.7,1.8-5.2l0.1-0.1l1.2,0.5l1-0.8l-0.2-1.3
			l0.1-0.1c1.6-0.9,3.5-1.3,5.4-0.9h0.2l0.2,1.3l1.2,0.5l1-0.8l0.1,0.1c0.8,0.5,1.5,1.1,2.1,1.8c0.6,0.7,1.1,1.5,1.4,2.4l0.1,0.2
			l-1,0.8l0.2,1.3l1.2,0.5v0.2c0,1.8-0.6,3.7-1.8,5.2l-0.1,0.1l-1.2-0.5l-1,0.8l0.2,1.3l-0.1,0.1c-1.6,0.9-3.5,1.3-5.4,0.9h-0.2
			l-0.2-1.3l-1.2-0.5l-1,0.8l0-0.1c-0.8-0.5-1.5-1.1-2.1-1.8C50.5,39.8,50,39,49.6,38.2z M54.3,41l1.7,0.6l0.2,1.2
			c1.7,0.3,3.3-0.1,4.8-0.8l-0.2-1.2l1.4-1.2l1.1,0.4c1-1.3,1.6-2.9,1.7-4.6L63.8,35l-0.3-1.8l0.9-0.8c-0.3-0.7-0.7-1.5-1.3-2.1
			c-0.6-0.6-1.2-1.2-1.8-1.6l-0.9,0.8L58.7,29l-0.2-1.2c-1.7-0.3-3.3,0.1-4.8,0.8l0.2,1.2L52.5,31l-1.1-0.4c-1,1.3-1.6,2.9-1.7,4.6
			l1.1,0.4l0.3,1.8l-0.9,0.8c0.3,0.7,0.7,1.5,1.3,2.1c0.6,0.6,1.2,1.2,1.8,1.6L54.3,41z"/>
	</g>
	<circle cx="57.2" cy="35.3" r="2.4"/>
	<g>
		<path class="st4" d="M55.6,33.5c1.1-0.9,2.7-0.7,3.5,0.3c0.9,1.1,0.7,2.7-0.3,3.5c-1.1,0.9-2.7,0.7-3.5-0.3
			C54.4,36,54.5,34.3,55.6,33.5z M55.8,33.7c-0.9,0.8-1.1,2.2-0.3,3.1c0.8,0.9,2.2,1.1,3.1,0.3s1.1-2.2,0.3-3.1
			C58.1,32.9,56.8,32.8,55.8,33.7z"/>
	</g>
</g>
</svg>
