<?xml version="1.0" encoding="utf-8"?>
<!-- Generator: Adobe Illustrator 24.0.0, SVG Export Plug-In . SVG Version: 6.00 Build 0)  -->
<svg version="1.1" id="图层_1" xmlns="http://www.w3.org/2000/svg" xmlns:xlink="http://www.w3.org/1999/xlink" x="0px" y="0px"
	 width="37px" height="21.1px" viewBox="0 0 37 21.1" style="enable-background:new 0 0 37 21.1;" xml:space="preserve">
<style type="text/css">
	.st0{fill:#6E7C85;}
	.st1{fill:#212121;}
	.st2{fill:#6C7F86;}
	.st3{fill:#55636C;}
	.st4{fill:#B8C9D0;}
	.st5{fill:#9B9B9B;}
	.st6{fill:#BCBCBC;}
	.st7{fill:#EAEAEA;}
	.st8{fill:#E2E2E2;}
	.st9{fill:#6D6D6D;}
	.st10{fill:#E2E2E2;stroke:#9B9B9B;stroke-miterlimit:10;}
	.st11{fill:#43AEB6;}
	.st12{fill:#78CEDD;}
	.st13{fill:#94DAE6;}
	.st14{fill:#C9E8ED;}
	.st15{fill:#1E2D2D;}
	.st16{fill:#4F6466;}
</style>
<title>宙斯小车logo源文件3</title>
<g>
	<circle class="st0" cx="12.9" cy="10.3" r="4.7"/>
	<circle class="st0" cx="12.9" cy="10.3" r="3.8"/>
	<path class="st1" d="M6.2,9.6c0,0,0.1,1.4,0.6,2.5c0.5,1,0.9,1.4,0.9,1.4l1.7-0.4L7.9,9.4L6.2,9.6z"/>
	<ellipse transform="matrix(0.9704 -0.2414 0.2414 0.9704 -2.9596 2.4829)" class="st1" cx="8.7" cy="13.3" rx="0.9" ry="0.6"/>
	<path class="st1" d="M19.6,11.1c0,0-0.1-1.4-0.6-2.5c-0.5-1-0.9-1.4-0.9-1.4l-1.7,0.4l1.6,3.8L19.6,11.1z"/>
	<ellipse transform="matrix(0.9704 -0.2414 0.2414 0.9704 -1.2653 4.36)" class="st1" cx="17.2" cy="7.3" rx="0.9" ry="0.6"/>
	<path class="st1" d="M16.9,4.9c0,0-1.3-0.6-2.5-0.7c-1.2-0.1-1.7,0.1-1.7,0.1L12.1,6l4.1,0.5L16.9,4.9z"/>
	<ellipse transform="matrix(0.2762 -0.9611 0.9611 0.2762 6.5352 20.1493)" class="st2" cx="16.6" cy="5.7" rx="0.9" ry="0.6"/>
	<ellipse transform="matrix(0.2762 -0.9611 0.9611 0.2762 4.0697 15.6951)" class="st1" cx="12.5" cy="5.1" rx="0.9" ry="0.6"/>
	<path class="st3" d="M17.5,6.5c0,0,0.4-0.5,0.3-0.7c-0.1-0.1-0.6-0.2-0.7-0.2c-0.1,0-0.1,0-0.1,0.1c-0.1,0.1-0.3,0.3-0.3,0.3
		c-0.2,0.4-0.1,0.7-0.1,0.7l0.7,1L17.5,6.5z"/>
	<path class="st1" d="M9,15.8c0,0,1.3,0.6,2.5,0.7c1.2,0.1,1.7-0.1,1.7-0.1l0.6-1.7l-4.1-0.5L9,15.8z"/>
	<ellipse transform="matrix(0.2762 -0.9611 0.9611 0.2762 -7.7014 19.6287)" class="st2" cx="9.2" cy="14.9" rx="0.9" ry="0.6"/>
	<ellipse transform="matrix(0.2762 -0.9611 0.9611 0.2762 -5.2359 24.0829)" class="st1" cx="13.4" cy="15.5" rx="0.9" ry="0.6"/>
	<path class="st3" d="M8.4,14.2c0,0-0.4,0.5-0.3,0.7c0.1,0.1,0.6,0.2,0.7,0.2c0.1,0,0.1,0,0.1-0.1c0.1-0.1,0.3-0.3,0.3-0.3
		C9.4,14.4,9.4,14,9.4,14l-0.7-1L8.4,14.2z"/>
	<path class="st1" d="M10.2,4.2C10.2,4.2,9,5,8.3,6S7.6,7.5,7.6,7.5l1.2,1.3l2.5-3.3L10.2,4.2z"/>
	<ellipse transform="matrix(0.7197 -0.6942 0.6942 0.7197 -0.3093 8.8515)" class="st2" cx="10.8" cy="4.8" rx="0.6" ry="0.9"/>
	<ellipse transform="matrix(0.7197 -0.6942 0.6942 0.7197 -3.3627 7.9464)" class="st1" cx="8.2" cy="8.1" rx="0.6" ry="0.9"/>
	<path class="st3" d="M11.8,4.5c0,0-0.3-0.6-0.5-0.6c-0.1,0.1-0.4,0.4-0.5,0.5c0,0,0,0.1,0,0.2C10.9,4.6,10.9,5,10.9,5
		c0.2,0.3,0.6,0.5,0.6,0.5l1.2-0.1L11.8,4.5z"/>
	<path class="st1" d="M15.6,16.5c0,0,1.2-0.9,1.9-1.8c0.6-1,0.7-1.5,0.7-1.5L17,11.8l-2.5,3.3L15.6,16.5z"/>
	<ellipse transform="matrix(0.7197 -0.6942 0.6942 0.7197 -6.808 14.861)" class="st2" cx="15" cy="15.9" rx="0.6" ry="0.9"/>
	<ellipse transform="matrix(0.7197 -0.6942 0.6942 0.7197 -3.7432 15.7407)" class="st1" cx="17.6" cy="12.5" rx="0.6" ry="0.9"/>
	<path class="st3" d="M14,16.2c0,0,0.3,0.6,0.5,0.6c0.1-0.1,0.4-0.4,0.5-0.5c0,0,0-0.1,0-0.2c-0.1-0.1-0.1-0.4-0.1-0.4
		c-0.2-0.3-0.6-0.5-0.6-0.5l-1.2,0.1L14,16.2z"/>
	<ellipse transform="matrix(0.9704 -0.2414 0.2414 0.9704 -2.0577 1.9807)" class="st2" cx="7.1" cy="9.4" rx="0.9" ry="0.6"/>
	<path class="st3" d="M7.3,8.3c0,0-0.6-0.1-0.7,0.1c0,0.2,0.1,0.6,0.1,0.7c0,0.1,0.1,0.1,0.1,0.1c0.1,0,0.4,0.1,0.4,0.1
		C7.7,9.4,8,9.1,8,9.1L8.5,8L7.3,8.3z"/>
	<ellipse transform="matrix(0.9704 -0.2414 0.2414 0.9704 -2.1587 4.859)" class="st2" cx="18.8" cy="11.2" rx="0.9" ry="0.6"/>
	<path class="st3" d="M18.5,12.4c0,0,0.6,0.1,0.7-0.1c0-0.2-0.1-0.6-0.1-0.7c0-0.1-0.1-0.1-0.1-0.1c-0.1,0-0.4-0.1-0.4-0.1
		c-0.4,0-0.7,0.3-0.7,0.3l-0.5,1.1L18.5,12.4z"/>
	<g>
		<g>
			<path class="st4" d="M13.4,6.4l-0.6-0.3c0,0-0.9,0-1.6,0.3C10.5,6.7,10,7.3,10,7.3L9.3,5.9c0,0,1.2-0.7,1.6-1
				c0.4-0.3,0.5-0.5,0.5-0.5s0-0.3-0.1-0.4c-0.1-0.2,0.2-0.3,0.4-0.3S12.4,4,12.4,4l0.9,0.8c0,0,1.2,0.2,1.7,0.2l-0.9,1.3
				C14.1,6.3,13.6,6.5,13.4,6.4z"/>
			<path class="st5" d="M10,7.4L9.2,5.9l0.1,0c0,0,1.2-0.7,1.6-1c0.3-0.2,0.5-0.4,0.5-0.4c0-0.1,0-0.3-0.1-0.3c0-0.1,0-0.2,0-0.2
				c0.1-0.1,0.3-0.2,0.5-0.2c0.2,0,0.6,0.3,0.7,0.3l0.8,0.8c0.2,0,1.2,0.2,1.7,0.2l0.2,0l-1,1.4l0,0c-0.1,0-0.5,0.2-0.8,0.2l0,0
				l-0.6-0.3c-0.1,0-0.9,0-1.5,0.3c-0.7,0.3-1.2,0.8-1.2,0.8L10,7.4z M9.4,5.9L10,7.1c0.2-0.2,0.6-0.6,1.2-0.8
				c0.8-0.3,1.6-0.3,1.6-0.3l0,0l0.6,0.3c0.2,0,0.5-0.1,0.6-0.1l0.7-1.1c-0.6,0-1.5-0.2-1.6-0.2l0,0l-0.9-0.8
				c-0.1-0.1-0.4-0.3-0.5-0.3c-0.1,0-0.3,0.1-0.3,0.1c0,0,0,0,0,0.1c0.1,0.2,0.1,0.4,0.1,0.5l0,0c0,0-0.1,0.3-0.6,0.5
				C10.6,5.2,9.7,5.8,9.4,5.9z"/>
		</g>
		<g>
			<path class="st4" d="M12.4,14.3l0.6,0.3c0,0,0.9,0,1.6-0.3c0.7-0.3,1.2-0.9,1.2-0.9l0.7,1.4c0,0-1.2,0.7-1.6,1
				c-0.4,0.3-0.5,0.5-0.5,0.5s0,0.3,0.1,0.4c0.1,0.2-0.2,0.3-0.4,0.3c-0.2,0-0.6-0.3-0.6-0.3l-0.9-0.8c0,0-1.2-0.2-1.7-0.2l0.9-1.3
				C11.7,14.4,12.2,14.2,12.4,14.3z"/>
			<path class="st5" d="M14,17.1c-0.2,0-0.6-0.3-0.7-0.3l-0.8-0.8c-0.2,0-1.2-0.2-1.7-0.2l-0.2,0l0.9-1.4l0,0
				c0.1-0.1,0.5-0.2,0.8-0.2l0,0l0.6,0.3c0.1,0,0.9,0,1.5-0.3c0.7-0.3,1.2-0.8,1.2-0.8l0.1-0.1l0.8,1.6l-0.1,0c0,0-1.2,0.7-1.6,1
				c-0.3,0.2-0.5,0.4-0.5,0.4c0,0.1,0,0.3,0.1,0.3c0,0.1,0,0.2,0,0.2C14.4,17,14.2,17.1,14,17.1z M11,15.6c0.6,0,1.5,0.2,1.6,0.2
				l0,0l0.9,0.8c0.1,0.1,0.4,0.3,0.5,0.3c0.1,0,0.3-0.1,0.3-0.1c0,0,0,0,0-0.1c-0.1-0.2-0.1-0.4-0.1-0.5l0,0c0,0,0.1-0.3,0.6-0.5
				c0.4-0.2,1.3-0.8,1.5-0.9l-0.6-1.2c-0.2,0.2-0.6,0.6-1.2,0.8c-0.8,0.3-1.6,0.3-1.6,0.3l0,0l-0.6-0.3c-0.2,0-0.5,0.1-0.6,0.1
				L11,15.6z"/>
		</g>
		<g>
			<path class="st4" d="M16,12.7l0.5-0.4c0,0,0.4-0.7,0.6-1.5c0.1-0.8-0.1-1.5-0.1-1.5l1.5,0.1c0,0,0,1.3,0,1.9s0.1,0.7,0.1,0.7
				s0.2,0.1,0.4,0.1c0.2,0,0.2,0.3,0.1,0.5c-0.1,0.2-0.6,0.4-0.6,0.4l-1.2,0.3c0,0-0.8,0.9-1,1.4l-0.7-1.4
				C15.8,13.4,15.9,12.9,16,12.7z"/>
			<path class="st5" d="M16.4,14.9l-0.9-1.8l0.2,0.1c0,0,0-0.1,0.1-0.1c0.1-0.2,0.1-0.3,0.2-0.4l0,0l0.5-0.4
				c0.1-0.1,0.4-0.7,0.5-1.5c0.1-0.7-0.1-1.4-0.1-1.4l-0.1-0.1l1.8,0.1l0,0.1c0,0,0,1.3,0,1.9c0,0.5,0.1,0.6,0.1,0.6
				c0,0,0.2,0.1,0.3,0.1c0.1,0,0.2,0,0.2,0.1c0.1,0.1,0,0.4-0.1,0.5c-0.1,0.2-0.6,0.4-0.6,0.4l-1.1,0.3c-0.1,0.1-0.8,0.9-1,1.4
				L16.4,14.9z M15.9,13.4l0.6,1.2c0.3-0.5,0.9-1.2,1-1.3l0,0l1.2-0.3c0.1,0,0.4-0.2,0.5-0.3c0.1-0.1,0.1-0.3,0.1-0.4c0,0,0,0-0.1,0
				c-0.2,0-0.4-0.1-0.5-0.1c0,0-0.2-0.2-0.2-0.7c0-0.4,0-1.5,0-1.8l-1.3-0.1c0.1,0.2,0.2,0.8,0.1,1.4c-0.1,0.8-0.6,1.5-0.6,1.6l0,0
				l-0.5,0.4C16,12.9,16,13,16,13.2C15.9,13.3,15.9,13.3,15.9,13.4z"/>
		</g>
		<g>
			<path class="st4" d="M8.3,7.3c0,0,0.8-0.9,1-1.4L10,7.3c0,0-0.1,0.5-0.2,0.7L9.2,8.3c0,0-0.4,0.7-0.6,1.5
				c-0.1,0.8,0.1,1.5,0.1,1.5l-1.5-0.1c0,0,0-1.3,0-1.9S7.1,8.7,7.1,8.7S6.9,8.5,6.7,8.6c-0.2,0-0.2-0.3-0.1-0.5
				c0.1-0.2,0.6-0.4,0.6-0.4L8.3,7.3z"/>
			<path class="st5" d="M9,11.4l-1.8-0.1l0-0.1c0,0,0-1.3,0-1.9c0-0.5-0.1-0.6-0.1-0.6c0,0-0.2-0.1-0.3-0.1c0,0,0,0,0,0
				c-0.1,0-0.2,0-0.2-0.1C6.4,8.4,6.5,8.2,6.6,8c0.1-0.2,0.6-0.4,0.6-0.4l1.1-0.4c0.1-0.1,0.8-0.9,1-1.4l0.1-0.2l0.8,1.6l0,0
				c0,0.1-0.1,0.5-0.2,0.7l0,0L9.3,8.4C9.3,8.5,8.9,9.1,8.8,9.8c-0.1,0.7,0.1,1.4,0.1,1.4L9,11.4z M7.4,11.1l1.3,0.1
				C8.6,11,8.5,10.4,8.6,9.8C8.7,9,9.2,8.3,9.2,8.3l0,0l0.5-0.4c0.1-0.1,0.2-0.4,0.2-0.6L9.3,6.1C9,6.6,8.4,7.3,8.4,7.4l0,0L7.2,7.8
				c-0.1,0-0.4,0.2-0.5,0.3C6.7,8.2,6.6,8.4,6.7,8.5c0,0,0,0,0.1,0c0.2,0,0.4,0.1,0.5,0.1c0,0,0.2,0.2,0.2,0.7
				C7.4,9.8,7.4,10.8,7.4,11.1z"/>
		</g>
		<g>
			<path class="st4" d="M9.2,11.8l0.1,0.6c0,0,0.4,0.7,1,1.3s1.3,0.6,1.3,0.6l-0.9,1.3c0,0-1.2-0.6-1.6-0.9
				c-0.5-0.3-0.7-0.2-0.7-0.2s-0.2,0.1-0.3,0.3c-0.1,0.2-0.4,0-0.5-0.2c-0.1-0.2-0.1-0.7-0.1-0.7l0.3-1.2c0,0-0.4-1.1-0.7-1.6
				l1.5,0.1C8.8,11.3,9.2,11.6,9.2,11.8z"/>
			<path class="st5" d="M10.9,15.8L10.9,15.8c-0.1,0-1.3-0.7-1.7-0.9c-0.4-0.2-0.5-0.2-0.6-0.2c-0.1,0-0.2,0.2-0.3,0.2
				c0,0.1-0.1,0.1-0.2,0.1c0,0,0,0,0,0c-0.2,0-0.3-0.2-0.5-0.3c-0.1-0.2-0.1-0.7-0.1-0.7l0.3-1.1c-0.1-0.2-0.4-1.1-0.7-1.6l-0.1-0.2
				l1.7,0.1l0,0c0,0,0,0,0,0c0.2,0.2,0.4,0.4,0.5,0.6l0,0l0.1,0.6c0.1,0.1,0.4,0.8,1,1.2c0.6,0.5,1.3,0.6,1.3,0.6l0.1,0L10.9,15.8z
				 M8.6,14.4c0.1,0,0.3,0,0.7,0.2c0.4,0.2,1.3,0.7,1.6,0.9l0.7-1.1c-0.2-0.1-0.8-0.2-1.2-0.6c-0.6-0.5-1-1.3-1.1-1.3l0,0l-0.1-0.6
				c-0.1-0.2-0.3-0.4-0.4-0.5c0,0,0,0,0,0l-1.3-0.1C7.7,11.8,8,12.7,8,12.7l0,0l-0.3,1.2c0,0.2,0,0.5,0.1,0.6
				c0.1,0.1,0.2,0.2,0.3,0.2c0,0,0,0,0,0C8.3,14.6,8.5,14.5,8.6,14.4L8.6,14.4C8.5,14.4,8.5,14.4,8.6,14.4z"/>
		</g>
		<g>
			<path class="st4" d="M16.6,8.8l-0.1-0.6c0,0-0.4-0.7-1-1.3c-0.6-0.5-1.3-0.6-1.3-0.6L15,5c0,0,1.2,0.6,1.6,0.9
				c0.5,0.3,0.7,0.2,0.7,0.2s0.2-0.1,0.3-0.3c0.1-0.2,0.4,0,0.5,0.2c0.1,0.2,0.1,0.7,0.1,0.7l-0.3,1.2c0,0,0.4,1.1,0.7,1.6L17,9.4
				C17,9.4,16.6,9,16.6,8.8z"/>
			<path class="st5" d="M18.7,9.6L17,9.4l0,0c-0.1,0-0.5-0.4-0.6-0.6l0,0l-0.1-0.6c-0.1-0.1-0.4-0.8-1-1.2c-0.6-0.5-1.3-0.6-1.3-0.6
				l-0.1,0l1-1.5l0.1,0c0,0,1.2,0.6,1.6,0.9C17,6,17.2,6,17.2,6c0.1,0,0.2-0.2,0.3-0.2c0-0.1,0.1-0.1,0.2-0.1c0.2,0,0.4,0.1,0.5,0.3
				c0.1,0.2,0.1,0.7,0.1,0.7L18,7.9C18,8,18.4,9,18.6,9.4L18.7,9.6z M17.1,9.3l1.3,0.1c-0.3-0.5-0.6-1.4-0.6-1.5l0,0l0.3-1.2
				c0-0.2,0-0.5-0.1-0.6c-0.1-0.1-0.2-0.2-0.3-0.2c0,0,0,0,0,0c-0.1,0.1-0.3,0.3-0.3,0.3l0,0c0,0-0.2,0-0.7-0.2
				c-0.4-0.2-1.3-0.7-1.6-0.9l-0.7,1.1c0.2,0.1,0.8,0.2,1.2,0.6c0.6,0.5,1,1.3,1.1,1.3l0,0l0.1,0.6C16.7,8.9,17,9.2,17.1,9.3z"/>
		</g>
	</g>
	<g>
		<g>
			<path class="st2" d="M10.9,8.5l0.5-0.4l-0.1-0.5c0.6-0.4,1.4-0.5,2.1-0.4l0.1,0.5l0.6,0.2l0.4-0.3C14.7,7.8,15,8,15.3,8.2
				c0.3,0.3,0.4,0.6,0.6,0.9l-0.4,0.3l0.1,0.6l0.5,0.1c0,0.7-0.2,1.4-0.7,2l-0.5-0.1l-0.5,0.4l0.1,0.5c-0.6,0.4-1.4,0.5-2.1,0.4
				l-0.1-0.5l-0.6-0.2L11.4,13c-0.3-0.2-0.6-0.4-0.9-0.7c-0.3-0.3-0.4-0.6-0.6-0.9l0.4-0.3l-0.1-0.6l-0.5-0.1c0-0.7,0.2-1.4,0.7-2
				L10.9,8.5z"/>
		</g>
	</g>
	<g>
		<g>
			<path class="st4" d="M13,10.2l0-0.2l1.4-2.5c0,0,0.1,0,0.1,0L13,10.2L13,10.2z"/>
			<path class="st4" d="M12.9,10.4l0,0.2l-1.4,2.5c0,0-0.1,0-0.1,0L12.9,10.4L12.9,10.4z"/>
			<path class="st4" d="M13,10.4l0.1,0.1l1.4,2.5c0,0-0.1,0-0.1,0L13,10.4L13,10.4z"/>
			<path class="st4" d="M12.9,10.2l-0.1-0.1l-1.4-2.5c0,0,0.1,0,0.1,0L12.9,10.2L12.9,10.2z"/>
			<path class="st4" d="M13,10.4l0.2-0.1l2.9,0c0,0,0,0.1,0,0.1H13L13,10.4z"/>
			<path class="st4" d="M12.7,10.3L12.7,10.3l-0.1,0.1l-2.9,0c0,0,0-0.1,0-0.1L12.7,10.3z"/>
			<path class="st4" d="M12.9,10.2L12.9,10.2l0.4-3c0,0,0.1,0,0.1,0L13,10L12.9,10.2z"/>
			<path class="st4" d="M12.9,10.4L12.9,10.4l-0.4,3c0,0-0.1,0-0.1,0l0.4-2.8L12.9,10.4z"/>
			<polygon class="st4" points="12.9,10.4 12.8,10.6 12.9,10.4 12.9,10.4 			"/>
			<polygon class="st4" points="12.9,10.2 13,10 13,10.2 12.9,10.3 			"/>
			<polygon class="st4" points="12.9,10.2 12.9,10.2 12.9,10.2 12.9,10.2 			"/>
			<polygon class="st4" points="13,10.4 12.9,10.5 12.9,10.4 12.9,10.4 			"/>
			<polygon class="st4" points="12.9,10.3 12.9,10.2 12.9,10.2 			"/>
			<polygon class="st4" points="12.9,10.4 12.9,10.4 12.9,10.4 			"/>
			<path class="st4" d="M12.8,10.3L12.8,10.3l-2.4-1.9c0,0,0,0,0.1-0.1l2.2,1.8L12.8,10.3z"/>
			<path class="st4" d="M13,10.4L13,10.4l2.4,1.9c0,0,0,0-0.1,0.1l-2.2-1.8L13,10.4z"/>
			<polygon class="st4" points="12.8,10.3 12.7,10.1 12.9,10.2 12.9,10.3 			"/>
			<polygon class="st4" points="13,10.4 13.1,10.6 13,10.4 13,10.4 			"/>
			<polygon class="st4" points="13,10.4 13,10.4 13,10.4 			"/>
			<polygon class="st4" points="12.8,10.3 12.8,10.3 12.7,10.3 12.8,10.3 			"/>
			<polygon class="st4" points="12.9,10.3 12.8,10.3 12.8,10.3 			"/>
			<polygon class="st4" points="13,10.4 13,10.4 13,10.4 13,10.4 			"/>
			<polygon class="st4" points="12.9,10.4 13,10.4 13,10.4 12.9,10.4 			"/>
			<polygon class="st4" points="12.9,10.3 12.9,10.3 12.9,10.2 12.9,10.2 			"/>
			<polygon class="st4" points="12.9,10.4 12.9,10.4 12.9,10.4 			"/>
			<polygon class="st4" points="12.9,10.3 12.9,10.2 12.9,10.3 			"/>
			<polygon class="st4" points="13,10.4 13,10.4 12.9,10.4 12.9,10.4 			"/>
			<polygon class="st4" points="12.9,10.3 12.9,10.3 12.9,10.3 			"/>
			<polygon class="st4" points="12.9,10.4 12.9,10.4 12.9,10.4 			"/>
			<polygon class="st4" points="12.9,10.3 12.9,10.3 12.9,10.3 			"/>
			<path class="st4" d="M13,10.3L13,10.3l2.9-1.1c0,0,0,0.1,0,0.1l-2.7,1H13z"/>
			<path class="st4" d="M12.8,10.4L12.8,10.4L10,11.5c0,0,0-0.1,0-0.1l2.7-1H12.8z"/>
			<polygon class="st4" points="12.9,10.4 12.8,10.4 12.8,10.4 12.9,10.4 			"/>
			<polygon class="st4" points="13,10.2 13,10.2 13,10.3 13,10.3 			"/>
			<polygon class="st4" points="13,10.3 13.2,10.3 13,10.4 13,10.3 			"/>
			<polygon class="st4" points="12.8,10.4 12.6,10.4 12.8,10.3 12.9,10.4 			"/>
			<polygon class="st4" points="13,10.3 13,10.3 13,10.3 			"/>
			<polygon class="st4" points="12.9,10.4 12.9,10.4 12.8,10.4 			"/>
			<polygon class="st4" points="12.9,10.4 12.9,10.4 12.9,10.4 12.9,10.4 			"/>
			<polygon class="st4" points="12.9,10.3 12.9,10.3 13,10.2 13,10.3 			"/>
			<polygon class="st4" points="12.9,10.3 12.9,10.3 12.9,10.3 			"/>
			<polygon class="st4" points="12.9,10.4 12.9,10.4 12.9,10.4 			"/>
			<polygon class="st4" points="12.9,10.3 13,10.3 13,10.3 13,10.3 			"/>
			<polygon class="st4" points="12.9,10.4 12.9,10.4 12.9,10.4 12.9,10.4 			"/>
			<polygon class="st4" points="12.9,10.3 12.9,10.3 13,10.3 			"/>
			<polygon class="st4" points="12.9,10.4 12.9,10.4 12.9,10.4 			"/>
			<polygon class="st4" points="13,10.3 13,10.3 13,10.4 13,10.4 			"/>
			<polygon class="st4" points="12.9,10.3 12.9,10.4 12.8,10.3 12.8,10.3 			"/>
			<polygon class="st4" points="12.9,10.4 12.9,10.4 12.9,10.3 			"/>
			<polygon class="st4" points="13,10.3 13,10.3 13,10.3 			"/>
			<polygon class="st4" points="12.9,10.3 12.9,10.3 12.8,10.3 12.9,10.3 			"/>
			<polygon class="st4" points="13,10.3 13,10.4 13,10.4 13,10.4 			"/>
			<polygon class="st4" points="13,10.3 13,10.3 13,10.4 			"/>
			<polygon class="st4" points="12.9,10.4 12.9,10.3 12.9,10.3 			"/>
			<polygon class="st4" points="12.9,10.3 12.9,10.3 12.9,10.3 			"/>
			<polygon class="st4" points="12.9,10.4 12.9,10.4 12.9,10.4 			"/>
			<polygon class="st4" points="13,10.3 13,10.3 13,10.3 			"/>
			<path class="st4" d="M12.9,10.4L12.9,10.4L12.9,10.4z"/>
			<polygon class="st4" points="13,10.4 13,10.4 12.9,10.4 			"/>
			<polygon class="st4" points="12.9,10.3 12.9,10.3 12.9,10.3 			"/>
			<polygon class="st4" points="12.9,10.3 12.9,10.3 13,10.3 13,10.3 13,10.4 12.9,10.4 12.9,10.4 12.9,10.4 12.9,10.4 12.9,10.4 
				12.9,10.3 12.9,10.3 			"/>
		</g>
	</g>
	<g>
		<path class="st4" d="M9.9,11.5L9.9,11.5l0.3-0.4l-0.1-0.5l-0.5-0.2v-0.1c0-0.7,0.3-1.5,0.7-2.1l0,0l0.5,0.2l0.4-0.3l-0.1-0.5l0,0
			c0.6-0.4,1.4-0.5,2.2-0.4h0.1l0.1,0.5L14,7.8l0.4-0.3l0,0c0.3,0.2,0.6,0.4,0.9,0.7c0.2,0.3,0.4,0.6,0.6,1l0,0.1l-0.4,0.3l0.1,0.5
			l0.5,0.2v0.1c0,0.7-0.3,1.5-0.7,2.1l0,0l-0.5-0.2l-0.4,0.3l0.1,0.5l0,0c-0.6,0.4-1.4,0.5-2.2,0.4h-0.1l-0.1-0.5l-0.5-0.2l-0.4,0.3
			l0,0c-0.3-0.2-0.6-0.4-0.9-0.7C10.2,12.2,10,11.8,9.9,11.5z M11.7,12.7l0.7,0.2l0.1,0.5c0.7,0.1,1.3,0,1.9-0.4l-0.1-0.5l0.6-0.5
			l0.4,0.1c0.4-0.5,0.6-1.2,0.6-1.9l-0.4-0.1l-0.1-0.7l0.4-0.3c-0.1-0.3-0.3-0.6-0.5-0.9C15,8,14.7,7.8,14.4,7.6L14.1,8l-0.7-0.2
			l-0.1-0.5c-0.7-0.1-1.3,0-1.9,0.4l0.1,0.5l-0.6,0.5l-0.4-0.1C10.1,9,9.8,9.7,9.8,10.3l0.4,0.1l0.1,0.7l-0.4,0.3
			c0.1,0.3,0.3,0.6,0.5,0.9c0.2,0.3,0.5,0.5,0.7,0.6L11.7,12.7z"/>
	</g>
	<circle cx="12.9" cy="10.3" r="1"/>
	<g>
		<path class="st4" d="M12.3,9.6c0.4-0.4,1.1-0.3,1.4,0.1c0.4,0.4,0.3,1.1-0.1,1.4c-0.4,0.4-1.1,0.3-1.4-0.1
			C11.8,10.6,11.8,9.9,12.3,9.6z M12.3,9.7c-0.4,0.3-0.4,0.9-0.1,1.3c0.3,0.4,0.9,0.4,1.3,0.1c0.4-0.3,0.4-0.9,0.1-1.3
			C13.3,9.4,12.7,9.3,12.3,9.7z"/>
	</g>
</g>
<g>
	<g>
		<path class="st5" d="M12.1,2.6L12.1,2.6c-0.2,0-0.3,0.1-0.3,0.3v0.2c0,0.1,0.1,0.3,0.3,0.3h0.1c0.1,0,0.3-0.1,0.3-0.3V2.8
			C12.3,2.7,12.2,2.6,12.1,2.6z"/>
		<path class="st5" d="M12.1,3.5L12.1,3.5c-0.3,0-0.5-0.2-0.5-0.4V2.9c0-0.2,0.2-0.4,0.4-0.4h0.1c0.2,0,0.4,0.1,0.4,0.4l0,0v0.3
			C12.5,3.3,12.3,3.5,12.1,3.5z M12,2.8C12,2.8,11.9,2.8,12,2.8l-0.1,0.3c0,0,0,0.1,0.1,0.1h0.1c0,0,0.1,0,0.1-0.1V2.8
			C12.1,2.8,12.1,2.8,12,2.8L12,2.8z"/>
	</g>
	<g>
		<rect x="9.6" y="4.5" class="st6" width="5.1" height="4.2"/>
		<path class="st5" d="M14.9,8.8H9.4V4.3h5.4V8.8z M9.8,8.5h4.7V4.7H9.8V8.5z"/>
	</g>
	<g>
		<path class="st7" d="M12.9,2.9H12h-1c-1,0-1.5,0.4-1.5,1.2v0.4h5.1V4C14.6,3.4,14.2,2.9,12.9,2.9z"/>
		<path class="st5" d="M14.8,4.7H9.4V4c0-0.5,0.2-1.3,1.7-1.3h1.9c1.6,0,1.9,0.8,1.9,1.3V4.7z M9.8,4.3h4.7V4c0-0.6-0.5-1-1.5-1
			h-1.9c-0.9,0-1.3,0.3-1.3,1V4.3z"/>
	</g>
</g>
<g>
	<circle class="st0" cx="30.6" cy="10.5" r="4.7"/>
	<circle class="st0" cx="30.6" cy="10.5" r="3.8"/>
	<path class="st1" d="M36.8,8.1c0,0,0.3,1.4,0.1,2.6c-0.2,1.2-0.5,1.6-0.5,1.6l-1.7,0.1l0.5-4.1L36.8,8.1z"/>
	
		<ellipse transform="matrix(0.9995 -3.146373e-02 3.146373e-02 0.9995 -0.369 1.1232)" class="st1" cx="35.5" cy="12.3" rx="0.9" ry="0.6"/>
	<path class="st1" d="M24.4,13.1c0,0-0.3-1.4-0.1-2.6c0.2-1.2,0.5-1.6,0.5-1.6l1.7-0.1L26,12.8L24.4,13.1z"/>
	
		<ellipse transform="matrix(0.9995 -3.146373e-02 3.146373e-02 0.9995 -0.2652 0.813)" class="st1" cx="25.7" cy="8.8" rx="0.9" ry="0.6"/>
	<path class="st1" d="M25.3,6.4c0,0,1.1-1,2.2-1.3c1.1-0.4,1.7-0.4,1.7-0.4l1,1.4l-3.8,1.6L25.3,6.4z"/>
	<ellipse transform="matrix(0.8499 -0.527 0.527 0.8499 9.898949e-02 14.6628)" class="st2" cx="25.8" cy="7.2" rx="0.6" ry="0.9"/>
	<ellipse transform="matrix(0.8499 -0.527 0.527 0.8499 1.5914 16.4293)" class="st1" cx="29.6" cy="5.4" rx="0.6" ry="0.9"/>
	<path class="st3" d="M25.1,8.1c0,0-0.5-0.4-0.4-0.6c0.1-0.1,0.5-0.4,0.6-0.4c0.1,0,0.1,0,0.2,0c0.1,0.1,0.4,0.2,0.4,0.2
		C26.1,7.6,26.2,8,26.2,8l-0.4,1.2L25.1,8.1z"/>
	<path class="st1" d="M35.9,14.7c0,0-1.1,1-2.2,1.3c-1.1,0.4-1.7,0.4-1.7,0.4L31,15l3.8-1.6L35.9,14.7z"/>
	<ellipse transform="matrix(0.8499 -0.527 0.527 0.8499 -2.0382 20.7697)" class="st2" cx="35.4" cy="14" rx="0.6" ry="0.9"/>
	<ellipse transform="matrix(0.8499 -0.527 0.527 0.8499 -3.5169 18.9882)" class="st1" cx="31.6" cy="15.7" rx="0.6" ry="0.9"/>
	<path class="st3" d="M36,13c0,0,0.5,0.4,0.4,0.6c-0.1,0.1-0.5,0.4-0.6,0.4c-0.1,0-0.1,0-0.2,0c-0.1-0.1-0.4-0.2-0.4-0.2
		C35,13.5,35,13.1,35,13.1l0.4-1.2L36,13z"/>
	<path class="st1" d="M31.6,3.9c0,0,1.4,0.5,2.3,1.2C34.7,5.9,35,6.4,35,6.4L34.2,8l-3.3-2.5L31.6,3.9z"/>
	<ellipse transform="matrix(0.4725 -0.8813 0.8813 0.4725 12.2991 29.9096)" class="st2" cx="31.1" cy="4.7" rx="0.9" ry="0.6"/>
	<ellipse transform="matrix(0.4725 -0.8813 0.8813 0.4725 11.9002 34.2316)" class="st1" cx="34.5" cy="7.2" rx="0.9" ry="0.6"/>
	<path class="st3" d="M30,4.6c0,0,0.1-0.7,0.3-0.7c0.1,0.1,0.6,0.2,0.6,0.3c0,0,0.1,0.1,0,0.2c0,0.1,0,0.4,0,0.4
		c-0.1,0.4-0.4,0.6-0.4,0.6l-1.2,0.2L30,4.6z"/>
	<path class="st1" d="M29.6,17.2c0,0-1.4-0.5-2.3-1.2c-0.9-0.7-1.2-1.3-1.2-1.3l0.8-1.6l3.3,2.5L29.6,17.2z"/>
	<ellipse transform="matrix(0.4725 -0.8813 0.8813 0.4725 1.3833 35.177)" class="st2" cx="30.1" cy="16.4" rx="0.9" ry="0.6"/>
	<ellipse transform="matrix(0.4725 -0.8813 0.8813 0.4725 1.7822 30.8549)" class="st1" cx="26.7" cy="13.9" rx="0.9" ry="0.6"/>
	<path class="st3" d="M31.2,16.5c0,0-0.1,0.7-0.3,0.7c-0.1-0.1-0.6-0.2-0.6-0.3c0,0-0.1-0.1,0-0.2c0-0.1,0-0.4,0-0.4
		c0.1-0.4,0.4-0.6,0.4-0.6l1.2-0.2L31.2,16.5z"/>
	
		<ellipse transform="matrix(0.9995 -3.146373e-02 3.146373e-02 0.9995 -0.2356 1.1351)" class="st2" cx="35.9" cy="8.1" rx="0.9" ry="0.6"/>
	<path class="st3" d="M35.5,7.1c0,0,0.6-0.3,0.8-0.1c0,0.2,0.1,0.6,0,0.7c0,0.1,0,0.1-0.1,0.1c-0.1,0-0.4,0.3-0.4,0.3
		c-0.4,0.1-0.7-0.1-0.7-0.1l-0.8-1L35.5,7.1z"/>
	
		<ellipse transform="matrix(0.9995 -3.146373e-02 3.146373e-02 0.9995 -0.3975 0.7999)" class="st2" cx="25.2" cy="13" rx="0.9" ry="0.6"/>
	<path class="st3" d="M25.7,14c0,0-0.6,0.3-0.8,0.1c0-0.2-0.1-0.6,0-0.7c0-0.1,0-0.1,0.1-0.1c0.1,0,0.4-0.3,0.4-0.3
		c0.4-0.1,0.7,0.1,0.7,0.1l0.8,1L25.7,14z"/>
	<g>
		<g>
			<path class="st4" d="M29,6.9l0.5-0.4c0,0,0.8-0.3,1.6-0.2c0.8,0.1,1.4,0.5,1.4,0.5l0.3-1.5c0,0-1.3-0.4-1.8-0.5
				c-0.5-0.1-0.6-0.3-0.6-0.3s-0.1-0.3,0-0.4c0.1-0.2-0.3-0.3-0.5-0.2c-0.2,0.1-0.5,0.4-0.5,0.4l-0.6,1c0,0-1.1,0.5-1.6,0.6l1.2,1
				C28.3,7,28.9,7,29,6.9z"/>
			<path class="st5" d="M28.5,7.1c-0.1,0-0.1,0-0.1,0l0,0c0,0-0.1,0-0.1,0l-0.1,0l0,0L27,5.9l0.2,0c0.5-0.1,1.4-0.5,1.6-0.6l0.6-1
				c0-0.1,0.3-0.4,0.6-0.5c0.2,0,0.4,0,0.6,0.1c0.1,0.1,0.1,0.1,0,0.2c0,0.1,0,0.3,0,0.3c0,0,0.2,0.1,0.6,0.3
				c0.5,0.1,1.8,0.5,1.8,0.5l0.1,0l-0.3,1.7l-0.1-0.1c0,0-0.6-0.4-1.4-0.5c-0.7-0.1-1.4,0.1-1.5,0.2L29.1,7C29,7,28.7,7.1,28.5,7.1z
				 M28.4,6.9c0.1,0,0.5,0,0.6-0.1l0.5-0.4c0,0,0.8-0.3,1.6-0.2c0.6,0.1,1.1,0.3,1.3,0.4l0.3-1.3c-0.3-0.1-1.3-0.4-1.7-0.5
				c-0.5-0.2-0.7-0.3-0.7-0.3l0,0c0,0-0.1-0.3,0-0.5c0,0,0-0.1,0-0.1c0-0.1-0.2-0.1-0.4,0c-0.1,0.1-0.4,0.3-0.5,0.4l-0.6,1.1l0,0
				c0,0-0.9,0.4-1.5,0.6L28.4,6.9z"/>
		</g>
		<g>
			<path class="st4" d="M32.2,14.2l-0.5,0.4c0,0-0.8,0.3-1.6,0.2c-0.8-0.1-1.4-0.5-1.4-0.5l-0.3,1.5c0,0,1.3,0.4,1.8,0.5
				c0.5,0.1,0.6,0.3,0.6,0.3s0.1,0.3,0,0.4c-0.1,0.2,0.3,0.3,0.5,0.2c0.2-0.1,0.5-0.4,0.5-0.4l0.6-1c0,0,1.1-0.5,1.6-0.6l-1.2-1
				C32.9,14.1,32.3,14.1,32.2,14.2z"/>
			<path class="st5" d="M31.1,17.3c-0.1,0-0.3,0-0.4-0.1c-0.1-0.1-0.1-0.1,0-0.2c0-0.1,0-0.3,0-0.3c0,0-0.2-0.1-0.6-0.3
				c-0.5-0.1-1.8-0.5-1.8-0.5l-0.1,0l0.3-1.7l0.1,0.1c0,0,0.6,0.4,1.4,0.5c0.7,0.1,1.4-0.1,1.5-0.2l0.5-0.4c0.1,0,0.3-0.1,0.5-0.1
				l0,0h0.3l0,0.1l1.3,1.1l-0.2,0c-0.5,0.1-1.4,0.5-1.6,0.6l-0.6,1c0,0.1-0.3,0.4-0.6,0.5C31.2,17.3,31.2,17.3,31.1,17.3z
				 M28.4,15.7c0.3,0.1,1.3,0.4,1.7,0.5c0.5,0.2,0.7,0.3,0.7,0.3l0,0c0,0,0.1,0.3,0,0.5c0,0,0,0.1,0,0.1c0,0.1,0.2,0.1,0.4,0
				c0.1-0.1,0.4-0.3,0.5-0.4l0.6-1.1l0,0c0,0,0.9-0.4,1.5-0.6l-1-0.9c-0.2,0-0.5,0-0.6,0.1l-0.5,0.4c0,0-0.8,0.3-1.6,0.2
				c-0.6-0.1-1.1-0.3-1.3-0.4L28.4,15.7z"/>
		</g>
		<g>
			<path class="st4" d="M28.2,13.7l-0.6-0.2c0,0-0.6-0.6-1-1.3c-0.3-0.7-0.3-1.4-0.3-1.4L25,11.2c0,0,0.3,1.3,0.4,1.8
				c0.1,0.5,0,0.7,0,0.7S25.3,14,25.1,14c-0.2,0-0.1,0.4,0.1,0.5c0.1,0.2,0.6,0.2,0.6,0.2H27c0,0,1,0.7,1.4,1.1l0.3-1.5
				C28.6,14.3,28.4,13.8,28.2,13.7z"/>
			<path class="st5" d="M28.4,16l-0.1-0.1c-0.3-0.4-1.2-0.9-1.3-1h-1.2c-0.1,0-0.5,0-0.7-0.3c-0.1-0.1-0.3-0.3-0.2-0.5
				c0-0.1,0.1-0.2,0.2-0.2c0.1,0,0.2-0.1,0.3-0.2c0,0,0.1-0.2,0-0.6c-0.1-0.5-0.4-1.8-0.4-1.8l0-0.1l1.7-0.6l0,0.1
				c0,0-0.1,0.7,0.3,1.4c0.3,0.6,0.8,1.2,0.9,1.3l0.6,0.2c0.2,0.2,0.4,0.6,0.4,0.6l0,0L28.4,16z M27,14.6L27,14.6L27,14.6
				c0.1,0,0.9,0.6,1.3,1l0.2-1.3c-0.1-0.1-0.2-0.4-0.4-0.5l-0.6-0.2c0,0-0.6-0.6-1-1.3c-0.3-0.6-0.3-1.1-0.3-1.4l-1.2,0.4
				c0.1,0.3,0.3,1.3,0.4,1.7c0.2,0.5,0,0.8,0,0.8c0,0-0.2,0.2-0.4,0.3c0,0,0,0-0.1,0c0,0.1,0,0.2,0.2,0.3c0.1,0.1,0.4,0.2,0.6,0.2
				L27,14.6z"/>
		</g>
		<g>
			<path class="st4" d="M34.2,6.4c0,0-1-0.7-1.4-1.1l-0.3,1.5c0,0,0.2,0.4,0.4,0.6l0.6,0.2c0,0,0.6,0.6,1,1.3
				c0.3,0.7,0.3,1.4,0.3,1.4l1.4-0.5c0,0-0.3-1.3-0.4-1.8c-0.1-0.5,0-0.7,0-0.7s0.2-0.2,0.3-0.2c0.2,0,0.1-0.4-0.1-0.5
				c-0.1-0.2-0.6-0.2-0.6-0.2L34.2,6.4z"/>
			<path class="st5" d="M34.7,10.5l0-0.1c0,0,0.1-0.7-0.3-1.4c-0.3-0.6-0.8-1.2-0.9-1.3l-0.6-0.2c-0.2-0.1-0.4-0.6-0.5-0.6l0,0
				l0.3-1.7l0.1,0.1c0.3,0.4,1.2,0.9,1.3,1l1.2,0c0.1,0,0.5,0,0.7,0.3c0.1,0.1,0.3,0.3,0.2,0.5c0,0.1-0.1,0.2-0.2,0.2
				c-0.1,0-0.2,0.1-0.3,0.2c0,0-0.1,0.2,0,0.6c0.1,0.5,0.4,1.8,0.4,1.8l0,0.1L34.7,10.5z M32.7,6.8C32.8,7,32.9,7.2,33,7.3l0.6,0.2
				c0,0,0.6,0.6,1,1.3c0.3,0.6,0.3,1.1,0.3,1.4l1.2-0.4c-0.1-0.3-0.3-1.3-0.4-1.7c-0.2-0.5,0-0.8,0-0.8c0,0,0.2-0.2,0.4-0.3
				c0,0,0,0,0.1,0c0-0.1,0-0.2-0.2-0.3c-0.1-0.1-0.4-0.2-0.6-0.2l-1.2,0l0,0c0,0-0.8-0.6-1.3-1L32.7,6.8z"/>
		</g>
		<g>
			<path class="st4" d="M34.5,11l0.1,0.6c0,0-0.2,0.8-0.6,1.5c-0.4,0.7-1.1,1-1.1,1l1.2,1c0,0,1-0.9,1.3-1.3s0.6-0.4,0.6-0.4
				s0.3,0.1,0.4,0.2c0.1,0.1,0.4-0.1,0.4-0.3c0.1-0.2-0.1-0.7-0.1-0.7l-0.6-1c0,0,0.1-1.2,0.3-1.7l-1.4,0.5
				C34.8,10.4,34.5,10.8,34.5,11z"/>
			<path class="st5" d="M34.1,15.2l-1.4-1.2l0.1-0.1c0,0,0.6-0.3,1.1-0.9c0.4-0.6,0.6-1.3,0.6-1.4L34.4,11c0-0.2,0.3-0.7,0.5-0.7
				l1.6-0.6l-0.1,0.2c-0.2,0.5-0.2,1.5-0.3,1.7l0.6,1c0,0.1,0.2,0.5,0.1,0.7c-0.1,0.2-0.2,0.4-0.4,0.4c-0.1,0-0.2,0-0.2-0.1
				c-0.1-0.1-0.2-0.1-0.3-0.2c0,0-0.2,0.1-0.5,0.3C35.1,14.2,34.2,15.2,34.1,15.2L34.1,15.2z M33.1,14.1l1,0.9
				c0.2-0.2,1-0.9,1.3-1.2c0.4-0.4,0.6-0.4,0.7-0.4l0,0c0,0,0.3,0.1,0.4,0.2c0,0,0,0,0.1,0c0.1,0,0.2-0.1,0.2-0.3
				c0-0.1,0-0.4-0.1-0.6L36,11.6l0,0c0,0,0.1-1,0.2-1.6l-1.3,0.5c-0.1,0-0.3,0.4-0.3,0.5l0.1,0.6l0,0c0,0-0.2,0.8-0.6,1.5
				C33.8,13.7,33.3,14,33.1,14.1z"/>
		</g>
		<g>
			<path class="st4" d="M26.7,10.1l-0.1-0.6c0,0,0.2-0.8,0.6-1.5s1.1-1,1.1-1l-1.2-1c0,0-1,0.9-1.3,1.3c-0.4,0.4-0.6,0.4-0.6,0.4
				s-0.3-0.1-0.4-0.2c-0.1-0.1-0.4,0.1-0.4,0.3c-0.1,0.2,0.1,0.7,0.1,0.7l0.6,1c0,0-0.1,1.2-0.3,1.7l1.4-0.5
				C26.4,10.7,26.7,10.3,26.7,10.1z"/>
			<path class="st5" d="M24.7,11.4l0.1-0.2c0.2-0.5,0.2-1.5,0.3-1.7l-0.6-1c0-0.1-0.2-0.5-0.1-0.7c0.1-0.2,0.2-0.4,0.4-0.4
				c0.1,0,0.2,0,0.2,0.1c0.1,0.1,0.2,0.1,0.3,0.2c0,0,0.2-0.1,0.5-0.3C26.1,6.9,27,6,27,5.9l0.1-0.1L28.5,7l-0.1,0.1
				c0,0-0.6,0.3-1.1,0.9c-0.4,0.6-0.6,1.3-0.6,1.4l0.1,0.6c0,0.2-0.3,0.7-0.5,0.7L24.7,11.4z M24.7,7.5C24.7,7.5,24.7,7.5,24.7,7.5
				c-0.1,0-0.2,0.1-0.2,0.3c0,0.1,0,0.4,0.1,0.6l0.6,1.1l0,0c0,0-0.1,1-0.2,1.6l1.3-0.5c0.1,0,0.3-0.4,0.3-0.5l-0.1-0.6l0,0
				c0,0,0.2-0.8,0.6-1.5c0.3-0.5,0.8-0.8,1-0.9l-1-0.9c-0.2,0.2-1,0.9-1.3,1.2c-0.4,0.4-0.6,0.4-0.7,0.4l0,0
				C25.1,7.8,24.9,7.7,24.7,7.5C24.7,7.5,24.7,7.5,24.7,7.5z"/>
		</g>
	</g>
	<g>
		<g>
			<path class="st2" d="M32,8.3L31.5,8l0-0.5c-0.7-0.2-1.5-0.1-2.1,0.2l0,0.5l-0.5,0.4l-0.4-0.2c-0.3,0.3-0.4,0.6-0.6,0.9
				c-0.1,0.3-0.3,0.7-0.3,1l0.4,0.2l0,0.6l-0.4,0.3c0.2,0.7,0.6,1.3,1.2,1.7l0.4-0.3l0.6,0.3l0,0.5c0.7,0.2,1.5,0.1,2.1-0.2l0-0.5
				l0.5-0.4l0.4,0.2c0.3-0.3,0.4-0.6,0.6-0.9c0.1-0.3,0.3-0.7,0.3-1l-0.4-0.2l0-0.6l0.4-0.3C33.5,9,33.1,8.4,32.4,8L32,8.3z"/>
		</g>
	</g>
	<g>
		<g>
			<path class="st4" d="M30.5,10.5l-0.1-0.2l-2-2c0,0,0,0-0.1,0.1L30.5,10.5L30.5,10.5z"/>
			<path class="st4" d="M30.7,10.6l0.1,0.2l2,2c0,0,0,0,0.1-0.1L30.7,10.6L30.7,10.6z"/>
			<path class="st4" d="M30.6,10.7l-0.1,0.2l-0.7,2.7c0,0,0.1,0,0.1,0L30.6,10.7L30.6,10.7z"/>
			<path class="st4" d="M30.6,10.4l0.1-0.2l0.7-2.7c0,0-0.1,0-0.1,0L30.6,10.4L30.6,10.4z"/>
			<path class="st4" d="M30.5,10.6h-0.2l-2.7,0.7c0,0,0,0.1,0,0.1L30.5,10.6L30.5,10.6z"/>
			<path class="st4" d="M30.7,10.5L30.7,10.5l0.2,0l2.7-0.7c0,0,0-0.1,0-0.1L30.7,10.5z"/>
			<path class="st4" d="M30.6,10.4L30.6,10.4l-1.3-2.7c0,0-0.1,0-0.1,0l1.2,2.6L30.6,10.4z"/>
			<path class="st4" d="M30.6,10.7L30.6,10.7l1.3,2.7c0,0,0.1,0,0.1,0l-1.2-2.6L30.6,10.7z"/>
			<polygon class="st4" points="30.6,10.7 30.8,10.8 30.7,10.6 30.6,10.6 			"/>
			<polygon class="st4" points="30.6,10.4 30.4,10.3 30.5,10.5 30.6,10.5 			"/>
			<polygon class="st4" points="30.6,10.4 30.6,10.4 30.6,10.4 30.6,10.5 			"/>
			<polygon class="st4" points="30.6,10.7 30.6,10.7 30.6,10.7 30.6,10.6 			"/>
			<polygon class="st4" points="30.6,10.5 30.6,10.5 30.6,10.4 			"/>
			<polygon class="st4" points="30.6,10.6 30.6,10.6 30.6,10.7 			"/>
			<path class="st4" d="M30.7,10.5L30.7,10.5L32.4,8c0,0-0.1,0-0.1-0.1l-1.6,2.3L30.7,10.5z"/>
			<path class="st4" d="M30.5,10.6L30.5,10.6l-1.7,2.5c0,0,0.1,0,0.1,0.1l1.6-2.3L30.5,10.6z"/>
			<polygon class="st4" points="30.7,10.5 30.7,10.3 30.6,10.4 30.6,10.5 			"/>
			<polygon class="st4" points="30.5,10.6 30.5,10.8 30.6,10.7 30.6,10.6 			"/>
			<polygon class="st4" points="30.5,10.6 30.5,10.7 30.5,10.6 30.5,10.6 			"/>
			<polygon class="st4" points="30.7,10.5 30.7,10.5 30.7,10.5 30.7,10.5 			"/>
			<polygon class="st4" points="30.6,10.5 30.7,10.5 30.7,10.5 			"/>
			<polygon class="st4" points="30.6,10.6 30.5,10.6 30.5,10.6 			"/>
			<polygon class="st4" points="30.6,10.6 30.6,10.6 30.6,10.7 			"/>
			<polygon class="st4" points="30.6,10.5 30.6,10.5 30.6,10.4 30.6,10.5 			"/>
			<polygon class="st4" points="30.6,10.6 30.6,10.6 30.6,10.6 			"/>
			<polygon class="st4" points="30.6,10.5 30.6,10.5 30.6,10.5 			"/>
			<polygon class="st4" points="30.6,10.6 30.6,10.6 30.6,10.6 			"/>
			<polygon class="st4" points="30.6,10.5 30.6,10.5 30.6,10.5 			"/>
			<polygon class="st4" points="30.6,10.6 30.6,10.6 30.6,10.6 			"/>
			<polygon class="st4" points="30.6,10.5 30.6,10.5 30.6,10.5 			"/>
			<path class="st4" d="M30.5,10.5L30.5,10.5l-3-0.3c0,0,0,0.1,0,0.1l2.8,0.3L30.5,10.5z"/>
			<path class="st4" d="M30.7,10.6L30.7,10.6l3,0.3c0,0,0-0.1,0-0.1l-2.8-0.3L30.7,10.6z"/>
			<polygon class="st4" points="30.7,10.6 30.8,10.6 30.7,10.6 30.7,10.6 			"/>
			<polygon class="st4" points="30.5,10.5 30.5,10.5 30.5,10.5 			"/>
			<polygon class="st4" points="30.5,10.5 30.3,10.6 30.5,10.6 30.5,10.5 			"/>
			<polygon class="st4" points="30.7,10.6 30.9,10.5 30.7,10.5 30.7,10.5 			"/>
			<polygon class="st4" points="30.5,10.5 30.5,10.5 30.5,10.5 			"/>
			<polygon class="st4" points="30.7,10.5 30.7,10.6 30.7,10.6 			"/>
			<polygon class="st4" points="30.6,10.6 30.6,10.6 30.7,10.6 30.7,10.6 			"/>
			<polygon class="st4" points="30.6,10.5 30.6,10.5 30.5,10.5 30.5,10.5 			"/>
			<polygon class="st4" points="30.6,10.5 30.6,10.5 30.6,10.5 			"/>
			<polygon class="st4" points="30.6,10.6 30.6,10.6 30.6,10.6 			"/>
			<polygon class="st4" points="30.6,10.5 30.5,10.5 30.5,10.5 30.6,10.5 			"/>
			<polygon class="st4" points="30.6,10.6 30.7,10.6 30.7,10.5 			"/>
			<polygon class="st4" points="30.6,10.5 30.6,10.5 30.6,10.5 			"/>
			<polygon class="st4" points="30.6,10.6 30.6,10.6 30.6,10.6 			"/>
			<polygon class="st4" points="30.5,10.6 30.5,10.5 30.5,10.6 30.5,10.6 			"/>
			<polygon class="st4" points="30.7,10.5 30.7,10.5 30.7,10.5 30.7,10.5 			"/>
			<polygon class="st4" points="30.7,10.5 30.7,10.5 30.7,10.5 30.6,10.5 			"/>
			<polygon class="st4" points="30.5,10.5 30.5,10.5 30.5,10.6 			"/>
			<polygon class="st4" points="30.6,10.5 30.7,10.5 30.7,10.5 			"/>
			<polygon class="st4" points="30.5,10.6 30.5,10.6 30.6,10.6 30.6,10.6 			"/>
			<polygon class="st4" points="30.5,10.5 30.5,10.6 30.6,10.6 			"/>
			<polygon class="st4" points="30.6,10.5 30.7,10.5 30.6,10.5 			"/>
			<polygon class="st4" points="30.6,10.5 30.6,10.5 30.6,10.5 			"/>
			<polygon class="st4" points="30.6,10.6 30.6,10.6 30.6,10.6 			"/>
			<polygon class="st4" points="30.6,10.5 30.5,10.5 30.5,10.5 			"/>
			<polygon class="st4" points="30.6,10.6 30.7,10.5 30.6,10.5 			"/>
			<polygon class="st4" points="30.6,10.6 30.6,10.6 30.6,10.6 			"/>
			<path class="st4" d="M30.6,10.5L30.6,10.5L30.6,10.5z"/>
			<polygon class="st4" points="30.6,10.5 30.6,10.5 30.6,10.5 30.5,10.5 30.6,10.6 30.6,10.6 30.6,10.6 30.6,10.6 30.6,10.6 
				30.6,10.5 30.6,10.5 30.6,10.5 			"/>
		</g>
	</g>
	<g>
		<path class="st4" d="M33.5,11.9c-0.1,0.3-0.4,0.6-0.6,0.9l0,0l-0.5-0.2L32,13l0,0.5l-0.1,0c-0.7,0.3-1.4,0.4-2.2,0.2h-0.1l0-0.5
			L29.2,13l-0.4,0.3l0,0c-0.6-0.4-1.1-1.1-1.3-1.8v-0.1l0.4-0.3l0-0.5l-0.5-0.2v-0.1c0-0.4,0.1-0.7,0.3-1.1c0.1-0.3,0.4-0.6,0.6-0.9
			l0,0l0.5,0.2l0.4-0.3l0-0.5l0.1,0c0.7-0.3,1.4-0.4,2.2-0.2h0.1l0,0.5L32,8.1l0.4-0.3l0,0c0.6,0.4,1.1,1.1,1.3,1.8v0.1L33.3,10
			l0,0.5l0.5,0.2v0.1C33.8,11.2,33.7,11.6,33.5,11.9z M32.8,12.7c0.2-0.2,0.4-0.5,0.6-0.8s0.2-0.6,0.3-1l-0.4-0.2l-0.1-0.7l0.4-0.3
			c-0.2-0.6-0.6-1.2-1.1-1.6L32,8.4l-0.7-0.3l0-0.5c-0.6-0.1-1.3-0.1-1.9,0.2l0,0.5l-0.6,0.4l-0.4-0.2c-0.2,0.2-0.4,0.5-0.6,0.8
			c-0.1,0.3-0.2,0.6-0.3,1l0.4,0.2l0.1,0.7l-0.4,0.3c0.2,0.6,0.6,1.2,1.1,1.6l0.4-0.3l0.7,0.3l0,0.5c0.6,0.1,1.3,0.1,1.9-0.2l0-0.5
			l0.6-0.4L32.8,12.7z"/>
	</g>
	<circle cx="30.6" cy="10.5" r="1"/>
	<g>
		<path class="st4" d="M31.5,11c-0.2,0.5-0.9,0.7-1.3,0.5c-0.5-0.2-0.7-0.9-0.5-1.3c0.2-0.5,0.9-0.7,1.3-0.5
			C31.5,9.9,31.8,10.5,31.5,11z M29.8,10.2c-0.2,0.4,0,1,0.4,1.2c0.4,0.2,1,0,1.2-0.4c0.2-0.4,0-1-0.4-1.2
			C30.5,9.5,30,9.7,29.8,10.2z"/>
	</g>
</g>
<g>
	<path class="st8" d="M7.9,14.3l0-3.9c0-1.3-4.2-1.6-3.3-2.4C5.4,7.3,11.1,6,12.2,6h19.3c2.3,0,4.2,1.9,4.2,4.2v2.6
		c0,0-0.6,0.7-2.5,1.6s-4,1.6-4,1.6L7.9,14.3L7.9,14.3z"/>
	<path class="st5" d="M29.2,16.2L29.2,16.2L7.7,14.4l0-4.1c0-0.6-1.1-1-2-1.3C5,8.7,4.4,8.5,4.4,8.2c0-0.1,0-0.3,0.2-0.4
		c0.8-0.7,6.6-1.9,7.6-1.9h19.3c2.4,0,4.4,2,4.4,4.4v2.6l0,0.1c0,0-0.6,0.7-2.6,1.6C31.4,15.5,29.3,16.2,29.2,16.2L29.2,16.2z
		 M8.1,14.1l21.1,1.7c0.3-0.1,2.2-0.7,3.9-1.5c1.6-0.8,2.2-1.3,2.4-1.5v-2.5c0-2.2-1.8-4-4-4H12.2c-1,0-6.7,1.3-7.4,1.8
		c-0.1,0-0.1,0.1-0.1,0.1c0,0.1,0.7,0.4,1.2,0.6c1,0.4,2.2,0.8,2.2,1.6L8.1,14.1z"/>
</g>
<g>
	<path class="st8" d="M1.4,16l0-3.9c0-2.3,1.9-4.2,4.2-4.2H25c2.3,0,4.2,1.9,4.2,4.2V16H1.4L1.4,16z"/>
	<path class="st5" d="M29.5,16.2H1.3l0-4.1c0-2.4,2-4.4,4.4-4.4H25c2.4,0,4.4,2,4.4,4.4V16.2z M1.6,15.8h27.4v-3.8c0-2.2-1.8-4-4-4
		H5.7c-2.2,0-4,1.8-4,4L1.6,15.8z"/>
</g>
<g>
	<path class="st9" d="M22.4,14.1h-3.9c-0.5,0-1-0.3-1.2-0.7l-1-2.4c-0.1-0.4,0.1-0.7,0.6-0.7h3.9c0.5,0,1,0.3,1.2,0.7l1,2.4
		C23.2,13.8,22.9,14.1,22.4,14.1z"/>
	<path class="st5" d="M22.4,14.2h-3.9c-0.6,0-1.1-0.3-1.3-0.7l-1-2.4c-0.1-0.2-0.1-0.4,0-0.5c0.1-0.2,0.4-0.3,0.7-0.3h3.9
		c0.6,0,1.1,0.3,1.3,0.7l1,2.4c0.1,0.2,0.1,0.3,0,0.5C22.9,14.1,22.7,14.2,22.4,14.2z M16.8,10.4c-0.2,0-0.4,0.1-0.5,0.2
		c-0.1,0.1-0.1,0.2,0,0.3l1,2.4c0.1,0.3,0.6,0.6,1.1,0.6h3.9c0.3,0,0.5-0.1,0.6-0.2c0.1-0.1,0.1-0.2,0-0.3l-1-2.4
		c-0.1-0.3-0.6-0.6-1.1-0.6H16.8z"/>
</g>
<g>
	<g>
		<path class="st5" d="M7.5,3.7L7.5,3.7c-0.2,0-0.3,0.1-0.3,0.3v0.2c0,0.1,0.1,0.3,0.3,0.3h0.1c0.1,0,0.3-0.1,0.3-0.3V3.9
			C7.7,3.8,7.6,3.7,7.5,3.7z"/>
		<path class="st5" d="M7.5,4.6L7.5,4.6C7.2,4.6,7,4.4,7,4.2V3.9c0-0.2,0.2-0.4,0.4-0.4h0.1c0.2,0,0.4,0.2,0.4,0.4l0,0v0.2
			C7.9,4.4,7.8,4.6,7.5,4.6z M7.4,3.9C7.4,3.9,7.4,3.9,7.4,3.9L7.4,4.2c0,0,0,0.1,0.1,0.1h0.1c0,0,0.1,0,0.1-0.1V4
			C7.6,3.9,7.5,3.9,7.4,3.9L7.4,3.9z"/>
	</g>
	<g>
		<rect x="5" y="5.6" class="st6" width="5.1" height="4.2"/>
		<path class="st5" d="M10.3,9.9H4.8V5.4h5.4V9.9z M5.2,9.6h4.7V5.8H5.2V9.6z"/>
	</g>
	<g>
		<path class="st7" d="M8.4,4H7.5h-1C5.5,4,5,4.4,5,5.1v0.4h5.1V5.1C10.1,4.5,9.6,4,8.4,4z"/>
		<path class="st5" d="M10.3,5.8H4.8V5.1c0-0.5,0.2-1.3,1.7-1.3h1.9c1.6,0,1.9,0.8,1.9,1.3V5.8z M5.2,5.4h4.7V5.1c0-0.6-0.5-1-1.5-1
			H6.5c-0.9,0-1.3,0.3-1.3,1V5.4z"/>
	</g>
</g>
<g>
	<path class="st9" d="M14.3,14.1h-3.9c-0.5,0-1-0.3-1.2-0.7l-1-2.4c-0.1-0.4,0.1-0.7,0.6-0.7h3.9c0.5,0,1,0.3,1.2,0.7l1,2.4
		C15.1,13.8,14.8,14.1,14.3,14.1z"/>
	<path class="st5" d="M14.3,14.2h-3.9c-0.6,0-1.1-0.3-1.3-0.7L8,11c-0.1-0.2-0.1-0.4,0-0.5c0.1-0.2,0.4-0.3,0.7-0.3h3.9
		c0.6,0,1.1,0.3,1.3,0.7l1,2.4c0.1,0.2,0.1,0.4,0,0.5C14.8,14.1,14.6,14.2,14.3,14.2z M8.8,10.4c-0.2,0-0.4,0.1-0.5,0.2
		c-0.1,0.1-0.1,0.2,0,0.3l1,2.4c0.1,0.3,0.6,0.6,1.1,0.6h3.9c0.2,0,0.4-0.1,0.5-0.2c0.1-0.1,0.1-0.2,0-0.3l-1-2.4
		c-0.1-0.3-0.6-0.6-1.1-0.6H8.8z"/>
</g>
<g>
	<circle class="st0" cx="6.9" cy="14.3" r="4.7"/>
	<circle class="st0" cx="6.9" cy="14.3" r="3.8"/>
	<path class="st1" d="M13.4,16.3c0,0-0.7,1.3-1.6,2c-0.9,0.7-1.4,0.9-1.4,0.9l-1.4-1l3-2.8L13.4,16.3z"/>
	<ellipse transform="matrix(0.609 -0.7932 0.7932 0.609 -11.1206 14.9662)" class="st1" cx="9.6" cy="18.8" rx="0.6" ry="0.9"/>
	<path class="st1" d="M0.5,12.3c0,0,0.7-1.3,1.6-2C3,9.5,3.5,9.3,3.5,9.3l1.4,1l-3,2.8L0.5,12.3z"/>
	<ellipse transform="matrix(0.609 -0.7932 0.7932 0.609 -6.1581 7.2153)" class="st1" cx="4.2" cy="9.9" rx="0.6" ry="0.9"/>
	<path class="st1" d="M5.5,7.7c0,0,1.5,0,2.6,0.4c1.1,0.4,1.5,0.8,1.5,0.8l-0.1,1.7L5.5,9.4V7.7z"/>
	<ellipse transform="matrix(0.1309 -0.9914 0.9914 0.1309 -3.8927 12.7902)" class="st2" cx="5.3" cy="8.6" rx="0.9" ry="0.6"/>
	<ellipse transform="matrix(0.1309 -0.9914 0.9914 0.1309 -1.4689 17.7967)" class="st1" cx="9.4" cy="9.7" rx="0.9" ry="0.6"/>
	<path class="st3" d="M4.3,8.9c0,0-0.1-0.6,0-0.8c0.2,0,0.6,0,0.7,0.1c0.1,0,0.1,0.1,0.1,0.1c0,0.1,0.2,0.4,0.2,0.4
		c0,0.4-0.2,0.7-0.2,0.7L4,10.1L4.3,8.9z"/>
	<path class="st1" d="M8.4,20.9c0,0-1.5,0-2.6-0.4c-1.1-0.4-1.5-0.8-1.5-0.8L4.5,18l3.9,1.2V20.9z"/>
	<ellipse transform="matrix(0.1309 -0.9914 0.9914 0.1309 -12.4426 25.8402)" class="st2" cx="8.5" cy="20" rx="0.9" ry="0.6"/>
	<ellipse transform="matrix(0.1309 -0.9914 0.9914 0.1309 -14.8664 20.8338)" class="st1" cx="4.4" cy="18.9" rx="0.9" ry="0.6"/>
	<path class="st3" d="M9.6,19.7c0,0,0.1,0.6,0,0.8c-0.2,0-0.6,0-0.7-0.1c-0.1,0-0.1-0.1-0.1-0.1c0-0.1-0.2-0.4-0.2-0.4
		c0-0.4,0.2-0.7,0.2-0.7l1.1-0.6L9.6,19.7z"/>
	<path class="st1" d="M11.9,9.8c0,0,0.8,1.3,1,2.4c0.2,1.2,0.1,1.7,0.1,1.7l-1.6,0.7l-1-4L11.9,9.8z"/>
	<ellipse transform="matrix(0.924 -0.3824 0.3824 0.924 -3.0191 5.0005)" class="st2" cx="11.1" cy="10.1" rx="0.9" ry="0.6"/>
	<ellipse transform="matrix(0.924 -0.3824 0.3824 0.924 -4.4982 5.7203)" class="st1" cx="12.1" cy="14.2" rx="0.9" ry="0.6"/>
	<path class="st3" d="M10.3,9.4c0,0,0.5-0.4,0.7-0.3c0.1,0.1,0.3,0.5,0.3,0.6c0,0.1,0,0.1-0.1,0.1c-0.1,0.1-0.3,0.4-0.3,0.4
		c-0.3,0.2-0.7,0.2-0.7,0.2l-1-0.6L10.3,9.4z"/>
	<path class="st1" d="M2,18.9c0,0-0.8-1.3-1-2.4s-0.1-1.7-0.1-1.7L2.5,14l1,4L2,18.9z"/>
	<ellipse transform="matrix(0.924 -0.3824 0.3824 0.924 -6.8719 2.4733)" class="st2" cx="2.8" cy="18.5" rx="0.9" ry="0.6"/>
	<ellipse transform="matrix(0.924 -0.3824 0.3824 0.924 -5.3928 1.7534)" class="st1" cx="1.7" cy="14.4" rx="0.9" ry="0.6"/>
	<path class="st3" d="M3.6,19.3c0,0-0.5,0.4-0.7,0.3c-0.1-0.1-0.3-0.5-0.3-0.6c0-0.1,0-0.1,0.1-0.1C2.8,18.7,3,18.5,3,18.5
		c0.3-0.2,0.7-0.2,0.7-0.2l1,0.6L3.6,19.3z"/>
	<ellipse transform="matrix(0.609 -0.7932 0.7932 0.609 -7.5606 16.2011)" class="st2" cx="12.7" cy="15.8" rx="0.6" ry="0.9"/>
	<path class="st3" d="M12.9,14.7c0,0,0.6,0.2,0.6,0.4c-0.1,0.1-0.3,0.5-0.4,0.6c0,0-0.1,0.1-0.2,0c-0.1-0.1-0.4,0-0.4,0
		c-0.4-0.2-0.5-0.5-0.5-0.5V14L12.9,14.7z"/>
	<ellipse transform="matrix(0.609 -0.7932 0.7932 0.609 -9.7182 5.9803)" class="st2" cx="1.2" cy="12.8" rx="0.6" ry="0.9"/>
	<path class="st3" d="M1,13.9c0,0-0.6-0.2-0.6-0.4c0.1-0.1,0.3-0.5,0.4-0.6c0,0,0.1-0.1,0.2,0c0.1,0.1,0.4,0,0.4,0
		c0.4,0.2,0.5,0.5,0.5,0.5v1.2L1,13.9z"/>
	<g>
		<g>
			<path class="st4" d="M8,10.5h0.7c0,0,0.8,0.3,1.4,0.9c0.6,0.6,0.8,1.3,0.8,1.3l1.2-1c0,0-0.8-1.1-1.1-1.5
				c-0.3-0.4-0.3-0.6-0.3-0.6s0.1-0.3,0.2-0.3c0.2-0.1,0-0.4-0.3-0.5c-0.2-0.1-0.7,0-0.7,0L8.8,9.1c0,0-1.2-0.3-1.7-0.5l0.3,1.5
				C7.5,10.1,7.8,10.5,8,10.5z"/>
			<path class="st5" d="M10.8,12.8l0-0.1c0,0-0.2-0.7-0.8-1.2c-0.5-0.5-1.2-0.8-1.3-0.9l-0.7,0c-0.2,0-0.5-0.3-0.6-0.4l0,0l0,0
				L7,8.4l0.2,0.1C7.7,8.7,8.7,8.9,8.8,9l1.1-0.4c0.1,0,0.5-0.1,0.7,0C10.8,8.7,11,8.9,11,9c0,0.1,0,0.2-0.1,0.2
				c-0.1,0-0.1,0.2-0.2,0.3c0,0.1,0.1,0.2,0.3,0.6c0.3,0.4,1.1,1.5,1.1,1.5l0.1,0.1L10.8,12.8z M8,10.4l0.7,0c0,0,0.8,0.3,1.4,0.9
				c0.5,0.4,0.7,0.9,0.8,1.2l1-0.9c-0.2-0.2-0.8-1.1-1-1.5c-0.3-0.5-0.3-0.7-0.3-0.7l0,0c0,0,0.1-0.3,0.3-0.4c0,0,0,0,0,0
				c0-0.1-0.1-0.2-0.3-0.3c-0.2-0.1-0.5,0-0.6,0L8.8,9.2l0,0c0,0-1-0.3-1.5-0.5l0.2,1.3C7.7,10.2,7.9,10.4,8,10.4z"/>
		</g>
		<g>
			<path class="st4" d="M5.8,18.1H5.2c0,0-0.8-0.3-1.4-0.9C3.2,16.7,3,16,3,16l-1.2,1c0,0,0.8,1.1,1.1,1.5c0.3,0.4,0.3,0.6,0.3,0.6
				S3.1,19.4,3,19.5c-0.2,0.1,0,0.4,0.3,0.5c0.2,0.1,0.7,0,0.7,0L5,19.5c0,0,1.2,0.3,1.7,0.5l-0.3-1.5C6.4,18.5,6.1,18.2,5.8,18.1z"
				/>
			<path class="st5" d="M6.8,20.2l-0.2-0.1c-0.5-0.2-1.5-0.5-1.6-0.5L3.9,20c-0.1,0-0.5,0.1-0.7,0c-0.2-0.1-0.4-0.3-0.4-0.4
				c0-0.1,0-0.2,0.1-0.2c0.1,0,0.1-0.2,0.2-0.3c0,0-0.1-0.2-0.3-0.6C2.5,18.1,1.8,17,1.7,17L1.7,17l1.4-1.2l0,0.1
				c0,0,0.2,0.7,0.8,1.2C4.4,17.7,5.1,18,5.2,18l0.7,0c0.2,0,0.7,0.4,0.7,0.5L6.8,20.2z M5,19.4L5,19.4c0.1,0,1,0.3,1.6,0.5
				l-0.2-1.3c-0.1-0.1-0.3-0.3-0.5-0.3l-0.7,0c0,0-0.8-0.3-1.4-0.9C3.3,16.9,3,16.4,3,16.1l-1,0.9c0.2,0.2,0.8,1.1,1,1.5
				c0.3,0.5,0.3,0.7,0.3,0.7l0,0c0,0-0.1,0.3-0.3,0.4c0,0,0,0,0,0c0,0.1,0.1,0.2,0.3,0.3c0.2,0.1,0.5,0,0.6,0L5,19.4z"/>
		</g>
		<g>
			<path class="st4" d="M3.1,15.3l-0.3-0.6c0,0-0.1-0.9,0.1-1.6c0.2-0.8,0.7-1.3,0.7-1.3l-1.4-0.5c0,0-0.6,1.2-0.8,1.7
				c-0.2,0.5-0.4,0.6-0.4,0.6s-0.3,0-0.4,0c-0.2-0.1-0.3,0.2-0.3,0.4c0,0.2,0.4,0.6,0.4,0.6l0.9,0.7c0,0,0.3,1.2,0.4,1.7l1.2-1
				C3,16,3.2,15.5,3.1,15.3z"/>
			<path class="st5" d="M1.8,17.1l0-0.2c0-0.5-0.3-1.5-0.4-1.7l-0.9-0.7c0,0-0.4-0.4-0.4-0.6c0-0.2,0.1-0.5,0.2-0.5
				c0.1,0,0.1,0,0.2,0c0.1,0,0.3,0,0.3,0c0,0,0.2-0.1,0.4-0.5C1.4,12.4,2,11.2,2,11.2l0-0.1l1.7,0.6l-0.1,0.1c0,0-0.5,0.5-0.7,1.3
				c-0.2,0.7-0.1,1.5-0.1,1.6l0.3,0.6c0.1,0.2,0,0.7-0.1,0.7l0,0l0,0L1.8,17.1z M0.4,13.5C0.4,13.5,0.4,13.5,0.4,13.5
				c-0.1,0-0.1,0.2-0.1,0.4c0,0.1,0.2,0.4,0.3,0.5l0.9,0.8l0,0c0,0,0.3,1,0.4,1.6l1-0.9c0-0.1,0.1-0.4,0-0.5l-0.3-0.6
				c0,0-0.1-0.9,0.1-1.7c0.1-0.6,0.5-1,0.6-1.2l-1.2-0.4C2,11.6,1.6,12.6,1.4,13c-0.2,0.5-0.4,0.6-0.5,0.6
				C0.9,13.6,0.6,13.6,0.4,13.5C0.4,13.5,0.4,13.5,0.4,13.5z"/>
		</g>
		<g>
			<path class="st4" d="M12.4,13.4c0,0-0.3-1.2-0.4-1.7l-1.2,1c0,0-0.1,0.5,0,0.7l0.3,0.6c0,0,0.1,0.9-0.1,1.6
				c-0.2,0.8-0.7,1.3-0.7,1.3l1.4,0.5c0,0,0.6-1.2,0.8-1.7c0.2-0.5,0.4-0.6,0.4-0.6s0.3,0,0.4,0c0.2,0.1,0.3-0.2,0.3-0.4
				c0-0.2-0.4-0.6-0.4-0.6L12.4,13.4z"/>
			<path class="st5" d="M11.8,17.5l-1.7-0.6l0.1-0.1c0,0,0.5-0.5,0.7-1.3c0.2-0.7,0.1-1.5,0.1-1.6l-0.3-0.5c-0.1-0.3,0-0.7,0-0.8
				l0,0l1.4-1.1l0,0.2c0,0.5,0.3,1.5,0.4,1.7l0.9,0.8c0,0,0.4,0.4,0.4,0.6c0,0.2-0.1,0.5-0.2,0.5c-0.1,0-0.1,0-0.2,0
				c-0.1,0-0.3,0-0.3,0c0,0-0.2,0.1-0.4,0.5C12.4,16.2,11.9,17.4,11.8,17.5L11.8,17.5z M10.5,16.8l1.2,0.4c0.1-0.3,0.6-1.2,0.7-1.6
				c0.2-0.5,0.4-0.6,0.5-0.6c0.1,0,0.3,0,0.5,0c0,0,0,0,0,0c0.1,0,0.1-0.2,0.1-0.4c0-0.1-0.3-0.4-0.3-0.5l-0.9-0.8l0,0
				c0,0-0.3-1-0.4-1.6l-1,0.9c0,0.1-0.1,0.5,0,0.6l0.3,0.6c0,0,0.1,0.9-0.1,1.7C11,16.2,10.7,16.6,10.5,16.8z"/>
		</g>
		<g>
			<path class="st4" d="M9.7,17.2l-0.3,0.6c0,0-0.7,0.5-1.4,0.7c-0.8,0.2-1.5,0-1.5,0L6.6,20c0,0,1.3-0.1,1.9-0.1
				c0.5,0,0.7,0.1,0.7,0.1s0.1,0.2,0.2,0.4c0,0.2,0.3,0.1,0.6,0c0.2-0.1,0.3-0.6,0.3-0.6l0.2-1.2c0,0,0.8-0.9,1.3-1.2l-1.4-0.5
				C10.3,16.9,9.8,17,9.7,17.2z"/>
			<path class="st5" d="M9.6,20.5c-0.1,0-0.1,0-0.2,0c-0.1,0-0.1-0.1-0.1-0.2c0-0.1-0.1-0.2-0.2-0.3c-0.1,0-0.2-0.1-0.6-0.1
				c-0.5,0-1.9,0.1-1.9,0.1l-0.1,0l-0.3-1.7l0.1,0c0,0,0.7,0.2,1.4,0c0.7-0.2,1.3-0.6,1.4-0.7l0.3-0.6c0.2-0.2,0.7-0.3,0.7-0.3l0,0
				l1.6,0.6l-0.1,0.1c-0.4,0.3-1.1,1-1.3,1.2l-0.2,1.2c0,0.1-0.2,0.5-0.4,0.7C10,20.5,9.7,20.5,9.6,20.5z M8.7,19.8
				c0.4,0,0.5,0.1,0.6,0.1l0,0c0,0,0.2,0.2,0.2,0.4c0,0.1,0,0.1,0,0.1c0.1,0,0.2,0,0.4-0.1c0.1-0.1,0.2-0.4,0.3-0.5l0.2-1.2l0,0
				c0,0,0.7-0.7,1.2-1.1l-1.3-0.5c-0.1,0-0.4,0.1-0.6,0.3l-0.3,0.6c0,0-0.7,0.5-1.5,0.8c-0.6,0.2-1.1,0.1-1.4,0.1l0.2,1.3
				c0.3,0,1.3-0.1,1.8-0.1C8.6,19.8,8.6,19.8,8.7,19.8z"/>
		</g>
		<g>
			<path class="st4" d="M4.2,11.5l0.3-0.6c0,0,0.7-0.5,1.4-0.7c0.8-0.2,1.5,0,1.5,0L7.2,8.6c0,0-1.3,0.1-1.9,0.1
				c-0.5,0-0.7-0.1-0.7-0.1S4.5,8.5,4.5,8.3c0-0.2-0.3-0.1-0.6,0C3.7,8.4,3.6,8.9,3.6,8.9l-0.2,1.2c0,0-0.8,0.9-1.3,1.2l1.4,0.5
				C3.6,11.8,4,11.6,4.2,11.5z"/>
			<path class="st5" d="M3.5,11.9L3.5,11.9l-1.6-0.6L2,11.2c0.4-0.3,1.1-1,1.3-1.2l0.2-1.2c0-0.1,0.2-0.5,0.4-0.7
				c0.1,0,0.4-0.2,0.6-0.1c0.1,0,0.1,0.1,0.1,0.2c0,0.1,0.1,0.2,0.2,0.3c0.1,0,0.2,0.1,0.6,0.1c0.5,0,1.9-0.1,1.9-0.1l0.1,0l0.3,1.7
				l-0.1,0c0,0-0.7-0.2-1.4,0c-0.7,0.2-1.3,0.6-1.4,0.7l-0.3,0.6C4.1,11.7,3.6,11.9,3.5,11.9z M2.3,11.2l1.3,0.5
				c0.1,0,0.5-0.1,0.6-0.3l0.4-0.6c0,0,0.7-0.5,1.5-0.8C6.6,9.9,7.1,10,7.4,10L7.1,8.7c-0.3,0-1.3,0.1-1.8,0.1
				c-0.5,0-0.7-0.1-0.8-0.1l0,0c0,0-0.2-0.2-0.2-0.4c0-0.1,0-0.1,0-0.1c-0.1,0-0.2,0-0.4,0.1C3.8,8.5,3.7,8.8,3.7,8.9l-0.2,1.2l0,0
				C3.4,10.2,2.8,10.8,2.3,11.2z"/>
		</g>
	</g>
	<g>
		<g>
			<path class="st2" d="M9.5,13.4l-0.3-0.6l0.3-0.4c-0.4-0.6-1.1-1-1.7-1.2l-0.3,0.4l-0.6,0l-0.2-0.4c-0.3,0-0.7,0.1-1,0.3
				c-0.3,0.1-0.6,0.4-0.9,0.6l0.2,0.4l-0.3,0.5l-0.5,0c-0.3,0.7-0.4,1.4-0.1,2.1l0.5,0l0.3,0.6l-0.3,0.4c0.4,0.6,1.1,1,1.7,1.2
				L6.4,17l0.6,0l0.2,0.4c0.3,0,0.7-0.1,1-0.3C8.7,17,9,16.8,9.2,16.5L9,16.1l0.3-0.5l0.5,0c0.3-0.7,0.4-1.4,0.1-2.1L9.5,13.4z"/>
		</g>
	</g>
	<g>
		<g>
			<path class="st4" d="M6.9,14.2l0-0.2l-0.3-2.8c0,0-0.1,0-0.1,0L6.9,14.2L6.9,14.2z"/>
			<path class="st4" d="M6.9,14.4l0,0.2l0.3,2.8c0,0,0.1,0,0.1,0L6.9,14.4L6.9,14.4z"/>
			<path class="st4" d="M6.9,14.4l-0.2,0.1l-2.3,1.7c0,0,0,0.1,0.1,0.1L6.9,14.4L6.9,14.4z"/>
			<path class="st4" d="M7,14.2l0.2-0.1l2.3-1.7c0,0,0-0.1-0.1-0.1L7,14.2L7,14.2z"/>
			<path class="st4" d="M6.8,14.3l-0.1-0.1L4.1,13c0,0,0,0.1,0,0.1L6.8,14.3L6.8,14.3z"/>
			<path class="st4" d="M7.1,14.3L7.1,14.3l0.1,0.1l2.6,1.2c0,0,0-0.1,0-0.1L7.1,14.3z"/>
			<path class="st4" d="M7,14.2L7,14.2l0.8-2.9c0,0-0.1,0-0.1,0L6.9,14L7,14.2z"/>
			<path class="st4" d="M6.9,14.4L6.9,14.4l-0.8,2.9c0,0,0.1,0,0.1,0l0.7-2.7L6.9,14.4z"/>
			<polygon class="st4" points="6.9,14.4 6.9,14.6 6.9,14.4 6.9,14.4 			"/>
			<polygon class="st4" points="7,14.2 6.9,14 6.9,14.2 6.9,14.3 			"/>
			<polygon class="st4" points="7,14.2 7,14.2 7,14.2 7,14.3 			"/>
			<polygon class="st4" points="6.9,14.4 6.8,14.4 6.9,14.4 6.9,14.4 			"/>
			<polygon class="st4" points="6.9,14.3 7,14.3 7,14.2 			"/>
			<polygon class="st4" points="6.9,14.4 6.9,14.4 6.9,14.4 			"/>
			<path class="st4" d="M7,14.3L7,14.3l2.9-0.8c0,0,0-0.1,0-0.1l-2.7,0.8L7,14.3z"/>
			<path class="st4" d="M6.8,14.3L6.8,14.3l-2.9,0.8c0,0,0,0.1,0,0.1l2.7-0.8L6.8,14.3z"/>
			<polygon class="st4" points="7,14.3 7.2,14.2 7,14.2 7,14.3 			"/>
			<polygon class="st4" points="6.8,14.3 6.6,14.4 6.9,14.4 6.9,14.3 			"/>
			<polygon class="st4" points="6.8,14.3 6.8,14.3 6.8,14.3 			"/>
			<polygon class="st4" points="7,14.3 7,14.3 7.1,14.3 7,14.3 			"/>
			<polygon class="st4" points="7,14.3 7,14.3 7,14.3 			"/>
			<polygon class="st4" points="6.9,14.3 6.8,14.3 6.8,14.3 			"/>
			<polygon class="st4" points="6.9,14.3 6.9,14.3 6.9,14.4 6.9,14.4 			"/>
			<polygon class="st4" points="7,14.3 7,14.3 7,14.2 7,14.3 			"/>
			<polygon class="st4" points="6.9,14.3 6.9,14.4 6.9,14.4 6.9,14.4 			"/>
			<polygon class="st4" points="7,14.3 7,14.3 6.9,14.3 6.9,14.3 			"/>
			<polygon class="st4" points="6.9,14.3 6.9,14.3 6.9,14.3 			"/>
			<polygon class="st4" points="7,14.3 7,14.3 7,14.3 			"/>
			<polygon class="st4" points="6.9,14.3 6.9,14.3 6.9,14.4 			"/>
			<polygon class="st4" points="7,14.3 7,14.3 6.9,14.3 			"/>
			<path class="st4" d="M6.9,14.2L6.9,14.2l-2.2-2.2c0,0,0,0-0.1,0.1l2,2L6.9,14.2z"/>
			<path class="st4" d="M7,14.4L7,14.4l2.2,2.2c0,0,0,0,0.1-0.1l-2-2L7,14.4z"/>
			<polygon class="st4" points="6.9,14.4 7,14.4 7,14.4 7,14.4 			"/>
			<polygon class="st4" points="6.9,14.2 6.9,14.2 6.9,14.2 			"/>
			<polygon class="st4" points="6.9,14.2 6.7,14.1 6.8,14.3 6.9,14.3 			"/>
			<polygon class="st4" points="7,14.4 7.2,14.5 7,14.3 7,14.4 			"/>
			<polygon class="st4" points="6.9,14.3 6.9,14.2 6.9,14.2 			"/>
			<polygon class="st4" points="7,14.4 7,14.4 7,14.4 			"/>
			<polygon class="st4" points="6.9,14.4 6.9,14.4 6.9,14.4 7,14.4 			"/>
			<polygon class="st4" points="6.9,14.3 6.9,14.3 6.9,14.2 6.9,14.2 			"/>
			<polygon class="st4" points="6.9,14.3 6.9,14.3 6.9,14.3 			"/>
			<polygon class="st4" points="6.9,14.4 6.9,14.4 6.9,14.4 			"/>
			<polygon class="st4" points="6.9,14.3 6.9,14.2 6.9,14.3 			"/>
			<polygon class="st4" points="6.9,14.4 7,14.4 7,14.4 			"/>
			<polygon class="st4" points="6.9,14.3 6.9,14.3 6.9,14.3 			"/>
			<polygon class="st4" points="6.9,14.4 6.9,14.4 6.9,14.4 			"/>
			<polygon class="st4" points="6.9,14.3 6.9,14.3 6.8,14.3 6.8,14.3 			"/>
			<polygon class="st4" points="7,14.3 7,14.4 7,14.3 7,14.3 			"/>
			<polygon class="st4" points="7,14.4 7,14.4 7,14.3 7,14.3 			"/>
			<polygon class="st4" points="6.9,14.3 6.9,14.3 6.9,14.3 6.9,14.3 			"/>
			<polygon class="st4" points="7,14.3 7,14.3 7,14.3 7,14.3 			"/>
			<polygon class="st4" points="6.9,14.3 6.8,14.3 6.9,14.3 			"/>
			<path class="st4" d="M6.9,14.3L6.9,14.3L6.9,14.3z"/>
			<path class="st4" d="M7,14.3L7,14.3L7,14.3z"/>
			<path class="st4" d="M6.9,14.3L6.9,14.3L6.9,14.3z"/>
			<path class="st4" d="M6.9,14.4L6.9,14.4L6.9,14.4z"/>
			<polygon class="st4" points="6.9,14.3 6.9,14.3 6.9,14.3 			"/>
			<polygon class="st4" points="6.9,14.4 7,14.4 7,14.3 			"/>
			<polygon class="st4" points="6.9,14.3 6.9,14.3 6.9,14.3 			"/>
			<polygon class="st4" points="7,14.3 7,14.3 7,14.3 			"/>
			<polygon class="st4" points="6.9,14.3 6.9,14.3 6.9,14.3 6.9,14.3 6.9,14.3 6.9,14.3 6.9,14.4 6.9,14.4 6.9,14.4 7,14.3 7,14.3 
				7,14.3 			"/>
		</g>
	</g>
	<g>
		<path class="st4" d="M8.3,17.2c-0.3,0.1-0.7,0.3-1.1,0.3H7.2l-0.2-0.4l-0.5,0l-0.3,0.4H6.1c-0.7-0.2-1.4-0.6-1.8-1.2l0,0l0.3-0.4
			l-0.1-0.5l-0.5,0v-0.1C3.6,14.4,3.7,13.7,4,13l0-0.1l0.5,0l0.3-0.4l-0.2-0.4l0,0c0.3-0.3,0.6-0.5,0.9-0.6c0.3-0.1,0.7-0.3,1.1-0.3
			h0.1l0.2,0.4l0.5,0l0.3-0.4h0.1c0.7,0.2,1.4,0.6,1.8,1.2l0,0l-0.3,0.4l0.2,0.5l0.5,0v0.1c0.2,0.7,0.1,1.5-0.1,2.2l0,0.1l-0.5,0
			l-0.3,0.4l0.2,0.4l0,0C9,16.9,8.7,17.1,8.3,17.2z M7.3,17.3c0.3,0,0.6-0.1,1-0.3c0.3-0.1,0.6-0.3,0.8-0.6L8.9,16l0.4-0.6l0.5,0
			c0.3-0.6,0.3-1.3,0.1-1.9l-0.5,0l-0.3-0.7l0.3-0.4c-0.4-0.5-1-0.9-1.6-1.1l-0.3,0.4l-0.7,0l-0.2-0.4c-0.3,0-0.6,0.1-1,0.3
			c-0.3,0.1-0.6,0.3-0.8,0.6l0.2,0.4l-0.4,0.6l-0.5,0C3.9,13.7,3.9,14.4,4,15l0.5,0l0.3,0.7l-0.3,0.4c0.4,0.5,1,0.9,1.6,1.1l0.3-0.4
			l0.7,0L7.3,17.3z"/>
	</g>
	<circle cx="6.9" cy="14.3" r="1"/>
	<g>
		<path class="st4" d="M7.4,15.2c-0.5,0.3-1.1,0-1.3-0.5c-0.3-0.5,0-1.1,0.5-1.3c0.5-0.2,1.1,0,1.3,0.5C8.1,14.4,7.9,15,7.4,15.2z
			 M6.5,13.5c-0.4,0.2-0.6,0.7-0.4,1.2c0.2,0.4,0.7,0.6,1.2,0.4c0.4-0.2,0.6-0.7,0.4-1.2S7,13.3,6.5,13.5z"/>
	</g>
</g>
<g>
	<path class="st10" d="M29.3,16"/>
</g>
<g>
	<g>
		<path class="st8" d="M26.9,1.7C27,1.8,27.1,1.9,27.3,2C27.1,2.8,27,3.5,27,4c0,1.1,0,2.3,0.5,2.9c0.1,0.1,0.3,0.3,0.3,0.4
			c0,0.3-0.4,0.5-0.7,0.4c-0.4-0.1-0.6-0.7-0.6-0.7c0-0.1,0-0.2-0.1-0.2c-0.3-1.6-0.8-4.4-0.1-5C26.4,1.6,26.6,1.6,26.9,1.7
			L26.9,1.7z"/>
		<path class="st5" d="M27.2,7.9c-0.1,0-0.1,0-0.2,0c-0.5-0.1-0.7-0.6-0.7-0.8l0-0.1c0,0,0-0.1,0-0.1c0,0,0,0,0,0l0,0l0,0
			c-0.4-2.3-0.8-4.6,0-5.2c0.1-0.1,0.4-0.3,0.8-0.1l0,0c0.2,0.1,0.3,0.2,0.4,0.3l0.1,0.1l0,0.1c-0.2,0.8-0.2,1.5-0.2,2
			c0,1,0,2.2,0.5,2.8c0,0,0.1,0.1,0.1,0.1C27.9,7,28,7.1,28,7.3c0,0.2-0.1,0.3-0.3,0.4C27.6,7.8,27.4,7.9,27.2,7.9z M26.6,6.9
			C26.6,6.9,26.6,6.9,26.6,6.9c0.1,0.2,0.2,0.6,0.5,0.6c0.1,0,0.3,0,0.4-0.1c0.1-0.1,0.1-0.1,0.1-0.2c0,0-0.1-0.1-0.1-0.1
			c0,0-0.1-0.1-0.1-0.1c-0.6-0.7-0.6-1.9-0.6-3c0-0.4,0-1.1,0.2-1.9C27,2,26.9,1.9,26.8,1.9c-0.3-0.1-0.3,0-0.4,0
			c-0.6,0.5-0.1,3.6,0.2,4.8C26.6,6.7,26.6,6.7,26.6,6.9C26.6,6.8,26.6,6.8,26.6,6.9C26.6,6.9,26.6,6.9,26.6,6.9z"/>
	</g>
	<g>
		<path class="st8" d="M32.8,0.6c-0.1,1.3-0.1,2.6-0.1,4c0,0.7,0,1.4,0,2.1c-0.9,0.2-1.8,0.5-2.9,0.7c-0.9,0.2-1.7,0.3-2.5,0.4
			c0,0,0,0-0.1,0c-0.1,0-0.2,0-0.2,0c-0.2,0-0.1-2.7-0.2-4.1c0-0.9-0.2-1.6-0.3-2.1c0.6-0.4,1.6-0.9,2.9-1.1
			C30.9,0.2,32.1,0.4,32.8,0.6z"/>
		<path class="st5" d="M27.3,7.9h-0.2c-0.3,0-0.3-0.4-0.4-2.6c0-0.6,0-1.2,0-1.7c0-0.8-0.2-1.4-0.3-1.9l-0.1-0.3l0.1-0.1
			c0.5-0.3,1.5-0.9,2.9-1.1c1.1-0.2,2.3-0.1,3.5,0.1l0.2,0l0,0.2c-0.1,1.3-0.1,2.6-0.1,4c0,0.4,0,0.7,0,1.1c0,0.3,0,0.7,0,1v0.1
			L32.2,7c-0.7,0.2-1.5,0.4-2.3,0.5c-0.9,0.2-1.6,0.3-2.5,0.4L27.3,7.9z M26.7,1.6L26.7,1.6c0.1,0.5,0.3,1.2,0.3,2
			c0,0.5,0,1.1,0,1.7c0,0.8,0,1.9,0.1,2.2l0.2,0c0.8-0.1,1.6-0.2,2.5-0.4c0.8-0.1,1.6-0.3,2.3-0.5l0.4-0.1c0-0.3,0-0.6,0-0.9
			c0-0.4,0-0.7,0-1.1c0-1.3,0-2.6,0.1-3.8c-1.1-0.2-2.1-0.2-3.2-0.1C28.2,0.8,27.2,1.3,26.7,1.6z"/>
	</g>
	<g>
		<g>
			<path class="st5" d="M30,5.8c-0.8,0-1.5-0.9-1.5-1.9s0.7-1.9,1.5-1.9s1.5,0.9,1.5,1.9S30.9,5.8,30,5.8z"/>
			<path d="M30,5.8c-0.8,0-1.5-0.9-1.5-2s0.7-2,1.5-2s1.5,0.9,1.5,2C31.6,4.9,30.9,5.8,30,5.8z M30,1.9c-0.8,0-1.4,0.8-1.4,1.9
				s0.6,1.9,1.4,1.9c0.8,0,1.4-0.8,1.4-1.9C31.5,2.8,30.8,1.9,30,1.9z"/>
		</g>
		<g>
			<path class="st8" d="M30.2,5.8c-0.8,0-1.4-0.9-1.4-1.9s0.6-1.9,1.4-1.9c0.8,0,1.4,0.9,1.4,1.9S30.9,5.8,30.2,5.8z"/>
			<path d="M30.2,5.8c-0.8,0-1.5-0.9-1.5-2s0.7-2,1.5-2c0.8,0,1.5,0.9,1.5,2S31,5.8,30.2,5.8z M30.2,1.9c-0.8,0-1.4,0.8-1.4,1.9
				s0.6,1.9,1.4,1.9c0.8,0,1.4-0.8,1.4-1.9S30.9,1.9,30.2,1.9z"/>
		</g>
		<g>
			<path class="st5" d="M30.2,5.5c-0.7,0-1.2-0.7-1.2-1.6s0.6-1.6,1.2-1.6s1.2,0.7,1.2,1.6C31.4,4.7,30.8,5.5,30.2,5.5z"/>
			<path d="M30.2,5.5c-0.7,0-1.3-0.8-1.3-1.7c0-0.9,0.6-1.7,1.3-1.7c0.7,0,1.3,0.8,1.3,1.7C31.4,4.7,30.8,5.5,30.2,5.5z M30.2,2.2
				C29.5,2.2,29,3,29,3.8s0.5,1.6,1.2,1.6c0.6,0,1.2-0.7,1.2-1.6S30.8,2.2,30.2,2.2z"/>
		</g>
		<g>
			<path class="st11" d="M30,5.4c-0.6,0-1-0.7-1-1.6c0-0.9,0.4-1.6,1-1.6c0.6,0,1,0.7,1,1.6C31,4.7,30.6,5.4,30,5.4z"/>
			<path class="st12" d="M30,5.4c-0.6,0-1-0.7-1-1.6c0-0.9,0.4-1.6,1-1.6c0.6,0,1,0.7,1,1.6C30.9,4.7,30.5,5.4,30,5.4z"/>
			<path class="st13" d="M30.2,5.1c-0.3,0-0.6-0.4-0.6-1c0-0.6,0.3-1,0.6-1s0.6,0.4,0.6,1C30.8,4.6,30.5,5.1,30.2,5.1z"/>
			<path class="st14" d="M30.3,4.7c-0.1,0-0.3-0.2-0.3-0.5s0.1-0.5,0.3-0.5c0.1,0,0.3,0.2,0.3,0.5C30.6,4.5,30.5,4.7,30.3,4.7z"/>
		</g>
		<g>
			<path d="M30,5.5c-0.6,0-1.1-0.8-1.1-1.7s0.5-1.7,1.1-1.7c0.6,0,1.1,0.8,1.1,1.7S30.6,5.5,30,5.5z M30,2.2c-0.6,0-1,0.7-1,1.6
				c0,0.9,0.5,1.6,1,1.6s1-0.7,1-1.6C31,2.9,30.6,2.2,30,2.2z"/>
		</g>
	</g>
</g>
<g>
	<g>
		<path class="st6" d="M34.7,9.3c0,0-1.2,0.2-1.4,0.3c-0.7,0.4-0.7,1.9,0.1,2.5c1,0,1.5,0,1.5,0L34.7,9.3z"/>
		<path d="M35,12.2L35,12.2c0,0-0.6,0-1.6,0l0,0l0,0c-0.4-0.3-0.7-0.9-0.7-1.5c0-0.5,0.2-0.9,0.6-1c0.3-0.1,1.4-0.3,1.4-0.3l0,0l0,0
			L35,12.2z M33.4,12.1c0.8,0,1.3,0,1.5,0l-0.2-2.8c-0.2,0-1.1,0.2-1.4,0.3c-0.3,0.2-0.5,0.5-0.5,1C32.8,11.3,33,11.8,33.4,12.1z"/>
	</g>
	<g>
		<path class="st8" d="M34.8,12.2c-0.6,0-1-0.6-1-1.4c0-0.8,0.5-1.4,1-1.4s1,0.6,1,1.4C35.9,11.5,35.4,12.2,34.8,12.2z"/>
		<path d="M34.8,12.2c-0.6,0-1.1-0.6-1.1-1.5c0-0.8,0.5-1.5,1.1-1.5c0.6,0,1.1,0.7,1.1,1.5c0,0.5-0.1,0.9-0.4,1.2
			C35.3,12.1,35,12.2,34.8,12.2z M34.8,9.3c-0.5,0-1,0.7-1,1.4c0,0.8,0.4,1.4,1,1.4c0.2,0,0.5-0.1,0.6-0.3c0.3-0.3,0.4-0.7,0.4-1.1
			C35.8,9.9,35.4,9.3,34.8,9.3z"/>
	</g>
	<g>
		<path class="st5" d="M34.8,12c-0.5,0-0.9-0.6-0.9-1.2c0-0.7,0.4-1.2,0.9-1.2s0.9,0.6,0.9,1.2C35.7,11.4,35.3,12,34.8,12z"/>
		<path d="M34.8,12c-0.5,0-1-0.6-1-1.3s0.4-1.3,1-1.3s1,0.6,1,1.3C35.8,11.4,35.3,12,34.8,12z M34.8,9.5c-0.5,0-0.9,0.5-0.9,1.2
			s0.4,1.2,0.9,1.2c0.5,0,0.9-0.5,0.9-1.2C35.7,10.1,35.3,9.5,34.8,9.5z"/>
	</g>
	<g>
		<path class="st15" d="M34.7,11.9c-0.4,0-0.7-0.5-0.7-1.2c0-0.7,0.3-1.2,0.7-1.2s0.7,0.5,0.7,1.2C35.5,11.4,35.1,11.9,34.7,11.9z"
			/>
		<path class="st16" d="M34.7,11.9c-0.4,0-0.7-0.5-0.7-1.2c0-0.7,0.3-1.2,0.7-1.2s0.7,0.5,0.7,1.2C35.4,11.4,35.1,11.9,34.7,11.9z"
			/>
	</g>
	<g>
		<path d="M34.7,12c-0.5,0-0.9-0.6-0.9-1.3s0.4-1.3,0.9-1.3s0.9,0.6,0.9,1.3C35.5,11.4,35.2,12,34.7,12z M34.7,9.5
			c-0.4,0-0.8,0.5-0.8,1.2c0,0.6,0.4,1.2,0.8,1.2c0.4,0,0.8-0.5,0.8-1.2C35.5,10.1,35.1,9.5,34.7,9.5z"/>
	</g>
</g>
<g>
	<g>
		<path class="st6" d="M32.1,10.4c0,0-1.2,0.2-1.4,0.3c-0.7,0.4-0.7,1.9,0.1,2.5c1,0,1.5,0,1.5,0L32.1,10.4z"/>
		<path d="M32.4,13.3L32.4,13.3c0,0-0.6,0-1.6,0l0,0l0,0c-0.4-0.3-0.7-0.9-0.7-1.5c0-0.5,0.2-0.9,0.6-1c0.3-0.1,1.4-0.3,1.4-0.3l0,0
			l0,0L32.4,13.3z M30.8,13.2c0.8,0,1.3,0,1.5,0l-0.2-2.8c-0.2,0-1.1,0.2-1.4,0.3c-0.3,0.2-0.5,0.5-0.5,1
			C30.2,12.3,30.4,12.9,30.8,13.2z"/>
	</g>
	<g>
		<path class="st8" d="M32.2,13.3c-0.6,0-1-0.6-1-1.4s0.5-1.4,1-1.4c0.6,0,1,0.6,1,1.4S32.8,13.3,32.2,13.3z"/>
		<path d="M32.2,13.3c-0.6,0-1.1-0.6-1.1-1.5c0-0.8,0.5-1.5,1.1-1.5c0.6,0,1.1,0.6,1.1,1.5C33.3,12.7,32.8,13.3,32.2,13.3z
			 M32.2,10.4c-0.6,0-1,0.6-1,1.4c0,0.8,0.4,1.4,1,1.4c0.6,0,1-0.6,1-1.4C33.2,11,32.8,10.4,32.2,10.4z"/>
	</g>
	<g>
		<path class="st5" d="M32.2,13.1c-0.5,0-0.9-0.6-0.9-1.2s0.4-1.2,0.9-1.2c0.5,0,0.9,0.6,0.9,1.2S32.7,13.1,32.2,13.1z"/>
		<path d="M32.2,13.1c-0.5,0-1-0.6-1-1.3c0-0.7,0.4-1.3,1-1.3c0.5,0,1,0.6,1,1.3C33.2,12.5,32.7,13.1,32.2,13.1z M32.2,10.7
			c-0.5,0-0.9,0.5-0.9,1.2c0,0.7,0.4,1.2,0.9,1.2c0.5,0,0.9-0.5,0.9-1.2C33.1,11.2,32.7,10.7,32.2,10.7z"/>
	</g>
	<g>
		<path class="st15" d="M32.1,13c-0.4,0-0.7-0.5-0.7-1.2s0.3-1.2,0.7-1.2c0.4,0,0.7,0.5,0.7,1.2C32.9,12.5,32.5,13,32.1,13z"/>
		<path class="st16" d="M32.1,13c-0.4,0-0.7-0.5-0.7-1.2s0.3-1.2,0.7-1.2c0.4,0,0.7,0.5,0.7,1.2C32.8,12.5,32.5,13,32.1,13z"/>
	</g>
	<g>
		<path d="M32.1,13.1c-0.5,0-0.9-0.6-0.9-1.3c0-0.7,0.4-1.3,0.9-1.3c0.5,0,0.9,0.6,0.9,1.3C32.9,12.5,32.6,13.1,32.1,13.1z
			 M32.1,10.7c-0.4,0-0.8,0.5-0.8,1.2c0,0.6,0.4,1.2,0.8,1.2c0.4,0,0.8-0.5,0.8-1.2C32.9,11.2,32.5,10.7,32.1,10.7z"/>
	</g>
</g>
<g>
	<circle class="st0" cx="23" cy="14.3" r="4.7"/>
	<circle class="st0" cx="23" cy="14.3" r="3.8"/>
	<path class="st1" d="M16.3,13.5c0,0,0.1,1.5,0.6,2.5c0.5,1,0.9,1.4,0.9,1.4l1.7-0.3l-1.6-3.8L16.3,13.5z"/>
	<ellipse transform="matrix(0.9729 -0.2312 0.2312 0.9729 -3.4822 4.8041)" class="st1" cx="18.8" cy="17.3" rx="0.9" ry="0.6"/>
	<path class="st1" d="M29.7,15.1c0,0-0.1-1.5-0.6-2.5c-0.5-1-0.9-1.4-0.9-1.4l-1.7,0.3l1.6,3.8L29.7,15.1z"/>
	<ellipse transform="matrix(0.9729 -0.2312 0.2312 0.9729 -1.8847 6.6274)" class="st1" cx="27.3" cy="11.4" rx="0.9" ry="0.6"/>
	<path class="st1" d="M27.1,8.9c0,0-1.3-0.6-2.5-0.7c-1.2-0.1-1.7,0.1-1.7,0.1l-0.6,1.7l4.1,0.5L27.1,8.9z"/>
	<ellipse transform="matrix(0.2862 -0.9582 0.9582 0.2862 9.7994 32.6526)" class="st2" cx="26.8" cy="9.7" rx="0.9" ry="0.6"/>
	<ellipse transform="matrix(0.2862 -0.9582 0.9582 0.2862 7.4161 28.2019)" class="st1" cx="22.6" cy="9.1" rx="0.9" ry="0.6"/>
	<path class="st3" d="M27.6,10.5c0,0,0.4-0.5,0.3-0.7c-0.1-0.1-0.6-0.2-0.7-0.2c-0.1,0-0.1,0-0.1,0.1c-0.1,0.1-0.3,0.3-0.4,0.3
		c-0.2,0.4-0.1,0.7-0.1,0.7l0.7,1L27.6,10.5z"/>
	<path class="st1" d="M19,19.7c0,0,1.3,0.6,2.5,0.7c1.2,0.1,1.7-0.1,1.7-0.1l0.6-1.7l-4.1-0.5L19,19.7z"/>
	<ellipse transform="matrix(0.2862 -0.9582 0.9582 0.2862 -4.3021 31.9105)" class="st2" cx="19.3" cy="18.8" rx="0.9" ry="0.6"/>
	<ellipse transform="matrix(0.2862 -0.9582 0.9582 0.2862 -1.9604 36.3765)" class="st1" cx="23.4" cy="19.5" rx="0.9" ry="0.6"/>
	<path class="st3" d="M18.4,18.1c0,0-0.4,0.5-0.3,0.7c0.1,0.1,0.6,0.2,0.7,0.2c0.1,0,0.1,0,0.1-0.1c0.1-0.1,0.3-0.3,0.4-0.3
		c0.2-0.4,0.1-0.7,0.1-0.7l-0.7-1L18.4,18.1z"/>
	<path class="st1" d="M20.4,8.1c0,0-1.2,0.8-1.9,1.8c-0.7,1-0.8,1.5-0.8,1.5l1.2,1.3l2.5-3.3L20.4,8.1z"/>
	<ellipse transform="matrix(0.727 -0.6867 0.6867 0.727 -0.2848 16.8002)" class="st2" cx="21" cy="8.8" rx="0.6" ry="0.9"/>
	<ellipse transform="matrix(0.727 -0.6867 0.6867 0.727 -3.2698 15.8892)" class="st1" cx="18.3" cy="12.1" rx="0.6" ry="0.9"/>
	<path class="st3" d="M22.1,8.4c0,0-0.3-0.6-0.5-0.6c-0.1,0.1-0.4,0.4-0.6,0.5c0,0,0,0.1,0,0.2c0.1,0.1,0.1,0.4,0.1,0.4
		c0.2,0.3,0.6,0.5,0.6,0.5l1.2-0.1L22.1,8.4z"/>
	<path class="st1" d="M25.7,20.5c0,0,1.2-0.8,1.9-1.8c0.6-1,0.8-1.5,0.8-1.5l-1.2-1.3l-2.5,3.3L25.7,20.5z"/>
	<ellipse transform="matrix(0.727 -0.6867 0.6867 0.727 -6.7732 22.6647)" class="st2" cx="25.1" cy="19.8" rx="0.6" ry="0.9"/>
	<ellipse transform="matrix(0.727 -0.6867 0.6867 0.727 -3.7882 23.5758)" class="st1" cx="27.8" cy="16.6" rx="0.6" ry="0.9"/>
	<path class="st3" d="M24,20.2c0,0,0.3,0.6,0.5,0.6c0.1-0.1,0.4-0.4,0.6-0.5c0,0,0-0.1,0-0.2C25,20,25,19.7,25,19.7
		c-0.2-0.3-0.6-0.5-0.6-0.5l-1.2,0.1L24,20.2z"/>
	<ellipse transform="matrix(0.9729 -0.2312 0.2312 0.9729 -2.6154 4.3374)" class="st2" cx="17.2" cy="13.3" rx="0.9" ry="0.6"/>
	<path class="st3" d="M17.5,12.2c0,0-0.6-0.1-0.8,0.1c0,0.2,0.1,0.6,0.1,0.7c0,0.1,0.1,0.1,0.1,0.1c0.1,0,0.4,0.1,0.4,0.1
		c0.4,0,0.7-0.3,0.7-0.3l0.5-1.1L17.5,12.2z"/>
	<ellipse transform="matrix(0.9729 -0.2312 0.2312 0.9729 -2.7545 7.0859)" class="st2" cx="28.9" cy="15.3" rx="0.9" ry="0.6"/>
	<path class="st3" d="M28.6,16.4c0,0,0.6,0.1,0.8-0.1c0-0.2-0.1-0.6-0.1-0.7c0-0.1-0.1-0.1-0.1-0.1c-0.1,0-0.4-0.1-0.4-0.1
		c-0.4,0-0.7,0.3-0.7,0.3l-0.5,1.1L28.6,16.4z"/>
	<g>
		<g>
			<path class="st4" d="M23.6,10.4L23,10.1c0,0-0.9,0-1.6,0.3c-0.7,0.3-1.2,0.9-1.2,0.9l-0.7-1.4c0,0,1.2-0.7,1.6-1
				c0.4-0.3,0.5-0.4,0.5-0.4s0-0.3-0.1-0.4c-0.1-0.2,0.2-0.3,0.4-0.3S22.5,8,22.5,8l0.9,0.9c0,0,1.2,0.2,1.7,0.2l-0.9,1.3
				C24.3,10.3,23.8,10.4,23.6,10.4z"/>
			<path class="st5" d="M20.1,11.4l-0.8-1.6l0.1,0c0,0,1.2-0.7,1.6-1c0.3-0.2,0.5-0.3,0.5-0.4c0-0.1,0-0.2-0.1-0.3
				c0-0.1,0-0.2,0-0.2c0.1-0.1,0.3-0.2,0.5-0.2c0.2,0,0.6,0.3,0.7,0.3l0.8,0.8c0.2,0,1.2,0.2,1.7,0.2l0.2,0l-1.1,1.7v-0.2
				c0,0-0.1,0-0.1,0c-0.2,0-0.4,0.1-0.6,0.1l0,0L23,10.2c-0.1,0-0.9,0-1.5,0.3c-0.7,0.2-1.2,0.8-1.2,0.8L20.1,11.4z M19.6,9.9
				l0.6,1.2c0.2-0.2,0.6-0.6,1.2-0.8C22.1,10,23,10,23,10l0,0l0.6,0.3c0.1,0,0.3,0,0.5-0.1c0.1,0,0.1,0,0.2,0L25,9.2
				c-0.6,0-1.5-0.2-1.6-0.2l0,0l-0.9-0.9c-0.1-0.1-0.4-0.3-0.5-0.3c-0.1,0-0.3,0.1-0.3,0.1c0,0,0,0,0,0.1c0.1,0.2,0.1,0.4,0.1,0.5
				l0,0c0,0-0.1,0.2-0.6,0.5C20.8,9.2,19.9,9.8,19.6,9.9z"/>
		</g>
		<g>
			<path class="st4" d="M22.5,18.2l0.6,0.3c0,0,0.9,0,1.6-0.3c0.7-0.3,1.2-0.9,1.2-0.9l0.7,1.4c0,0-1.2,0.7-1.6,1
				c-0.4,0.3-0.5,0.4-0.5,0.4s0,0.3,0.1,0.4c0.1,0.2-0.2,0.3-0.4,0.3s-0.6-0.3-0.6-0.3l-0.9-0.9c0,0-1.2-0.2-1.7-0.2l0.9-1.3
				C21.8,18.3,22.2,18.2,22.5,18.2z"/>
			<path class="st5" d="M24.1,21c-0.2,0-0.6-0.3-0.7-0.3l-0.8-0.8c-0.2,0-1.2-0.2-1.7-0.2l-0.2,0l1-1.5l0.1,0.1c0,0,0.1,0,0.2,0
				c0.2,0,0.4-0.1,0.5-0.1l0,0l0.6,0.3c0.1,0,0.9,0,1.5-0.3c0.7-0.2,1.2-0.8,1.2-0.8l0.1-0.1l0.8,1.6l-0.1,0c0,0-1.2,0.7-1.6,1
				c-0.3,0.2-0.4,0.4-0.5,0.4c0,0.1,0,0.2,0.1,0.3c0,0.1,0,0.2,0,0.2C24.5,20.9,24.3,21,24.1,21z M21.1,19.5c0.6,0,1.5,0.2,1.6,0.2
				l0,0l0.9,0.9c0.1,0.1,0.4,0.3,0.5,0.3c0.1,0,0.3-0.1,0.3-0.1c0,0,0,0,0-0.1c-0.1-0.2-0.1-0.4-0.1-0.5l0,0c0,0,0.1-0.2,0.6-0.5
				c0.4-0.3,1.3-0.8,1.5-0.9l-0.6-1.2c-0.2,0.2-0.6,0.6-1.2,0.8c-0.7,0.3-1.6,0.3-1.6,0.3l0,0l-0.6-0.3c-0.1,0-0.3,0-0.4,0.1
				c-0.1,0-0.1,0-0.2,0L21.1,19.5z"/>
		</g>
		<g>
			<path class="st4" d="M26.1,16.7l0.5-0.4c0,0,0.4-0.7,0.6-1.5c0.1-0.8-0.1-1.5-0.1-1.5l1.5,0.1c0,0,0,1.3,0,1.9s0.1,0.7,0.1,0.7
				s0.2,0.1,0.4,0.1c0.2,0,0.2,0.3,0.1,0.5c-0.1,0.2-0.6,0.4-0.6,0.4l-1.2,0.3c0,0-0.8,0.9-1,1.4l-0.7-1.4
				C25.9,17.4,26,16.9,26.1,16.7z"/>
			<path class="st5" d="M26.6,19l-1-2l0.3,0.3c0,0,0,0,0,0c0-0.2,0.1-0.4,0.2-0.5l0,0l0.5-0.4c0.1-0.1,0.4-0.8,0.6-1.5
				c0.1-0.7-0.1-1.4-0.1-1.4L27,13.3l1.7,0.1l0,0.1c0,0,0,1.3,0,1.9c0,0.5,0.1,0.6,0.1,0.6c0,0,0.2,0.1,0.3,0.1c0.1,0,0.2,0,0.2,0.1
				c0.1,0.1,0,0.4-0.1,0.5c-0.1,0.2-0.6,0.4-0.6,0.4l-1.1,0.3c-0.1,0.1-0.8,0.9-1,1.4L26.6,19z M26,17.4l0.6,1.2
				c0.3-0.5,0.9-1.2,1-1.3l0,0l1.2-0.3c0.1,0,0.4-0.2,0.5-0.3c0.1-0.1,0.1-0.3,0.1-0.4c0,0,0,0-0.1,0c-0.2,0-0.4-0.1-0.4-0.1
				c0,0-0.2-0.2-0.2-0.7c0-0.4,0-1.5,0-1.8l-1.3-0.1c0.1,0.2,0.2,0.8,0.1,1.4c-0.1,0.8-0.6,1.5-0.6,1.6l0,0l-0.5,0.4
				c-0.1,0.1-0.1,0.3-0.2,0.4C26,17.3,26,17.4,26,17.4z"/>
		</g>
		<g>
			<path class="st4" d="M18.5,11.2c0,0,0.8-0.9,1-1.4l0.7,1.4c0,0-0.1,0.5-0.2,0.7l-0.5,0.4c0,0-0.4,0.7-0.6,1.5
				c-0.1,0.8,0.1,1.5,0.1,1.5l-1.5-0.1c0,0,0-1.3,0-1.9s-0.1-0.7-0.1-0.7s-0.2-0.1-0.4-0.1c-0.2,0-0.2-0.3-0.1-0.5
				c0.1-0.2,0.6-0.4,0.6-0.4L18.5,11.2z"/>
			<path class="st5" d="M19.1,15.4l-1.7-0.1l0-0.1c0,0,0-1.3,0-1.9c0-0.5-0.1-0.6-0.1-0.6c0,0-0.2-0.1-0.3-0.1c-0.1,0-0.2,0-0.2-0.1
				c-0.1-0.1,0-0.4,0.1-0.5c0.1-0.2,0.6-0.4,0.6-0.4l1.1-0.4c0.1-0.1,0.8-0.9,1-1.4l0.1-0.2l0.8,1.6l0,0c0,0-0.1,0.5-0.2,0.7l0,0
				l-0.5,0.4c-0.1,0.1-0.4,0.8-0.6,1.5c-0.1,0.7,0.1,1.4,0.1,1.4L19.1,15.4z M17.5,15.1l1.3,0.1c-0.1-0.2-0.2-0.8-0.1-1.4
				c0.1-0.8,0.6-1.5,0.6-1.6l0,0l0.5-0.4c0.1-0.1,0.2-0.4,0.2-0.6L19.5,10c-0.3,0.5-0.9,1.2-1,1.3l0,0l-1.1,0.4
				c-0.1,0-0.4,0.2-0.5,0.3c-0.1,0.1-0.1,0.3-0.1,0.4c0,0,0,0,0.1,0c0.2,0,0.4,0.1,0.4,0.1c0,0,0.2,0.2,0.2,0.7
				C17.5,13.7,17.5,14.8,17.5,15.1z"/>
		</g>
		<g>
			<path class="st4" d="M19.4,15.8l0.1,0.6c0,0,0.4,0.7,1,1.3c0.6,0.5,1.3,0.6,1.3,0.6l-0.9,1.3c0,0-1.2-0.6-1.6-0.9
				c-0.4-0.3-0.7-0.2-0.7-0.2s-0.2,0.1-0.3,0.3c-0.1,0.2-0.4,0-0.5-0.2c-0.1-0.2,0-0.7,0-0.7l0.3-1.2c0,0-0.4-1.2-0.7-1.6l1.5,0.1
				C18.9,15.3,19.3,15.6,19.4,15.8z"/>
			<path class="st5" d="M21,19.7L21,19.7c-0.1,0-1.2-0.7-1.7-0.9c-0.3-0.2-0.5-0.2-0.6-0.2c0,0,0,0,0,0c-0.1,0-0.2,0.1-0.3,0.2
				c0,0.1-0.1,0.1-0.2,0.1c-0.2,0-0.4-0.1-0.5-0.3c-0.1-0.2-0.1-0.7-0.1-0.7l0.3-1.1c-0.1-0.2-0.4-1.2-0.7-1.5L17.2,15l1.7,0.1l0,0
				c0.2,0.2,0.4,0.4,0.5,0.6l0,0l0.1,0.6c0.1,0.1,0.4,0.8,1,1.2c0.6,0.5,1.3,0.6,1.3,0.6l0.1,0L21,19.7z M18.7,18.4
				c0.1,0,0.3,0,0.7,0.2c0.4,0.2,1.3,0.7,1.6,0.8l0.7-1.1c-0.2-0.1-0.8-0.2-1.2-0.6c-0.6-0.5-1-1.3-1-1.3l0,0l-0.1-0.6
				c0-0.1-0.1-0.2-0.4-0.5l0,0l-1.3-0.1c0.3,0.5,0.6,1.4,0.6,1.5l0,0l-0.3,1.2c0,0.2,0,0.5,0,0.6c0.1,0.1,0.2,0.2,0.3,0.2
				c0,0,0,0,0,0C18.4,18.5,18.6,18.4,18.7,18.4L18.7,18.4C18.6,18.4,18.7,18.4,18.7,18.4z"/>
		</g>
		<g>
			<path class="st4" d="M26.7,12.8l-0.1-0.6c0,0-0.4-0.7-1-1.3c-0.6-0.5-1.3-0.6-1.3-0.6l0.9-1.3c0,0,1.2,0.6,1.6,0.9
				c0.4,0.3,0.7,0.2,0.7,0.2s0.2-0.1,0.3-0.3c0.1-0.2,0.4,0,0.5,0.2c0.1,0.2,0,0.7,0,0.7L28,11.9c0,0,0.4,1.2,0.7,1.6l-1.5-0.1
				C27.1,13.4,26.8,13,26.7,12.8z"/>
			<path class="st5" d="M28.9,13.6l-1.7-0.1l0,0c-0.2-0.2-0.4-0.4-0.5-0.6l0,0l-0.1-0.6c-0.1-0.1-0.4-0.8-1-1.2
				c-0.6-0.5-1.3-0.6-1.3-0.6l-0.1,0l1-1.5l0.1,0c0,0,1.2,0.6,1.6,0.9c0.3,0.2,0.5,0.2,0.6,0.2l0,0c0.1-0.1,0.2-0.2,0.3-0.2
				c0-0.1,0.1-0.1,0.2-0.1c0.2,0,0.4,0.1,0.5,0.3c0.1,0.2,0.1,0.7,0.1,0.7l-0.3,1.1c0.1,0.2,0.4,1.2,0.7,1.6L28.9,13.6z M27.2,13.3
				l1.3,0.1c-0.3-0.5-0.6-1.4-0.6-1.5l0,0l0.3-1.2c0-0.2,0-0.5,0-0.6c-0.1-0.1-0.2-0.2-0.3-0.2c0,0,0,0,0,0
				c-0.1,0.1-0.3,0.3-0.3,0.3l0,0c0,0-0.3,0-0.7-0.2c-0.4-0.2-1.3-0.7-1.6-0.8l-0.7,1.1c0.2,0.1,0.8,0.2,1.2,0.6
				c0.6,0.5,1,1.3,1,1.3l0,0l0.1,0.6C26.8,12.9,26.9,13,27.2,13.3L27.2,13.3z"/>
		</g>
	</g>
	<g>
		<g>
			<path class="st2" d="M21.1,12.5l0.5-0.4l-0.1-0.5c0.6-0.4,1.4-0.5,2.1-0.4l0.1,0.5l0.6,0.2l0.4-0.3c0.3,0.2,0.6,0.4,0.8,0.7
				c0.3,0.3,0.4,0.6,0.6,0.9l-0.4,0.3l0.1,0.6l0.5,0.2c0,0.7-0.3,1.4-0.7,2l-0.5-0.2l-0.5,0.4l0.1,0.5c-0.6,0.4-1.4,0.5-2.1,0.4
				l-0.1-0.5l-0.6-0.2L21.5,17c-0.3-0.2-0.6-0.4-0.8-0.7c-0.3-0.3-0.4-0.6-0.6-0.9l0.4-0.3l-0.1-0.6l-0.5-0.2c0-0.7,0.3-1.4,0.7-2
				L21.1,12.5z"/>
		</g>
	</g>
	<g>
		<g>
			<path class="st4" d="M23.1,14.2l0-0.2l1.4-2.5c0,0,0.1,0,0.1,0L23.1,14.2L23.1,14.2z"/>
			<path class="st4" d="M23,14.4l0,0.2l-1.4,2.5c0,0-0.1,0-0.1,0L23,14.4L23,14.4z"/>
			<path class="st4" d="M23.1,14.4l0.1,0.1l1.4,2.5c0,0-0.1,0-0.1,0L23.1,14.4L23.1,14.4z"/>
			<path class="st4" d="M23,14.2l-0.1-0.1l-1.4-2.5c0,0,0.1,0,0.1,0L23,14.2L23,14.2z"/>
			<path class="st4" d="M23.1,14.3l0.2-0.1h2.9c0,0,0,0.1,0,0.1L23.1,14.3L23.1,14.3z"/>
			<path class="st4" d="M22.9,14.3L22.9,14.3l-0.1,0.1h-2.9c0,0,0-0.1,0-0.1H22.9z"/>
			<path class="st4" d="M23,14.2L23,14.2l0.5-3c0,0,0.1,0,0.1,0L23.1,14L23,14.2z"/>
			<path class="st4" d="M23,14.4L23,14.4l-0.5,3c0,0-0.1,0-0.1,0l0.5-2.8L23,14.4z"/>
			<polygon class="st4" points="23,14.4 22.9,14.6 23,14.4 23,14.4 			"/>
			<polygon class="st4" points="23,14.2 23.1,14 23.1,14.2 23.1,14.3 			"/>
			<polygon class="st4" points="23,14.2 23,14.1 23,14.2 23,14.2 			"/>
			<polygon class="st4" points="23.1,14.4 23.1,14.5 23,14.4 			"/>
			<polygon class="st4" points="23.1,14.3 23,14.2 23,14.2 			"/>
			<polygon class="st4" points="23,14.4 23.1,14.4 23,14.4 			"/>
			<path class="st4" d="M23,14.3L23,14.3l-2.3-1.9c0,0,0,0,0.1-0.1l2.2,1.8L23,14.3z"/>
			<path class="st4" d="M23.1,14.4L23.1,14.4l2.3,1.9c0,0,0,0-0.1,0.1l-2.2-1.8L23.1,14.4z"/>
			<polygon class="st4" points="23,14.3 22.8,14.1 23,14.2 23,14.3 			"/>
			<polygon class="st4" points="23.1,14.4 23.2,14.6 23.1,14.4 23.1,14.4 			"/>
			<polygon class="st4" points="23.1,14.3 23.2,14.4 23.1,14.4 23.1,14.3 			"/>
			<polygon class="st4" points="23,14.3 22.9,14.3 22.9,14.3 23,14.3 			"/>
			<polygon class="st4" points="23,14.3 23,14.3 23,14.3 			"/>
			<polygon class="st4" points="23.1,14.3 23.1,14.3 23.1,14.4 23.1,14.4 			"/>
			<polygon class="st4" points="23.1,14.4 23.1,14.4 23.1,14.4 23.1,14.4 			"/>
			<polygon class="st4" points="23,14.3 23,14.3 23,14.2 23,14.2 			"/>
			<polygon class="st4" points="23.1,14.4 23.1,14.4 23,14.4 			"/>
			<polygon class="st4" points="23,14.3 23,14.2 23.1,14.3 23,14.3 			"/>
			<polygon class="st4" points="23.1,14.3 23.1,14.4 23.1,14.4 23.1,14.4 			"/>
			<polygon class="st4" points="23,14.3 23,14.3 23,14.3 			"/>
			<path class="st4" d="M23.1,14.4L23.1,14.4L23.1,14.4z"/>
			<polygon class="st4" points="23,14.3 23,14.3 23,14.3 			"/>
			<path class="st4" d="M23.1,14.3L23.1,14.3l2.9-1.1c0,0,0,0.1,0,0.1l-2.7,1H23.1z"/>
			<path class="st4" d="M23,14.4L23,14.4l-2.9,1.1c0,0,0-0.1,0-0.1l2.7-1H23z"/>
			<polygon class="st4" points="23,14.4 22.9,14.4 23,14.4 23,14.4 			"/>
			<polygon class="st4" points="23.1,14.2 23.2,14.2 23.1,14.3 23.1,14.3 			"/>
			<polygon class="st4" points="23.1,14.3 23.3,14.3 23.1,14.3 23.1,14.3 			"/>
			<polygon class="st4" points="23,14.4 22.7,14.4 22.9,14.3 23,14.3 			"/>
			<polygon class="st4" points="23.1,14.3 23.1,14.3 23.1,14.3 			"/>
			<polygon class="st4" points="23,14.3 23,14.4 23,14.4 23,14.3 			"/>
			<polygon class="st4" points="23,14.4 23,14.4 23,14.4 			"/>
			<polygon class="st4" points="23.1,14.3 23.1,14.3 23.1,14.2 23.1,14.3 			"/>
			<polygon class="st4" points="23.1,14.3 23.1,14.3 23.1,14.3 			"/>
			<polygon class="st4" points="23,14.4 23,14.4 23,14.4 			"/>
			<polygon class="st4" points="23.1,14.3 23.1,14.3 23.1,14.3 			"/>
			<polygon class="st4" points="23,14.4 23,14.4 23,14.3 23,14.3 			"/>
			<path class="st4" d="M23.1,14.3L23.1,14.3L23.1,14.3z"/>
			<polygon class="st4" points="23,14.4 23,14.4 23,14.3 			"/>
			<polygon class="st4" points="23.1,14.3 23.1,14.3 23.1,14.3 23.1,14.3 			"/>
			<polygon class="st4" points="23,14.3 23,14.3 22.9,14.3 23,14.3 			"/>
			<polygon class="st4" points="23,14.3 23,14.3 23,14.3 			"/>
			<polygon class="st4" points="23.1,14.3 23.1,14.3 23.1,14.3 			"/>
			<polygon class="st4" points="23,14.3 23,14.3 23,14.3 23,14.3 			"/>
			<polygon class="st4" points="23.1,14.3 23.1,14.3 23.1,14.3 23.1,14.3 			"/>
			<polygon class="st4" points="23.1,14.3 23.1,14.3 23.1,14.3 			"/>
			<polygon class="st4" points="23,14.3 23,14.3 23,14.3 			"/>
			<polygon class="st4" points="23,14.3 23.1,14.3 23.1,14.3 			"/>
			<polygon class="st4" points="23.1,14.4 23,14.4 23,14.4 			"/>
			<polygon class="st4" points="23.1,14.3 23.1,14.3 23.1,14.3 			"/>
			<path class="st4" d="M23,14.3L23,14.3L23,14.3z"/>
			<polygon class="st4" points="23.1,14.3 23.1,14.3 23.1,14.4 			"/>
			<polygon class="st4" points="23,14.3 23,14.3 23,14.3 			"/>
			<polygon class="st4" points="23,14.3 23.1,14.3 23.1,14.3 23.1,14.3 23.1,14.3 23.1,14.4 23.1,14.4 23,14.4 23,14.3 23,14.3 
				23,14.3 23,14.3 			"/>
		</g>
	</g>
	<g>
		<path class="st4" d="M20,15.4L20,15.4l0.4-0.4l-0.1-0.5l-0.5-0.2v-0.1c0-0.7,0.3-1.5,0.7-2.1l0,0l0.5,0.2l0.4-0.3l-0.1-0.5l0,0
			c0.6-0.4,1.4-0.5,2.2-0.4h0.1l0.1,0.5l0.5,0.2l0.4-0.3l0,0c0.3,0.2,0.6,0.4,0.9,0.7c0.3,0.3,0.4,0.6,0.6,1l0,0.1l-0.4,0.3l0.1,0.5
			l0.5,0.2v0.1c0,0.7-0.3,1.5-0.7,2.1l0,0L25,16.3l-0.4,0.3l0.1,0.5l0,0c-0.6,0.4-1.4,0.5-2.2,0.4h-0.1L22.3,17l-0.5-0.2l-0.4,0.3
			l0,0c-0.3-0.2-0.6-0.4-0.9-0.7C20.3,16.1,20.1,15.8,20,15.4z M21.8,16.6l0.7,0.3l0.1,0.5c0.7,0.1,1.3,0,1.9-0.3l-0.1-0.5L25,16
			l0.4,0.1c0.4-0.5,0.6-1.2,0.7-1.9l-0.4-0.1l-0.1-0.7l0.4-0.3c-0.1-0.3-0.3-0.6-0.5-0.9c-0.2-0.3-0.5-0.5-0.7-0.6L24.3,12l-0.7-0.3
			l-0.1-0.5c-0.7-0.1-1.3,0-1.9,0.3l0.1,0.5l-0.6,0.5l-0.4-0.1c-0.4,0.5-0.6,1.2-0.7,1.9l0.4,0.1l0.1,0.7l-0.4,0.3
			c0.1,0.3,0.3,0.6,0.5,0.9c0.2,0.3,0.5,0.5,0.7,0.6L21.8,16.6z"/>
	</g>
	<circle cx="23" cy="14.3" r="1"/>
	<g>
		<path class="st4" d="M22.4,13.5c0.4-0.4,1.1-0.3,1.4,0.1c0.4,0.4,0.3,1.1-0.1,1.4c-0.4,0.4-1.1,0.3-1.4-0.1
			C21.9,14.6,21.9,13.9,22.4,13.5z M22.5,13.6c-0.4,0.3-0.4,0.9-0.1,1.3s0.9,0.4,1.3,0.1c0.4-0.3,0.4-0.9,0.1-1.3
			C23.4,13.3,22.8,13.3,22.5,13.6z"/>
	</g>
</g>
</svg>
